%FSTAX24Y24*%
%MOIN*%
%SFA1B1*%

%IPPOS*%
%ADD20C,0.010000*%
%LNpcb-1*%
%LPD*%
G36*
X034093Y01886D02*
X03398D01*
X03379Y01867*
X0336*
X03348Y01855*
X03319*
X033095Y018455*
X032325*
X03224Y01854*
X03193*
X03179Y01868*
X0316*
X03144Y01884*
X031327*
X03113Y019037*
X03427*
X034093Y01886*
G37*
G36*
X04104Y025543D02*
Y02543D01*
X04123Y02524*
Y02505*
X04135Y02493*
Y02464*
X041445Y024545*
Y023775*
X04136Y02369*
Y02338*
X04122Y02324*
Y02305*
X04106Y02289*
Y022777*
X040863Y02258*
Y02572*
X04104Y025543*
G37*
G54D20*
X03274Y02745D02*
D01*
X032739Y027453*
X032739Y027456*
X032738Y02746*
X032738Y027463*
X032736Y027467*
X032735Y02747*
X032734Y027473*
X032732Y027476*
X03273Y027479*
X032728Y027482*
X032725Y027484*
X032723Y027487*
X03272Y027489*
X032717Y027491*
X032715Y027493*
X032711Y027494*
X032708Y027496*
X032705Y027497*
X032702Y027498*
X032698Y027499*
X032695Y027499*
X032691Y027499*
X032688*
X032684Y027499*
X032681Y027499*
X032677Y027498*
X032674Y027497*
X032671Y027496*
X032668Y027494*
X032665Y027493*
X032662Y027491*
X032659Y027489*
X032656Y027487*
X032654Y027484*
X032651Y027482*
X032649Y027479*
X032647Y027476*
X032645Y027473*
X032644Y02747*
X032643Y027467*
X032641Y027463*
X032641Y02746*
X03264Y027456*
X03264Y027453*
X03264Y02745*
X03264Y027446*
X03264Y027443*
X032641Y027439*
X032641Y027436*
X032643Y027432*
X032644Y027429*
X032645Y027426*
X032647Y027423*
X032649Y02742*
X032651Y027417*
X032654Y027415*
X032656Y027412*
X032659Y02741*
X032662Y027408*
X032665Y027406*
X032668Y027405*
X032671Y027403*
X032674Y027402*
X032677Y027401*
X032681Y0274*
X032684Y0274*
X032688Y0274*
X032691*
X032695Y0274*
X032698Y0274*
X032702Y027401*
X032705Y027402*
X032708Y027403*
X032711Y027405*
X032715Y027406*
X032717Y027408*
X03272Y02741*
X032723Y027412*
X032725Y027415*
X032728Y027417*
X03273Y02742*
X032732Y027423*
X032734Y027426*
X032735Y027429*
X032736Y027432*
X032738Y027436*
X032738Y027439*
X032739Y027443*
X032739Y027446*
X03274Y02745*
X040446Y037372D02*
D01*
X040406Y037429*
X040362Y037484*
X040315Y037536*
X040264Y037584*
X040209Y037628*
X040152Y037669*
X040097Y037703*
X039103D02*
D01*
X039043Y037666*
X038986Y037625*
X038932Y03758*
X038881Y037532*
X038834Y03748*
X038791Y037425*
X038754Y037372*
Y03629D02*
D01*
X038793Y036232*
X038837Y036177*
X038884Y036125*
X038935Y036077*
X03899Y036033*
X039047Y035992*
X039107Y035956*
X039169Y035923*
X039171Y035923*
X040029D02*
D01*
X040091Y035955*
X040151Y035991*
X040208Y036032*
X040262Y036076*
X040313Y036124*
X040361Y036175*
X040405Y03623*
X040444Y036288*
X040446Y03629*
X036997Y039453D02*
D01*
X036966Y03942*
X036938Y039385*
X036912Y039348*
X036889Y03931*
X036869Y03927*
X036851Y039229*
X036837Y039187*
X036825Y039144*
X036817Y0391*
X036811Y039055*
X036809Y039011*
X03681Y038966*
X036814Y038921*
X036821Y038877*
X036831Y038834*
X036844Y038791*
X03686Y038749*
X036879Y038709*
X0369Y03867*
X036925Y038632*
X036952Y038596*
X036981Y038563*
X036997Y038547*
X037903D02*
D01*
X037933Y038579*
X037961Y038614*
X037987Y038651*
X03801Y038689*
X03803Y038729*
X038048Y03877*
X038062Y038812*
X038074Y038855*
X038082Y038899*
X038088Y038944*
X03809Y038988*
X038089Y039033*
X038085Y039078*
X038078Y039122*
X038068Y039165*
X038055Y039208*
X038039Y03925*
X03802Y03929*
X037999Y039329*
X037974Y039367*
X037947Y039403*
X037918Y039436*
X037903Y039453*
X035161Y020916D02*
D01*
X035155Y021087*
X035137Y021258*
X035107Y021427*
X035065Y021594*
X035012Y021757*
X034948Y021916*
X034872Y022071*
X034787Y02222*
X03469Y022362*
X034585Y022497*
X03447Y022625*
X034346Y022744*
X034215Y022855*
X034076Y022956*
X03393Y023047*
X033778Y023127*
X033621Y023197*
X03346Y023256*
X033295Y023303*
X033127Y023339*
X032957Y023363*
X032785Y023375*
X032614*
X032442Y023363*
X032272Y023339*
X032104Y023303*
X031939Y023256*
X031778Y023197*
X031621Y023127*
X031469Y023047*
X031323Y022956*
X031184Y022855*
X031053Y022744*
X030929Y022625*
X030814Y022497*
X030709Y022362*
X030612Y02222*
X030527Y022071*
X030451Y021916*
X030387Y021757*
X030334Y021594*
X030292Y021427*
X030262Y021258*
X030244Y021087*
X030239Y020916*
X030244Y020744*
X030262Y020573*
X030292Y020404*
X030334Y020237*
X030387Y020074*
X030451Y019915*
X030527Y01976*
X030612Y019611*
X030709Y019469*
X030814Y019334*
X030929Y019206*
X031053Y019087*
X031184Y018976*
X031323Y018875*
X031469Y018784*
X031621Y018704*
X031778Y018634*
X031939Y018575*
X032104Y018528*
X032272Y018492*
X032442Y018468*
X032614Y018456*
X032785*
X032957Y018468*
X033127Y018492*
X033295Y018528*
X03346Y018575*
X033621Y018634*
X033778Y018704*
X03393Y018784*
X034076Y018875*
X034215Y018976*
X034346Y019087*
X03447Y019206*
X034585Y019334*
X03469Y019469*
X034787Y019611*
X034872Y01976*
X034948Y019915*
X035012Y020074*
X035065Y020237*
X035107Y020404*
X035137Y020573*
X035155Y020744*
X035161Y020916*
X041445Y02415D02*
D01*
X041439Y024321*
X041421Y024492*
X041391Y024661*
X041349Y024828*
X041296Y024991*
X041232Y02515*
X041156Y025305*
X041071Y025454*
X040974Y025596*
X040869Y025731*
X040754Y025859*
X04063Y025978*
X040499Y026089*
X04036Y02619*
X040214Y026281*
X040062Y026361*
X039905Y026431*
X039744Y02649*
X039579Y026537*
X039411Y026573*
X039241Y026597*
X039069Y026609*
X038898*
X038726Y026597*
X038556Y026573*
X038388Y026537*
X038223Y02649*
X038062Y026431*
X037905Y026361*
X037753Y026281*
X037607Y02619*
X037468Y026089*
X037337Y025978*
X037213Y025859*
X037098Y025731*
X036993Y025596*
X036896Y025454*
X036811Y025305*
X036735Y02515*
X036671Y024991*
X036618Y024828*
X036576Y024661*
X036546Y024492*
X036528Y024321*
X036523Y02415*
X036528Y023978*
X036546Y023807*
X036576Y023638*
X036618Y023471*
X036671Y023308*
X036735Y023149*
X036811Y022994*
X036896Y022845*
X036993Y022703*
X037098Y022568*
X037213Y02244*
X037337Y022321*
X037468Y02221*
X037607Y022109*
X037753Y022018*
X037905Y021938*
X038062Y021868*
X038223Y021809*
X038388Y021762*
X038556Y021726*
X038726Y021702*
X038898Y02169*
X039069*
X039241Y021702*
X039411Y021726*
X039579Y021762*
X039744Y021809*
X039905Y021868*
X040062Y021938*
X040214Y022018*
X04036Y022109*
X040499Y02221*
X04063Y022321*
X040754Y02244*
X040869Y022568*
X040974Y022703*
X041071Y022845*
X041156Y022994*
X041232Y023149*
X041296Y023308*
X041349Y023471*
X041391Y023638*
X041421Y023807*
X041439Y023978*
X041445Y02415*
X02948Y02175D02*
X02978D01*
X02948Y02075D02*
Y02175D01*
Y02075D02*
X02978D01*
Y02025D02*
Y02225D01*
X02748D02*
X02978D01*
X02748Y02025D02*
Y02225D01*
Y02025D02*
X02978D01*
X03665Y032747D02*
Y032787D01*
X03725Y032747D02*
Y032787D01*
X024228Y022244D02*
X026078D01*
X024228Y026456D02*
X026078D01*
Y022244D02*
Y026456D01*
X024228Y022244D02*
Y026456D01*
X024425Y022244D02*
Y026456D01*
X024228Y02435D02*
X024425D01*
X0387Y04055D02*
Y04155D01*
X0347D02*
X0387D01*
X0347Y04055D02*
X0387D01*
X0347D02*
Y04155D01*
X03508Y026253D02*
Y0277D01*
X03244Y026253D02*
Y0277D01*
X03508*
X03244Y026253D02*
X03508D01*
X0353Y0229D02*
X0355Y0227D01*
X0351D02*
X0355D01*
X0351D02*
X0353Y0229D01*
X0351D02*
X0355D01*
X024128Y037844D02*
X025978D01*
X024128Y042056D02*
X025978D01*
Y037844D02*
Y042056D01*
X024128Y037844D02*
Y042056D01*
X024325Y037844D02*
Y042056D01*
X024128Y03995D02*
X024325D01*
X024128Y030144D02*
X025978D01*
X024128Y034356D02*
X025978D01*
Y030144D02*
Y034356D01*
X024128Y030144D02*
Y034356D01*
X024325Y030144D02*
Y034356D01*
X024128Y03225D02*
X024325D01*
X040446Y03629D02*
Y037372D01*
X038754Y03629D02*
Y037372D01*
X03795Y04255D02*
Y04355D01*
X03395D02*
X03795D01*
X03395Y04255D02*
X03795D01*
X03395D02*
Y04355D01*
X0364Y0316D02*
Y04305D01*
X03045D02*
X0364D01*
X03045Y0316D02*
Y04305D01*
Y0316D02*
X0364D01*
X028858Y0353D02*
X029842D01*
Y0393*
X028858D02*
X029842D01*
X028858Y0353D02*
Y0393D01*
X03265Y0435D02*
X03365D01*
X03265Y0415D02*
Y0435D01*
Y0415D02*
X03365D01*
Y0435*
X033313Y02975D02*
X033353D01*
X033313Y02915D02*
X033353D01*
X031463Y02975D02*
X031503D01*
X031463Y02915D02*
X031503D01*
X035947Y0286D02*
X035987D01*
X035947Y028D02*
X035987D01*
X03113Y019037D02*
X03427D01*
X033303Y0219D02*
X033703D01*
X033503Y0217D02*
Y0221D01*
Y019732D02*
Y020131D01*
X039769Y02515D02*
X040168D01*
X0378D02*
X0382D01*
X038Y02495D02*
Y02535D01*
X040863Y02258D02*
Y02572D01*
X02845Y04245D02*
Y04345D01*
Y04245D02*
X03245D01*
X02845Y04345D02*
X03245D01*
Y04245D02*
Y04345D01*
X033247Y03085D02*
X033287D01*
X033247Y03025D02*
X033287D01*
X0381Y03265D02*
X0382Y03255D01*
Y03235*
X0381Y03225*
X0377*
X0376Y03235*
Y03255*
X0377Y03265*
X0382Y03325D02*
Y03285D01*
X0379*
X038Y03305*
Y03315*
X0379Y03325*
X0377*
X0376Y03315*
Y03295*
X0377Y03285*
X02563Y02696D02*
Y02736D01*
X02573Y02746*
X02593*
X02603Y02736*
Y02696*
X02593Y02686*
X02573*
X02583Y02706D02*
X02563Y02686D01*
X02573D02*
X02563Y02696D01*
X02543Y02736D02*
X02533Y02746D01*
X02513*
X02503Y02736*
Y02726*
X02513Y02716*
X02523*
X02513*
X02503Y02706*
Y02696*
X02513Y02686*
X02533*
X02543Y02696*
X02706Y02909D02*
Y02849D01*
Y02879*
X02666*
Y02909*
Y02849*
X02606Y02899D02*
X02616Y02909D01*
X02636*
X02646Y02899*
Y02889*
X02636Y02879*
X02616*
X02606Y02869*
Y02859*
X02616Y02849*
X02636*
X02646Y02859*
X02586Y02899D02*
X02576Y02909D01*
X02556*
X025461Y02899*
Y02889*
X02556Y02879*
X02566*
X02556*
X025461Y02869*
Y02859*
X02556Y02849*
X02576*
X02586Y02859*
X0283Y02D02*
Y0194D01*
X0286*
X0287Y0195*
Y0197*
X0286Y0198*
X0283*
X0289Y0195D02*
X029Y0194D01*
X0292*
X0293Y0195*
Y0196*
X0292Y0197*
X0293Y0198*
Y0199*
X0292Y02*
X029*
X0289Y0199*
Y0198*
X029Y0197*
X0289Y0196*
Y0195*
X029Y0197D02*
X0292D01*
X03425Y0273D02*
Y0268D01*
X03415Y0267*
X03395*
X03385Y0268*
Y0273*
X03335Y0267D02*
Y0273D01*
X03365Y027*
X03325*
X0342Y03145D02*
Y03095D01*
X0341Y03085*
X0339*
X0338Y03095*
Y03145*
X0332Y03085D02*
X0336D01*
X0332Y03125*
Y03135*
X0333Y03145*
X0335*
X0336Y03135*
X0305Y0299D02*
X0299D01*
Y0296*
X03Y0295*
X0302*
X0303Y0296*
Y0299*
Y0297D02*
X0305Y0295D01*
X0304Y0293D02*
X0305Y0292D01*
Y029*
X0304Y0289*
X03*
X0299Y029*
Y0292*
X03Y0293*
X0301*
X0302Y0292*
Y0289*
X03425Y02995D02*
Y03055D01*
X03395*
X03385Y03045*
Y03025*
X03395Y03015*
X03425*
X03405D02*
X03385Y02995D01*
X03365Y03045D02*
X03355Y03055D01*
X03335*
X03325Y03045*
Y03035*
X03335Y03025*
X03325Y03015*
Y03005*
X03335Y02995*
X03355*
X03365Y03005*
Y03015*
X03355Y03025*
X03365Y03035*
Y03045*
X03355Y03025D02*
X03335D01*
X0251Y042446D02*
Y042846D01*
X0252Y042946*
X0254*
X0255Y042846*
Y042446*
X0254Y042346*
X0252*
X0253Y042546D02*
X0251Y042346D01*
X0252D02*
X0251Y042446D01*
X0245Y042346D02*
X0249D01*
X0245Y042746*
Y042846*
X0246Y042946*
X0248*
X0249Y042846*
X02365Y0335D02*
X02325D01*
X02315Y0336*
Y0338*
X02325Y0339*
X02365*
X02375Y0338*
Y0336*
X02355Y0337D02*
X02375Y0335D01*
Y0336D02*
X02365Y0335D01*
X02375Y0333D02*
Y0331D01*
Y0332*
X02315*
X02325Y0333*
X0389Y04065D02*
X0395D01*
Y04095*
X0394Y04105*
X0392*
X0391Y04095*
Y04065*
X0395Y04125D02*
Y04165D01*
X0394*
X039Y04125*
X0389*
X0381Y0426D02*
X0387D01*
Y0429*
X0386Y043*
X0384*
X0383Y0429*
Y0426*
X0387Y0436D02*
X0386Y0434D01*
X0384Y0432*
X0382*
X0381Y0433*
Y0435*
X0382Y0436*
X0383*
X0384Y0435*
Y0432*
X0337Y0437D02*
Y0443D01*
X0334*
X0333Y0442*
Y044*
X0334Y0439*
X0337*
X0327Y0443D02*
X0331D01*
Y044*
X0329Y0441*
X0328*
X0327Y044*
Y0438*
X0328Y0437*
X033*
X0331Y0438*
X03065Y04365D02*
Y04425D01*
X03035*
X03025Y04415*
Y04395*
X03035Y04385*
X03065*
X03005Y04415D02*
X02995Y04425D01*
X02975*
X02965Y04415*
Y04405*
X02975Y04395*
X02985*
X02975*
X02965Y04385*
Y04375*
X02975Y04365*
X02995*
X03005Y04375*
X02979Y0397D02*
Y0403D01*
X02949*
X02939Y0402*
Y04*
X02949Y0399*
X02979*
X02919Y0397D02*
X02899D01*
X02909*
Y0403*
X02919Y0402*
X0366Y0218D02*
X036D01*
Y0221*
X0361Y0222*
X0365*
X0366Y0221*
Y0218*
X036Y0224D02*
Y0226D01*
Y0225*
X0366*
X0365Y0224*
X0355Y0192D02*
X0354Y0191D01*
X0352*
X0351Y0192*
Y0196*
X0352Y0197*
X0354*
X0355Y0196*
X0357Y0192D02*
X0358Y0191D01*
X036*
X0361Y0192*
Y0193*
X036Y0194*
X0359*
X036*
X0361Y0195*
Y0196*
X036Y0197*
X0358*
X0357Y0196*
X0346Y0304D02*
X0345Y0303D01*
X0343*
X0342Y0304*
Y0308*
X0343Y0309*
X0345*
X0346Y0308*
X0352Y0309D02*
X0348D01*
X0352Y0305*
Y0304*
X0351Y0303*
X0349*
X0348Y0304*
X03621Y02945D02*
X03631Y02955D01*
X03651*
X03661Y02945*
Y02905*
X03651Y02895*
X03631*
X03621Y02905*
X03601Y02895D02*
X03581D01*
X03591*
Y02955*
X03601Y02945*
X03775Y04025D02*
Y03985D01*
X03815Y04025*
X03825*
X03835Y04015*
Y03995*
X03825Y03985*
X0407Y03695D02*
Y03715D01*
Y03705*
X0413*
X0412Y03695*
X02255Y04375D02*
Y04315D01*
Y04345*
X02215*
Y04375*
Y04315*
X02155Y04365D02*
X02165Y04375D01*
X02185*
X02195Y04365*
Y04355*
X02185Y04345*
X02165*
X02155Y04335*
Y04325*
X02165Y04315*
X02185*
X02195Y04325*
X02135Y04315D02*
X02115D01*
X02125*
Y04375*
X02135Y04365*
X0218Y0357D02*
X0224D01*
X0221*
Y0353*
X0218*
X0224*
X0219Y0347D02*
X0218Y0348D01*
Y035*
X0219Y0351*
X022*
X0221Y035*
Y0348*
X0222Y0347*
X0223*
X0224Y0348*
Y035*
X0223Y0351*
X0224Y034101D02*
Y0345D01*
X022Y034101*
X0219*
X0218Y0342*
Y0344*
X0219Y0345*
X04099Y02746D02*
X04109Y02756D01*
X04129*
X04139Y02746*
Y02706*
X04129Y02696*
X04109*
X04099Y02706*
X04039Y02756D02*
X04059Y02746D01*
X04079Y02726*
Y02706*
X04069Y02696*
X04049*
X04039Y02706*
Y02716*
X04049Y02726*
X04079*
M02*