%FSTAX24Y24*%
%MOIN*%
%SFA1B1*%

%IPPOS*%
%ADD10R,0.059100X0.051200*%
%ADD11O,0.017700X0.098400*%
%ADD12O,0.098400X0.017700*%
%ADD13R,0.098400X0.017700*%
%ADD14R,0.051200X0.059100*%
%ADD15R,0.023600X0.045300*%
%ADD16R,0.045300X0.023600*%
%ADD17C,0.015000*%
%ADD18C,0.020000*%
%ADD19C,0.040000*%
%ADD20C,0.010000*%
%ADD21O,0.078700X0.118100*%
%ADD22C,0.039400*%
%ADD23R,0.059100X0.059100*%
%ADD24C,0.059100*%
%ADD25C,0.031500*%
%ADD26R,0.059100X0.059100*%
%ADD27O,0.100000X0.078700*%
%ADD28R,0.100000X0.078700*%
%ADD29C,0.060000*%
%ADD30R,0.078700X0.078700*%
%ADD31C,0.078700*%
%ADD32C,0.118100*%
%ADD33R,0.118100X0.118100*%
%ADD34C,0.157500*%
%ADD35C,0.027600*%
%LNpcb-1*%
%LPD*%
G36*
X042Y0181D02*
X0212D01*
Y0448*
X042*
Y0181*
G37*
%LNpcb-2*%
%LPC*%
G36*
X02495Y04398D02*
Y0438D01*
X02513*
X025109Y04385*
X025062Y043912*
X025Y043959*
X02495Y04398*
G37*
G36*
X02475D02*
X0247Y043959D01*
X024638Y043912*
X024591Y04385*
X02457Y0438*
X02475*
Y04398*
G37*
G36*
X0278Y04388D02*
Y0437D01*
X02798*
X027959Y04375*
X027912Y043812*
X02785Y043859*
X0278Y04388*
G37*
G36*
X0276D02*
X02755Y043859D01*
X027488Y043812*
X027441Y04375*
X02742Y0437*
X0276*
Y04388*
G37*
G36*
X02513Y0436D02*
X02495D01*
Y04342*
X025Y043441*
X025062Y043488*
X025109Y04355*
X02513Y0436*
G37*
G36*
X02475D02*
X02457D01*
X024591Y04355*
X024638Y043488*
X0247Y043441*
X02475Y04342*
Y0436*
G37*
G36*
X02798Y0435D02*
X0278D01*
Y04332*
X02785Y043341*
X027912Y043388*
X027959Y04345*
X02798Y0435*
G37*
G36*
X0276D02*
X02742D01*
X027441Y04345*
X027488Y043388*
X02755Y043341*
X0276Y04332*
Y0435*
G37*
G36*
X037845Y043445D02*
X03755D01*
Y04315*
X037845*
Y043445*
G37*
G36*
X03735D02*
X037055D01*
Y04315*
X03735*
Y043445*
G37*
G36*
X03305Y043386D02*
X033047Y043385D01*
X032951Y043345*
X032868Y043282*
X032805Y043199*
X032765Y043103*
X032764Y0431*
X03305*
Y043386*
G37*
G36*
X03005Y043336D02*
Y04305D01*
X030336*
X030335Y043053*
X030295Y043149*
X030232Y043232*
X030149Y043295*
X030053Y043335*
X03005Y043336*
G37*
G36*
X02985D02*
X029847Y043335D01*
X029751Y043295*
X029668Y043232*
X029605Y043149*
X029565Y043053*
X029564Y04305*
X02985*
Y043336*
G37*
G36*
X037845Y04295D02*
X03755D01*
Y042655*
X037845*
Y04295*
G37*
G36*
X03735D02*
X037055D01*
Y042655*
X03735*
Y04295*
G37*
G36*
X03305Y0429D02*
X032764D01*
X032765Y042897*
X032805Y042801*
X032868Y042718*
X032951Y042655*
X033047Y042615*
X03305Y042614*
Y0429*
G37*
G36*
X030336Y04285D02*
X03005D01*
Y042564*
X030053Y042565*
X030149Y042605*
X030232Y042668*
X030295Y042751*
X030335Y042847*
X030336Y04285*
G37*
G36*
X02985D02*
X029564D01*
X029565Y042847*
X029605Y042751*
X029668Y042668*
X029751Y042605*
X029847Y042565*
X02985Y042564*
Y04285*
G37*
G36*
X04045Y044342D02*
X040276Y044325D01*
X040109Y044274*
X039955Y044191*
X039819Y044081*
X039709Y043945*
X039626Y043791*
X039575Y043624*
X039558Y04345*
X039575Y043276*
X039626Y043109*
X039709Y042955*
X039819Y042819*
X039955Y042709*
X040109Y042626*
X040276Y042575*
X04045Y042558*
X040624Y042575*
X040791Y042626*
X040945Y042709*
X041081Y042819*
X041191Y042955*
X041274Y043109*
X041325Y043276*
X041342Y04345*
X041325Y043624*
X041274Y043791*
X041191Y043945*
X041081Y044081*
X040945Y044191*
X040791Y044274*
X040624Y044325*
X04045Y044342*
G37*
G36*
X022835D02*
X022661Y044325D01*
X022493Y044274*
X022339Y044191*
X022204Y044081*
X022093Y043945*
X022011Y043791*
X02196Y043624*
X021943Y04345*
X02196Y043276*
X022011Y043109*
X022093Y042955*
X022204Y042819*
X022339Y042709*
X022493Y042626*
X022661Y042575*
X022835Y042558*
X023009Y042575*
X023176Y042626*
X02333Y042709*
X023465Y042819*
X023576Y042955*
X023658Y043109*
X023709Y043276*
X023726Y04345*
X023709Y043624*
X023658Y043791*
X023576Y043945*
X023465Y044081*
X02333Y044191*
X023176Y044274*
X023009Y044325*
X022835Y044342*
G37*
G36*
X04075Y04188D02*
Y0417D01*
X04093*
X040909Y04175*
X040862Y041812*
X0408Y041859*
X04075Y04188*
G37*
G36*
X04055D02*
X0405Y041859D01*
X040438Y041812*
X040391Y04175*
X04037Y0417*
X04055*
Y04188*
G37*
G36*
X02714Y042295D02*
X026428D01*
Y042104*
X02405*
X023972Y042088*
X023906Y042044*
X022204Y040343*
X022147Y040335*
X022051Y040295*
X021968Y040232*
X021905Y040149*
X021865Y040053*
X021851Y03995*
X021865Y039847*
X021905Y039751*
X021968Y039668*
X022051Y039605*
X022147Y039565*
X02225Y039551*
X022353Y039565*
X022449Y039605*
X022532Y039668*
X022595Y039751*
X022635Y039847*
X022649Y03995*
X022635Y040053*
X022595Y040149*
X022592Y040154*
X024134Y041696*
X026428*
Y041505*
X02714*
Y042295*
G37*
G36*
X04093Y0415D02*
X04075D01*
Y04132*
X0408Y041341*
X040862Y041388*
X040909Y04145*
X04093Y0415*
G37*
G36*
X04055D02*
X04037D01*
X040391Y04145*
X040438Y041388*
X0405Y041341*
X04055Y04132*
Y0415*
G37*
G36*
X0353Y041436D02*
Y04115D01*
X035586*
X035585Y041153*
X035545Y041249*
X035482Y041332*
X035399Y041395*
X035303Y041435*
X0353Y041436*
G37*
G36*
X028006Y042295D02*
X027294D01*
Y041505*
X027453*
Y041142*
X027331*
Y041128*
X02585*
Y041444*
X02465*
Y040456*
X024945*
X024955Y040406*
X024895Y040381*
X024792Y040302*
X024712Y040199*
X024663Y040079*
X024646Y03995*
X024663Y039821*
X024712Y039701*
X024792Y039598*
X024895Y039519*
X024995Y039477*
Y039423*
X024895Y039381*
X024792Y039302*
X024712Y039199*
X024663Y039079*
X024659Y03905*
X02525*
X025841*
X025837Y039079*
X025788Y039199*
X025708Y039302*
X025605Y039381*
X025505Y039423*
Y039477*
X025605Y039519*
X025708Y039598*
X025788Y039701*
X025837Y039821*
X025854Y03995*
X025837Y040079*
X025788Y040199*
X025708Y040302*
X025605Y040381*
X025545Y040406*
X025555Y040456*
X02585*
Y04072*
X027331*
Y040706*
X027983*
Y041142*
X027861*
Y041505*
X028006*
Y042295*
G37*
G36*
X035586Y04095D02*
X0353D01*
Y040664*
X035303Y040665*
X035399Y040705*
X035482Y040768*
X035545Y040851*
X035585Y040947*
X035586Y04095*
G37*
G36*
X028869Y040768D02*
X028643D01*
Y04065*
X028869*
Y040768*
G37*
G36*
X028443D02*
X028217D01*
Y04065*
X028443*
Y040768*
G37*
G36*
X028869Y04045D02*
X028643D01*
Y040332*
X028869*
Y04045*
G37*
G36*
X028443D02*
X028217D01*
Y040332*
X028443*
Y04045*
G37*
G36*
X030745Y040022D02*
X03045D01*
Y039766*
X030745*
Y040022*
G37*
G36*
X03025D02*
X029955D01*
Y039766*
X03025*
Y040022*
G37*
G36*
X03755Y039886D02*
Y0396D01*
X037836*
X037835Y039603*
X037795Y039699*
X037732Y039782*
X037649Y039845*
X037553Y039885*
X03755Y039886*
G37*
G36*
X03735D02*
X037347Y039885D01*
X037251Y039845*
X037168Y039782*
X037105Y039699*
X037065Y039603*
X037064Y0396*
X03735*
Y039886*
G37*
G36*
X027983Y040394D02*
X027331D01*
Y039958*
X027446*
Y039772*
X027255*
Y039595*
X026945*
Y039772*
X026155*
Y03906*
X026945*
Y039238*
X027255*
Y03906*
X028045*
Y039772*
X027854*
Y039958*
X027983*
Y040394*
G37*
G36*
X023645Y040345D02*
X022855D01*
Y039555*
X023645*
Y040345*
G37*
G36*
X030745Y039566D02*
X03045D01*
Y03931*
X030745*
Y039566*
G37*
G36*
X03025D02*
X029955D01*
Y03931*
X03025*
Y039566*
G37*
G36*
X037836Y0394D02*
X03755D01*
Y039114*
X037553Y039115*
X037649Y039155*
X037732Y039218*
X037795Y039301*
X037835Y039397*
X037836Y0394*
G37*
G36*
X03735D02*
X037064D01*
X037065Y039397*
X037105Y039301*
X037168Y039218*
X037251Y039155*
X037347Y039115*
X03735Y039114*
Y0394*
G37*
G36*
X0358Y044054D02*
X02985D01*
X029772Y044038*
X029706Y043994*
X029057Y043345*
X028555*
Y042555*
X029345*
Y043057*
X029934Y043646*
X033596*
Y043023*
X033546Y04302*
X033545Y043029*
X033535Y043103*
X033495Y043199*
X033432Y043282*
X033349Y043345*
X033253Y043385*
X03325Y043386*
Y043*
Y042614*
X033253Y042615*
X033349Y042655*
X033432Y042718*
X033495Y042801*
X033535Y042897*
X033545Y042971*
X033546Y04298*
X033596Y042977*
Y041456*
X033405*
Y040744*
X034172*
X034195*
X034222Y040705*
Y040629*
X034195Y04059*
X033463*
X033328Y040724*
Y041605*
X033545*
Y042395*
X032755*
Y041605*
X032972*
Y04065*
X032985Y040582*
X033003Y040556*
X032964Y040524*
X032128Y041359*
Y042596*
X032149Y042605*
X032232Y042668*
X032295Y042751*
X032335Y042847*
X032349Y04295*
X032335Y043053*
X032295Y043149*
X032232Y043232*
X032149Y043295*
X032053Y043335*
X03195Y043349*
X031847Y043335*
X031751Y043295*
X031668Y043232*
X031605Y043149*
X031565Y043053*
X031551Y04295*
X031565Y042847*
X031605Y042751*
X031668Y042668*
X031751Y042605*
X031772Y042596*
Y041285*
X031785Y041217*
X031824Y041159*
X033319Y039664*
Y039454*
X033269Y039433*
X031228Y041474*
Y042665*
X031232Y042668*
X031295Y042751*
X031335Y042847*
X031349Y04295*
X031335Y043053*
X031295Y043149*
X031232Y043232*
X031149Y043295*
X031053Y043335*
X03095Y043349*
X030847Y043335*
X030751Y043295*
X030668Y043232*
X030605Y043149*
X030565Y043053*
X030551Y04295*
X030565Y042847*
X030605Y042751*
X030668Y042668*
X030751Y042605*
X030847Y042565*
X030872Y042562*
Y0414*
X030885Y041332*
X030924Y041274*
X032986Y039212*
X032983Y039181*
X032968Y03917*
X032932Y039151*
X032868Y039164*
X032794Y039149*
X032732Y039107*
X03269Y039045*
X032685Y03902*
X032635Y038978*
X032256*
Y039195*
X031544*
Y038405*
X032256*
Y038622*
X032562*
X032675Y038508*
Y038164*
X03269Y038091*
X032732Y038028*
X032794Y037987*
X032868Y037972*
X032941Y037987*
X032992Y03802*
X033025Y038025*
X033059Y03802*
X033109Y037987*
X033183Y037972*
X033256Y037987*
X033307Y03802*
X03334Y038025*
X033373Y03802*
X033424Y037987*
X033498Y037972*
X033571Y037987*
X033622Y03802*
X033655Y038025*
X033688Y03802*
X033739Y037987*
X033813Y037972*
X033886Y037987*
X033937Y03802*
X03397Y038025*
X034003Y03802*
X034054Y037987*
X034128Y037972*
X034201Y037987*
X034252Y03802*
X034285Y038025*
X034318Y03802*
X034369Y037987*
X034443Y037972*
X034516Y037987*
X034567Y03802*
X0346Y038025*
X034633Y03802*
X034684Y037987*
X034757Y037972*
X034831Y037987*
X034882Y03802*
X034915Y038025*
X034948Y03802*
X034999Y037987*
X035072Y037972*
X035146Y037987*
X035208Y038028*
X03525Y038091*
X035265Y038164*
Y038862*
X037076Y040674*
X037097Y040665*
X0372Y040651*
X037303Y040665*
X037399Y040705*
X037482Y040768*
X037545Y040851*
X037585Y040947*
X037599Y04105*
X037585Y041153*
X037545Y041249*
X037482Y041332*
X037399Y041395*
X037303Y041435*
X0372Y041449*
X037097Y041435*
X037001Y041395*
X036918Y041332*
X036855Y041249*
X036815Y041153*
X036801Y04105*
X036815Y040947*
X036824Y040926*
X035058Y039161*
X034999Y039149*
X034986Y03914*
X034936Y039167*
Y039484*
X036115Y040663*
X0362Y040651*
X036303Y040665*
X036399Y040705*
X036482Y040768*
X036545Y040851*
X036585Y040947*
X036599Y04105*
X036585Y041153*
X036545Y041249*
X036482Y041332*
X036399Y041395*
X036303Y041435*
X0362Y041449*
X036097Y041435*
X036001Y041395*
X035918Y041332*
X035855Y041249*
X035815Y041153*
X035801Y04105*
X035815Y040947*
X035838Y040891*
X034925Y039977*
X034878Y039996*
Y040744*
X034928Y04076*
X035001Y040705*
X035097Y040665*
X0351Y040664*
Y04105*
Y041436*
X035097Y041435*
X035001Y041395*
X034928Y04134*
X034878Y041356*
Y041655*
X03534*
Y042387*
X035576Y042624*
X035615Y042682*
X035617Y042691*
X035649Y042705*
X035732Y042768*
X035795Y042851*
X035835Y042947*
X035849Y04305*
X035835Y043153*
X035795Y043249*
X035732Y043332*
X035649Y043395*
X035553Y043435*
X03545Y043449*
X035347Y043435*
X035251Y043395*
X035168Y043332*
X035105Y043249*
X035065Y043153*
X035051Y04305*
X035065Y042947*
X035105Y042851*
X035168Y042768*
X035171Y042723*
X034893Y042445*
X034628*
X034578Y042446*
Y042675*
X034649Y042705*
X034732Y042768*
X034795Y042851*
X034835Y042947*
X034849Y04305*
X034835Y043153*
X034795Y043249*
X034732Y043332*
X034649Y043395*
X034553Y043435*
X03445Y043449*
X034347Y043435*
X034251Y043395*
X034168Y043332*
X034105Y043249*
X034065Y043153*
X034055Y043079*
X034054Y04307*
X034005Y043073*
X034004Y043077*
Y043646*
X035716*
X036108Y043254*
X036105Y043249*
X036065Y043153*
X036051Y04305*
X036065Y042947*
X036092Y042881*
X035706Y042494*
X035673Y042445*
X035494*
Y041655*
X036206*
Y042418*
X036375Y042587*
X037805Y041157*
Y040655*
X038307*
X038346Y040616*
Y039722*
X038155*
Y03901*
X038945*
Y039162*
X039205*
Y03901*
X039995*
Y039722*
X039205*
Y03957*
X038945*
Y039722*
X038754*
Y0407*
X038738Y040778*
X038694Y040844*
X038595Y040943*
Y041445*
X038093*
X036749Y04279*
X036795Y042851*
X036835Y042947*
X036849Y04305*
X036835Y043153*
X036795Y043249*
X036732Y043332*
X036649Y043395*
X036553Y043435*
X036496Y043443*
X035944Y043994*
X035878Y044038*
X0358Y044054*
G37*
G36*
X026945Y038906D02*
X02665D01*
Y03865*
X026945*
Y038906*
G37*
G36*
X02645D02*
X026155D01*
Y03865*
X02645*
Y038906*
G37*
G36*
X025841Y03885D02*
X02535D01*
Y038452*
X025356*
X025485Y038469*
X025605Y038519*
X025708Y038598*
X025788Y038701*
X025837Y038821*
X025841Y03885*
G37*
G36*
X02515D02*
X024659D01*
X024663Y038821*
X024712Y038701*
X024792Y038598*
X024895Y038519*
X025015Y038469*
X025144Y038452*
X02515*
Y03885*
G37*
G36*
X02935Y039199D02*
X029247Y039185D01*
X029151Y039145*
X029068Y039082*
X029005Y038999*
X028965Y038903*
X028951Y0388*
X028965Y038697*
X029005Y038601*
X029068Y038518*
X029151Y038455*
X029247Y038415*
X02935Y038401*
X029453Y038415*
X029549Y038455*
X029632Y038518*
X029695Y038601*
X029704Y038622*
X029955*
Y038444*
X030678*
Y038405*
X03139*
Y039195*
X030678*
Y039156*
X029955*
Y038978*
X029704*
X029695Y038999*
X029632Y039082*
X029549Y039145*
X029453Y039185*
X02935Y039199*
G37*
G36*
X026945Y03845D02*
X02665D01*
Y038194*
X026945*
Y03845*
G37*
G36*
X02645D02*
X026155D01*
Y038194*
X02645*
Y03845*
G37*
G36*
X03435Y037469D02*
Y03735D01*
X034469*
X034421Y037421*
X03435Y037469*
G37*
G36*
X03415D02*
X034079Y037421D01*
X034031Y03735*
X03415*
Y037469*
G37*
G36*
X02935Y038199D02*
X029247Y038185D01*
X029151Y038145*
X029068Y038082*
X029005Y037999*
X028965Y037903*
X028951Y0378*
X028965Y037697*
X029005Y037601*
X029068Y037518*
X029151Y037455*
X029247Y037415*
X02935Y037401*
X029453Y037415*
X029549Y037455*
X029632Y037518*
X029695Y037601*
X029704Y037622*
X031462*
X031504Y037612*
X031525Y037567*
X031519Y037559*
X031504Y037485*
X031519Y037411*
X031553Y037361*
X031557Y037328*
X031553Y037294*
X031536Y03727*
X0321*
X032664*
X032647Y037294*
X032643Y037328*
X032647Y037361*
X032681Y037411*
X032696Y037485*
X032681Y037559*
X032672Y037573*
X032692Y037611*
Y037989*
X031508*
Y037978*
X029704*
X029695Y037999*
X029632Y038082*
X029549Y038145*
X029453Y038185*
X02935Y038199*
G37*
G36*
X037845Y038895D02*
X037055D01*
Y038678*
X03654*
X036472Y038665*
X036414Y038626*
X03578Y037992*
X035437*
X035363Y037978*
X035301Y037936*
X035259Y037874*
X035244Y0378*
X035259Y037726*
X035293Y037676*
X035298Y037643*
X035293Y037609*
X035259Y037559*
X035244Y037485*
X035259Y037411*
X035293Y037361*
X035298Y037328*
X035293Y037294*
X035259Y037244*
X035244Y03717*
X035259Y037097*
X035293Y037046*
X035298Y037013*
X035293Y036979*
X035277Y036955*
X03584*
X036404*
X036388Y036979*
X036383Y037013*
X036388Y037046*
X036421Y037097*
X036436Y03717*
X036421Y037244*
X036403Y037272*
X036429Y037322*
X036705*
Y03715*
X037495*
Y037322*
X039205*
Y037105*
X039995*
Y037895*
X039804*
Y038144*
X039995*
Y038856*
X039205*
Y038144*
X039396*
Y037895*
X039205*
Y037678*
X036447*
X036421Y03772*
X036422Y037728*
X036436Y0378*
X036421Y037874*
X03638Y037936*
X036331Y037968*
X036317Y038025*
X036614Y038322*
X037055*
Y038105*
X037845*
Y038322*
X038155*
Y038144*
X038945*
Y038856*
X038155*
Y038678*
X037845*
Y038895*
G37*
G36*
X034469Y03715D02*
X03435D01*
Y037031*
X034421Y037079*
X034469Y03715*
G37*
G36*
X03415D02*
X034031D01*
X034079Y037079*
X03415Y037031*
Y03715*
G37*
G36*
X031195Y037256D02*
X0309D01*
Y037*
X031195*
Y037256*
G37*
G36*
X0307D02*
X030405D01*
Y037*
X0307*
Y037256*
G37*
G36*
X02945Y037186D02*
Y0369D01*
X029736*
X029735Y036903*
X029695Y036999*
X029632Y037082*
X029549Y037145*
X029453Y037185*
X02945Y037186*
G37*
G36*
X02925D02*
X029247Y037185D01*
X029151Y037145*
X029068Y037082*
X029005Y036999*
X028965Y036903*
X028964Y0369*
X02925*
Y037186*
G37*
G36*
X037495Y03695D02*
X0372D01*
Y036694*
X037495*
Y03695*
G37*
G36*
X037D02*
X036705D01*
Y036694*
X037*
Y03695*
G37*
G36*
X02435Y03673D02*
Y03655D01*
X02453*
X024509Y0366*
X024462Y036662*
X0244Y036709*
X02435Y03673*
G37*
G36*
X02415D02*
X0241Y036709D01*
X024038Y036662*
X023991Y0366*
X02397Y03655*
X02415*
Y03673*
G37*
G36*
X031195Y0368D02*
X0309D01*
Y036544*
X031195*
Y0368*
G37*
G36*
X0307D02*
X030405D01*
Y036544*
X0307*
Y0368*
G37*
G36*
X029736Y0367D02*
X02945D01*
Y036414*
X029453Y036415*
X029549Y036455*
X029632Y036518*
X029695Y036601*
X029735Y036697*
X029736Y0367*
G37*
G36*
X02925D02*
X028964D01*
X028965Y036697*
X029005Y036601*
X029068Y036518*
X029151Y036455*
X029247Y036415*
X02925Y036414*
Y0367*
G37*
G36*
X0283Y03653D02*
Y03635D01*
X02848*
X028459Y0364*
X028412Y036462*
X02835Y036509*
X0283Y03653*
G37*
G36*
X0281D02*
X02805Y036509D01*
X027988Y036462*
X027941Y0364*
X02792Y03635*
X0281*
Y03653*
G37*
G36*
X0397Y036547D02*
Y036261D01*
X039986*
X039985Y036265*
X039945Y036361*
X039882Y036443*
X039799Y036507*
X039703Y036547*
X0397*
G37*
G36*
X0395D02*
X039497D01*
X039401Y036507*
X039318Y036443*
X039255Y036361*
X039215Y036265*
X039214Y036261*
X0395*
Y036547*
G37*
G36*
X02453Y03635D02*
X02435D01*
Y03617*
X0244Y036191*
X024462Y036238*
X024509Y0363*
X02453Y03635*
G37*
G36*
X02415D02*
X02397D01*
X023991Y0363*
X024038Y036238*
X0241Y036191*
X02415Y03617*
Y03635*
G37*
G36*
X02848Y03615D02*
X0283D01*
Y03597*
X02835Y035991*
X028412Y036038*
X028459Y0361*
X02848Y03615*
G37*
G36*
X0281D02*
X02792D01*
X027941Y0361*
X027988Y036038*
X02805Y035991*
X0281Y03597*
Y03615*
G37*
G36*
X028045Y038906D02*
X027255D01*
Y038194*
X027472*
Y0354*
X027485Y035332*
X027524Y035274*
X028624Y034174*
X028682Y034135*
X02875Y034122*
X031*
X031068Y034135*
X031126Y034174*
X031601Y034649*
X032675*
Y034424*
X03269Y03435*
X032732Y034288*
X032746Y034278*
X032731Y034228*
X0323*
X032232Y034215*
X032174Y034176*
X029726Y031728*
X029456*
Y031845*
X028744*
Y031055*
X029456*
Y031372*
X029657*
X029677Y031325*
X029624Y031273*
X029585Y031215*
X029572Y031146*
Y025745*
X029294*
Y024955*
X030006*
Y025745*
X029928*
Y031073*
X032427Y033572*
X032482*
X032499Y033522*
X032471Y0335*
X032407Y033416*
X032367Y033319*
X032353Y033215*
X032367Y03311*
X032407Y033013*
X032471Y032929*
X032555Y032865*
X032652Y032825*
X032756Y032811*
X032861Y032825*
X032958Y032865*
X033038Y032927*
X033045Y032929*
X033099Y032922*
X03312Y032892*
X033398Y032613*
X033429Y032593*
X033435Y032538*
X033433Y032532*
X033371Y032452*
X033331Y032354*
X033317Y03225*
X033331Y032146*
X033371Y032048*
X033436Y031965*
X033519Y031901*
X033616Y03186*
X033721Y031847*
X033748Y03185*
X034024Y031574*
X034082Y031535*
X03415Y031522*
X0369*
X036968Y031535*
X037026Y031574*
X037408Y031956*
X037447Y032014*
X037461Y032082*
Y034122*
X038565*
X038633Y034135*
X038691Y034174*
X039074Y034557*
X039085Y034555*
X039106Y034501*
X039105Y034499*
X039065Y034403*
X039064Y0344*
X03945*
Y0343*
X03955*
Y033914*
X039553Y033915*
X039649Y033955*
X039728Y034015*
X039748Y034012*
X039781Y034*
X039785Y033982*
X039824Y033924*
X040167Y033581*
X040105Y033499*
X040065Y033403*
X040051Y0333*
X040065Y033197*
X040105Y033101*
X040168Y033018*
X040251Y032955*
X040347Y032915*
X04045Y032901*
X040553Y032915*
X040649Y032955*
X040732Y033018*
X040795Y033101*
X040835Y033197*
X040849Y0333*
X040835Y033403*
X040795Y033499*
X040732Y033582*
X040649Y033645*
X040577Y033675*
X040576Y033676*
X040394Y033858*
X040417Y033906*
X04045Y033901*
X040553Y033915*
X040649Y033955*
X040732Y034018*
X040795Y034101*
X040835Y034197*
X040849Y0343*
X040835Y034403*
X040795Y034499*
X040732Y034582*
X040649Y034645*
X040553Y034685*
X04045Y034699*
X040347Y034685*
X040251Y034645*
X040178Y03459*
X040147Y034596*
X040126Y03461*
X040115Y034668*
X040076Y034726*
X039906Y034896*
X039848Y034935*
X03978Y034949*
X039035*
X038967Y034935*
X038909Y034896*
X038491Y034478*
X037309*
X036375Y035413*
X03638Y035459*
X036421Y035522*
X036436Y035595*
X036421Y035669*
X036388Y035719*
X036383Y035753*
X036388Y035786*
X036421Y035837*
X036436Y03591*
X036421Y035984*
X036413Y035997*
X036439Y036047*
X036705*
Y035828*
X037495*
Y036005*
X037705*
Y035844*
X038495*
Y036556*
X037705*
Y036362*
X037495*
Y03654*
X036705*
Y036404*
X036439*
X036413Y036454*
X036421Y036467*
X036436Y03654*
X036421Y036614*
X036388Y036664*
X036383Y036698*
X036388Y036731*
X036404Y036755*
X03584*
X03526*
X035241Y036719*
X033684*
X033421Y036981*
X033363Y03702*
X033295Y037034*
X032699*
X03268Y03707*
X0321*
X031536*
X031553Y037046*
X031557Y037013*
X031553Y036979*
X031519Y036929*
X031504Y036855*
X031519Y036782*
X031553Y036731*
X031557Y036698*
X031553Y036664*
X031536Y03664*
X0321*
Y03644*
X03152*
X031501Y036404*
X031009*
X030941Y03639*
X03094*
X030405*
Y036212*
X029584*
X029516Y036199*
X02951Y036195*
X028955*
Y035405*
X029172*
Y034938*
X029166Y034934*
X029125Y03488*
X029099Y034817*
X02909Y03475*
X029099Y034683*
X029125Y03462*
X029166Y034566*
X02918Y034556*
X029188Y034488*
X029181Y034478*
X028824*
X027828Y035474*
Y038194*
X028045*
Y038906*
G37*
G36*
X039986Y036061D02*
X0397D01*
Y035776*
X039703*
X039799Y035816*
X039882Y035879*
X039945Y035962*
X039985Y036058*
X039986Y036061*
G37*
G36*
X0395D02*
X039214D01*
X039215Y036058*
X039255Y035962*
X039318Y035879*
X039401Y035816*
X039497Y035776*
X0395*
Y036061*
G37*
G36*
X03715Y035753D02*
X037046Y03574D01*
X036948Y035699*
X036865Y035635*
X036801Y035552*
X03676Y035454*
X036747Y03535*
X03676Y035246*
X036801Y035148*
X036865Y035065*
X036948Y035001*
X037046Y03496*
X03715Y034947*
X037254Y03496*
X037352Y035001*
X037435Y035065*
X037499Y035148*
X037502Y035155*
X037705*
Y034978*
X038495*
Y03569*
X037705*
Y035512*
X037516*
X037499Y035552*
X037435Y035635*
X037352Y035699*
X037254Y03574*
X03715Y035753*
G37*
G36*
X03935Y0342D02*
X039064D01*
X039065Y034197*
X039105Y034101*
X039168Y034018*
X039251Y033955*
X039347Y033915*
X03935Y033914*
Y0342*
G37*
G36*
X02585Y033744D02*
X02465D01*
Y032756*
X024945*
X024955Y032706*
X024895Y032681*
X024792Y032602*
X024712Y032499*
X024663Y032379*
X024646Y03225*
X024663Y032121*
X024712Y032001*
X024792Y031898*
X024895Y031819*
X024995Y031777*
Y031723*
X024895Y031681*
X024792Y031602*
X024712Y031499*
X024663Y031379*
X024659Y03135*
X02525*
X025841*
X025837Y031379*
X025788Y031499*
X025708Y031602*
X025605Y031681*
X025505Y031723*
Y031777*
X025605Y031819*
X025708Y031898*
X025788Y032001*
X025837Y032121*
X025854Y03225*
X025837Y032379*
X025788Y032499*
X025708Y032602*
X025605Y032681*
X025545Y032706*
X025555Y032756*
X02585*
Y03302*
X026555*
Y032868*
X027345*
Y03302*
X027831*
Y033006*
X028483*
Y033442*
X027831*
Y033428*
X027345*
Y03358*
X026555*
Y033428*
X02585*
Y033744*
G37*
G36*
X029369Y033068D02*
X029143D01*
Y03295*
X029369*
Y033068*
G37*
G36*
X028943D02*
X028717D01*
Y03295*
X028943*
Y033068*
G37*
G36*
X03945Y033699D02*
X039347Y033685D01*
X039251Y033645*
X039168Y033582*
X039105Y033499*
X039065Y033403*
X039051Y0333*
X039065Y033197*
X039105Y033101*
X039168Y033018*
X039251Y032955*
X039347Y032915*
X03945Y032901*
X039553Y032915*
X039649Y032955*
X039732Y033018*
X039795Y033101*
X039835Y033197*
X039849Y0333*
X039835Y033403*
X039795Y033499*
X039732Y033582*
X039649Y033645*
X039553Y033685*
X03945Y033699*
G37*
G36*
X029369Y03275D02*
X029143D01*
Y032632*
X029369*
Y03275*
G37*
G36*
X028943D02*
X028717D01*
Y032632*
X028943*
Y03275*
G37*
G36*
X040845Y032695D02*
X040055D01*
Y031905*
X040845*
Y032695*
G37*
G36*
X03945Y032699D02*
X039347Y032685D01*
X039251Y032645*
X039168Y032582*
X039105Y032499*
X039065Y032403*
X039051Y0323*
X039065Y032197*
X039105Y032101*
X039168Y032018*
X039251Y031955*
X039347Y031915*
X03945Y031901*
X039553Y031915*
X039649Y031955*
X039732Y032018*
X039795Y032101*
X039835Y032197*
X039849Y0323*
X039835Y032403*
X039795Y032499*
X039732Y032582*
X039649Y032645*
X039553Y032685*
X03945Y032699*
G37*
G36*
X023645Y032645D02*
X022855D01*
Y031855*
X023645*
Y032645*
G37*
G36*
X032756Y032653D02*
X032652Y03264D01*
X032555Y032599*
X032471Y032535*
X032407Y032452*
X032367Y032354*
X032353Y03225*
X032367Y032146*
X032407Y032048*
X032471Y031965*
X032555Y031901*
X032652Y03186*
X032756Y031847*
X032861Y03186*
X032958Y031901*
X033042Y031965*
X033106Y032048*
X033146Y032146*
X03316Y03225*
X033146Y032354*
X033106Y032452*
X033042Y032535*
X032958Y032599*
X032861Y03264*
X032756Y032653*
G37*
G36*
X025841Y03115D02*
X02535D01*
Y030752*
X025356*
X025485Y030769*
X025605Y030819*
X025708Y030898*
X025788Y031001*
X025837Y031121*
X025841Y03115*
G37*
G36*
X02515D02*
X024659D01*
X024663Y031121*
X024712Y031001*
X024792Y030898*
X024895Y030819*
X025015Y030769*
X025144Y030752*
X02515*
Y03115*
G37*
G36*
X027345Y032714D02*
X026555D01*
Y032002*
X026746*
Y031334*
X025966Y030554*
X023534*
X022554Y031534*
Y031997*
X022595Y032051*
X022635Y032147*
X022649Y03225*
X022635Y032353*
X022595Y032449*
X022532Y032532*
X022449Y032595*
X022353Y032635*
X02225Y032649*
X022147Y032635*
X022051Y032595*
X021968Y032532*
X021905Y032449*
X021865Y032353*
X021851Y03225*
X021865Y032147*
X021905Y032051*
X021968Y031968*
X022051Y031905*
X022146Y031865*
Y03145*
X022162Y031372*
X022206Y031306*
X023306Y030206*
X023372Y030162*
X02345Y030146*
X02605*
X026128Y030162*
X026194Y030206*
X027094Y031106*
X027138Y031172*
X027154Y03125*
Y032002*
X027345*
Y032714*
G37*
G36*
X028234Y032707D02*
X028171Y032694D01*
X027831*
Y032258*
X02803*
Y031845*
X027878*
Y031055*
X028022*
Y030222*
X027805*
Y02951*
X028595*
Y030222*
X028378*
Y031055*
X02859*
Y031845*
X028438*
Y032258*
X028483*
Y032694*
X028297*
X028234Y032707*
G37*
G36*
X041Y02958D02*
Y0294D01*
X04118*
X041159Y02945*
X041112Y029512*
X04105Y029559*
X041Y02958*
G37*
G36*
X0408D02*
X04075Y029559D01*
X040688Y029512*
X040641Y02945*
X04062Y0294*
X0408*
Y02958*
G37*
G36*
X028595Y029356D02*
X0283D01*
Y0291*
X028595*
Y029356*
G37*
G36*
X0281D02*
X027805D01*
Y0291*
X0281*
Y029356*
G37*
G36*
X04118Y0292D02*
X041D01*
Y02902*
X04105Y029041*
X041112Y029088*
X041159Y02915*
X04118Y0292*
G37*
G36*
X0408D02*
X04062D01*
X040641Y02915*
X040688Y029088*
X04075Y029041*
X0408Y02902*
Y0292*
G37*
G36*
X02415Y02903D02*
Y02885D01*
X02433*
X024309Y0289*
X024262Y028962*
X0242Y029009*
X02415Y02903*
G37*
G36*
X02395D02*
X0239Y029009D01*
X023838Y028962*
X023791Y0289*
X02377Y02885*
X02395*
Y02903*
G37*
G36*
X028595Y0289D02*
X0283D01*
Y028644*
X028595*
Y0289*
G37*
G36*
X0281D02*
X027805D01*
Y028644*
X0281*
Y0289*
G37*
G36*
X02433Y02865D02*
X02415D01*
Y02847*
X0242Y028491*
X024262Y028538*
X024309Y0286*
X02433Y02865*
G37*
G36*
X02395D02*
X02377D01*
X023791Y0286*
X023838Y028538*
X0239Y028491*
X02395Y02847*
Y02865*
G37*
G36*
X0377Y031209D02*
X032102D01*
Y02795*
X0377*
Y031209*
G37*
G36*
X02795Y028182D02*
Y0276D01*
X028348*
Y027697*
X028331Y027826*
X028281Y027946*
X028202Y028049*
X028099Y028128*
X027979Y028178*
X02795Y028182*
G37*
G36*
X0291D02*
Y0276D01*
X029498*
Y027697*
X029481Y027826*
X029431Y027946*
X029352Y028049*
X029249Y028128*
X029129Y028178*
X0291Y028182*
G37*
G36*
X0289D02*
X028871Y028178D01*
X028751Y028128*
X028648Y028049*
X028569Y027946*
X028519Y027826*
X028502Y027697*
Y0276*
X0289*
Y028182*
G37*
G36*
X02775D02*
X027721Y028178D01*
X027601Y028128*
X027498Y028049*
X027419Y027946*
X027369Y027826*
X027352Y027697*
Y0276*
X02775*
Y028182*
G37*
G36*
X031038Y028143D02*
Y027562D01*
X031436*
Y027659*
X031419Y027787*
X03137Y027908*
X03129Y028011*
X031187Y02809*
X031067Y02814*
X031038Y028143*
G37*
G36*
X030838D02*
X030809Y02814D01*
X030689Y02809*
X030586Y028011*
X030507Y027908*
X030457Y027787*
X03044Y027659*
Y027562*
X030838*
Y028143*
G37*
G36*
X02375Y02723D02*
Y02705D01*
X02393*
X023909Y0271*
X023862Y027162*
X0238Y027209*
X02375Y02723*
G37*
G36*
X02355D02*
X0235Y027209D01*
X023438Y027162*
X023391Y0271*
X02337Y02705*
X02355*
Y02723*
G37*
G36*
X028348Y0274D02*
X02795D01*
Y026818*
X027979Y026822*
X028099Y026872*
X028202Y026951*
X028281Y027054*
X028331Y027174*
X028348Y027303*
Y0274*
G37*
G36*
X029498D02*
X0291D01*
Y026818*
X029129Y026822*
X029249Y026872*
X029352Y026951*
X029431Y027054*
X029481Y027174*
X029498Y027303*
Y0274*
G37*
G36*
X0289D02*
X028502D01*
Y027303*
X028519Y027174*
X028569Y027054*
X028648Y026951*
X028751Y026872*
X028871Y026822*
X0289Y026818*
Y0274*
G37*
G36*
X02775D02*
X027352D01*
Y027303*
X027369Y027174*
X027419Y027054*
X027498Y026951*
X027601Y026872*
X027721Y026822*
X02775Y026818*
Y0274*
G37*
G36*
X0386Y028195D02*
X038471Y028178D01*
X038351Y028128*
X038248Y028049*
X038169Y027946*
X038119Y027826*
X038102Y027697*
Y027303*
X038119Y027174*
X038169Y027054*
X038248Y026951*
X038351Y026872*
X038471Y026822*
X0386Y026805*
X038729Y026822*
X038849Y026872*
X038952Y026951*
X039031Y027054*
X039081Y027174*
X039098Y027303*
Y027697*
X039081Y027826*
X039031Y027946*
X038952Y028049*
X038849Y028128*
X038729Y028178*
X0386Y028195*
G37*
G36*
X031436Y027362D02*
X031038D01*
Y02678*
X031067Y026784*
X031187Y026834*
X03129Y026913*
X03137Y027016*
X031419Y027136*
X031436Y027265*
Y027362*
G37*
G36*
X030838D02*
X03044D01*
Y027265*
X030457Y027136*
X030507Y027016*
X030586Y026913*
X030689Y026834*
X030809Y026784*
X030838Y02678*
Y027362*
G37*
G36*
X02393Y02685D02*
X02375D01*
Y02667*
X0238Y026691*
X023862Y026738*
X023909Y0268*
X02393Y02685*
G37*
G36*
X02355D02*
X02337D01*
X023391Y0268*
X023438Y026738*
X0235Y026691*
X02355Y02667*
Y02685*
G37*
G36*
X027818Y026569D02*
X0277D01*
Y026343*
X027818*
Y026569*
G37*
G36*
X0275D02*
X027382D01*
Y026343*
X0275*
Y026569*
G37*
G36*
X027818Y026143D02*
X0277D01*
Y025917*
X027818*
Y026143*
G37*
G36*
X0275D02*
X027382D01*
Y025917*
X0275*
Y026143*
G37*
G36*
X02914Y025745D02*
X028428D01*
Y025554*
X028192*
Y025683*
X027756*
Y025031*
X028192*
Y025146*
X028428*
Y024955*
X028622*
Y024722*
X028405*
Y02401*
X029195*
Y024722*
X028978*
Y024955*
X02914*
Y025745*
G37*
G36*
X03135Y02528D02*
Y0251D01*
X03153*
X031509Y02515*
X031462Y025212*
X0314Y025259*
X03135Y02528*
G37*
G36*
X03115D02*
X0311Y025259D01*
X031038Y025212*
X030991Y02515*
X03097Y0251*
X03115*
Y02528*
G37*
G36*
X03665Y02498D02*
Y0248D01*
X03683*
X036809Y02485*
X036762Y024912*
X0367Y024959*
X03665Y02498*
G37*
G36*
X03645D02*
X0364Y024959D01*
X036338Y024912*
X036291Y02485*
X03627Y0248*
X03645*
Y02498*
G37*
G36*
X03153Y0249D02*
X03135D01*
Y02472*
X0314Y024741*
X031462Y024788*
X031509Y02485*
X03153Y0249*
G37*
G36*
X03115D02*
X03097D01*
X030991Y02485*
X031038Y024788*
X0311Y024741*
X03115Y02472*
Y0249*
G37*
G36*
X03683Y0246D02*
X03665D01*
Y02442*
X0367Y024441*
X036762Y024488*
X036809Y02455*
X03683Y0246*
G37*
G36*
X03645D02*
X03627D01*
X036291Y02455*
X036338Y024488*
X0364Y024441*
X03645Y02442*
Y0246*
G37*
G36*
X040068Y024834D02*
Y02425D01*
X040653*
X040649Y024285*
X04061Y024416*
X040545Y024536*
X040459Y024641*
X040354Y024727*
X040234Y024791*
X040104Y024831*
X040068Y024834*
G37*
G36*
X039869D02*
X039833Y024831D01*
X039703Y024791*
X039583Y024727*
X039478Y024641*
X039392Y024536*
X039327Y024416*
X039288Y024285*
X039284Y02425*
X039869*
Y024834*
G37*
G36*
X023645Y024745D02*
X022855D01*
Y023955*
X023645*
Y024745*
G37*
G36*
X02225Y024749D02*
X022147Y024735D01*
X022051Y024695*
X021968Y024632*
X021905Y024549*
X021865Y024453*
X021851Y02435*
X021865Y024247*
X021905Y024151*
X021968Y024068*
X022051Y024005*
X022147Y023965*
X02225Y023951*
X022353Y023965*
X022449Y024005*
X022532Y024068*
X022595Y024151*
X022635Y024247*
X022649Y02435*
X022635Y024453*
X022595Y024549*
X022532Y024632*
X022449Y024695*
X022353Y024735*
X02225Y024749*
G37*
G36*
X02595Y025844D02*
X02475D01*
Y024856*
X025045*
X025055Y024806*
X024995Y024781*
X024892Y024702*
X024812Y024599*
X024763Y024479*
X024746Y02435*
X024763Y024221*
X024812Y024101*
X024892Y023998*
X024995Y023919*
X025095Y023877*
Y023823*
X024995Y023781*
X024892Y023702*
X024812Y023599*
X024763Y023479*
X024759Y02345*
X02535*
X025941*
X025937Y023479*
X025888Y023599*
X025808Y023702*
X025705Y023781*
X025605Y023823*
Y023877*
X025705Y023919*
X025808Y023998*
X025888Y024101*
X025937Y024221*
X025954Y02435*
X025937Y024479*
X025888Y024599*
X025808Y024702*
X025705Y024781*
X025645Y024806*
X025655Y024856*
X02595*
Y025146*
X027008*
Y025031*
X027015*
Y024506*
X026855*
Y023794*
X027645*
Y024506*
X027423*
Y025031*
X027444*
Y025683*
X027008*
Y025554*
X02595*
Y025844*
G37*
G36*
X029195Y023856D02*
X0289D01*
Y0236*
X029195*
Y023856*
G37*
G36*
X0287D02*
X028405D01*
Y0236*
X0287*
Y023856*
G37*
G36*
X040653Y02405D02*
X040068D01*
Y023466*
X040104Y023469*
X040234Y023509*
X040354Y023573*
X040459Y023659*
X040545Y023764*
X04061Y023884*
X040649Y024015*
X040653Y02405*
G37*
G36*
X039869D02*
X039284D01*
X039288Y024015*
X039327Y023884*
X039392Y023764*
X039478Y023659*
X039583Y023573*
X039703Y023509*
X039833Y023469*
X039869Y023466*
Y02405*
G37*
G36*
X029195Y0234D02*
X0289D01*
Y023144*
X029195*
Y0234*
G37*
G36*
X0287D02*
X028405D01*
Y023144*
X0287*
Y0234*
G37*
G36*
X025941Y02325D02*
X02545D01*
Y022852*
X025456*
X025585Y022869*
X025705Y022919*
X025808Y022998*
X025888Y023101*
X025937Y023221*
X025941Y02325*
G37*
G36*
X02525D02*
X024759D01*
X024763Y023221*
X024812Y023101*
X024892Y022998*
X024995Y022919*
X025115Y022869*
X025244Y022852*
X02525*
Y02325*
G37*
G36*
X02875Y022136D02*
Y02185D01*
X029036*
X029035Y021853*
X028995Y021949*
X028932Y022032*
X028849Y022095*
X028753Y022135*
X02875Y022136*
G37*
G36*
X02855D02*
X028547Y022135D01*
X028451Y022095*
X028368Y022032*
X028305Y021949*
X028265Y021853*
X028264Y02185*
X02855*
Y022136*
G37*
G36*
X033194Y022394D02*
X032206D01*
Y021406*
X033194*
Y022394*
G37*
G36*
X029036Y02165D02*
X02875D01*
Y021364*
X028753Y021365*
X028849Y021405*
X028932Y021468*
X028995Y021551*
X029035Y021647*
X029036Y02165*
G37*
G36*
X02855D02*
X028264D01*
X028265Y021647*
X028305Y021551*
X028368Y021468*
X028451Y021405*
X028547Y021365*
X02855Y021364*
Y02165*
G37*
G36*
X03825Y02088D02*
Y0207D01*
X03843*
X038409Y02075*
X038362Y020812*
X0383Y020859*
X03825Y02088*
G37*
G36*
X03805D02*
X038Y020859D01*
X037938Y020812*
X037891Y02075*
X03787Y0207*
X03805*
Y02088*
G37*
G36*
X027645Y02364D02*
X026855D01*
Y022928*
X027046*
Y02215*
X027062Y022072*
X027106Y022006*
X028255Y020857*
Y020355*
X029045*
Y021145*
X028543*
X027454Y022234*
Y022928*
X027645*
Y02364*
G37*
G36*
X03843Y0205D02*
X03825D01*
Y02032*
X0383Y020341*
X038362Y020388*
X038409Y02045*
X03843Y0205*
G37*
G36*
X03805D02*
X03787D01*
X037891Y02045*
X037938Y020388*
X038Y020341*
X03805Y02032*
Y0205*
G37*
G36*
X038691Y024841D02*
X037309D01*
Y024037*
X033475Y020203*
X033114*
X033052Y020284*
X032949Y020363*
X032829Y020412*
X0327Y020429*
X032571Y020412*
X032451Y020363*
X032348Y020284*
X032269Y02018*
X032219Y02006*
X032202Y019931*
X032219Y019803*
X032269Y019683*
X032348Y019579*
X032451Y0195*
X032571Y019451*
X0327Y019434*
X032829Y019451*
X032949Y0195*
X033052Y019579*
X033066Y019597*
X0336*
X033678Y019608*
X033751Y019638*
X033814Y019686*
X037587Y023459*
X038691*
Y024841*
G37*
G36*
X03835Y01903D02*
Y01885D01*
X03853*
X038509Y0189*
X038462Y018962*
X0384Y019009*
X03835Y01903*
G37*
G36*
X03815D02*
X0381Y019009D01*
X038038Y018962*
X037991Y0189*
X03797Y01885*
X03815*
Y01903*
G37*
G36*
X04045Y020592D02*
X040276Y020575D01*
X040109Y020524*
X039955Y020441*
X039819Y020331*
X039709Y020195*
X039626Y020041*
X039575Y019874*
X039558Y0197*
X039575Y019526*
X039626Y019359*
X039709Y019205*
X039819Y019069*
X039955Y018959*
X040109Y018876*
X040276Y018825*
X04045Y018808*
X040624Y018825*
X040791Y018876*
X040945Y018959*
X041081Y019069*
X041191Y019205*
X041274Y019359*
X041325Y019526*
X041342Y0197*
X041325Y019874*
X041274Y020041*
X041191Y020195*
X041081Y020331*
X040945Y020441*
X040791Y020524*
X040624Y020575*
X04045Y020592*
G37*
G36*
X022835D02*
X022661Y020575D01*
X022493Y020524*
X022339Y020441*
X022204Y020331*
X022093Y020195*
X022011Y020041*
X02196Y019874*
X021943Y0197*
X02196Y019526*
X022011Y019359*
X022093Y019205*
X022204Y019069*
X022339Y018959*
X022493Y018876*
X022661Y018825*
X022835Y018808*
X023009Y018825*
X023176Y018876*
X02333Y018959*
X023465Y019069*
X023576Y019205*
X023658Y019359*
X023709Y019526*
X023726Y0197*
X023709Y019874*
X023658Y020041*
X023576Y020195*
X023465Y020331*
X02333Y020441*
X023176Y020524*
X023009Y020575*
X022835Y020592*
G37*
G36*
X0241Y01893D02*
Y01875D01*
X02428*
X024259Y0188*
X024212Y018862*
X02415Y018909*
X0241Y01893*
G37*
G36*
X0239D02*
X02385Y018909D01*
X023788Y018862*
X023741Y0188*
X02372Y01875*
X0239*
Y01893*
G37*
G36*
X03853Y01865D02*
X03835D01*
Y01847*
X0384Y018491*
X038462Y018538*
X038509Y0186*
X03853Y01865*
G37*
G36*
X03815D02*
X03797D01*
X037991Y0186*
X038038Y018538*
X0381Y018491*
X03815Y01847*
Y01865*
G37*
G36*
X02428Y01855D02*
X0241D01*
Y01837*
X02415Y018391*
X024212Y018438*
X024259Y0185*
X02428Y01855*
G37*
G36*
X0239D02*
X02372D01*
X023741Y0185*
X023788Y018438*
X02385Y018391*
X0239Y01837*
Y01855*
G37*
G36*
X027149Y01935D02*
X02455D01*
Y01835*
X027149*
Y01935*
G37*
%LNpcb-3*%
%LPD*%
G36*
X034055Y043021D02*
X034065Y042947D01*
X034105Y042851*
X034168Y042768*
X034222Y042727*
Y041495*
X034195Y041456*
X034172*
X034004*
Y043023*
X034005Y043027*
X034054Y04303*
X034055Y043021*
G37*
G36*
X035268Y036312D02*
X035259Y036299D01*
X035244Y036225*
X035259Y036152*
X035285Y036112*
X035259Y036062*
X03409*
X033841Y036312*
X033844Y036362*
X035241*
X035268Y036312*
G37*
G36*
X03389Y035758D02*
D01*
X033948Y035719*
X034016Y035705*
X035228*
X035256Y035655*
X035244Y035595*
X035259Y035522*
X035301Y035459*
X035363Y035418*
X035437Y035403*
X03588*
X037104Y034179*
Y032156*
X036826Y031878*
X035905*
X035888Y031928*
X035935Y031965*
X035999Y032048*
X03604Y032146*
Y03215*
X03565*
X03526*
Y032146*
X035301Y032048*
X035365Y031965*
X035412Y031928*
X035395Y031878*
X03494*
X034923Y031928*
X034971Y031965*
X035035Y032048*
X035075Y032146*
X035089Y03225*
X035075Y032354*
X035035Y032452*
X034973Y032532*
X034971Y032538*
X034978Y032593*
X035008Y032613*
X035287Y032892*
X035307Y032922*
X035362Y032929*
X035368Y032927*
X035448Y032865*
X035546Y032825*
X03565Y032811*
X035754Y032825*
X035852Y032865*
X035935Y032929*
X035999Y033013*
X03604Y03311*
X036053Y033215*
X03604Y033319*
X035999Y033416*
X035935Y0335*
X035852Y033564*
X035754Y033604*
X03565Y033618*
X035546Y033604*
X035448Y033564*
X035389Y033518*
X035339Y033543*
Y03379*
X035325Y033858*
X035287Y033916*
X035009Y034193*
X035034Y034239*
X035072Y034232*
X035146Y034246*
X035208Y034288*
X03525Y03435*
X035263Y034414*
X035309Y034439*
X035359Y034389*
X035361Y034373*
X035391Y0343*
X035438Y034238*
X0355Y034191*
X035573Y034161*
X03565Y034151*
X035727Y034161*
X0358Y034191*
X035862Y034238*
X035909Y0343*
X035939Y034373*
X035949Y03445*
X035939Y034527*
X035909Y0346*
X035862Y034662*
X0358Y034709*
X035727Y034739*
X03565Y034749*
X035573Y034739*
X035531Y034722*
X035299Y034954*
X035265Y034976*
Y035231*
X03525Y035305*
X035208Y035367*
X035146Y035409*
X035072Y035423*
X034999Y035409*
X034948Y035375*
X034915Y03537*
X034882Y035375*
X034831Y035409*
X034757Y035423*
X034684Y035409*
X034633Y035375*
X0346Y03537*
X034567Y035375*
X034516Y035409*
X034443Y035423*
X034369Y035409*
X034318Y035375*
X034285Y03537*
X034252Y035375*
X034201Y035409*
X034128Y035423*
X034054Y035409*
X034003Y035375*
X03397Y03537*
X033937Y035375*
X033886Y035409*
X033813Y035423*
X033739Y035409*
X033688Y035375*
X033655Y03537*
X033622Y035375*
X033571Y035409*
X033498Y035423*
X033424Y035409*
X033373Y035375*
X03334Y03537*
X033307Y035375*
X033256Y035409*
X033183Y035423*
X033109Y035409*
X033059Y035375*
X033025Y03537*
X032992Y035375*
X032941Y035409*
X032868Y035423*
X032794Y035409*
X032732Y035367*
X03269Y035305*
X032675Y035231*
Y035006*
X031528*
X031459Y034992*
X031401Y034954*
X030926Y034478*
X029519*
X029512Y034488*
X02952Y034556*
X029534Y034566*
X029575Y03462*
X029601Y034683*
X02961Y03475*
X029601Y034817*
X029575Y03488*
X029534Y034934*
X029528Y034938*
Y035405*
X029745*
Y035855*
X030405*
Y035678*
X031195*
Y036047*
X031501*
X031527Y035997*
X031519Y035984*
X031504Y03591*
X031519Y035837*
X031553Y035786*
X031557Y035753*
X031553Y035719*
X031519Y035669*
X031504Y035595*
X031519Y035522*
X03156Y035459*
X031623Y035418*
X031696Y035403*
X032504*
X032577Y035418*
X03264Y035459*
X032681Y035522*
X032696Y035595*
X032681Y035669*
X032647Y035719*
X032643Y035753*
X032647Y035786*
X032681Y035837*
X032696Y03591*
X032681Y035984*
X032673Y035997*
X032699Y036047*
X033601*
X03389Y035758*
G37*
G36*
X034264Y034107D02*
Y034057D01*
X034278Y033989*
X034316Y033931*
X034507Y033741*
Y033574*
X034484Y033564*
X0344Y0335*
X034336Y033416*
X034296Y033319*
X034288Y033263*
X034236Y033245*
X034204Y033276*
X034147Y033315*
X034109Y033322*
X03407Y033416*
X034006Y0335*
X033923Y033564*
X033825Y033604*
X033769Y033612*
X033751Y033664*
X034214Y034127*
X034264Y034107*
G37*
%LNpcb-4*%
%LPC*%
G36*
X03575Y03264D02*
Y03235D01*
X03604*
Y032354*
X035999Y032452*
X035935Y032535*
X035852Y032599*
X035754Y03264*
X03575*
G37*
G36*
X03555D02*
X035546D01*
X035448Y032599*
X035365Y032535*
X035301Y032452*
X03526Y032354*
Y03235*
X03555*
Y03264*
G37*
%LNpcb-5*%
%LPD*%
G54D10*
X02655Y039416D03*
Y03855D03*
X0282Y029866D03*
Y029D03*
X0288Y024366D03*
Y0235D03*
X0381Y035334D03*
Y0362D03*
X0371Y036184D03*
Y03705D03*
X03035Y039666D03*
Y0388D03*
X0338Y040234D03*
Y0411D03*
X0396Y039366D03*
Y0385D03*
X0308Y0369D03*
Y036034D03*
X03855Y039366D03*
Y0385D03*
X02765Y039416D03*
Y03855D03*
X02695Y033224D03*
Y032358D03*
X02725Y02415D03*
Y023284D03*
G54D11*
X032868Y038568D03*
X033183D03*
X033498D03*
X033813D03*
X034128D03*
X034443D03*
X034757D03*
X035072D03*
Y034828D03*
X034757D03*
X034443D03*
X034128D03*
X033813D03*
X033498D03*
X033183D03*
X032868D03*
G54D12*
X03584Y0378D03*
Y037485D03*
Y03717D03*
Y036855D03*
Y03654D03*
Y036225D03*
Y03591D03*
Y035595D03*
X0321D03*
Y03591D03*
Y036225D03*
Y03654D03*
Y036855D03*
Y03717D03*
Y037485D03*
G54D13*
X0321Y0378D03*
G54D14*
X031034Y0388D03*
X0319D03*
X028234Y03145D03*
X0291D03*
X028784Y02535D03*
X02965D03*
X03585Y04205D03*
X034984D03*
X02765Y0419D03*
X026784D03*
G54D15*
X027226Y025357D03*
X027974D03*
X0276Y026243D03*
G54D16*
X027657Y040924D03*
Y040176D03*
X028543Y04055D03*
X028157Y033224D03*
Y032476D03*
X029043Y03285D03*
G54D17*
X02655Y039416D02*
X02765D01*
X0282Y029866D02*
Y031516D01*
X0288Y024366D02*
Y025334D01*
X02975Y031146D02*
X032354Y03375D01*
X02975Y02545D02*
Y031146D01*
X02965Y02535D02*
X02975Y02545D01*
X04045Y0333D02*
Y03355D01*
X03995Y03405D02*
X04045Y03355D01*
X03995Y03405D02*
Y0346D01*
X035172Y034828D02*
X03565Y03435D01*
X030818Y036034D02*
X031009Y036225D01*
X0321*
X0308Y036034D02*
X030818D01*
X03366Y03624D02*
Y03649D01*
Y03624D02*
X034016Y035884D01*
X03584*
X033295Y036855D02*
X03366Y03649D01*
X0321Y036855D02*
X033295D01*
X03366Y03654D02*
X03584D01*
X03415Y0317D02*
X0369D01*
X033721Y032129D02*
X03415Y0317D01*
X034128Y034293D02*
Y034828D01*
X033246Y033411D02*
X034128Y034293D01*
X03565Y03435D02*
Y03445D01*
X035072Y034828D02*
X035172D01*
X033721Y032129D02*
Y03225D01*
X035072Y038922D02*
X0372Y04105D01*
X035072Y038568D02*
Y038922D01*
X0321Y036225D02*
X03366D01*
X033813Y038568D02*
Y040221D01*
X0338Y040234D02*
X033813Y040221D01*
X033498Y038568D02*
Y039738D01*
X03195Y041285D02*
Y04295D01*
X032635Y0388D02*
X032868Y038568D01*
X0319Y0388D02*
X032635D01*
X03035D02*
X031034D01*
X02935D02*
X03035D01*
X02935Y0378D02*
X0321D01*
X034128Y038568D02*
Y039763D01*
X034685Y033215D02*
Y033815D01*
X034443Y034057D02*
X034685Y033815D01*
X034443Y034057D02*
Y034828D01*
X034489Y03274D02*
X034882D01*
X03516Y033018*
X034757Y034193D02*
X03516Y03379D01*
X034757Y034193D02*
Y034828D01*
X033721Y033215D02*
X033778Y033272D01*
X034135Y03274D02*
X034625Y03225D01*
X033524Y03274D02*
X034135D01*
X033246Y033018D02*
Y033411D01*
Y033018D02*
X033524Y03274D01*
X03516Y033018D02*
Y03379D01*
X03584Y036225D02*
X037059D01*
X0371Y036184*
X03305Y042D02*
X03315Y0419D01*
X03645Y0428D02*
Y04305D01*
X0291Y03155D02*
X0298D01*
X02535Y02535D02*
X025374Y025374D01*
X03855Y0385D02*
X038575Y038475D01*
X03654Y0385D02*
X0373D01*
X03584Y0378D02*
X03654Y0385D01*
X0373D02*
X03855D01*
X035855Y0375D02*
X0396D01*
X0371Y036184D02*
X038084D01*
X034443Y038568D02*
Y039643D01*
X0347Y0399*
Y041766*
X034984Y04205*
X03645Y04295D02*
Y04305D01*
X034984Y04205D02*
Y042284D01*
X03545Y04275*
Y04305*
X034128Y039763D02*
X0344Y040035D01*
Y0429*
X0345Y043*
X0362Y041D02*
Y04105D01*
X034757Y038568D02*
Y039557D01*
X0362Y041*
X03645Y04305D02*
Y0432D01*
X033778Y033272D02*
X0339Y03315D01*
X034078*
X034489Y03274*
X033498Y034098D02*
Y034828D01*
X033183Y034233D02*
Y034828D01*
X0369Y0317D02*
X037282Y032082D01*
X037166Y035334D02*
X0381D01*
X03978Y03477D02*
X03995Y0346D01*
X03584Y035595D02*
X03594D01*
X037282Y034253*
X039035Y03477D02*
X03978D01*
X037282Y032082D02*
Y0343D01*
X038565*
X039035Y03477*
X03315Y03375D02*
X033498Y034098D01*
X029584Y036034D02*
X0308D01*
X02935Y0358D02*
X029584Y036034D01*
X02935Y03475D02*
Y0358D01*
X02765Y0354D02*
Y03855D01*
X032354Y03375D02*
X03315D01*
X02765Y0354D02*
X02875Y0343D01*
X031*
X031528Y034828*
X032868*
X0298Y03155D02*
X0323Y03405D01*
X033*
X033183Y034233*
X03095Y04295D02*
X03105Y04285D01*
Y0414D02*
Y04285D01*
Y0414D02*
X033183Y039267D01*
Y038568D02*
Y039267D01*
X03195Y041285D02*
X033498Y039738D01*
X03315Y04065D02*
Y0419D01*
Y04065D02*
X033566Y040234D01*
X0338*
X03745Y030959D02*
Y030459D01*
X03735Y03036*
X03715*
X03705Y030459*
Y030959*
X03685Y03036D02*
Y030959D01*
X03645Y03036*
Y030959*
X03625D02*
X03605D01*
X03615*
Y03036*
X03625*
X03605*
X035751Y030959D02*
Y030559D01*
X035551Y03036*
X035351Y030559*
Y030959*
X034751D02*
X035151D01*
Y03036*
X034751*
X035151Y030659D02*
X034951D01*
X034551Y03036D02*
Y030959D01*
X034251*
X034151Y030859*
Y030659*
X034251Y030559*
X034551*
X034351D02*
X034151Y03036D01*
X033551Y030859D02*
X033651Y030959D01*
X033851*
X033951Y030859*
Y030759*
X033851Y030659*
X033651*
X033551Y030559*
Y030459*
X033651Y03036*
X033851*
X033951Y030459*
X033351Y03036D02*
Y030759D01*
X033151Y030959*
X032951Y030759*
Y03036*
Y030659*
X033351*
X032752Y030959D02*
Y03036D01*
X032352*
X03745Y02988D02*
X03725D01*
X03735*
Y02928*
X03745*
X03725*
X03655Y02988D02*
X03695D01*
Y02958*
X03675*
X03695*
Y02928*
X03595Y02978D02*
X03605Y02988D01*
X03625*
X03635Y02978*
Y02968*
X03625Y02958*
X03605*
X03595Y02948*
Y02938*
X03605Y02928*
X03625*
X03635Y02938*
X035351Y02978D02*
X035451Y02988D01*
X035651*
X035751Y02978*
Y02938*
X035651Y02928*
X035451*
X035351Y02938*
X035151Y02958D02*
X034751D01*
X034151Y02988D02*
X034551D01*
Y02958*
X034351*
X034551*
Y02928*
X033951Y02988D02*
Y02928D01*
X033551*
X033351D02*
Y02988D01*
X032951Y02928*
Y02988*
X03745Y0288D02*
Y0284D01*
X03725Y0282*
X03705Y0284*
Y0288*
X03685Y0282D02*
X03665D01*
X03675*
Y0288*
X03685Y0287*
X03635Y0282D02*
Y0283D01*
X03625*
Y0282*
X03635*
X035551D02*
Y0288D01*
X035851Y0285*
X035451*
G54D18*
X028234Y03155D02*
Y032503D01*
X02225Y0401D02*
X02405Y0419D01*
X02225Y03995D02*
Y0401D01*
X0338Y0411D02*
Y04385D01*
X02765Y039416D02*
Y040169D01*
X03645Y0428D02*
X0382Y04105D01*
X027657Y040924D02*
Y041893D01*
X025276Y040924D02*
X027657D01*
X02405Y0419D02*
X026784D01*
X025276Y033224D02*
X028157D01*
X02535Y02535D02*
X027219D01*
Y024181D02*
Y02535D01*
X02725Y02215D02*
Y023284D01*
Y02215D02*
X02865Y02075D01*
X027981Y02535D02*
X028784D01*
X02695Y03125D02*
Y032358D01*
X03855Y039366D02*
X0396D01*
Y0375D02*
Y0385D01*
X03585Y04205D02*
Y04235D01*
X03645Y04295*
X02895D02*
X02985Y04385D01*
X0358*
X03645Y0432*
X03855Y039366D02*
Y0407D01*
X0382Y04105D02*
X03855Y0407D01*
X02605Y03035D02*
X02695Y03125D01*
X02235Y03145D02*
Y03225D01*
Y03145D02*
X02345Y03035D01*
X02605*
G54D19*
X03785Y02415D02*
X038D01*
X0327Y0199D02*
X0336D01*
X03785Y02415*
G54D20*
X02475Y01915D02*
Y01855D01*
X02505*
X02515Y01865*
Y01905*
X02505Y01915*
X02475*
X02535Y01855D02*
Y01895D01*
X02555Y01915*
X02575Y01895*
Y01855*
Y01885*
X02535*
X026349Y01905D02*
X02625Y01915D01*
X02605*
X02595Y01905*
Y01865*
X02605Y01855*
X02625*
X026349Y01865*
X026949Y01905D02*
X026849Y01915D01*
X026649*
X026549Y01905*
Y01865*
X026649Y01855*
X026849*
X026949Y01865*
G54D21*
X029Y0275D03*
X030938Y027462D03*
X02785Y0275D03*
X0386D03*
G54D22*
X0277Y0436D03*
X0282Y03625D03*
X03565Y03445D03*
X03125Y025D03*
X03815Y0206D03*
X0409Y0293D03*
X02405Y02875D03*
X02365Y02695D03*
X024Y01865D03*
X03825Y01875D03*
X02485Y0437D03*
X02425Y03645D03*
X03655Y0247D03*
X04065Y0416D03*
G54D23*
X02865Y02075D03*
X0396Y0375D03*
X03745Y0385D03*
X02935Y0358D03*
X03315Y042D03*
X04045Y0323D03*
G54D24*
X02865Y02175D03*
X02225Y02435D03*
X0352Y04105D03*
X0362D03*
X0372D03*
X02225Y03225D03*
Y03995D03*
X0396Y036161D03*
X03745Y0395D03*
X03445Y04305D03*
X03545D03*
X03645D03*
X02935Y0368D03*
Y0378D03*
Y0388D03*
X03315Y043D03*
X03945Y0323D03*
X04045Y0343D03*
X03945Y0333D03*
X04045D03*
X03945Y0343D03*
X03195Y04295D03*
X03095D03*
X02995D03*
G54D25*
X02935Y03475D03*
G54D26*
X02325Y02435D03*
X0382Y04105D03*
X02325Y03225D03*
Y03995D03*
X03745Y04305D03*
X02895Y04295D03*
G54D27*
X02535Y02335D03*
Y02435D03*
X02525Y03895D03*
Y03995D03*
Y03125D03*
Y03225D03*
G54D28*
X02535Y02535D03*
X02525Y04095D03*
Y03325D03*
G54D29*
X032756Y03225D03*
X033721D03*
X034685D03*
X03565D03*
X032756Y033215D03*
X033721D03*
X034685D03*
X03565D03*
X03715Y03535D03*
G54D30*
X0327Y0219D03*
G54D31*
X0327Y019931D03*
G54D32*
X039969Y02415D03*
G54D33*
X038Y02415D03*
G54D34*
X04045Y04345D03*
Y0197D03*
X022835D03*
Y04345D03*
G54D35*
X03425Y03725D03*
M02*