%FSTAX24Y24*%
%MOIN*%
%SFA1B1*%

%IPPOS*%
%ADD17C,0.015000*%
%ADD20C,0.010000*%
%ADD43C,0.009800*%
%ADD44C,0.007900*%
%LNpcb-1*%
%LPD*%
G54D17*
X02105Y0179D02*
X042D01*
Y04495*
X02105D02*
X042D01*
G54D20*
X032892Y0378D02*
D01*
X032891Y037802*
X032891Y037805*
X032891Y037808*
X03289Y037811*
X032889Y037814*
X032888Y037817*
X032887Y037819*
X032885Y037822*
X032883Y037824*
X032882Y037826*
X03288Y037829*
X032878Y037831*
X032875Y037833*
X032873Y037834*
X032871Y037836*
X032868Y037837*
X032865Y037838*
X032862Y037839*
X03286Y03784*
X032857Y037841*
X032854Y037841*
X032851Y037841*
X032848*
X032845Y037841*
X032842Y037841*
X032839Y03784*
X032837Y037839*
X032834Y037838*
X032831Y037837*
X032829Y037836*
X032826Y037834*
X032824Y037833*
X032821Y037831*
X032819Y037829*
X032817Y037826*
X032816Y037824*
X032814Y037822*
X032812Y037819*
X032811Y037817*
X03281Y037814*
X032809Y037811*
X032808Y037808*
X032808Y037805*
X032808Y037802*
X032808Y0378*
X032808Y037797*
X032808Y037794*
X032808Y037791*
X032809Y037788*
X03281Y037785*
X032811Y037782*
X032812Y03778*
X032814Y037777*
X032816Y037775*
X032817Y037773*
X032819Y03777*
X032821Y037768*
X032824Y037766*
X032826Y037765*
X032829Y037763*
X032831Y037762*
X032834Y037761*
X032837Y03776*
X032839Y037759*
X032842Y037758*
X032845Y037758*
X032848Y037758*
X032851*
X032854Y037758*
X032857Y037758*
X03286Y037759*
X032862Y03776*
X032865Y037761*
X032868Y037762*
X032871Y037763*
X032873Y037765*
X032875Y037766*
X032878Y037768*
X03288Y03777*
X032882Y037773*
X032883Y037775*
X032885Y037777*
X032887Y03778*
X032888Y037782*
X032889Y037785*
X03289Y037788*
X032891Y037791*
X032891Y037794*
X032891Y037797*
X032892Y0378*
X02685Y038963D02*
Y039003D01*
X02625Y038963D02*
Y039003D01*
X0285Y029413D02*
Y029453D01*
X0279Y029413D02*
Y029453D01*
X0291Y023913D02*
Y023953D01*
X0285Y023913D02*
Y023953D01*
X02105Y0179D02*
Y04495D01*
X0378Y035747D02*
Y035787D01*
X0384Y035747D02*
Y035787D01*
X0368Y036597D02*
Y036637D01*
X0374Y036597D02*
Y036637D01*
X02175Y02385D02*
Y02485D01*
X02375*
Y02385D02*
Y02485D01*
X02175Y02385D02*
X02375D01*
X02175Y03175D02*
Y03275D01*
X02375*
Y03175D02*
Y03275D01*
X02175Y03175D02*
X02375D01*
X02175Y03945D02*
Y04045D01*
X02375*
Y03945D02*
Y04045D01*
X02175Y03945D02*
X02375D01*
X03065Y039213D02*
Y039253D01*
X03005Y039213D02*
Y039253D01*
X032792Y037183D02*
X033484Y037876D01*
X035148*
Y03552D02*
Y037876D01*
X032792Y03552D02*
X035148D01*
X032792D02*
Y037183D01*
X031447Y0391D02*
X031487D01*
X031447Y0385D02*
X031487D01*
X0335Y040647D02*
Y040687D01*
X0341Y040647D02*
Y040687D01*
X0399Y038913D02*
Y038953D01*
X0393Y038913D02*
Y038953D01*
X0311Y036447D02*
Y036487D01*
X0305Y036447D02*
Y036487D01*
X03885Y038913D02*
Y038953D01*
X03825Y038913D02*
Y038953D01*
X02795Y038963D02*
Y039003D01*
X02735Y038963D02*
Y039003D01*
X028647Y03175D02*
X028687D01*
X028647Y03115D02*
X028687D01*
X0273Y0314D02*
X03875D01*
Y02355D02*
Y0314D01*
X0273Y02355D02*
X03875D01*
X0273D02*
Y0314D01*
X03895Y0348D02*
X04095D01*
X03895Y0318D02*
Y0348D01*
Y0318D02*
X04095D01*
Y0348*
X029197Y02565D02*
X029237D01*
X029197Y02505D02*
X029237D01*
X035397Y04175D02*
X035437D01*
X035397Y04235D02*
X035437D01*
X027197Y0416D02*
X027237D01*
X027197Y0422D02*
X027237D01*
X02725Y032771D02*
Y032811D01*
X02665Y032771D02*
Y032811D01*
X02755Y023697D02*
Y023737D01*
X02695Y023697D02*
Y023737D01*
X0262Y03795D02*
X0268D01*
Y03765*
X0267Y03755*
X0265*
X0264Y03765*
Y03795*
Y03775D02*
X0262Y03755D01*
Y03735D02*
Y03715D01*
Y03725*
X0268*
X0267Y03735*
X0263Y03685D02*
X0262Y03675D01*
Y03655*
X0263Y03645*
X0267*
X0268Y03655*
Y03675*
X0267Y03685*
X0266*
X0265Y03675*
Y03645*
X0287Y0301D02*
X0293D01*
Y0298*
X0292Y0297*
X029*
X0289Y0298*
Y0301*
Y0299D02*
X0287Y0297D01*
Y0295D02*
Y0293D01*
Y0294*
X0293*
X0292Y0295*
Y029D02*
X0293Y0289D01*
Y0287*
X0292Y0286*
X0291*
X029Y0287*
X0289Y0286*
X0288*
X0287Y0287*
Y0289*
X0288Y029*
X0289*
X029Y0289*
X0291Y029*
X0292*
X029Y0289D02*
Y0287D01*
X02945Y02455D02*
X03005D01*
Y02425*
X02995Y02415*
X02975*
X02965Y02425*
Y02455*
Y02435D02*
X02945Y02415D01*
Y02395D02*
Y02375D01*
Y02385*
X03005*
X02995Y02395*
Y02345D02*
X03005Y02335D01*
Y02315*
X02995Y02305*
X02985*
X02975Y02315*
Y02325*
Y02315*
X02965Y02305*
X02955*
X02945Y02315*
Y02335*
X02955Y02345*
X02855Y0418D02*
X02815D01*
X02805Y0417*
Y0415*
X02815Y0414*
X02855*
X02865Y0415*
Y0417*
X02845Y0416D02*
X02865Y0418D01*
Y0417D02*
X02855Y0418D01*
X02805Y0424D02*
X02815Y0422D01*
X02835Y042*
X02855*
X02865Y0421*
Y0423*
X02855Y0424*
X02845*
X02835Y0423*
Y042*
X0292Y03385D02*
Y03425D01*
X0291Y03435*
X0289*
X0288Y03425*
Y03385*
X0289Y03375*
X0291*
X029Y03395D02*
X0292Y03375D01*
X0291D02*
X0292Y03385D01*
X0298Y03435D02*
X0294D01*
Y03405*
X0296Y03415*
X0297*
X0298Y03405*
Y03385*
X0297Y03375*
X0295*
X0294Y03385*
X0269Y02685D02*
X0265D01*
X0264Y02675*
Y02655*
X0265Y02645*
X0269*
X027Y02655*
Y02675*
X0268Y02665D02*
X027Y02685D01*
Y02675D02*
X0269Y02685D01*
X027Y02735D02*
X0264D01*
X0267Y02705*
Y02745*
X03675Y0375D02*
Y0381D01*
X03705*
X03715Y038*
Y0378*
X03705Y0377*
X03675*
X03695D02*
X03715Y0375D01*
X03735D02*
X03755D01*
X03745*
Y0381*
X03735Y038*
X03825Y0375D02*
X03785D01*
X03825Y0379*
Y038*
X03815Y0381*
X03795*
X03785Y038*
X03865Y0349D02*
Y0343D01*
X03835*
X03825Y0344*
Y0346*
X03835Y0347*
X03865*
X03845D02*
X03825Y0349D01*
X03805D02*
X03785D01*
X03795*
Y0343*
X03805Y0344*
X03755Y0349D02*
X03735D01*
X03745*
Y0343*
X03755Y0344*
X02855Y02595D02*
Y02655D01*
X02885*
X02895Y02645*
Y02625*
X02885Y02615*
X02855*
X02875D02*
X02895Y02595D01*
X02915D02*
X02935D01*
X02925*
Y02655*
X02915Y02645*
X02965D02*
X02975Y02655D01*
X02995*
X03005Y02645*
Y02605*
X02995Y02595*
X02975*
X02965Y02605*
Y02645*
X02195Y02515D02*
Y02575D01*
X02225*
X02235Y02565*
Y02545*
X02225Y02535*
X02195*
X02255Y02515D02*
X02275D01*
X02265*
Y02575*
X02255Y02565*
X02305D02*
X02315Y02575D01*
X02335*
X02345Y02565*
Y02525*
X02335Y02515*
X02315*
X02305Y02525*
Y02565*
X04115Y0332D02*
X04175D01*
Y0329*
X04165Y0328*
X04145*
X04135Y0329*
Y0332*
X04125Y0326D02*
X04115Y0325D01*
Y0323*
X04125Y0322*
X04165*
X04175Y0323*
Y0325*
X04165Y0326*
X04155*
X04145Y0325*
Y0322*
X0388Y02265D02*
Y02315D01*
X0387Y02325*
X0385*
X0384Y02315*
Y02265*
X0382Y02275D02*
X0381Y02265D01*
X0379*
X0378Y02275*
Y02285*
X0379Y02295*
X038*
X0379*
X0378Y02305*
Y02315*
X0379Y02325*
X0381*
X0382Y02315*
X03375Y03755D02*
Y03705D01*
X03385Y03695*
X03405*
X03415Y03705*
Y03755*
X03435Y03695D02*
X03455D01*
X03445*
Y03755*
X03435Y03745*
X02795Y03815D02*
Y03755D01*
X02765*
X02755Y03765*
Y03785*
X02765Y03795*
X02795*
X02775D02*
X02755Y03815D01*
X02735Y03755D02*
X02695D01*
Y03765*
X02735Y03805*
Y03815*
X0292Y03095D02*
Y03035D01*
X0289*
X0288Y03045*
Y03065*
X0289Y03075*
X0292*
X029D02*
X0288Y03095D01*
X0282Y03035D02*
X0284Y03045D01*
X0286Y03065*
Y03085*
X0285Y03095*
X0283*
X0282Y03085*
Y03075*
X0283Y03065*
X0286*
X03325Y0401D02*
X03265D01*
Y0404*
X03275Y0405*
X03295*
X03305Y0404*
Y0401*
Y0403D02*
X03325Y0405D01*
X03265Y0411D02*
Y0407D01*
X03295*
X03285Y0409*
Y041*
X03295Y0411*
X03315*
X03325Y041*
Y0408*
X03315Y0407*
X0314Y03925D02*
Y03985D01*
X0317*
X0318Y03975*
Y03955*
X0317Y03945*
X0314*
X0316D02*
X0318Y03925D01*
X0323D02*
Y03985D01*
X032Y03955*
X0324*
X0301Y04027D02*
Y04087D01*
X0304*
X0305Y04077*
Y04057*
X0304Y04047*
X0301*
X0303D02*
X0305Y04027D01*
X0307Y04077D02*
X0308Y04087D01*
X031*
X0311Y04077*
Y04067*
X031Y04057*
X0309*
X031*
X0311Y04047*
Y04037*
X031Y04027*
X0308*
X0307Y04037*
X0384Y0398D02*
Y0404D01*
X0387*
X0388Y0403*
Y0401*
X0387Y04*
X0384*
X0386D02*
X0388Y0398D01*
X0394D02*
X039D01*
X0394Y0402*
Y0403*
X0393Y0404*
X0391*
X039Y0403*
X04015Y0392D02*
X04075D01*
Y0389*
X04065Y0388*
X04045*
X04035Y0389*
Y0392*
Y039D02*
X04015Y0388D01*
Y0386D02*
Y0384D01*
Y0385*
X04075*
X04065Y0386*
X02235Y04075D02*
Y04135D01*
X02265*
X02275Y04125*
Y04105*
X02265Y04095*
X02235*
X02325Y04075D02*
Y04135D01*
X02295Y04105*
X02335*
X0222Y033D02*
Y0336D01*
X0225*
X0226Y0335*
Y0333*
X0225Y0332*
X0222*
X0232Y033D02*
X0228D01*
X0232Y0334*
Y0335*
X0231Y0336*
X0229*
X0228Y0335*
X03085Y03745D02*
X03095Y03735D01*
X03115*
X03125Y03745*
Y03785*
X03115Y03795*
X03095*
X03085Y03785*
X03035Y03795D02*
Y03735D01*
X03065Y03765*
X03025*
X03655Y0418D02*
Y0424D01*
X03685*
X03695Y0423*
Y0421*
X03685Y042*
X03655*
X03675D02*
X03695Y0418D01*
X03715D02*
X03735D01*
X03725*
Y0424*
X03715Y0423*
X03795Y0418D02*
Y0424D01*
X03765Y0421*
X03805*
X0267Y023D02*
X0261D01*
Y0233*
X0262Y0234*
X0264*
X0265Y0233*
Y023*
Y0232D02*
X0267Y0234D01*
Y0236D02*
Y0238D01*
Y0237*
X0261*
X0262Y0236*
X0261Y0245D02*
Y0241D01*
X0264*
X0263Y0243*
Y0244*
X0264Y0245*
X0266*
X0267Y0244*
Y0242*
X0266Y0241*
X0267Y033834D02*
Y034434D01*
X027*
X0271Y034334*
Y034134*
X027Y034034*
X0267*
X0269D02*
X0271Y033834D01*
X0273D02*
X0275D01*
X0274*
Y034434*
X0273Y034334*
X0282Y034434D02*
X028Y034334D01*
X0278Y034134*
Y033934*
X0279Y033834*
X0281*
X0282Y033934*
Y034034*
X0281Y034134*
X0278*
X02658Y04255D02*
Y04315D01*
X02688*
X02698Y04305*
Y04285*
X02688Y04275*
X02658*
X02678D02*
X02698Y04255D01*
X02718D02*
X02738D01*
X02728*
Y04315*
X02718Y04305*
X02768Y04315D02*
X02808D01*
Y04305*
X02768Y04265*
Y04255*
X03935Y035367D02*
X039417Y035233D01*
X03955Y0351*
X039683*
X03975Y035167*
Y0353*
X039683Y035367*
X039617*
X03955Y0353*
Y0351*
X04035Y035367D02*
Y0351D01*
X04055*
X040483Y035233*
Y0353*
X04055Y035367*
X040683*
X04075Y0353*
Y035167*
X040683Y0351*
X04075Y03137D02*
Y031503D01*
Y031437*
X04035*
X040417Y03137*
X03975Y031497D02*
Y03123D01*
X039483Y031497*
X039417*
X03935Y03143*
Y031297*
X039417Y03123*
G54D43*
X026941Y025357D02*
D01*
X02694Y02536*
X02694Y025363*
X026939Y025367*
X026939Y02537*
X026938Y025373*
X026936Y025376*
X026935Y02538*
X026933Y025382*
X026931Y025385*
X026929Y025388*
X026927Y025391*
X026924Y025393*
X026922Y025395*
X026919Y025397*
X026916Y025399*
X026913Y025401*
X02691Y025402*
X026907Y025403*
X026903Y025404*
X0269Y025405*
X026897Y025405*
X026893Y025405*
X02689*
X026886Y025405*
X026883Y025405*
X02688Y025404*
X026876Y025403*
X026873Y025402*
X02687Y025401*
X026867Y025399*
X026864Y025397*
X026861Y025395*
X026859Y025393*
X026856Y025391*
X026854Y025388*
X026852Y025385*
X02685Y025382*
X026848Y02538*
X026847Y025376*
X026845Y025373*
X026844Y02537*
X026844Y025367*
X026843Y025363*
X026843Y02536*
X026843Y025357*
X026843Y025353*
X026843Y02535*
X026844Y025346*
X026844Y025343*
X026845Y02534*
X026847Y025337*
X026848Y025333*
X02685Y025331*
X026852Y025328*
X026854Y025325*
X026856Y025322*
X026859Y02532*
X026861Y025318*
X026864Y025316*
X026867Y025314*
X02687Y025312*
X026873Y025311*
X026876Y02531*
X02688Y025309*
X026883Y025308*
X026886Y025308*
X02689Y025308*
X026893*
X026897Y025308*
X0269Y025308*
X026903Y025309*
X026907Y02531*
X02691Y025311*
X026913Y025312*
X026916Y025314*
X026919Y025316*
X026922Y025318*
X026924Y02532*
X026927Y025322*
X026929Y025325*
X026931Y025328*
X026933Y025331*
X026935Y025333*
X026936Y025337*
X026938Y02534*
X026939Y025343*
X026939Y025346*
X02694Y02535*
X02694Y025353*
X026941Y025357*
X027706Y041259D02*
D01*
X027705Y041262*
X027705Y041265*
X027704Y041269*
X027704Y041272*
X027703Y041275*
X027701Y041278*
X0277Y041282*
X027698Y041284*
X027696Y041287*
X027694Y04129*
X027692Y041293*
X027689Y041295*
X027687Y041297*
X027684Y041299*
X027681Y041301*
X027678Y041303*
X027675Y041304*
X027672Y041305*
X027668Y041306*
X027665Y041307*
X027662Y041307*
X027658Y041307*
X027655*
X027651Y041307*
X027648Y041307*
X027645Y041306*
X027641Y041305*
X027638Y041304*
X027635Y041303*
X027632Y041301*
X027629Y041299*
X027626Y041297*
X027624Y041295*
X027621Y041293*
X027619Y04129*
X027617Y041287*
X027615Y041284*
X027613Y041282*
X027612Y041278*
X02761Y041275*
X027609Y041272*
X027609Y041269*
X027608Y041265*
X027608Y041262*
X027608Y041259*
X027608Y041255*
X027608Y041252*
X027609Y041248*
X027609Y041245*
X02761Y041242*
X027612Y041239*
X027613Y041235*
X027615Y041233*
X027617Y04123*
X027619Y041227*
X027621Y041224*
X027624Y041222*
X027626Y04122*
X027629Y041218*
X027632Y041216*
X027635Y041214*
X027638Y041213*
X027641Y041212*
X027645Y041211*
X027648Y04121*
X027651Y04121*
X027655Y04121*
X027658*
X027662Y04121*
X027665Y04121*
X027668Y041211*
X027672Y041212*
X027675Y041213*
X027678Y041214*
X027681Y041216*
X027684Y041218*
X027687Y04122*
X027689Y041222*
X027692Y041224*
X027694Y041227*
X027696Y04123*
X027698Y041233*
X0277Y041235*
X027701Y041239*
X027703Y041242*
X027704Y041245*
X027704Y041248*
X027705Y041252*
X027705Y041255*
X027706Y041259*
X028206Y033559D02*
D01*
X028205Y033562*
X028205Y033565*
X028204Y033569*
X028204Y033572*
X028203Y033575*
X028201Y033578*
X0282Y033582*
X028198Y033584*
X028196Y033587*
X028194Y03359*
X028192Y033593*
X028189Y033595*
X028187Y033597*
X028184Y033599*
X028181Y033601*
X028178Y033603*
X028175Y033604*
X028172Y033605*
X028168Y033606*
X028165Y033607*
X028162Y033607*
X028158Y033607*
X028155*
X028151Y033607*
X028148Y033607*
X028145Y033606*
X028141Y033605*
X028138Y033604*
X028135Y033603*
X028132Y033601*
X028129Y033599*
X028126Y033597*
X028124Y033595*
X028121Y033593*
X028119Y03359*
X028117Y033587*
X028115Y033584*
X028113Y033582*
X028112Y033578*
X02811Y033575*
X028109Y033572*
X028109Y033569*
X028108Y033565*
X028108Y033562*
X028108Y033559*
X028108Y033555*
X028108Y033552*
X028109Y033548*
X028109Y033545*
X02811Y033542*
X028112Y033539*
X028113Y033535*
X028115Y033533*
X028117Y03353*
X028119Y033527*
X028121Y033524*
X028124Y033522*
X028126Y03352*
X028129Y033518*
X028132Y033516*
X028135Y033514*
X028138Y033513*
X028141Y033512*
X028145Y033511*
X028148Y03351*
X028151Y03351*
X028155Y03351*
X028158*
X028162Y03351*
X028165Y03351*
X028168Y033511*
X028172Y033512*
X028175Y033513*
X028178Y033514*
X028181Y033516*
X028184Y033518*
X028187Y03352*
X028189Y033522*
X028192Y033524*
X028194Y033527*
X028196Y03353*
X028198Y033533*
X0282Y033535*
X028201Y033539*
X028203Y033542*
X028204Y033545*
X028204Y033548*
X028205Y033552*
X028205Y033555*
X028206Y033559*
G54D44*
X027009Y025721D02*
Y026076D01*
X027324*
X028191Y025721D02*
Y026076D01*
X027876D02*
X028191D01*
X028021Y041141D02*
X028376D01*
Y040826D02*
Y041141D01*
X028021Y039959D02*
X028376D01*
Y040274*
X028521Y033441D02*
X028876D01*
Y033126D02*
Y033441D01*
X028521Y032259D02*
X028876D01*
Y032574*
M02*