%FSTAX24Y24*%
%MOIN*%
%SFA1B1*%

%IPPOS*%
%ADD85C,0.002000*%
%LNpcb-1*%
%LPD*%
G54D85*
X028803Y0275D02*
X029197D01*
X029Y027303D02*
Y027697D01*
X027661Y0436D02*
X027739D01*
X0277Y043561D02*
Y043639D01*
X028161Y03625D02*
X028239D01*
X0282Y036211D02*
Y036289D01*
X030741Y027462D02*
X031135D01*
X030938Y027265D02*
Y027659D01*
X028473Y02075D02*
X028827D01*
X02865Y020573D02*
Y020927D01*
X028473Y02175D02*
X028827D01*
X02865Y021573D02*
Y021927D01*
X029311Y03475D02*
X029389D01*
X02935Y034711D02*
Y034789D01*
X035611Y03445D02*
X035689D01*
X03565Y034411D02*
Y034489D01*
X023073Y02435D02*
X023427D01*
X02325Y024173D02*
Y024527D01*
X022073Y02435D02*
X022427D01*
X02225Y024173D02*
Y024527D01*
X025153Y02335D02*
X025547D01*
X02535Y023153D02*
Y023547D01*
X025153Y02435D02*
X025547D01*
X02535Y024153D02*
Y024547D01*
X025153Y02535D02*
X025547D01*
X02535Y025153D02*
Y025547D01*
X035023Y04105D02*
X035377D01*
X0352Y040873D02*
Y041227D01*
X036023Y04105D02*
X036377D01*
X0362Y040873D02*
Y041227D01*
X037023Y04105D02*
X037377D01*
X0372Y040873D02*
Y041227D01*
X038023Y04105D02*
X038377D01*
X0382Y040873D02*
Y041227D01*
X023073Y03225D02*
X023427D01*
X02325Y032073D02*
Y032427D01*
X022073Y03225D02*
X022427D01*
X02225Y032073D02*
Y032427D01*
X023073Y03995D02*
X023427D01*
X02325Y039773D02*
Y040127D01*
X022073Y03995D02*
X022427D01*
X02225Y039773D02*
Y040127D01*
X025053Y03895D02*
X025447D01*
X02525Y038753D02*
Y039147D01*
X025053Y03995D02*
X025447D01*
X02525Y039753D02*
Y040147D01*
X025053Y04095D02*
X025447D01*
X02525Y040753D02*
Y041147D01*
X025053Y03125D02*
X025447D01*
X02525Y031053D02*
Y031447D01*
X025053Y03225D02*
X025447D01*
X02525Y032053D02*
Y032447D01*
X025053Y03325D02*
X025447D01*
X02525Y033053D02*
Y033447D01*
X039423Y0375D02*
X039777D01*
X0396Y037323D02*
Y037677D01*
X039423Y036161D02*
X039777D01*
X0396Y035984D02*
Y036339D01*
X037273Y0395D02*
X037627D01*
X03745Y039323D02*
Y039677D01*
X037273Y0385D02*
X037627D01*
X03745Y038323D02*
Y038677D01*
X034273Y04305D02*
X034627D01*
X03445Y042873D02*
Y043227D01*
X035273Y04305D02*
X035627D01*
X03545Y042873D02*
Y043227D01*
X036273Y04305D02*
X036627D01*
X03645Y042873D02*
Y043227D01*
X037273Y04305D02*
X037627D01*
X03745Y042873D02*
Y043227D01*
X032606Y03225D02*
X032906D01*
X032756Y0321D02*
Y0324D01*
X033571Y03225D02*
X033871D01*
X033721Y0321D02*
Y0324D01*
X034535Y03225D02*
X034835D01*
X034685Y0321D02*
Y0324D01*
X0355Y03225D02*
X0358D01*
X03565Y0321D02*
Y0324D01*
X032606Y033215D02*
X032906D01*
X032756Y033065D02*
Y033365D01*
X033571Y033215D02*
X033871D01*
X033721Y033065D02*
Y033365D01*
X034535Y033215D02*
X034835D01*
X034685Y033065D02*
Y033365D01*
X0355Y033215D02*
X0358D01*
X03565Y033065D02*
Y033365D01*
X0292Y0358D02*
X0295D01*
X02935Y03565D02*
Y03595D01*
X0292Y0368D02*
X0295D01*
X02935Y03665D02*
Y03695D01*
X0292Y0378D02*
X0295D01*
X02935Y03765D02*
Y03795D01*
X0292Y0388D02*
X0295D01*
X02935Y03865D02*
Y03895D01*
X033Y042D02*
X0333D01*
X03315Y04185D02*
Y04215D01*
X033Y043D02*
X0333D01*
X03315Y04285D02*
Y04315D01*
X027653Y0275D02*
X028047D01*
X02785Y027303D02*
Y027697D01*
X038403Y0275D02*
X038797D01*
X0386Y027303D02*
Y027697D01*
X039273Y0323D02*
X039627D01*
X03945Y032123D02*
Y032477D01*
X040273Y0343D02*
X040627D01*
X04045Y034123D02*
Y034477D01*
X039273Y0333D02*
X039627D01*
X03945Y033123D02*
Y033477D01*
X040273Y0333D02*
X040627D01*
X04045Y033123D02*
Y033477D01*
X040273Y0323D02*
X040627D01*
X04045Y032123D02*
Y032477D01*
X039273Y0343D02*
X039627D01*
X03945Y034123D02*
Y034477D01*
X032523Y0219D02*
X032877D01*
X0327Y021723D02*
Y022077D01*
X032523Y019931D02*
X032877D01*
X0327Y019754D02*
Y020109D01*
X039732Y02415D02*
X040205D01*
X039969Y023914D02*
Y024386D01*
X037764Y02415D02*
X038236D01*
X038Y023914D02*
Y024386D01*
X037Y03535D02*
X0373D01*
X03715Y0352D02*
Y0355D01*
X0318Y04295D02*
X0321D01*
X03195Y0428D02*
Y0431D01*
X0308Y04295D02*
X0311D01*
X03095Y0428D02*
Y0431D01*
X0298Y04295D02*
X0301D01*
X02995Y0428D02*
Y0431D01*
X0288Y04295D02*
X0291D01*
X02895Y0428D02*
Y0431D01*
X040056Y04345D02*
X040844D01*
X04045Y043056D02*
Y043844D01*
X040056Y0197D02*
X040844D01*
X04045Y019306D02*
Y020094D01*
X022441Y0197D02*
X023228D01*
X022835Y019306D02*
Y020094D01*
X022441Y04345D02*
X023228D01*
X022835Y043056D02*
Y043844D01*
X034211Y03725D02*
X034289D01*
X03425Y037211D02*
Y037289D01*
X031211Y025D02*
X031289D01*
X03125Y024961D02*
Y025039D01*
X038111Y0206D02*
X038189D01*
X03815Y020561D02*
Y020639D01*
X040861Y0293D02*
X040939D01*
X0409Y029261D02*
Y029339D01*
X024011Y02875D02*
X024089D01*
X02405Y028711D02*
Y028789D01*
X023611Y02695D02*
X023689D01*
X02365Y026911D02*
Y026989D01*
X023961Y01865D02*
X024039D01*
X024Y018611D02*
Y018689D01*
X038211Y01875D02*
X038289D01*
X03825Y018711D02*
Y018789D01*
X024811Y0437D02*
X024889D01*
X02485Y043661D02*
Y043739D01*
X024211Y03645D02*
X024289D01*
X02425Y036411D02*
Y036489D01*
X036511Y0247D02*
X036589D01*
X03655Y024661D02*
Y024739D01*
X040611Y0416D02*
X040689D01*
X04065Y041561D02*
Y041639D01*
M02*