%FSTAX24Y24*%
%MOIN*%
%SFA1B1*%

%IPPOS*%
%AMD37*
4,1,8,0.008200,0.040000,-0.008200,0.040000,-0.016500,0.031700,-0.016500,-0.031700,-0.008200,-0.040000,0.008200,-0.040000,0.016500,-0.031700,0.016500,0.031700,0.008200,0.040000,0.0*
%
%AMD40*
4,1,8,-0.034400,0.034900,-0.034400,-0.034900,-0.017200,-0.052100,0.017200,-0.052100,0.034400,-0.034900,0.034400,0.034900,0.017200,0.052100,-0.017200,0.052100,-0.034400,0.034900,0.0*
%
%ADD10R,0.059100X0.051200*%
%ADD14R,0.051200X0.059100*%
%ADD17C,0.015000*%
%ADD18C,0.020000*%
%ADD19C,0.040000*%
%ADD21O,0.078700X0.118100*%
%ADD22C,0.039400*%
%ADD23R,0.059100X0.059100*%
%ADD24C,0.059100*%
%ADD25C,0.031500*%
%ADD26R,0.059100X0.059100*%
%ADD27O,0.100000X0.078700*%
%ADD28R,0.100000X0.078700*%
%ADD29C,0.060000*%
%ADD30R,0.078700X0.078700*%
%ADD31C,0.078700*%
%ADD32C,0.118100*%
%ADD33R,0.118100X0.118100*%
%ADD34C,0.157500*%
%ADD35C,0.027600*%
%ADD36R,0.122000X0.080000*%
G04~CAMADD=37~4~0.0~0.0~330.0~800.0~0.0~82.5~0~0.0~0.0~0.0~0.0~0~0.0~0.0~0.0~0.0~0~0.0~0.0~0.0~0.0~330.0~800.0*
%ADD37D37*%
%ADD38R,0.033000X0.080000*%
%ADD39R,0.068900X0.104300*%
G04~CAMADD=40~4~0.0~0.0~1043.0~689.0~0.0~172.3~0~0.0~0.0~0.0~0.0~0~0.0~0.0~0.0~0.0~0~0.0~0.0~0.0~90.0~688.0~1042.0*
%ADD40D40*%
%ADD41C,0.070000*%
%ADD42C,0.060000*%
%LNpcb-1*%
%LPD*%
G36*
X0419Y01805D02*
X0212D01*
Y04475*
X0419*
Y01805*
G37*
%LNpcb-2*%
%LPC*%
G36*
X02495Y04398D02*
Y0438D01*
X02513*
X025109Y04385*
X025062Y043912*
X025Y043959*
X02495Y04398*
G37*
G36*
X02475D02*
X0247Y043959D01*
X024638Y043912*
X024591Y04385*
X02457Y0438*
X02475*
Y04398*
G37*
G36*
X0278Y04388D02*
Y0437D01*
X02798*
X027959Y04375*
X027912Y043812*
X02785Y043859*
X0278Y04388*
G37*
G36*
X0276D02*
X02755Y043859D01*
X027488Y043812*
X027441Y04375*
X02742Y0437*
X0276*
Y04388*
G37*
G36*
X02513Y0436D02*
X02495D01*
Y04342*
X025Y043441*
X025062Y043488*
X025109Y04355*
X02513Y0436*
G37*
G36*
X02475D02*
X02457D01*
X024591Y04355*
X024638Y043488*
X0247Y043441*
X02475Y04342*
Y0436*
G37*
G36*
X02798Y0435D02*
X0278D01*
Y04332*
X02785Y043341*
X027912Y043388*
X027959Y04345*
X02798Y0435*
G37*
G36*
X0276D02*
X02742D01*
X027441Y04345*
X027488Y043388*
X02755Y043341*
X0276Y04332*
Y0435*
G37*
G36*
X037845Y043445D02*
X03755D01*
Y04315*
X037845*
Y043445*
G37*
G36*
X03735D02*
X037055D01*
Y04315*
X03735*
Y043445*
G37*
G36*
X03325Y043386D02*
Y0431D01*
X033536*
X033535Y043103*
X033495Y043199*
X033432Y043282*
X033349Y043345*
X033253Y043385*
X03325Y043386*
G37*
G36*
X03305D02*
X033047Y043385D01*
X032951Y043345*
X032868Y043282*
X032805Y043199*
X032765Y043103*
X032764Y0431*
X03305*
Y043386*
G37*
G36*
X03005Y043336D02*
Y04305D01*
X030336*
X030335Y043053*
X030295Y043149*
X030232Y043232*
X030149Y043295*
X030053Y043335*
X03005Y043336*
G37*
G36*
X02985D02*
X029847Y043335D01*
X029751Y043295*
X029668Y043232*
X029605Y043149*
X029565Y043053*
X029564Y04305*
X02985*
Y043336*
G37*
G36*
X037845Y04295D02*
X03755D01*
Y042655*
X037845*
Y04295*
G37*
G36*
X03735D02*
X037055D01*
Y042655*
X03735*
Y04295*
G37*
G36*
X03645Y043449D02*
X036347Y043435D01*
X036251Y043395*
X036168Y043332*
X036105Y043249*
X036065Y043153*
X036051Y04305*
X036065Y042947*
X036105Y042851*
X036168Y042768*
X036251Y042705*
X036347Y042665*
X03645Y042651*
X036553Y042665*
X036649Y042705*
X036732Y042768*
X036795Y042851*
X036835Y042947*
X036849Y04305*
X036835Y043153*
X036795Y043249*
X036732Y043332*
X036649Y043395*
X036553Y043435*
X03645Y043449*
G37*
G36*
X03545D02*
X035347Y043435D01*
X035251Y043395*
X035168Y043332*
X035105Y043249*
X035065Y043153*
X035051Y04305*
X035065Y042947*
X035105Y042851*
X035168Y042768*
X035251Y042705*
X035347Y042665*
X03545Y042651*
X035553Y042665*
X035649Y042705*
X035732Y042768*
X035795Y042851*
X035835Y042947*
X035849Y04305*
X035835Y043153*
X035795Y043249*
X035732Y043332*
X035649Y043395*
X035553Y043435*
X03545Y043449*
G37*
G36*
X03445D02*
X034347Y043435D01*
X034251Y043395*
X034168Y043332*
X034105Y043249*
X034065Y043153*
X034051Y04305*
X034065Y042947*
X034105Y042851*
X034168Y042768*
X034251Y042705*
X034347Y042665*
X03445Y042651*
X034553Y042665*
X034649Y042705*
X034732Y042768*
X034795Y042851*
X034835Y042947*
X034849Y04305*
X034835Y043153*
X034795Y043249*
X034732Y043332*
X034649Y043395*
X034553Y043435*
X03445Y043449*
G37*
G36*
X033536Y0429D02*
X03325D01*
Y042614*
X033253Y042615*
X033349Y042655*
X033432Y042718*
X033495Y042801*
X033535Y042897*
X033536Y0429*
G37*
G36*
X03305D02*
X032764D01*
X032765Y042897*
X032805Y042801*
X032868Y042718*
X032951Y042655*
X033047Y042615*
X03305Y042614*
Y0429*
G37*
G36*
X030336Y04285D02*
X03005D01*
Y042564*
X030053Y042565*
X030149Y042605*
X030232Y042668*
X030295Y042751*
X030335Y042847*
X030336Y04285*
G37*
G36*
X02985D02*
X029564D01*
X029565Y042847*
X029605Y042751*
X029668Y042668*
X029751Y042605*
X029847Y042565*
X02985Y042564*
Y04285*
G37*
G36*
X04045Y044342D02*
X040276Y044325D01*
X040109Y044274*
X039955Y044191*
X039819Y044081*
X039709Y043945*
X039626Y043791*
X039575Y043624*
X039558Y04345*
X039575Y043276*
X039626Y043109*
X039709Y042955*
X039819Y042819*
X039955Y042709*
X040109Y042626*
X040276Y042575*
X04045Y042558*
X040624Y042575*
X040791Y042626*
X040945Y042709*
X041081Y042819*
X041191Y042955*
X041274Y043109*
X041325Y043276*
X041342Y04345*
X041325Y043624*
X041274Y043791*
X041191Y043945*
X041081Y044081*
X040945Y044191*
X040791Y044274*
X040624Y044325*
X04045Y044342*
G37*
G36*
X022835D02*
X022661Y044325D01*
X022493Y044274*
X022339Y044191*
X022204Y044081*
X022093Y043945*
X022011Y043791*
X02196Y043624*
X021943Y04345*
X02196Y043276*
X022011Y043109*
X022093Y042955*
X022204Y042819*
X022339Y042709*
X022493Y042626*
X022661Y042575*
X022835Y042558*
X023009Y042575*
X023176Y042626*
X02333Y042709*
X023465Y042819*
X023576Y042955*
X023658Y043109*
X023709Y043276*
X023726Y04345*
X023709Y043624*
X023658Y043791*
X023576Y043945*
X023465Y044081*
X02333Y044191*
X023176Y044274*
X023009Y044325*
X022835Y044342*
G37*
G36*
X03195Y043349D02*
X031847Y043335D01*
X031751Y043295*
X031668Y043232*
X031605Y043149*
X031565Y043053*
X031551Y04295*
X031565Y042847*
X031605Y042751*
X031668Y042668*
X031751Y042605*
X031847Y042565*
X03195Y042551*
X032053Y042565*
X032149Y042605*
X032232Y042668*
X032295Y042751*
X032335Y042847*
X032349Y04295*
X032335Y043053*
X032295Y043149*
X032232Y043232*
X032149Y043295*
X032053Y043335*
X03195Y043349*
G37*
G36*
X03095D02*
X030847Y043335D01*
X030751Y043295*
X030668Y043232*
X030605Y043149*
X030565Y043053*
X030551Y04295*
X030565Y042847*
X030605Y042751*
X030668Y042668*
X030751Y042605*
X030847Y042565*
X03095Y042551*
X031053Y042565*
X031149Y042605*
X031232Y042668*
X031295Y042751*
X031335Y042847*
X031349Y04295*
X031335Y043053*
X031295Y043149*
X031232Y043232*
X031149Y043295*
X031053Y043335*
X03095Y043349*
G37*
G36*
X04075Y04188D02*
Y0417D01*
X04093*
X040909Y04175*
X040862Y041812*
X0408Y041859*
X04075Y04188*
G37*
G36*
X04055D02*
X0405Y041859D01*
X040438Y041812*
X040391Y04175*
X04037Y0417*
X04055*
Y04188*
G37*
G36*
X04093Y0415D02*
X04075D01*
Y04132*
X0408Y041341*
X040862Y041388*
X040909Y04145*
X04093Y0415*
G37*
G36*
X04055D02*
X04037D01*
X040391Y04145*
X040438Y041388*
X0405Y041341*
X04055Y04132*
Y0415*
G37*
G36*
X0353Y041436D02*
Y04115D01*
X035586*
X035585Y041153*
X035545Y041249*
X035482Y041332*
X035399Y041395*
X035303Y041435*
X0353Y041436*
G37*
G36*
X0351D02*
X035097Y041435D01*
X035001Y041395*
X034918Y041332*
X034855Y041249*
X034815Y041153*
X034814Y04115*
X0351*
Y041436*
G37*
G36*
X035586Y04095D02*
X0353D01*
Y040664*
X035303Y040665*
X035399Y040705*
X035482Y040768*
X035545Y040851*
X035585Y040947*
X035586Y04095*
G37*
G36*
X0351D02*
X034814D01*
X034815Y040947*
X034855Y040851*
X034918Y040768*
X035001Y040705*
X035097Y040665*
X0351Y040664*
Y04095*
G37*
G36*
X038595Y041445D02*
X037805D01*
Y040655*
X038595*
Y041445*
G37*
G36*
X0372Y041449D02*
X037097Y041435D01*
X037001Y041395*
X036918Y041332*
X036855Y041249*
X036815Y041153*
X036801Y04105*
X036815Y040947*
X036855Y040851*
X036918Y040768*
X037001Y040705*
X037097Y040665*
X0372Y040651*
X037303Y040665*
X037399Y040705*
X037482Y040768*
X037545Y040851*
X037585Y040947*
X037599Y04105*
X037585Y041153*
X037545Y041249*
X037482Y041332*
X037399Y041395*
X037303Y041435*
X0372Y041449*
G37*
G36*
X0362D02*
X036097Y041435D01*
X036001Y041395*
X035918Y041332*
X035855Y041249*
X035815Y041153*
X035801Y04105*
X035815Y040947*
X035855Y040851*
X035918Y040768*
X036001Y040705*
X036097Y040665*
X0362Y040651*
X036303Y040665*
X036399Y040705*
X036482Y040768*
X036545Y040851*
X036585Y040947*
X036599Y04105*
X036585Y041153*
X036545Y041249*
X036482Y041332*
X036399Y041395*
X036303Y041435*
X0362Y041449*
G37*
G36*
X03755Y039886D02*
Y0396D01*
X037836*
X037835Y039603*
X037795Y039699*
X037732Y039782*
X037649Y039845*
X037553Y039885*
X03755Y039886*
G37*
G36*
X03735D02*
X037347Y039885D01*
X037251Y039845*
X037168Y039782*
X037105Y039699*
X037065Y039603*
X037064Y0396*
X03735*
Y039886*
G37*
G36*
X037836Y0394D02*
X03755D01*
Y039114*
X037553Y039115*
X037649Y039155*
X037732Y039218*
X037795Y039301*
X037835Y039397*
X037836Y0394*
G37*
G36*
X03735D02*
X037064D01*
X037065Y039397*
X037105Y039301*
X037168Y039218*
X037251Y039155*
X037347Y039115*
X03735Y039114*
Y0394*
G37*
G36*
X02585Y041444D02*
X02465D01*
Y040456*
X024945*
X024955Y040406*
X024895Y040381*
X024859Y040353*
X02325*
X023188Y040345*
X022855*
Y040012*
X022847Y03995*
X022855Y039888*
Y039555*
X023188*
X02325Y039547*
X024859*
X024895Y039519*
X024995Y039477*
Y039423*
X024895Y039381*
X024792Y039302*
X024712Y039199*
X024663Y039079*
X024659Y03905*
X02525*
X025841*
X025837Y039079*
X025788Y039199*
X025708Y039302*
X025605Y039381*
X025505Y039423*
Y039477*
X025605Y039519*
X025708Y039598*
X025788Y039701*
X025837Y039821*
X025854Y03995*
X025837Y040079*
X025788Y040199*
X025708Y040302*
X025605Y040381*
X025545Y040406*
X025555Y040456*
X02585*
Y041444*
G37*
G36*
X025841Y03885D02*
X02535D01*
Y038452*
X025356*
X025485Y038469*
X025605Y038519*
X025708Y038598*
X025788Y038701*
X025837Y038821*
X025841Y03885*
G37*
G36*
X02515D02*
X024659D01*
X024663Y038821*
X024712Y038701*
X024792Y038598*
X024895Y038519*
X025015Y038469*
X025144Y038452*
X02515*
Y03885*
G37*
G36*
X02935Y039199D02*
X029247Y039185D01*
X029151Y039145*
X029068Y039082*
X029005Y038999*
X028965Y038903*
X028951Y0388*
X028965Y038697*
X029005Y038601*
X029068Y038518*
X029151Y038455*
X029247Y038415*
X02935Y038401*
X029453Y038415*
X029549Y038455*
X029632Y038518*
X029695Y038601*
X029735Y038697*
X029749Y0388*
X029735Y038903*
X029695Y038999*
X029632Y039082*
X029549Y039145*
X029453Y039185*
X02935Y039199*
G37*
G36*
X037845Y038895D02*
X037055D01*
Y038105*
X037845*
Y038895*
G37*
G36*
X02935Y038199D02*
X029247Y038185D01*
X029151Y038145*
X029068Y038082*
X029005Y037999*
X028965Y037903*
X028951Y0378*
X028965Y037697*
X029005Y037601*
X029068Y037518*
X029151Y037455*
X029247Y037415*
X02935Y037401*
X029453Y037415*
X029549Y037455*
X029632Y037518*
X029695Y037601*
X029735Y037697*
X029749Y0378*
X029735Y037903*
X029695Y037999*
X029632Y038082*
X029549Y038145*
X029453Y038185*
X02935Y038199*
G37*
G36*
X03435Y037469D02*
Y03735D01*
X034469*
X034421Y037421*
X03435Y037469*
G37*
G36*
X03415D02*
X034079Y037421D01*
X034031Y03735*
X03415*
Y037469*
G37*
G36*
X039995Y037895D02*
X039205D01*
Y037105*
X039995*
Y037895*
G37*
G36*
X034469Y03715D02*
X03435D01*
Y037031*
X034421Y037079*
X034469Y03715*
G37*
G36*
X03415D02*
X034031D01*
X034079Y037079*
X03415Y037031*
Y03715*
G37*
G36*
X02945Y037186D02*
Y0369D01*
X029736*
X029735Y036903*
X029695Y036999*
X029632Y037082*
X029549Y037145*
X029453Y037185*
X02945Y037186*
G37*
G36*
X02925D02*
X029247Y037185D01*
X029151Y037145*
X029068Y037082*
X029005Y036999*
X028965Y036903*
X028964Y0369*
X02925*
Y037186*
G37*
G36*
X02435Y03673D02*
Y03655D01*
X02453*
X024509Y0366*
X024462Y036662*
X0244Y036709*
X02435Y03673*
G37*
G36*
X02415D02*
X0241Y036709D01*
X024038Y036662*
X023991Y0366*
X02397Y03655*
X02415*
Y03673*
G37*
G36*
X029345Y043345D02*
X028555D01*
Y042913*
X028456Y042814*
X028412Y042748*
X028396Y04267*
Y03655*
X028399Y036534*
X028354Y036506*
X02835Y036509*
X0283Y03653*
Y03625*
Y03597*
X02835Y035991*
X028412Y036038*
X028459Y0361*
X028489Y036173*
X028499Y03625*
X028493Y036298*
X02854Y036321*
X028955Y035907*
Y035405*
X029745*
Y036195*
X029243*
X028804Y036634*
Y042555*
X029345*
Y043345*
G37*
G36*
X029736Y0367D02*
X02945D01*
Y036414*
X029453Y036415*
X029549Y036455*
X029632Y036518*
X029695Y036601*
X029735Y036697*
X029736Y0367*
G37*
G36*
X02925D02*
X028964D01*
X028965Y036697*
X029005Y036601*
X029068Y036518*
X029151Y036455*
X029247Y036415*
X02925Y036414*
Y0367*
G37*
G36*
X0281Y03653D02*
X02805Y036509D01*
X027988Y036462*
X027941Y0364*
X02792Y03635*
X0281*
Y03653*
G37*
G36*
X0397Y036547D02*
Y036261D01*
X039986*
X039985Y036265*
X039945Y036361*
X039882Y036443*
X039799Y036507*
X039703Y036547*
X0397*
G37*
G36*
X0395D02*
X039497D01*
X039401Y036507*
X039318Y036443*
X039255Y036361*
X039215Y036265*
X039214Y036261*
X0395*
Y036547*
G37*
G36*
X02453Y03635D02*
X02435D01*
Y03617*
X0244Y036191*
X024462Y036238*
X024509Y0363*
X02453Y03635*
G37*
G36*
X02415D02*
X02397D01*
X023991Y0363*
X024038Y036238*
X0241Y036191*
X02415Y03617*
Y03635*
G37*
G36*
X0281Y03615D02*
X02792D01*
X027941Y0361*
X027988Y036038*
X02805Y035991*
X0281Y03597*
Y03615*
G37*
G36*
X039986Y036061D02*
X0397D01*
Y035776*
X039703*
X039799Y035816*
X039882Y035879*
X039945Y035962*
X039985Y036058*
X039986Y036061*
G37*
G36*
X0395D02*
X039214D01*
X039215Y036058*
X039255Y035962*
X039318Y035879*
X039401Y035816*
X039497Y035776*
X0395*
Y036061*
G37*
G36*
X02225Y040404D02*
X022133Y040388D01*
X022023Y040343*
X021929Y040271*
X021857Y040177*
X021812Y040067*
X021796Y03995*
Y02435*
Y0233*
X021812Y023183*
X021857Y023073*
X021929Y022979*
X024479Y020429*
X024573Y020357*
X024683Y020312*
X0248Y020296*
X02485Y020303*
X0249Y020296*
X03155*
X031667Y020312*
X031777Y020357*
X031871Y020429*
X032848Y021406*
X033194*
Y021647*
X034856*
Y021328*
X035744*
Y022038*
X035753Y0221*
X035744Y022162*
Y022572*
X034856*
Y022253*
X033194*
Y022394*
X032827*
X03275Y022404*
X032673Y022394*
X032206*
Y022048*
X031362Y021204*
X024988*
X022704Y023488*
Y02435*
Y034972*
X02914*
X029157Y034922*
X029125Y03488*
X029099Y034817*
X02909Y03475*
X029099Y034683*
X029125Y03462*
X029146Y034593*
Y0321*
X029162Y032022*
X029206Y031956*
X030756Y030406*
X030822Y030362*
X0309Y030346*
X032478*
Y030155*
X032973*
X033232Y029895*
X033212Y029845*
X032544*
Y029753*
X032272*
Y029845*
X03156*
Y029055*
X032272*
Y029147*
X032544*
Y029055*
X032597*
Y02868*
X032585Y028668*
Y027933*
X032717Y0278*
X032982*
X033115Y027933*
Y028137*
X033162Y028199*
X033192Y028272*
X033203Y02835*
Y029055*
X033256*
Y029801*
X033306Y029822*
X03341Y029717*
Y029055*
X033464*
Y028306*
X033474Y028228*
X033495Y028177*
Y0278*
X034025*
Y028151*
X034028Y028155*
X034058Y028228*
X034069Y028306*
Y029055*
X034122*
Y029147*
X038297*
Y028087*
X038248Y028049*
X038169Y027946*
X038119Y027826*
X038102Y027697*
Y02743*
X037786Y027114*
X037738Y027051*
X037708Y026978*
X037697Y0269*
Y024841*
X037309*
Y023459*
X038691*
Y024841*
X038303*
Y026775*
X038386Y026858*
X038471Y026822*
X0386Y026805*
X038729Y026822*
X038849Y026872*
X038952Y026951*
X039031Y027054*
X039081Y027174*
X039098Y027303*
Y027697*
X039081Y027826*
X039031Y027946*
X038952Y028049*
X038903Y028087*
Y02945*
X038894Y029516*
X039664Y030286*
X039712Y030349*
X039742Y030422*
X039753Y0305*
Y032045*
X039795Y032101*
X039835Y032197*
X039849Y0323*
X039835Y032403*
X039795Y032499*
X039732Y032582*
X039649Y032645*
X039553Y032685*
X03945Y032699*
X039347Y032685*
X039251Y032645*
X039168Y032582*
X039105Y032499*
X039065Y032403*
X039051Y0323*
X039065Y032197*
X039105Y032101*
X039147Y032045*
Y030625*
X038275Y029753*
X035339*
Y031922*
X035389Y031946*
X035448Y031901*
X035546Y03186*
X03555*
Y03225*
Y03264*
X035546*
X035448Y032599*
X035389Y032554*
X035339Y032578*
Y032651*
X035522Y032835*
X035546Y032825*
X03565Y032811*
X035754Y032825*
X035852Y032865*
X035935Y032929*
X035999Y033013*
X036009Y033036*
X036555*
Y032844*
X037345*
Y033511*
X037737*
X038074Y033174*
X038132Y033135*
X0382Y033122*
X039096*
X039105Y033101*
X039168Y033018*
X039251Y032955*
X039347Y032915*
X03945Y032901*
X039553Y032915*
X039649Y032955*
X039732Y033018*
X039751Y033043*
X039801Y033026*
Y03277*
X039815Y032702*
X039854Y032644*
X040055Y032443*
Y031905*
X040845*
Y032695*
X040307*
X040158Y032844*
Y032963*
X040208Y032987*
X040251Y032955*
X040347Y032915*
X04045Y032901*
X040553Y032915*
X040649Y032955*
X040732Y033018*
X040795Y033101*
X040835Y033197*
X040849Y0333*
X040835Y033403*
X040795Y033499*
X040732Y033582*
X040649Y033645*
X040553Y033685*
X04045Y033699*
X040347Y033685*
X040251Y033645*
X040202Y033608*
X040147Y033628*
X040145Y033639*
X040106Y033696*
X039876Y033926*
X039818Y033965*
X03976Y033976*
X039746Y033997*
X03974Y034028*
X039795Y034101*
X039835Y034197*
X039836Y0342*
X03945*
X039064*
X039065Y034197*
X039105Y034101*
X03916Y034028*
X039144Y033978*
X038874*
X038276Y034576*
X038218Y034615*
X03815Y034628*
X035887*
X035862Y034662*
X0358Y034709*
X035727Y034739*
X03565Y034749*
X035573Y034739*
X0355Y034709*
X035438Y034662*
X035413Y034628*
X034285*
X034216Y034615*
X034158Y034576*
X033105Y033523*
X033091Y033501*
X033074*
X033034Y033506*
X032958Y033564*
X032861Y033604*
X032756Y033618*
X032652Y033604*
X032555Y033564*
X032471Y0335*
X032407Y033416*
X032367Y033319*
X032353Y033215*
X032367Y03311*
X032407Y033013*
X032471Y032929*
X032555Y032865*
X032652Y032825*
X032756Y032811*
X032861Y032825*
X032958Y032865*
X033003Y0329*
X033053Y032875*
Y032799*
X032884Y03263*
X032861Y03264*
X032756Y032653*
X032652Y03264*
X032555Y032599*
X032471Y032535*
X032407Y032452*
X032367Y032354*
X032353Y03225*
X032367Y032146*
X032407Y032048*
X032471Y031965*
X032555Y031901*
X032652Y03186*
X032756Y031847*
X032861Y03186*
X032958Y031901*
X033042Y031965*
X033106Y032048*
X033146Y032146*
X03316Y03225*
X033146Y032354*
X033136Y032378*
X033357Y032599*
X033396Y032657*
X03341Y032725*
Y032886*
X03346Y032911*
X033519Y032865*
X033616Y032825*
X033721Y032811*
X033825Y032825*
X033923Y032865*
X034006Y032929*
X03407Y033013*
X034111Y03311*
X034124Y033215*
X034111Y033319*
X034101Y033342*
X03427Y033511*
X034346*
X03437Y033461*
X034336Y033416*
X034296Y033319*
X034282Y033215*
X034296Y03311*
X034336Y033013*
X0344Y032929*
X034484Y032865*
X034581Y032825*
X034685Y032811*
X03479Y032825*
X034887Y032865*
X034971Y032929*
X035035Y033013*
X035075Y03311*
X035089Y033215*
X035075Y033319*
X035035Y033416*
X035Y033461*
X035025Y033511*
X03531*
X035335Y033461*
X035301Y033416*
X03526Y033319*
X035247Y033215*
X03526Y03311*
X03527Y033087*
X035034Y032851*
X034996Y032793*
X034982Y032725*
Y03259*
X034932Y032565*
X034887Y032599*
X03479Y03264*
X034685Y032653*
X034581Y03264*
X034484Y032599*
X0344Y032535*
X034336Y032452*
X034296Y032354*
X034282Y03225*
X034296Y032146*
X034336Y032048*
X0344Y031965*
X034484Y031901*
X034581Y03186*
X034685Y031847*
X03479Y03186*
X034887Y031901*
X034932Y031935*
X034982Y03191*
Y029753*
X034122*
Y029845*
X033859*
X033596Y030109*
X0336Y030119*
Y03045*
X033344*
Y030426*
X033298Y030406*
X03319Y030515*
Y030945*
X032478*
Y030754*
X030984*
X029554Y032184*
Y034593*
X029575Y03462*
X029601Y034683*
X02961Y03475*
X029601Y034817*
X029575Y03488*
X029543Y034922*
X02956Y034972*
X03005*
X030118Y034985*
X030176Y035024*
X030324Y035172*
X036791*
X036801Y035148*
X036865Y035065*
X036948Y035001*
X037046Y03496*
X03715Y034947*
X037254Y03496*
X037352Y035001*
X037435Y035065*
X037499Y035148*
X03754Y035246*
X037553Y03535*
X03754Y035454*
X037499Y035552*
X037435Y035635*
X037352Y035699*
X037254Y03574*
X03715Y035753*
X037046Y03574*
X036948Y035699*
X036865Y035635*
X036801Y035552*
X036791Y035528*
X03025*
X030182Y035515*
X030124Y035476*
X029976Y035328*
X022704*
Y03995*
X022688Y040067*
X022643Y040177*
X022571Y040271*
X022477Y040343*
X022367Y040388*
X02225Y040404*
G37*
G36*
X033545Y042395D02*
X032755D01*
Y041605*
X033545*
Y041796*
X038466*
X040746Y039516*
Y034884*
X040547Y034686*
X04045Y034699*
X040347Y034685*
X040251Y034645*
X040168Y034582*
X040105Y034499*
X040065Y034403*
X040051Y0343*
X040065Y034197*
X040105Y034101*
X040168Y034018*
X040251Y033955*
X040347Y033915*
X04045Y033901*
X040553Y033915*
X040649Y033955*
X040732Y034018*
X040795Y034101*
X040835Y034197*
X040849Y0343*
X040836Y034397*
X041094Y034656*
X041138Y034722*
X041154Y0348*
Y0396*
X041138Y039678*
X041094Y039744*
X038694Y042144*
X038628Y042188*
X03855Y042204*
X033545*
Y042395*
G37*
G36*
X03955Y034686D02*
Y0344D01*
X039836*
X039835Y034403*
X039795Y034499*
X039732Y034582*
X039649Y034645*
X039553Y034685*
X03955Y034686*
G37*
G36*
X03935D02*
X039347Y034685D01*
X039251Y034645*
X039168Y034582*
X039105Y034499*
X039065Y034403*
X039064Y0344*
X03935*
Y034686*
G37*
G36*
X037345Y03269D02*
X03705D01*
Y032434*
X037345*
Y03269*
G37*
G36*
X03685D02*
X036555D01*
Y032434*
X03685*
Y03269*
G37*
G36*
X03575Y03264D02*
Y03235D01*
X03604*
Y032354*
X035999Y032452*
X035935Y032535*
X035852Y032599*
X035754Y03264*
X03575*
G37*
G36*
X037345Y032234D02*
X03705D01*
Y031978*
X037345*
Y032234*
G37*
G36*
X03685D02*
X036555D01*
Y031978*
X03685*
Y032234*
G37*
G36*
X03604Y03215D02*
X03575D01*
Y03186*
X035754*
X035852Y031901*
X035935Y031965*
X035999Y032048*
X03604Y032146*
Y03215*
G37*
G36*
X033721Y032653D02*
X033616Y03264D01*
X033519Y032599*
X033436Y032535*
X033371Y032452*
X033331Y032354*
X033317Y03225*
X033331Y032146*
X033371Y032048*
X033436Y031965*
X033519Y031901*
X033616Y03186*
X033721Y031847*
X033825Y03186*
X033923Y031901*
X034006Y031965*
X03407Y032048*
X034111Y032146*
X034124Y03225*
X034111Y032354*
X03407Y032452*
X034006Y032535*
X033923Y032599*
X033825Y03264*
X033721Y032653*
G37*
G36*
X02585Y033744D02*
X02465D01*
Y032756*
X024945*
X024955Y032706*
X024895Y032681*
X024859Y032653*
X02325*
X023188Y032645*
X022855*
Y032312*
X022847Y03225*
X022855Y032188*
Y031855*
X023188*
X02325Y031847*
X024859*
X024895Y031819*
X024995Y031777*
Y031723*
X024895Y031681*
X024792Y031602*
X024712Y031499*
X024663Y031379*
X024659Y03135*
X02525*
X025841*
X025837Y031379*
X025788Y031499*
X025708Y031602*
X025605Y031681*
X025505Y031723*
Y031777*
X025605Y031819*
X025708Y031898*
X025788Y032001*
X025837Y032121*
X025854Y03225*
X025837Y032379*
X025788Y032499*
X025708Y032602*
X025605Y032681*
X025545Y032706*
X025555Y032756*
X02585*
Y033744*
G37*
G36*
X025841Y03115D02*
X02535D01*
Y030752*
X025356*
X025485Y030769*
X025605Y030819*
X025708Y030898*
X025788Y031001*
X025837Y031121*
X025841Y03115*
G37*
G36*
X02515D02*
X024659D01*
X024663Y031121*
X024712Y031001*
X024792Y030898*
X024895Y030819*
X025015Y030769*
X025144Y030752*
X02515*
Y03115*
G37*
G36*
X034056Y030945D02*
X0338D01*
Y03065*
X034056*
Y030945*
G37*
G36*
X0336D02*
X033344D01*
Y03065*
X0336*
Y030945*
G37*
G36*
X034056Y03045D02*
X0338D01*
Y030155*
X034056*
Y03045*
G37*
G36*
X031406Y029845D02*
X03115D01*
Y02955*
X031406*
Y029845*
G37*
G36*
X03095D02*
X030694D01*
Y02955*
X03095*
Y029845*
G37*
G36*
X041Y02958D02*
Y0294D01*
X04118*
X041159Y02945*
X041112Y029512*
X04105Y029559*
X041Y02958*
G37*
G36*
X0408D02*
X04075Y029559D01*
X040688Y029512*
X040641Y02945*
X04062Y0294*
X0408*
Y02958*
G37*
G36*
X031406Y02935D02*
X03115D01*
Y029055*
X031406*
Y02935*
G37*
G36*
X03095D02*
X030694D01*
Y029055*
X03095*
Y02935*
G37*
G36*
X04118Y0292D02*
X041D01*
Y02902*
X04105Y029041*
X041112Y029088*
X041159Y02915*
X04118Y0292*
G37*
G36*
X0408D02*
X04062D01*
X040641Y02915*
X040688Y029088*
X04075Y029041*
X0408Y02902*
Y0292*
G37*
G36*
X02415Y02903D02*
Y02885D01*
X02433*
X024309Y0289*
X024262Y028962*
X0242Y029009*
X02415Y02903*
G37*
G36*
X02395D02*
X0239Y029009D01*
X023838Y028962*
X023791Y0289*
X02377Y02885*
X02395*
Y02903*
G37*
G36*
X02433Y02865D02*
X02415D01*
Y02847*
X0242Y028491*
X024262Y028538*
X024309Y0286*
X02433Y02865*
G37*
G36*
X02395D02*
X02377D01*
X023791Y0286*
X023838Y028538*
X0239Y028491*
X02395Y02847*
Y02865*
G37*
G36*
X036756Y028695D02*
X0365D01*
Y0284*
X036756*
Y028695*
G37*
G36*
X0363D02*
X036044D01*
Y0284*
X0363*
Y028695*
G37*
G36*
X036756Y0282D02*
X0365D01*
Y027905*
X036756*
Y0282*
G37*
G36*
X0363D02*
X036044D01*
Y027905*
X0363*
Y0282*
G37*
G36*
X02795Y028182D02*
Y0276D01*
X028348*
Y027697*
X028331Y027826*
X028281Y027946*
X028202Y028049*
X028099Y028128*
X027979Y028178*
X02795Y028182*
G37*
G36*
X0291D02*
Y0276D01*
X029498*
Y027697*
X029481Y027826*
X029431Y027946*
X029352Y028049*
X029249Y028128*
X029129Y028178*
X0291Y028182*
G37*
G36*
X0289D02*
X028871Y028178D01*
X028751Y028128*
X028648Y028049*
X028569Y027946*
X028519Y027826*
X028502Y027697*
Y0276*
X0289*
Y028182*
G37*
G36*
X02775D02*
X027721Y028178D01*
X027601Y028128*
X027498Y028049*
X027419Y027946*
X027369Y027826*
X027352Y027697*
Y0276*
X02775*
Y028182*
G37*
G36*
X031038Y028143D02*
Y027562D01*
X031436*
Y027659*
X031419Y027787*
X03137Y027908*
X03129Y028011*
X031187Y02809*
X031067Y02814*
X031038Y028143*
G37*
G36*
X030838D02*
X030809Y02814D01*
X030689Y02809*
X030586Y028011*
X030507Y027908*
X030457Y027787*
X03044Y027659*
Y027562*
X030838*
Y028143*
G37*
G36*
X02375Y02723D02*
Y02705D01*
X02393*
X023909Y0271*
X023862Y027162*
X0238Y027209*
X02375Y02723*
G37*
G36*
X02355D02*
X0235Y027209D01*
X023438Y027162*
X023391Y0271*
X02337Y02705*
X02355*
Y02723*
G37*
G36*
X028348Y0274D02*
X02795D01*
Y026818*
X027979Y026822*
X028099Y026872*
X028202Y026951*
X028281Y027054*
X028331Y027174*
X028348Y027303*
Y0274*
G37*
G36*
X029498D02*
X0291D01*
Y026818*
X029129Y026822*
X029249Y026872*
X029352Y026951*
X029431Y027054*
X029481Y027174*
X029498Y027303*
Y0274*
G37*
G36*
X0289D02*
X028502D01*
Y027303*
X028519Y027174*
X028569Y027054*
X028648Y026951*
X028751Y026872*
X028871Y026822*
X0289Y026818*
Y0274*
G37*
G36*
X02775D02*
X027352D01*
Y027303*
X027369Y027174*
X027419Y027054*
X027498Y026951*
X027601Y026872*
X027721Y026822*
X02775Y026818*
Y0274*
G37*
G36*
X031436Y027362D02*
X031038D01*
Y02678*
X031067Y026784*
X031187Y026834*
X03129Y026913*
X03137Y027016*
X031419Y027136*
X031436Y027265*
Y027362*
G37*
G36*
X030838D02*
X03044D01*
Y027265*
X030457Y027136*
X030507Y027016*
X030586Y026913*
X030689Y026834*
X030809Y026784*
X030838Y02678*
Y027362*
G37*
G36*
X02393Y02685D02*
X02375D01*
Y02667*
X0238Y026691*
X023862Y026738*
X023909Y0268*
X02393Y02685*
G37*
G36*
X02355D02*
X02337D01*
X023391Y0268*
X023438Y026738*
X0235Y026691*
X02355Y02667*
Y02685*
G37*
G36*
X03447Y026153D02*
X03305D01*
Y025153*
X03447*
Y026153*
G37*
G36*
X03135Y02528D02*
Y0251D01*
X03153*
X031509Y02515*
X031462Y025212*
X0314Y025259*
X03135Y02528*
G37*
G36*
X03115D02*
X0311Y025259D01*
X031038Y025212*
X030991Y02515*
X03097Y0251*
X03115*
Y02528*
G37*
G36*
X03665Y02498D02*
Y0248D01*
X03683*
X036809Y02485*
X036762Y024912*
X0367Y024959*
X03665Y02498*
G37*
G36*
X03645D02*
X0364Y024959D01*
X036338Y024912*
X036291Y02485*
X03627Y0248*
X03645*
Y02498*
G37*
G36*
X03153Y0249D02*
X03135D01*
Y02472*
X0314Y024741*
X031462Y024788*
X031509Y02485*
X03153Y0249*
G37*
G36*
X03115D02*
X03097D01*
X030991Y02485*
X031038Y024788*
X0311Y024741*
X03115Y02472*
Y0249*
G37*
G36*
X03683Y0246D02*
X03665D01*
Y02442*
X0367Y024441*
X036762Y024488*
X036809Y02455*
X03683Y0246*
G37*
G36*
X03645D02*
X03627D01*
X036291Y02455*
X036338Y024488*
X0364Y024441*
X03645Y02442*
Y0246*
G37*
G36*
X040068Y024834D02*
Y02425D01*
X040653*
X040649Y024285*
X04061Y024416*
X040545Y024536*
X040459Y024641*
X040354Y024727*
X040234Y024791*
X040104Y024831*
X040068Y024834*
G37*
G36*
X039869D02*
X039833Y024831D01*
X039703Y024791*
X039583Y024727*
X039478Y024641*
X039392Y024536*
X039327Y024416*
X039288Y024285*
X039284Y02425*
X039869*
Y024834*
G37*
G36*
X040653Y02405D02*
X040068D01*
Y023466*
X040104Y023469*
X040234Y023509*
X040354Y023573*
X040459Y023659*
X040545Y023764*
X04061Y023884*
X040649Y024015*
X040653Y02405*
G37*
G36*
X039869D02*
X039284D01*
X039288Y024015*
X039327Y023884*
X039392Y023764*
X039478Y023659*
X039583Y023573*
X039703Y023509*
X039833Y023469*
X039869Y023466*
Y02405*
G37*
G36*
X02595Y025844D02*
X02475D01*
Y024856*
X025045*
X025055Y024806*
X024995Y024781*
X024959Y024753*
X02325*
X023188Y024745*
X022855*
Y024412*
X022847Y02435*
X022855Y024288*
Y023955*
X023188*
X02325Y023947*
X024959*
X024995Y023919*
X025095Y023877*
Y023823*
X024995Y023781*
X024892Y023702*
X024812Y023599*
X024763Y023479*
X024759Y02345*
X02535*
X025941*
X025937Y023479*
X025888Y023599*
X025808Y023702*
X025705Y023781*
X025605Y023823*
Y023877*
X025705Y023919*
X025808Y023998*
X025888Y024101*
X025937Y024221*
X025954Y02435*
X025937Y024479*
X025888Y024599*
X025808Y024702*
X025705Y024781*
X025645Y024806*
X025655Y024856*
X02595*
Y025844*
G37*
G36*
X034935Y0288D02*
X034405D01*
Y028444*
X034378Y028378*
X034367Y0283*
X034378Y028222*
X034405Y028156*
Y0278*
X034935*
Y027997*
X035178*
Y027905*
X035247*
Y026125*
X035086Y025964*
X035038Y025901*
X035008Y025828*
X034997Y02575*
Y024184*
X034856Y024042*
Y023244*
X035078Y023021*
X035522*
X035744Y023244*
Y024042*
X035603Y024184*
Y025625*
X035764Y025786*
X035812Y025849*
X035842Y025922*
X035853Y026*
Y027905*
X03589*
Y028695*
X035178*
Y028603*
X034935*
Y0288*
G37*
G36*
X025941Y02325D02*
X02545D01*
Y022852*
X025456*
X025585Y022869*
X025705Y022919*
X025808Y022998*
X025888Y023101*
X025937Y023221*
X025941Y02325*
G37*
G36*
X02525D02*
X024759D01*
X024763Y023221*
X024812Y023101*
X024892Y022998*
X024995Y022919*
X025115Y022869*
X025244Y022852*
X02525*
Y02325*
G37*
G36*
X02875Y022136D02*
Y02185D01*
X029036*
X029035Y021853*
X028995Y021949*
X028932Y022032*
X028849Y022095*
X028753Y022135*
X02875Y022136*
G37*
G36*
X02855D02*
X028547Y022135D01*
X028451Y022095*
X028368Y022032*
X028305Y021949*
X028265Y021853*
X028264Y02185*
X02855*
Y022136*
G37*
G36*
X029036Y02165D02*
X02875D01*
Y021364*
X028753Y021365*
X028849Y021405*
X028932Y021468*
X028995Y021551*
X029035Y021647*
X029036Y02165*
G37*
G36*
X02855D02*
X028264D01*
X028265Y021647*
X028305Y021551*
X028368Y021468*
X028451Y021405*
X028547Y021365*
X02855Y021364*
Y02165*
G37*
G36*
X03825Y02088D02*
Y0207D01*
X03843*
X038409Y02075*
X038362Y020812*
X0383Y020859*
X03825Y02088*
G37*
G36*
X03805D02*
X038Y020859D01*
X037938Y020812*
X037891Y02075*
X03787Y0207*
X03805*
Y02088*
G37*
G36*
X03843Y0205D02*
X03825D01*
Y02032*
X0383Y020341*
X038362Y020388*
X038409Y02045*
X03843Y0205*
G37*
G36*
X03805D02*
X03787D01*
X037891Y02045*
X037938Y020388*
X038Y020341*
X03805Y02032*
Y0205*
G37*
G36*
X0327Y020429D02*
X032571Y020412D01*
X032451Y020363*
X032348Y020284*
X032269Y02018*
X032219Y02006*
X032202Y019931*
X032219Y019803*
X032269Y019683*
X032348Y019579*
X032451Y0195*
X032571Y019451*
X0327Y019434*
X032829Y019451*
X032949Y0195*
X033052Y019579*
X033131Y019683*
X033181Y019803*
X033198Y019931*
X033181Y02006*
X033131Y02018*
X033052Y020284*
X032949Y020363*
X032829Y020412*
X0327Y020429*
G37*
G36*
X03835Y01903D02*
Y01885D01*
X03853*
X038509Y0189*
X038462Y018962*
X0384Y019009*
X03835Y01903*
G37*
G36*
X03815D02*
X0381Y019009D01*
X038038Y018962*
X037991Y0189*
X03797Y01885*
X03815*
Y01903*
G37*
G36*
X04045Y020592D02*
X040276Y020575D01*
X040109Y020524*
X039955Y020441*
X039819Y020331*
X039709Y020195*
X039626Y020041*
X039575Y019874*
X039558Y0197*
X039575Y019526*
X039626Y019359*
X039709Y019205*
X039819Y019069*
X039955Y018959*
X040109Y018876*
X040276Y018825*
X04045Y018808*
X040624Y018825*
X040791Y018876*
X040945Y018959*
X041081Y019069*
X041191Y019205*
X041274Y019359*
X041325Y019526*
X041342Y0197*
X041325Y019874*
X041274Y020041*
X041191Y020195*
X041081Y020331*
X040945Y020441*
X040791Y020524*
X040624Y020575*
X04045Y020592*
G37*
G36*
X022835D02*
X022661Y020575D01*
X022493Y020524*
X022339Y020441*
X022204Y020331*
X022093Y020195*
X022011Y020041*
X02196Y019874*
X021943Y0197*
X02196Y019526*
X022011Y019359*
X022093Y019205*
X022204Y019069*
X022339Y018959*
X022493Y018876*
X022661Y018825*
X022835Y018808*
X023009Y018825*
X023176Y018876*
X02333Y018959*
X023465Y019069*
X023576Y019205*
X023658Y019359*
X023709Y019526*
X023726Y0197*
X023709Y019874*
X023658Y020041*
X023576Y020195*
X023465Y020331*
X02333Y020441*
X023176Y020524*
X023009Y020575*
X022835Y020592*
G37*
G36*
X0241Y01893D02*
Y01875D01*
X02428*
X024259Y0188*
X024212Y018862*
X02415Y018909*
X0241Y01893*
G37*
G36*
X0239D02*
X02385Y018909D01*
X023788Y018862*
X023741Y0188*
X02372Y01875*
X0239*
Y01893*
G37*
G36*
X03853Y01865D02*
X03835D01*
Y01847*
X0384Y018491*
X038462Y018538*
X038509Y0186*
X03853Y01865*
G37*
G36*
X03815D02*
X03797D01*
X037991Y0186*
X038038Y018538*
X0381Y018491*
X03815Y01847*
Y01865*
G37*
G36*
X02428Y01855D02*
X0241D01*
Y01837*
X02415Y018391*
X024212Y018438*
X024259Y0185*
X02428Y01855*
G37*
G36*
X0239D02*
X02372D01*
X023741Y0185*
X023788Y018438*
X02385Y018391*
X0239Y01837*
Y01855*
G37*
%LNpcb-3*%
%LPD*%
G36*
X038674Y033674D02*
X038732Y033635D01*
X0388Y033622*
X039144*
X03916Y033572*
X039105Y033499*
X039096Y033478*
X038274*
X037937Y033816*
X037879Y033854*
X03781Y033868*
X034196*
X034128Y033854*
X03407Y033816*
X033849Y033595*
X033825Y033604*
X033769Y033612*
X033751Y033664*
X034358Y034272*
X035413*
X035438Y034238*
X0355Y034191*
X035573Y034161*
X03565Y034151*
X035727Y034161*
X0358Y034191*
X035862Y034238*
X035887Y034272*
X038076*
X038674Y033674*
G37*
G54D10*
X03695Y0332D03*
Y032334D03*
G54D14*
X033766Y02945D03*
X0329D03*
X031916D03*
X03105D03*
X0364Y0283D03*
X035534D03*
X0337Y03055D03*
X032834D03*
G54D17*
X03025Y03535D02*
X03715D01*
X03005Y03515D02*
X03025Y03535D01*
X0222Y03515D02*
X03005D01*
X033721Y033215D02*
X034196Y03369D01*
X03998Y03277D02*
Y03357D01*
Y03277D02*
X04045Y0323D01*
X033231Y032725D02*
Y033397D01*
X03565Y033215D02*
X03695D01*
X03376Y0283D02*
X033766Y028306D01*
X032756Y03225D02*
X033231Y032725D01*
X03516D02*
X03565Y033215D01*
X03516Y02945D02*
Y032725D01*
X03565Y03445D02*
X03815D01*
X0388Y0338*
X03975*
X03998Y03357*
X034196Y03369D02*
X03781D01*
X0382Y0333*
X03945*
X033231Y033397D02*
X034285Y03445D01*
X03565*
G54D18*
X03315Y042D02*
X03855D01*
X0286Y03655D02*
X02935Y0358D01*
X0286Y03655D02*
Y04267D01*
X02888Y04295*
X04045Y0343D02*
X04095Y0348D01*
Y0396*
X03855Y042D02*
X04095Y0396D01*
X032834Y03055D02*
X032866D01*
X033766Y02965*
Y02945D02*
Y02965D01*
X0309Y03055D02*
X032834D01*
X02935Y0321D02*
X0309Y03055D01*
X02935Y0321D02*
Y03475D01*
G54D19*
X03467Y0283D02*
X035534D01*
X033766Y028306D02*
Y02945D01*
X031916D02*
X0329D01*
Y02835D02*
Y02945D01*
X038Y02415D02*
Y0269D01*
X0386Y0275*
X033766Y02945D02*
X03516D01*
X03945Y0305D02*
Y0323D01*
X0386Y0275D02*
Y02945D01*
X0384D02*
X03945Y0305D01*
X03516Y02945D02*
X0384D01*
X0353Y02195D02*
X03545Y0221D01*
X03275Y02195D02*
X0353D01*
X03555Y026D02*
Y028284D01*
X0353Y023643D02*
Y02575D01*
X03555Y026*
G54D21*
X029Y0275D03*
X030938Y027462D03*
X02785Y0275D03*
X0386D03*
G54D22*
X0277Y0436D03*
X0282Y03625D03*
X03565Y03445D03*
X03125Y025D03*
X03815Y0206D03*
X0409Y0293D03*
X02405Y02875D03*
X02365Y02695D03*
X024Y01865D03*
X03825Y01875D03*
X02485Y0437D03*
X02425Y03645D03*
X03655Y0247D03*
X04065Y0416D03*
G54D23*
X02865Y02075D03*
X0396Y0375D03*
X03745Y0385D03*
X02935Y0358D03*
X03315Y042D03*
X04045Y0323D03*
G54D24*
X02865Y02175D03*
X02225Y02435D03*
X0352Y04105D03*
X0362D03*
X0372D03*
X02225Y03225D03*
Y03995D03*
X0396Y036161D03*
X03745Y0395D03*
X03445Y04305D03*
X03545D03*
X03645D03*
X02935Y0368D03*
Y0378D03*
Y0388D03*
X03315Y043D03*
X03945Y0323D03*
X04045Y0343D03*
X03945Y0333D03*
X04045D03*
X03945Y0343D03*
X03195Y04295D03*
X03095D03*
X02995D03*
G54D25*
X02935Y03475D03*
G54D26*
X02325Y02435D03*
X0382Y04105D03*
X02325Y03225D03*
Y03995D03*
X03745Y04305D03*
X02895Y04295D03*
G54D27*
X02535Y02335D03*
Y02435D03*
X02525Y03895D03*
Y03995D03*
Y03125D03*
Y03225D03*
G54D28*
X02535Y02535D03*
X02525Y04095D03*
Y03325D03*
G54D29*
X032756Y03225D03*
X033721D03*
X034685D03*
X03565D03*
X032756Y033215D03*
X033721D03*
X034685D03*
X03565D03*
X03715Y03535D03*
G54D30*
X0327Y0219D03*
G54D31*
X0327Y019931D03*
G54D32*
X039969Y02415D03*
G54D33*
X038Y02415D03*
G54D34*
X04045Y04345D03*
Y0197D03*
X022835D03*
Y04345D03*
G54D35*
X03425Y03725D03*
G54D36*
X03376Y025653D03*
G54D37*
X03285Y0283D03*
G54D38*
X03376Y0283D03*
X03467D03*
G54D39*
X0353Y02195D03*
G54D40*
X0353Y023643D03*
G54D41*
X02225Y02435D02*
Y03995D01*
Y0233D02*
Y02435D01*
Y0233D02*
X0248Y02075D01*
X0249D02*
X02865D01*
X03155*
X03275Y02195*
G54D42*
X02325Y02435D02*
X02535D01*
X02325Y03225D02*
X02525D01*
X02325Y03995D02*
X02525D01*
M02*