%FSTAX24Y24*%
%MOIN*%
%SFA1B1*%

%IPPOS*%
%ADD10R,0.059055X0.051181*%
%ADD11O,0.017717X0.098425*%
%ADD12O,0.098425X0.017717*%
%ADD13R,0.098425X0.017717*%
%ADD14R,0.051181X0.059055*%
%ADD15R,0.023622X0.045275*%
%ADD16R,0.045275X0.023622*%
%ADD17C,0.015000*%
%ADD18C,0.020000*%
%ADD19C,0.040000*%
%ADD20C,0.039370*%
%ADD21R,0.059055X0.059055*%
%ADD22C,0.059055*%
%ADD23C,0.031496*%
%ADD24O,0.100000X0.078740*%
%ADD25R,0.100000X0.078740*%
%ADD26R,0.059055X0.059055*%
%ADD27C,0.060000*%
%ADD28O,0.078740X0.118110*%
%ADD29R,0.078740X0.078740*%
%ADD30C,0.078740*%
%ADD31C,0.118110*%
%ADD32R,0.118110X0.118110*%
%ADD33C,0.157480*%
%ADD34C,0.027559*%
%LNpcb-1*%
%LPD*%
G36*
X042Y0181D02*
X0212D01*
Y0448*
X042*
Y0181*
G37*
%LNpcb-2*%
%LPC*%
G36*
X02495Y043979D02*
Y0438D01*
X025129*
X025109Y043849*
X025061Y043911*
X024999Y043959*
X02495Y043979*
G37*
G36*
X02475D02*
X0247Y043959D01*
X024638Y043911*
X02459Y043849*
X02457Y0438*
X02475*
Y043979*
G37*
G36*
X0278Y043879D02*
Y0437D01*
X027979*
X027959Y043749*
X027911Y043811*
X027849Y043859*
X0278Y043879*
G37*
G36*
X0276D02*
X02755Y043859D01*
X027488Y043811*
X02744Y043749*
X02742Y0437*
X0276*
Y043879*
G37*
G36*
X025129Y0436D02*
X02495D01*
Y04342*
X024999Y04344*
X025061Y043488*
X025109Y04355*
X025129Y0436*
G37*
G36*
X02475D02*
X02457D01*
X02459Y04355*
X024638Y043488*
X0247Y04344*
X02475Y04342*
Y0436*
G37*
G36*
X027979Y0435D02*
X0278D01*
Y04332*
X027849Y04334*
X027911Y043388*
X027959Y04345*
X027979Y0435*
G37*
G36*
X0276D02*
X02742D01*
X02744Y04345*
X027488Y043388*
X02755Y04334*
X0276Y04332*
Y0435*
G37*
G36*
X037845Y043445D02*
X03755D01*
Y04315*
X037845*
Y043445*
G37*
G36*
X03735D02*
X037054D01*
Y04315*
X03735*
Y043445*
G37*
G36*
X03305Y043385D02*
X033046Y043385D01*
X03295Y043345*
X032868Y043281*
X032804Y043199*
X032764Y043103*
X032764Y0431*
X03305*
Y043385*
G37*
G36*
X03005Y043335D02*
Y04305D01*
X030335*
X030335Y043053*
X030295Y043149*
X030231Y043231*
X030149Y043295*
X030053Y043335*
X03005Y043335*
G37*
G36*
X02985D02*
X029846Y043335D01*
X02975Y043295*
X029668Y043231*
X029604Y043149*
X029564Y043053*
X029564Y04305*
X02985*
Y043335*
G37*
G36*
X037845Y04295D02*
X03755D01*
Y042654*
X037845*
Y04295*
G37*
G36*
X03735D02*
X037054D01*
Y042654*
X03735*
Y04295*
G37*
G36*
X03305Y0429D02*
X032764D01*
X032764Y042896*
X032804Y0428*
X032868Y042718*
X03295Y042654*
X033046Y042614*
X03305Y042614*
Y0429*
G37*
G36*
X030335Y04285D02*
X03005D01*
Y042564*
X030053Y042564*
X030149Y042604*
X030231Y042668*
X030295Y04275*
X030335Y042846*
X030335Y04285*
G37*
G36*
X02985D02*
X029564D01*
X029564Y042846*
X029604Y04275*
X029668Y042668*
X02975Y042604*
X029846Y042564*
X02985Y042564*
Y04285*
G37*
G36*
X04045Y044341D02*
X040276Y044324D01*
X040108Y044273*
X039954Y044191*
X039819Y04408*
X039708Y043945*
X039626Y043791*
X039575Y043623*
X039558Y04345*
X039575Y043276*
X039626Y043108*
X039708Y042954*
X039819Y042819*
X039954Y042708*
X040108Y042626*
X040276Y042575*
X04045Y042558*
X040623Y042575*
X040791Y042626*
X040945Y042708*
X04108Y042819*
X041191Y042954*
X041273Y043108*
X041324Y043276*
X041341Y04345*
X041324Y043623*
X041273Y043791*
X041191Y043945*
X04108Y04408*
X040945Y044191*
X040791Y044273*
X040623Y044324*
X04045Y044341*
G37*
G36*
X022834D02*
X02266Y044324D01*
X022493Y044273*
X022339Y044191*
X022204Y04408*
X022093Y043945*
X02201Y043791*
X02196Y043623*
X021942Y04345*
X02196Y043276*
X02201Y043108*
X022093Y042954*
X022204Y042819*
X022339Y042708*
X022493Y042626*
X02266Y042575*
X022834Y042558*
X023008Y042575*
X023175Y042626*
X02333Y042708*
X023465Y042819*
X023576Y042954*
X023658Y043108*
X023709Y043276*
X023726Y04345*
X023709Y043623*
X023658Y043791*
X023576Y043945*
X023465Y04408*
X02333Y044191*
X023175Y044273*
X023008Y044324*
X022834Y044341*
G37*
G36*
X04075Y041879D02*
Y0417D01*
X040929*
X040909Y041749*
X040861Y041811*
X040799Y041859*
X04075Y041879*
G37*
G36*
X04055D02*
X0405Y041859D01*
X040438Y041811*
X04039Y041749*
X04037Y0417*
X04055*
Y041879*
G37*
G36*
X027139Y042295D02*
X026427D01*
Y042103*
X02405*
X023971Y042088*
X023905Y042044*
X022805Y040944*
X022761Y040878*
X022746Y0408*
Y03965*
X022761Y039571*
X022805Y039505*
X023214Y039097*
X023201Y039*
X023214Y038896*
X023254Y0388*
X023318Y038718*
X0234Y038654*
X023496Y038614*
X0236Y038601*
X023703Y038614*
X023799Y038654*
X023881Y038718*
X023945Y0388*
X023985Y038896*
X023998Y039*
X023985Y039103*
X023945Y039199*
X023881Y039281*
X023799Y039345*
X023703Y039385*
X0236Y039398*
X023502Y039385*
X023329Y039558*
X023348Y039604*
X023995*
Y040395*
X023204*
Y039808*
X023154Y039781*
X023153Y039782*
Y040715*
X024134Y041696*
X026427*
Y041504*
X027139*
Y042295*
G37*
G36*
X040929Y0415D02*
X04075D01*
Y04132*
X040799Y04134*
X040861Y041388*
X040909Y04145*
X040929Y0415*
G37*
G36*
X04055D02*
X04037D01*
X04039Y04145*
X040438Y041388*
X0405Y04134*
X04055Y04132*
Y0415*
G37*
G36*
X0353Y041435D02*
Y04115D01*
X035585*
X035585Y041153*
X035545Y041249*
X035481Y041331*
X035399Y041395*
X035303Y041435*
X0353Y041435*
G37*
G36*
X028005Y042295D02*
X027294D01*
Y041504*
X027453*
Y041142*
X02733*
Y041127*
X02585*
Y041443*
X02465*
Y040456*
X024945*
X024955Y040406*
X024894Y040381*
X024791Y040302*
X024712Y040198*
X024662Y040078*
X024645Y03995*
X024662Y039821*
X024712Y039701*
X024791Y039597*
X024894Y039518*
X024995Y039477*
Y039422*
X024894Y039381*
X024791Y039302*
X024712Y039198*
X024662Y039078*
X024658Y03905*
X02525*
Y03895*
Y03905*
X025841*
X025837Y039078*
X025787Y039198*
X025708Y039302*
X025605Y039381*
X025504Y039422*
Y039477*
X025605Y039518*
X025708Y039597*
X025787Y039701*
X025837Y039821*
X025854Y03995*
X025837Y040078*
X025787Y040198*
X025708Y040302*
X025605Y040381*
X025544Y040406*
X025554Y040456*
X02585*
Y04072*
X02733*
Y040705*
X027983*
Y041142*
X027861*
Y041504*
X028005*
Y042295*
G37*
G36*
X035585Y04095D02*
X0353D01*
Y040664*
X035303Y040664*
X035399Y040704*
X035481Y040768*
X035545Y04085*
X035585Y040946*
X035585Y04095*
G37*
G36*
X028869Y040768D02*
X028642D01*
Y04065*
X028869*
Y040768*
G37*
G36*
X028442D02*
X028216D01*
Y04065*
X028442*
Y040768*
G37*
G36*
X028869Y04045D02*
X028642D01*
Y040331*
X028869*
Y04045*
G37*
G36*
X028442D02*
X028216D01*
Y040331*
X028442*
Y04045*
G37*
G36*
X030745Y040022D02*
X03045D01*
Y039766*
X030745*
Y040022*
G37*
G36*
X03025D02*
X029954D01*
Y039766*
X03025*
Y040022*
G37*
G36*
X03755Y039885D02*
Y0396D01*
X037835*
X037835Y039603*
X037795Y039699*
X037731Y039781*
X037649Y039845*
X037553Y039885*
X03755Y039885*
G37*
G36*
X03735D02*
X037346Y039885D01*
X03725Y039845*
X037168Y039781*
X037104Y039699*
X037064Y039603*
X037064Y0396*
X03735*
Y039885*
G37*
G36*
X030745Y039566D02*
X03045D01*
Y03931*
X030745*
Y039566*
G37*
G36*
X03025D02*
X029954D01*
Y03931*
X03025*
Y039566*
G37*
G36*
X037835Y0394D02*
X03755D01*
Y039114*
X037553Y039114*
X037649Y039154*
X037731Y039218*
X037795Y0393*
X037835Y039396*
X037835Y0394*
G37*
G36*
X03735D02*
X037064D01*
X037064Y039396*
X037104Y0393*
X037168Y039218*
X03725Y039154*
X037346Y039114*
X03735Y039114*
Y0394*
G37*
G36*
X027983Y040394D02*
X02733D01*
Y039957*
X027446*
Y039772*
X027254*
Y03906*
X028045*
Y039772*
X027853*
Y039957*
X027983*
Y040394*
G37*
G36*
X0358Y044053D02*
X02985D01*
X029771Y044038*
X029705Y043994*
X029056Y043345*
X028554*
Y042554*
X029345*
Y043056*
X029934Y043646*
X033596*
Y043023*
X033546Y043019*
X033544Y043028*
X033535Y043103*
X033495Y043199*
X033431Y043281*
X033349Y043345*
X033253Y043385*
X03325Y043385*
Y043*
Y042614*
X033253Y042614*
X033349Y042654*
X033431Y042718*
X033495Y0428*
X033535Y042896*
X033544Y042971*
X033546Y04298*
X033596Y042976*
Y041455*
X033404*
Y040875*
X033357Y040855*
X033328Y040879*
Y041604*
X033545*
Y042395*
X032754*
Y042213*
X032709Y042197*
X032704Y042197*
X032232Y042669*
X032295Y04275*
X032335Y042846*
X032348Y04295*
X032335Y043053*
X032295Y043149*
X032231Y043231*
X032149Y043295*
X032053Y043335*
X03195Y043348*
X031846Y043335*
X03175Y043295*
X031668Y043231*
X031604Y043149*
X031564Y043053*
X031551Y04295*
X031564Y042846*
X031604Y04275*
X031668Y042668*
X03175Y042604*
X031823Y042574*
X031823Y042573*
X032401Y041996*
Y041816*
X032355Y041797*
X031326Y042825*
X031335Y042846*
X031348Y04295*
X031335Y043053*
X031295Y043149*
X031231Y043231*
X031149Y043295*
X031053Y043335*
X03095Y043348*
X030846Y043335*
X03075Y043295*
X030668Y043231*
X030604Y043149*
X030564Y043053*
X030551Y04295*
X030564Y042846*
X030604Y04275*
X030668Y042668*
X03075Y042604*
X030846Y042564*
X03095Y042551*
X031053Y042564*
X031074Y042573*
X032151Y041496*
Y040551*
X032164Y040483*
X032203Y040425*
X033004Y039625*
Y039166*
X032954Y03914*
X032941Y039148*
X032867Y039163*
X032794Y039148*
X032731Y039107*
X03269Y039044*
X032685Y039019*
X032635Y038978*
X032255*
Y039195*
X031544*
Y038404*
X032255*
Y038621*
X032561*
X032675Y038507*
Y038164*
X03269Y03809*
X032731Y038028*
X032794Y037986*
X032867Y037971*
X032941Y037986*
X032991Y03802*
X033025Y038025*
X033058Y03802*
X033109Y037986*
X033182Y037971*
X033256Y037986*
X033306Y03802*
X03334Y038025*
X033373Y03802*
X033424Y037986*
X033497Y037971*
X033571Y037986*
X033621Y03802*
X033655Y038025*
X033688Y03802*
X033739Y037986*
X033812Y037971*
X033886Y037986*
X033936Y03802*
X03397Y038025*
X034003Y03802*
X034053Y037986*
X034127Y037971*
X034201Y037986*
X034251Y03802*
X034285Y038025*
X034318Y03802*
X034368Y037986*
X034442Y037971*
X034516Y037986*
X034566Y03802*
X0346Y038025*
X034633Y03802*
X034683Y037986*
X034757Y037971*
X034831Y037986*
X034881Y03802*
X034914Y038025*
X034948Y03802*
X034998Y037986*
X035072Y037971*
X035146Y037986*
X035208Y038028*
X03525Y03809*
X035264Y038164*
Y038862*
X037075Y040673*
X037096Y040664*
X0372Y040651*
X037303Y040664*
X037399Y040704*
X037481Y040768*
X037545Y04085*
X037585Y040946*
X037598Y04105*
X037585Y041153*
X037545Y041249*
X037481Y041331*
X037399Y041395*
X037303Y041435*
X0372Y041448*
X037096Y041435*
X037Y041395*
X036918Y041331*
X036854Y041249*
X036814Y041153*
X036801Y04105*
X036814Y040946*
X036823Y040925*
X035058Y03916*
X034998Y039148*
X034985Y03914*
X034935Y039166*
Y039483*
X036114Y040662*
X0362Y040651*
X036303Y040664*
X036399Y040704*
X036481Y040768*
X036545Y04085*
X036585Y040946*
X036598Y04105*
X036585Y041153*
X036545Y041249*
X036481Y041331*
X036399Y041395*
X036303Y041435*
X0362Y041448*
X036096Y041435*
X036Y041395*
X035918Y041331*
X035854Y041249*
X035814Y041153*
X035801Y04105*
X035814Y040946*
X035838Y04089*
X034924Y039976*
X034878Y039996*
Y040744*
X034928Y04076*
X035Y040704*
X035096Y040664*
X0351Y040664*
Y04105*
Y041435*
X035096Y041435*
X035Y041395*
X034928Y041339*
X034878Y041355*
Y041654*
X035339*
Y042387*
X035576Y042623*
X035614Y042681*
X035616Y042691*
X035649Y042704*
X035731Y042768*
X035795Y04285*
X035835Y042946*
X035848Y04305*
X035835Y043153*
X035795Y043249*
X035731Y043331*
X035649Y043395*
X035553Y043435*
X03545Y043448*
X035346Y043435*
X03525Y043395*
X035168Y043331*
X035104Y043249*
X035064Y043153*
X035051Y04305*
X035064Y042946*
X035104Y04285*
X035168Y042768*
X035171Y042723*
X034892Y042445*
X034627*
X034578Y042446*
Y042675*
X034649Y042704*
X034731Y042768*
X034795Y04285*
X034835Y042946*
X034848Y04305*
X034835Y043153*
X034795Y043249*
X034731Y043331*
X034649Y043395*
X034553Y043435*
X03445Y043448*
X034346Y043435*
X03425Y043395*
X034168Y043331*
X034104Y043249*
X034064Y043153*
X034055Y043078*
X034053Y043069*
X034004Y043072*
X034003Y043077*
Y043646*
X035715*
X036107Y043253*
X036104Y043249*
X036064Y043153*
X036051Y04305*
X036064Y042946*
X036092Y04288*
X035705Y042494*
X035673Y042445*
X035494*
Y041654*
X036205*
Y042417*
X036375Y042586*
X037804Y041156*
Y040654*
X038306*
X038346Y040615*
Y039722*
X038154*
Y03901*
X038945*
Y039162*
X039204*
Y03901*
X039995*
Y039722*
X039204*
Y03957*
X038945*
Y039722*
X038753*
Y0407*
X038738Y040778*
X038694Y040844*
X038595Y040943*
Y041445*
X038093*
X036748Y042789*
X036795Y04285*
X036835Y042946*
X036848Y04305*
X036835Y043153*
X036795Y043249*
X036731Y043331*
X036649Y043395*
X036553Y043435*
X036495Y043442*
X035944Y043994*
X035878Y044038*
X0358Y044053*
G37*
G36*
X025841Y03885D02*
X02535D01*
Y038452*
X025356*
X025485Y038469*
X025605Y038518*
X025708Y038597*
X025787Y038701*
X025837Y038821*
X025841Y03885*
G37*
G36*
X02515D02*
X024658D01*
X024662Y038821*
X024712Y038701*
X024791Y038597*
X024894Y038518*
X025014Y038469*
X025143Y038452*
X02515*
Y03885*
G37*
G36*
X02935Y039198D02*
X029246Y039185D01*
X02915Y039145*
X029068Y039081*
X029004Y038999*
X028964Y038903*
X028951Y0388*
X028964Y038696*
X029004Y0386*
X029068Y038518*
X02915Y038454*
X029246Y038414*
X02935Y038401*
X029453Y038414*
X029549Y038454*
X029631Y038518*
X029695Y0386*
X029703Y038621*
X029954*
Y038444*
X030677*
Y038404*
X031389*
Y039195*
X030677*
Y039155*
X029954*
Y038978*
X029703*
X029695Y038999*
X029631Y039081*
X029549Y039145*
X029453Y039185*
X02935Y039198*
G37*
G36*
X03435Y037469D02*
Y03735D01*
X034469*
X034421Y037421*
X03435Y037469*
G37*
G36*
X03415D02*
X034078Y037421D01*
X03403Y03735*
X03415*
Y037469*
G37*
G36*
X02935Y038198D02*
X029246Y038185D01*
X02915Y038145*
X029068Y038081*
X029004Y037999*
X028964Y037903*
X028951Y0378*
X028964Y037696*
X029004Y0376*
X029068Y037518*
X02915Y037454*
X029246Y037414*
X02935Y037401*
X029453Y037414*
X029549Y037454*
X029631Y037518*
X029695Y0376*
X029703Y037621*
X031462*
X031504Y037612*
X031524Y037567*
X031518Y037558*
X031504Y037485*
X031518Y037411*
X031552Y03736*
X031557Y037327*
X031552Y037294*
X031536Y03727*
X0321*
X032663*
X032647Y037294*
X032642Y037327*
X032647Y03736*
X032681Y037411*
X032695Y037485*
X032681Y037558*
X032671Y037572*
X032692Y037611*
Y037988*
X031507*
Y037978*
X029703*
X029695Y037999*
X029631Y038081*
X029549Y038145*
X029453Y038185*
X02935Y038198*
G37*
G36*
X037845Y038895D02*
X037054D01*
Y038678*
X03654*
X036471Y038664*
X036413Y038626*
X03578Y037992*
X035436*
X035363Y037977*
X0353Y037935*
X035258Y037873*
X035244Y0378*
X035258Y037726*
X035292Y037675*
X035297Y037642*
X035292Y037609*
X035258Y037558*
X035244Y037485*
X035258Y037411*
X035292Y03736*
X035297Y037327*
X035292Y037294*
X035258Y037243*
X035244Y03717*
X035258Y037096*
X035292Y037045*
X035297Y037012*
X035292Y036979*
X035276Y036955*
X03584*
X036403*
X036387Y036979*
X036382Y037012*
X036387Y037045*
X036421Y037096*
X036435Y03717*
X036421Y037243*
X036402Y037271*
X036429Y037321*
X036704*
Y03715*
X037495*
Y037321*
X039204*
Y037104*
X039995*
Y037895*
X039803*
Y038144*
X039995*
Y038855*
X039204*
Y038144*
X039396*
Y037895*
X039204*
Y037678*
X036447*
X03642Y037719*
X036421Y037728*
X036435Y0378*
X036421Y037873*
X036379Y037935*
X036331Y037968*
X036317Y038024*
X036614Y038321*
X037054*
Y038104*
X037845*
Y038321*
X038154*
Y038144*
X038945*
Y038855*
X038154*
Y038678*
X037845*
Y038895*
G37*
G36*
X034469Y03715D02*
X03435D01*
Y03703*
X034421Y037078*
X034469Y03715*
G37*
G36*
X03415D02*
X03403D01*
X034078Y037078*
X03415Y03703*
Y03715*
G37*
G36*
X031195Y037255D02*
X0309D01*
Y037*
X031195*
Y037255*
G37*
G36*
X0307D02*
X030404D01*
Y037*
X0307*
Y037255*
G37*
G36*
X02945Y037185D02*
Y0369D01*
X029735*
X029735Y036903*
X029695Y036999*
X029631Y037081*
X029549Y037145*
X029453Y037185*
X02945Y037185*
G37*
G36*
X02925D02*
X029246Y037185D01*
X02915Y037145*
X029068Y037081*
X029004Y036999*
X028964Y036903*
X028964Y0369*
X02925*
Y037185*
G37*
G36*
X037495Y03695D02*
X0372D01*
Y036694*
X037495*
Y03695*
G37*
G36*
X037D02*
X036704D01*
Y036694*
X037*
Y03695*
G37*
G36*
X02435Y036729D02*
Y03655D01*
X024529*
X024509Y036599*
X024461Y036661*
X024399Y036709*
X02435Y036729*
G37*
G36*
X02415D02*
X0241Y036709D01*
X024038Y036661*
X02399Y036599*
X02397Y03655*
X02415*
Y036729*
G37*
G36*
X031195Y0368D02*
X0309D01*
Y036544*
X031195*
Y0368*
G37*
G36*
X0307D02*
X030404D01*
Y036544*
X0307*
Y0368*
G37*
G36*
X029735Y0367D02*
X02945D01*
Y036414*
X029453Y036414*
X029549Y036454*
X029631Y036518*
X029695Y0366*
X029735Y036696*
X029735Y0367*
G37*
G36*
X02925D02*
X028964D01*
X028964Y036696*
X029004Y0366*
X029068Y036518*
X02915Y036454*
X029246Y036414*
X02925Y036414*
Y0367*
G37*
G36*
X0283Y036529D02*
Y03635D01*
X028479*
X028459Y036399*
X028411Y036461*
X028349Y036509*
X0283Y036529*
G37*
G36*
X0281D02*
X02805Y036509D01*
X027988Y036461*
X02794Y036399*
X02792Y03635*
X0281*
Y036529*
G37*
G36*
X0397Y036546D02*
Y036261D01*
X039985*
X039985Y036264*
X039945Y03636*
X039881Y036443*
X039799Y036506*
X039703Y036546*
X0397Y036546*
G37*
G36*
X0395D02*
X039496Y036546D01*
X0394Y036506*
X039318Y036443*
X039254Y03636*
X039214Y036264*
X039214Y036261*
X0395*
Y036546*
G37*
G36*
X024529Y03635D02*
X02435D01*
Y03617*
X024399Y03619*
X024461Y036238*
X024509Y0363*
X024529Y03635*
G37*
G36*
X02415D02*
X02397D01*
X02399Y0363*
X024038Y036238*
X0241Y03619*
X02415Y03617*
Y03635*
G37*
G36*
X028479Y03615D02*
X0283D01*
Y03597*
X028349Y03599*
X028411Y036038*
X028459Y0361*
X028479Y03615*
G37*
G36*
X0281D02*
X02792D01*
X02794Y0361*
X027988Y036038*
X02805Y03599*
X0281Y03597*
Y03615*
G37*
G36*
X028045Y038905D02*
X027254D01*
Y038194*
X027471*
Y03595*
X027485Y035881*
X027523Y035823*
X028923Y034423*
X028981Y034385*
X02905Y034371*
X03259*
X032633Y03438*
X03269Y03435*
X03269Y03435*
X032731Y034288*
X032746Y034278*
X03273Y034228*
X0323*
X032231Y034214*
X032173Y034176*
X029726Y031728*
X029455*
Y031845*
X028744*
Y031054*
X029422*
X029458Y031048*
X029471Y031011*
Y025745*
X029294*
Y024954*
X030005*
Y025745*
X029828*
Y030972*
X032477Y033621*
X032562*
X032572Y033571*
X032554Y033563*
X032471Y033499*
X032406Y033416*
X032366Y033318*
X032352Y033214*
X032366Y03311*
X032406Y033012*
X032471Y032929*
X032554Y032865*
X032651Y032824*
X032756Y032811*
X03286Y032824*
X032958Y032865*
X033038Y032926*
X033044Y032928*
X033099Y032922*
X033119Y032891*
X033397Y032613*
X033428Y032592*
X033435Y032538*
X033433Y032532*
X033371Y032451*
X033331Y032354*
X033317Y03225*
X033331Y032145*
X033371Y032048*
X033435Y031964*
X033519Y0319*
X033616Y03186*
X03372Y031846*
X033747Y03185*
X034023Y031573*
X034081Y031535*
X03415Y031521*
X0369*
X036968Y031535*
X037026Y031573*
X037408Y031956*
X037447Y032014*
X03746Y032082*
Y034121*
X038564*
X038633Y034135*
X03869Y034173*
X039074Y034556*
X039084Y034555*
X039106Y034501*
X039104Y034499*
X039064Y034403*
X039064Y0344*
X03945*
Y0343*
X03955*
Y033914*
X039553Y033914*
X039649Y033954*
X039727Y034014*
X039747Y034012*
X039781Y034*
X039785Y033981*
X039823Y033923*
X040167Y03358*
X040104Y033499*
X040064Y033403*
X040051Y0333*
X040064Y033196*
X040104Y0331*
X040168Y033018*
X04025Y032954*
X040346Y032914*
X04045Y032901*
X040553Y032914*
X040649Y032954*
X040731Y033018*
X040795Y0331*
X040835Y033196*
X040848Y0333*
X040835Y033403*
X040795Y033499*
X040731Y033581*
X040649Y033645*
X040576Y033675*
X040576Y033676*
X040394Y033858*
X040417Y033905*
X04045Y033901*
X040553Y033914*
X040649Y033954*
X040731Y034018*
X040795Y0341*
X040835Y034196*
X040848Y0343*
X040835Y034403*
X040795Y034499*
X040731Y034581*
X040649Y034645*
X040553Y034685*
X04045Y034698*
X040346Y034685*
X04025Y034645*
X040178Y034589*
X040146Y034596*
X040126Y034609*
X040114Y034668*
X040076Y034726*
X039905Y034896*
X039847Y034935*
X039779Y034948*
X039035*
X038966Y034935*
X038908Y034896*
X03849Y034478*
X037309*
X036375Y035412*
X036379Y035459*
X036421Y035521*
X036435Y035595*
X036421Y035668*
X036387Y035719*
X036382Y035752*
X036387Y035786*
X036421Y035836*
X036435Y03591*
X036421Y035983*
X036412Y035996*
X036439Y036046*
X036704*
Y035827*
X037495*
Y036005*
X037704*
Y035844*
X038495*
Y036555*
X037704*
Y036362*
X037495*
Y036539*
X036704*
Y036403*
X036439*
X036412Y036453*
X036421Y036466*
X036435Y03654*
X036421Y036613*
X036387Y036664*
X036382Y036697*
X036387Y03673*
X036403Y036755*
X03584*
X03526*
X03524Y036718*
X033683*
X033421Y036981*
X033363Y037019*
X033294Y037033*
X032699*
X032679Y03707*
X0321*
X031536*
X031552Y037045*
X031557Y037012*
X031552Y036979*
X031518Y036928*
X031504Y036855*
X031518Y036781*
X031552Y03673*
X031557Y036697*
X031552Y036664*
X031536Y03664*
X0321*
Y03644*
X03152*
X0315Y036403*
X031009*
X03094Y03639*
X03094Y036389*
X030404*
Y036003*
X029745*
Y036195*
X028954*
Y035404*
X029745*
Y035596*
X029946*
Y035157*
X029925Y035129*
X029899Y035067*
X02989Y035*
X029899Y034932*
X029925Y03487*
X029966Y034816*
X02998Y034805*
X029988Y034737*
X02998Y034728*
X029123*
X027828Y036023*
Y038194*
X028045*
Y038905*
G37*
G36*
X039985Y036061D02*
X0397D01*
Y035775*
X039703Y035776*
X039799Y035816*
X039881Y035879*
X039945Y035962*
X039985Y036058*
X039985Y036061*
G37*
G36*
X0395D02*
X039214D01*
X039214Y036058*
X039254Y035962*
X039318Y035879*
X0394Y035816*
X039496Y035776*
X0395Y035775*
Y036061*
G37*
G36*
X03715Y035753D02*
X037045Y035739D01*
X036948Y035699*
X036864Y035635*
X0368Y035551*
X03676Y035454*
X036746Y03535*
X03676Y035245*
X0368Y035148*
X036864Y035064*
X036948Y035*
X037045Y03496*
X03715Y034946*
X037254Y03496*
X037351Y035*
X037435Y035064*
X037499Y035148*
X037502Y035155*
X037704*
Y034977*
X038495*
Y035689*
X037704*
Y035512*
X037515*
X037499Y035551*
X037435Y035635*
X037351Y035699*
X037254Y035739*
X03715Y035753*
G37*
G36*
X03935Y0342D02*
X039064D01*
X039064Y034196*
X039104Y0341*
X039168Y034018*
X03925Y033954*
X039346Y033914*
X03935Y033914*
Y0342*
G37*
G36*
X02585Y033743D02*
X02465D01*
Y032756*
X024945*
X024955Y032706*
X024894Y032681*
X024791Y032602*
X024712Y032498*
X024662Y032378*
X024645Y03225*
X024662Y032121*
X024712Y032001*
X024791Y031897*
X024894Y031818*
X024995Y031777*
Y031722*
X024894Y031681*
X024791Y031602*
X024712Y031498*
X024662Y031378*
X024658Y03135*
X02525*
X025841*
X025837Y031378*
X025787Y031498*
X025708Y031602*
X025605Y031681*
X025504Y031722*
Y031777*
X025605Y031818*
X025708Y031897*
X025787Y032001*
X025837Y032121*
X025854Y03225*
X025837Y032378*
X025787Y032498*
X025708Y032602*
X025605Y032681*
X025544Y032706*
X025554Y032756*
X02585*
Y03302*
X026554*
Y032868*
X027345*
Y03302*
X02783*
Y033005*
X028483*
Y033442*
X02783*
Y033427*
X027345*
Y033579*
X026554*
Y033427*
X02585*
Y033743*
G37*
G36*
X029369Y033068D02*
X029142D01*
Y03295*
X029369*
Y033068*
G37*
G36*
X028942D02*
X028716D01*
Y03295*
X028942*
Y033068*
G37*
G36*
X03945Y033698D02*
X039346Y033685D01*
X03925Y033645*
X039168Y033581*
X039104Y033499*
X039064Y033403*
X039051Y0333*
X039064Y033196*
X039104Y0331*
X039168Y033018*
X03925Y032954*
X039346Y032914*
X03945Y032901*
X039553Y032914*
X039649Y032954*
X039731Y033018*
X039795Y0331*
X039835Y033196*
X039848Y0333*
X039835Y033403*
X039795Y033499*
X039731Y033581*
X039649Y033645*
X039553Y033685*
X03945Y033698*
G37*
G36*
X029369Y03275D02*
X029142D01*
Y032631*
X029369*
Y03275*
G37*
G36*
X028942D02*
X028716D01*
Y032631*
X028942*
Y03275*
G37*
G36*
X040845Y032695D02*
X040054D01*
Y031904*
X040845*
Y032695*
G37*
G36*
X03945Y032698D02*
X039346Y032685D01*
X03925Y032645*
X039168Y032581*
X039104Y032499*
X039064Y032403*
X039051Y0323*
X039064Y032196*
X039104Y0321*
X039168Y032018*
X03925Y031954*
X039346Y031914*
X03945Y031901*
X039553Y031914*
X039649Y031954*
X039731Y032018*
X039795Y0321*
X039835Y032196*
X039848Y0323*
X039835Y032403*
X039795Y032499*
X039731Y032581*
X039649Y032645*
X039553Y032685*
X03945Y032698*
G37*
G36*
X023745Y032645D02*
X022954D01*
Y031854*
X023745*
Y032645*
G37*
G36*
X032756Y032653D02*
X032651Y032639D01*
X032554Y032599*
X032471Y032535*
X032406Y032451*
X032366Y032354*
X032352Y03225*
X032366Y032145*
X032406Y032048*
X032471Y031964*
X032554Y0319*
X032651Y03186*
X032756Y031846*
X03286Y03186*
X032958Y0319*
X033041Y031964*
X033105Y032048*
X033145Y032145*
X033159Y03225*
X033145Y032354*
X033105Y032451*
X033041Y032535*
X032958Y032599*
X03286Y032639*
X032756Y032653*
G37*
G36*
X028233Y032706D02*
X02817Y032694D01*
X02783*
Y032257*
X028029*
Y031845*
X027877*
Y031054*
X028589*
Y031845*
X028437*
Y032257*
X028483*
Y032694*
X028297*
X028233Y032706*
G37*
G36*
X025841Y03115D02*
X02535D01*
Y030752*
X025356*
X025485Y030769*
X025605Y030818*
X025708Y030897*
X025787Y031001*
X025837Y031121*
X025841Y03115*
G37*
G36*
X02515D02*
X024658D01*
X024662Y031121*
X024712Y031001*
X024791Y030897*
X024894Y030818*
X025014Y030769*
X025143Y030752*
X02515*
Y03115*
G37*
G36*
X027345Y032713D02*
X026554D01*
Y032001*
X026746*
Y031334*
X025715Y030303*
X024584*
X023735Y031152*
X023748Y03125*
X023735Y031353*
X023695Y031449*
X023631Y031531*
X023549Y031595*
X023453Y031635*
X02335Y031648*
X023246Y031635*
X02315Y031595*
X023068Y031531*
X023004Y031449*
X022964Y031353*
X022951Y03125*
X022964Y031146*
X023004Y03105*
X023068Y030968*
X02315Y030904*
X023246Y030864*
X02335Y030851*
X023447Y030864*
X024355Y029955*
X024421Y029911*
X0245Y029896*
X0258*
X025878Y029911*
X025944Y029955*
X027094Y031105*
X027138Y031171*
X027153Y03125*
Y032001*
X027345*
Y032713*
G37*
G36*
X041Y029579D02*
Y0294D01*
X041179*
X041159Y029449*
X041111Y029511*
X041049Y029559*
X041Y029579*
G37*
G36*
X0408D02*
X04075Y029559D01*
X040688Y029511*
X04064Y029449*
X04062Y0294*
X0408*
Y029579*
G37*
G36*
X041179Y0292D02*
X041D01*
Y02902*
X041049Y02904*
X041111Y029088*
X041159Y02915*
X041179Y0292*
G37*
G36*
X0408D02*
X04062D01*
X04064Y02915*
X040688Y029088*
X04075Y02904*
X0408Y02902*
Y0292*
G37*
G36*
X02415Y029029D02*
Y02885D01*
X024329*
X024309Y028899*
X024261Y028961*
X024199Y029009*
X02415Y029029*
G37*
G36*
X02395D02*
X0239Y029009D01*
X023838Y028961*
X02379Y028899*
X02377Y02885*
X02395*
Y029029*
G37*
G36*
X024329Y02865D02*
X02415D01*
Y02847*
X024199Y02849*
X024261Y028538*
X024309Y0286*
X024329Y02865*
G37*
G36*
X02395D02*
X02377D01*
X02379Y0286*
X023838Y028538*
X0239Y02849*
X02395Y02847*
Y02865*
G37*
G36*
X0374Y029829D02*
X031801D01*
Y02765*
X0374*
Y029829*
G37*
G36*
X02775Y028181D02*
Y0276D01*
X028147*
Y027696*
X02813Y027825*
X028081Y027945*
X028002Y028048*
X027898Y028128*
X027778Y028177*
X02775Y028181*
G37*
G36*
X02755D02*
X027521Y028177D01*
X027401Y028128*
X027297Y028048*
X027218Y027945*
X027169Y027825*
X027152Y027696*
Y0276*
X02755*
Y028181*
G37*
G36*
X03125Y027529D02*
Y02735D01*
X031429*
X031409Y027399*
X031361Y027461*
X031299Y027509*
X03125Y027529*
G37*
G36*
X03105D02*
X031Y027509D01*
X030938Y027461*
X03089Y027399*
X03087Y02735*
X03105*
Y027529*
G37*
G36*
X02375Y027229D02*
Y02705D01*
X023929*
X023909Y027099*
X023861Y027161*
X023799Y027209*
X02375Y027229*
G37*
G36*
X02355D02*
X0235Y027209D01*
X023438Y027161*
X02339Y027099*
X02337Y02705*
X02355*
Y027229*
G37*
G36*
X031429Y02715D02*
X03125D01*
Y02697*
X031299Y02699*
X031361Y027038*
X031409Y0271*
X031429Y02715*
G37*
G36*
X03105D02*
X03087D01*
X03089Y0271*
X030938Y027038*
X031Y02699*
X03105Y02697*
Y02715*
G37*
G36*
X028147Y0274D02*
X02775D01*
Y026818*
X027778Y026822*
X027898Y026871*
X028002Y026951*
X028081Y027054*
X02813Y027174*
X028147Y027303*
Y0274*
G37*
G36*
X02755D02*
X027152D01*
Y027303*
X027169Y027174*
X027218Y027054*
X027297Y026951*
X027401Y026871*
X027521Y026822*
X02755Y026818*
Y0274*
G37*
G36*
X0386Y028194D02*
X038471Y028177D01*
X038351Y028128*
X038247Y028048*
X038168Y027945*
X038119Y027825*
X038102Y027696*
Y027303*
X038119Y027174*
X038168Y027054*
X038247Y026951*
X038351Y026871*
X038471Y026822*
X0386Y026805*
X038728Y026822*
X038848Y026871*
X038952Y026951*
X039031Y027054*
X03908Y027174*
X039097Y027303*
Y027696*
X03908Y027825*
X039031Y027945*
X038952Y028048*
X038848Y028128*
X038728Y028177*
X0386Y028194*
G37*
G36*
X023929Y02685D02*
X02375D01*
Y02667*
X023799Y02669*
X023861Y026738*
X023909Y0268*
X023929Y02685*
G37*
G36*
X02355D02*
X02337D01*
X02339Y0268*
X023438Y026738*
X0235Y02669*
X02355Y02667*
Y02685*
G37*
G36*
X027818Y026569D02*
X0277D01*
Y026342*
X027818*
Y026569*
G37*
G36*
X0275D02*
X027381D01*
Y026342*
X0275*
Y026569*
G37*
G36*
X027818Y026142D02*
X0277D01*
Y025916*
X027818*
Y026142*
G37*
G36*
X0275D02*
X027381D01*
Y025916*
X0275*
Y026142*
G37*
G36*
X029139Y025745D02*
X028427D01*
Y025553*
X028192*
Y025683*
X027755*
Y02503*
X028192*
Y025146*
X028427*
Y024954*
X029139*
Y025745*
G37*
G36*
X03135Y025279D02*
Y0251D01*
X031529*
X031509Y025149*
X031461Y025211*
X031399Y025259*
X03135Y025279*
G37*
G36*
X03115D02*
X0311Y025259D01*
X031038Y025211*
X03099Y025149*
X03097Y0251*
X03115*
Y025279*
G37*
G36*
X03665Y024979D02*
Y0248D01*
X036829*
X036809Y024849*
X036761Y024911*
X036699Y024959*
X03665Y024979*
G37*
G36*
X03645D02*
X0364Y024959D01*
X036338Y024911*
X03629Y024849*
X03627Y0248*
X03645*
Y024979*
G37*
G36*
X031529Y0249D02*
X03135D01*
Y02472*
X031399Y02474*
X031461Y024788*
X031509Y02485*
X031529Y0249*
G37*
G36*
X03115D02*
X03097D01*
X03099Y02485*
X031038Y024788*
X0311Y02474*
X03115Y02472*
Y0249*
G37*
G36*
X036829Y0246D02*
X03665D01*
Y02442*
X036699Y02444*
X036761Y024488*
X036809Y02455*
X036829Y0246*
G37*
G36*
X03645D02*
X03627D01*
X03629Y02455*
X036338Y024488*
X0364Y02444*
X03645Y02442*
Y0246*
G37*
G36*
X040068Y024834D02*
Y02425D01*
X040652*
X040649Y024285*
X040609Y024415*
X040545Y024535*
X040459Y02464*
X040354Y024726*
X040234Y024791*
X040103Y02483*
X040068Y024834*
G37*
G36*
X039868D02*
X039833Y02483D01*
X039702Y024791*
X039582Y024726*
X039477Y02464*
X039391Y024535*
X039327Y024415*
X039287Y024285*
X039284Y02425*
X039868*
Y024834*
G37*
G36*
X023895Y024745D02*
X023104D01*
Y023954*
X023895*
Y024745*
G37*
G36*
X02595Y025843D02*
X02475D01*
Y024856*
X025045*
X025055Y024806*
X024994Y024781*
X024891Y024702*
X024812Y024598*
X024762Y024478*
X024745Y02435*
X024762Y024221*
X024812Y024101*
X024891Y023997*
X024994Y023918*
X025095Y023877*
Y023822*
X024994Y023781*
X024891Y023702*
X024812Y023598*
X024762Y023478*
X024758Y02345*
X02535*
X025941*
X025937Y023478*
X025887Y023598*
X025808Y023702*
X025705Y023781*
X025604Y023822*
Y023877*
X025705Y023918*
X025808Y023997*
X025887Y024101*
X025937Y024221*
X025954Y02435*
X025937Y024478*
X025887Y024598*
X025808Y024702*
X025705Y024781*
X025644Y024806*
X025654Y024856*
X02595*
Y025146*
X027007*
Y02503*
X027014*
Y024505*
X026854*
Y023794*
X027645*
Y024505*
X027422*
Y02503*
X027444*
Y025683*
X027007*
Y025553*
X02595*
Y025843*
G37*
G36*
X040652Y02405D02*
X040068D01*
Y023465*
X040103Y023469*
X040234Y023508*
X040354Y023573*
X040459Y023659*
X040545Y023764*
X040609Y023884*
X040649Y024014*
X040652Y02405*
G37*
G36*
X039868D02*
X039284D01*
X039287Y024014*
X039327Y023884*
X039391Y023764*
X039477Y023659*
X039582Y023573*
X039702Y023508*
X039833Y023469*
X039868Y023465*
Y02405*
G37*
G36*
X0235Y023748D02*
X023396Y023735D01*
X0233Y023695*
X023218Y023631*
X023154Y023549*
X023114Y023453*
X023101Y02335*
X023114Y023246*
X023154Y02315*
X023218Y023068*
X0233Y023004*
X023396Y022964*
X0235Y022951*
X023603Y022964*
X023699Y023004*
X023781Y023068*
X023845Y02315*
X023885Y023246*
X023898Y02335*
X023885Y023453*
X023845Y023549*
X023781Y023631*
X023699Y023695*
X023603Y023735*
X0235Y023748*
G37*
G36*
X025941Y02325D02*
X02545D01*
Y022852*
X025456*
X025585Y022869*
X025705Y022918*
X025808Y022997*
X025887Y023101*
X025937Y023221*
X025941Y02325*
G37*
G36*
X02525D02*
X024758D01*
X024762Y023221*
X024812Y023101*
X024891Y022997*
X024994Y022918*
X025114Y022869*
X025243Y022852*
X02525*
Y02325*
G37*
G36*
X02875Y022135D02*
Y02185D01*
X029035*
X029035Y021853*
X028995Y021949*
X028931Y022031*
X028849Y022095*
X028753Y022135*
X02875Y022135*
G37*
G36*
X02855D02*
X028546Y022135D01*
X02845Y022095*
X028368Y022031*
X028304Y021949*
X028264Y021853*
X028264Y02185*
X02855*
Y022135*
G37*
G36*
X033193Y022393D02*
X032206D01*
Y021406*
X033193*
Y022393*
G37*
G36*
X029035Y02165D02*
X02875D01*
Y021364*
X028753Y021364*
X028849Y021404*
X028931Y021468*
X028995Y02155*
X029035Y021646*
X029035Y02165*
G37*
G36*
X02855D02*
X028264D01*
X028264Y021646*
X028304Y02155*
X028368Y021468*
X02845Y021404*
X028546Y021364*
X02855Y021364*
Y02165*
G37*
G36*
X03825Y020879D02*
Y0207D01*
X038429*
X038409Y020749*
X038361Y020811*
X038299Y020859*
X03825Y020879*
G37*
G36*
X03805D02*
X038Y020859D01*
X037938Y020811*
X03789Y020749*
X03787Y0207*
X03805*
Y020879*
G37*
G36*
X027645Y023639D02*
X026854D01*
Y022927*
X027046*
Y02215*
X027061Y022071*
X027105Y022005*
X028254Y020856*
Y020354*
X029045*
Y021145*
X028543*
X027453Y022234*
Y022927*
X027645*
Y023639*
G37*
G36*
X038429Y0205D02*
X03825D01*
Y02032*
X038299Y02034*
X038361Y020388*
X038409Y02045*
X038429Y0205*
G37*
G36*
X03805D02*
X03787D01*
X03789Y02045*
X037938Y020388*
X038Y02034*
X03805Y02032*
Y0205*
G37*
G36*
X03869Y02484D02*
X037309D01*
Y024037*
X033474Y020202*
X033114*
X033052Y020283*
X032948Y020362*
X032828Y020412*
X0327Y020429*
X032571Y020412*
X032451Y020362*
X032347Y020283*
X032268Y02018*
X032219Y02006*
X032202Y019931*
X032219Y019802*
X032268Y019682*
X032347Y019579*
X032451Y0195*
X032571Y01945*
X0327Y019433*
X032828Y01945*
X032948Y0195*
X033052Y019579*
X033065Y019597*
X0336*
X033678Y019607*
X033751Y019637*
X033813Y019686*
X037587Y023459*
X03869*
Y02484*
G37*
G36*
X03835Y019029D02*
Y01885D01*
X038529*
X038509Y018899*
X038461Y018961*
X038399Y019009*
X03835Y019029*
G37*
G36*
X03815D02*
X0381Y019009D01*
X038038Y018961*
X03799Y018899*
X03797Y01885*
X03815*
Y019029*
G37*
G36*
X04045Y020591D02*
X040276Y020574D01*
X040108Y020523*
X039954Y020441*
X039819Y02033*
X039708Y020195*
X039626Y020041*
X039575Y019873*
X039558Y0197*
X039575Y019526*
X039626Y019358*
X039708Y019204*
X039819Y019069*
X039954Y018958*
X040108Y018876*
X040276Y018825*
X04045Y018808*
X040623Y018825*
X040791Y018876*
X040945Y018958*
X04108Y019069*
X041191Y019204*
X041273Y019358*
X041324Y019526*
X041341Y0197*
X041324Y019873*
X041273Y020041*
X041191Y020195*
X04108Y02033*
X040945Y020441*
X040791Y020523*
X040623Y020574*
X04045Y020591*
G37*
G36*
X022834D02*
X02266Y020574D01*
X022493Y020523*
X022339Y020441*
X022204Y02033*
X022093Y020195*
X02201Y020041*
X02196Y019873*
X021942Y0197*
X02196Y019526*
X02201Y019358*
X022093Y019204*
X022204Y019069*
X022339Y018958*
X022493Y018876*
X02266Y018825*
X022834Y018808*
X023008Y018825*
X023175Y018876*
X02333Y018958*
X023465Y019069*
X023576Y019204*
X023658Y019358*
X023709Y019526*
X023726Y0197*
X023709Y019873*
X023658Y020041*
X023576Y020195*
X023465Y02033*
X02333Y020441*
X023175Y020523*
X023008Y020574*
X022834Y020591*
G37*
G36*
X0241Y018929D02*
Y01875D01*
X024279*
X024259Y018799*
X024211Y018861*
X024149Y018909*
X0241Y018929*
G37*
G36*
X0239D02*
X02385Y018909D01*
X023788Y018861*
X02374Y018799*
X02372Y01875*
X0239*
Y018929*
G37*
G36*
X038529Y01865D02*
X03835D01*
Y01847*
X038399Y01849*
X038461Y018538*
X038509Y0186*
X038529Y01865*
G37*
G36*
X03815D02*
X03797D01*
X03799Y0186*
X038038Y018538*
X0381Y01849*
X03815Y01847*
Y01865*
G37*
G36*
X024279Y01855D02*
X0241D01*
Y01837*
X024149Y01839*
X024211Y018438*
X024259Y0185*
X024279Y01855*
G37*
G36*
X0239D02*
X02372D01*
X02374Y0185*
X023788Y018438*
X02385Y01839*
X0239Y01837*
Y01855*
G37*
%LNpcb-3*%
%LPD*%
G36*
X034055Y043021D02*
X034064Y042946D01*
X034104Y04285*
X034168Y042768*
X034221Y042727*
Y041495*
X034195Y041455*
X034003*
Y043022*
X034004Y043027*
X034053Y04303*
X034055Y043021*
G37*
G36*
X032971Y0408D02*
X032985Y040731D01*
X033023Y040673*
X033404Y040292*
Y040148*
X033358Y040128*
X032758Y040729*
Y041604*
X032971*
Y0408*
G37*
G36*
X035267Y036311D02*
X035258Y036298D01*
X035244Y036225*
X035258Y036151*
X035285Y036112*
X035258Y036062*
X03409*
X03384Y036311*
X033843Y036361*
X03524*
X035267Y036311*
G37*
G36*
X033889Y035757D02*
D01*
X033947Y035719*
X034016Y035705*
X035227*
X035256Y035655*
X035244Y035595*
X035258Y035521*
X0353Y035459*
X035363Y035417*
X035436Y035402*
X035879*
X037103Y034179*
Y032156*
X036826Y031878*
X035904*
X035887Y031928*
X035935Y031964*
X035999Y032048*
X036039Y032145*
X03604Y03215*
X03565*
X035259*
X03526Y032145*
X0353Y032048*
X035364Y031964*
X035412Y031928*
X035395Y031878*
X03494*
X034923Y031928*
X03497Y031964*
X035034Y032048*
X035075Y032145*
X035088Y03225*
X035075Y032354*
X035034Y032451*
X034973Y032532*
X034971Y032538*
X034977Y032592*
X035008Y032613*
X035286Y032891*
X035307Y032922*
X035361Y032928*
X035367Y032926*
X035448Y032865*
X035545Y032824*
X03565Y032811*
X035754Y032824*
X035851Y032865*
X035935Y032929*
X035999Y033012*
X036039Y03311*
X036053Y033214*
X036039Y033318*
X035999Y033416*
X035935Y033499*
X035851Y033563*
X035754Y033604*
X03565Y033618*
X035545Y033604*
X035448Y033563*
X035388Y033518*
X035338Y033543*
Y033789*
X035325Y033857*
X035286Y033915*
X035009Y034193*
X035033Y034239*
X035072Y034231*
X035146Y034246*
X035208Y034288*
X03525Y03435*
X035262Y034414*
X035308Y034438*
X035358Y034389*
X03536Y034372*
X03539Y0343*
X035438Y034238*
X0355Y03419*
X035572Y03416*
X03565Y03415*
X035727Y03416*
X035799Y03419*
X035861Y034238*
X035909Y0343*
X035939Y034372*
X035949Y03445*
X035939Y034527*
X035909Y034599*
X035861Y034661*
X035799Y034709*
X035727Y034739*
X03565Y034749*
X035572Y034739*
X03553Y034721*
X035298Y034953*
X035264Y034976*
Y035231*
X03525Y035304*
X035208Y035367*
X035146Y035408*
X035072Y035423*
X034998Y035408*
X034948Y035374*
X034914Y03537*
X034881Y035374*
X034831Y035408*
X034757Y035423*
X034683Y035408*
X034633Y035374*
X0346Y03537*
X034566Y035374*
X034516Y035408*
X034442Y035423*
X034368Y035408*
X034318Y035374*
X034285Y03537*
X034251Y035374*
X034201Y035408*
X034127Y035423*
X034053Y035408*
X034003Y035374*
X03397Y03537*
X033936Y035374*
X033886Y035408*
X033812Y035423*
X033739Y035408*
X033688Y035374*
X033655Y03537*
X033621Y035374*
X033571Y035408*
X033497Y035423*
X033424Y035408*
X033373Y035374*
X03334Y03537*
X033306Y035374*
X033256Y035408*
X033182Y035423*
X033109Y035408*
X033058Y035374*
X033025Y03537*
X032991Y035374*
X032941Y035408*
X032867Y035423*
X032794Y035408*
X032731Y035367*
X03269Y035304*
X032675Y035231*
Y034887*
X032516Y034728*
X030319*
X030311Y034737*
X030319Y034805*
X030333Y034816*
X030374Y03487*
X0304Y034932*
X030409Y035*
X0304Y035067*
X030374Y035129*
X030353Y035157*
Y035596*
X030566*
X030644Y035611*
X03071Y035655*
X030732Y035677*
X031195*
Y036046*
X0315*
X031527Y035996*
X031518Y035983*
X031504Y03591*
X031518Y035836*
X031552Y035786*
X031557Y035752*
X031552Y035719*
X031518Y035668*
X031504Y035595*
X031518Y035521*
X03156Y035459*
X031622Y035417*
X031696Y035402*
X032503*
X032577Y035417*
X032639Y035459*
X032681Y035521*
X032695Y035595*
X032681Y035668*
X032647Y035719*
X032642Y035752*
X032647Y035786*
X032681Y035836*
X032695Y03591*
X032681Y035983*
X032672Y035996*
X032699Y036046*
X0336*
X033889Y035757*
G37*
G36*
X034264Y034106D02*
Y034057D01*
X034277Y033989*
X034316Y033931*
X034507Y03374*
Y033573*
X034483Y033563*
X0344Y033499*
X034336Y033416*
X034295Y033318*
X034288Y033262*
X034235Y033245*
X034204Y033276*
X034146Y033314*
X034109Y033322*
X03407Y033416*
X034006Y033499*
X033922Y033563*
X033825Y033604*
X033769Y033611*
X033751Y033664*
X034214Y034127*
X034264Y034106*
G37*
%LNpcb-4*%
%LPC*%
G36*
X03575Y03264D02*
Y03235D01*
X03604*
X036039Y032354*
X035999Y032451*
X035935Y032535*
X035851Y032599*
X035754Y032639*
X03575Y03264*
G37*
G36*
X03555D02*
X035545Y032639D01*
X035448Y032599*
X035364Y032535*
X0353Y032451*
X03526Y032354*
X035259Y03235*
X03555*
Y03264*
G37*
%LNpcb-5*%
%LPD*%
G54D10*
X0381Y035333D03*
Y0362D03*
X0371Y036183D03*
Y03705D03*
X03035Y039666D03*
Y0388D03*
X0338Y040233D03*
Y0411D03*
X0396Y039366D03*
Y0385D03*
X0308Y0369D03*
Y036033D03*
X03855Y039366D03*
Y0385D03*
X02765Y039416D03*
Y03855D03*
X02695Y033224D03*
Y032357D03*
X02725Y02415D03*
Y023283D03*
G54D11*
X032867Y038567D03*
X033182D03*
X033497D03*
X033812D03*
X034127D03*
X034442D03*
X034757D03*
X035072D03*
Y034827D03*
X034757D03*
X034442D03*
X034127D03*
X033812D03*
X033497D03*
X033182D03*
X032867D03*
G54D12*
X03584Y0378D03*
Y037485D03*
Y03717D03*
Y036855D03*
Y03654D03*
Y036225D03*
Y03591D03*
Y035595D03*
X0321D03*
Y03591D03*
Y036225D03*
Y03654D03*
Y036855D03*
Y03717D03*
Y037485D03*
G54D13*
X0321Y0378D03*
G54D14*
X031033Y0388D03*
X0319D03*
X028233Y03145D03*
X0291D03*
X028783Y02535D03*
X02965D03*
X03585Y04205D03*
X034983D03*
X02765Y0419D03*
X026783D03*
G54D15*
X027225Y025357D03*
X027974D03*
X0276Y026242D03*
G54D16*
X027657Y040924D03*
Y040175D03*
X028542Y04055D03*
X028157Y033224D03*
Y032475D03*
X029042Y03285D03*
G54D17*
X04045Y0333D02*
Y03355D01*
X03995Y03405D02*
X04045Y03355D01*
X03995Y03405D02*
Y0346D01*
X035172Y034827D02*
X03565Y03435D01*
X030817Y036033D02*
X031009Y036225D01*
X0321*
X0308Y036033D02*
X030817D01*
X033659Y03624D02*
Y03649D01*
Y03624D02*
X034016Y035883D01*
X03584*
X033294Y036855D02*
X033659Y03649D01*
X0321Y036855D02*
X033294D01*
X033659Y03654D02*
X03584D01*
X03415Y0317D02*
X0369D01*
X03372Y032129D02*
X03415Y0317D01*
X034127Y034292D02*
Y034827D01*
X033245Y033411D02*
X034127Y034292D01*
X03565Y03435D02*
Y03445D01*
X035072Y034827D02*
X035172D01*
X03372Y032129D02*
Y03225D01*
X035072Y038922D02*
X0372Y04105D01*
X035072Y038567D02*
Y038922D01*
X0321Y036225D02*
X033659D01*
X033812Y038567D02*
Y040221D01*
X0338Y040233D02*
X033812Y040221D01*
X033497Y038567D02*
Y039737D01*
X032579Y040655D02*
X033497Y039737D01*
X033182Y038567D02*
Y039698D01*
X032329Y040551D02*
X033182Y039698D01*
X032329Y040551D02*
Y04157D01*
X03095Y04295D02*
X032329Y04157D01*
X03195Y0427D02*
Y04295D01*
Y0427D02*
X032579Y04207D01*
Y040655D02*
Y04207D01*
X032635Y0388D02*
X032867Y038567D01*
X0319Y0388D02*
X032635D01*
X03035D02*
X031033D01*
X02935D02*
X03035D01*
X02935Y0378D02*
X0321D01*
X034127Y038567D02*
Y039762D01*
X034685Y033214D02*
Y033814D01*
X034442Y034057D02*
X034685Y033814D01*
X034442Y034057D02*
Y034827D01*
X034488Y032739D02*
X034882D01*
X03516Y033017*
X034757Y034192D02*
X03516Y033789D01*
X034757Y034192D02*
Y034827D01*
X03372Y033214D02*
X033778Y033271D01*
X034135Y032739D02*
X034624Y03225D01*
X033524Y032739D02*
X034135D01*
X033245Y033017D02*
Y033411D01*
Y033017D02*
X033524Y032739D01*
X03516Y033017D02*
Y033789D01*
X03584Y036225D02*
X037058D01*
X0371Y036183*
X03305Y042D02*
X03315Y0419D01*
X03645Y0428D02*
Y04305D01*
X03315Y0408D02*
Y0419D01*
Y0408D02*
X033716Y040233D01*
X0338*
X02765Y03595D02*
Y03855D01*
X0291Y03155D02*
X0298D01*
X02535Y02535D02*
X025374Y025374D01*
X02965Y02535D02*
Y031046D01*
X03855Y0385D02*
X038575Y038475D01*
X03654Y0385D02*
X0373D01*
X03584Y0378D02*
X03654Y0385D01*
X0373D02*
X03855D01*
X035855Y0375D02*
X0396D01*
X0371Y036183D02*
X038083D01*
X034442Y038567D02*
Y039642D01*
X0347Y0399*
Y041766*
X034983Y04205*
X03645Y04295D02*
Y04305D01*
X034983Y04205D02*
Y042283D01*
X03545Y04275*
Y04305*
X034127Y039762D02*
X0344Y040035D01*
Y0429*
X0345Y043*
X0362Y041D02*
Y04105D01*
X034757Y038567D02*
Y039557D01*
X0362Y041*
X03645Y04305D02*
Y0432D01*
X033778Y033271D02*
X0339Y03315D01*
X034078*
X034488Y032739*
X033497Y034097D02*
Y034827D01*
X02965Y031046D02*
X032403Y0338D01*
X0332*
X033497Y034097*
X0298Y03155D02*
X0323Y03405D01*
X033*
X033182Y034232*
Y034827*
X0369Y0317D02*
X037282Y032082D01*
X037166Y035333D02*
X0381D01*
X039779Y03477D02*
X03995Y0346D01*
X03584Y035595D02*
X035939D01*
X037282Y034252*
X039035Y03477D02*
X039779D01*
X037282Y032082D02*
Y0343D01*
X038564*
X039035Y03477*
X02765Y03595D02*
X02905Y03455D01*
X03259*
X032867Y034827*
X03715Y029579D02*
Y029079D01*
X03705Y028979*
X03685*
X03675Y029079*
Y029579*
X03655Y028979D02*
Y029579D01*
X03615Y028979*
Y029579*
X03595D02*
X03575D01*
X03585*
Y028979*
X03595*
X03575*
X03545Y029579D02*
Y029179D01*
X03525Y028979*
X03505Y029179*
Y029579*
X03445D02*
X03485D01*
Y028979*
X03445*
X03485Y029279D02*
X03465D01*
X03425Y028979D02*
Y029579D01*
X033951*
X033851Y029479*
Y029279*
X033951Y029179*
X03425*
X03405D02*
X033851Y028979D01*
X033251Y029479D02*
X033351Y029579D01*
X033551*
X033651Y029479*
Y029379*
X033551Y029279*
X033351*
X033251Y029179*
Y029079*
X033351Y028979*
X033551*
X033651Y029079*
X033051Y028979D02*
Y029379D01*
X032851Y029579*
X032651Y029379*
Y028979*
Y029279*
X033051*
X032451Y029579D02*
Y028979D01*
X032051*
X03715Y028499D02*
Y028099D01*
X03695Y0279*
X03675Y028099*
Y028499*
X03655Y0279D02*
X03635D01*
X03645*
Y028499*
X03655Y028399*
X03605Y0279D02*
Y027999D01*
X03595*
Y0279*
X03605*
X03555Y028399D02*
X03545Y028499D01*
X03525*
X03515Y028399*
Y027999*
X03525Y0279*
X03545*
X03555Y027999*
Y028399*
G54D18*
X030566Y0358D02*
X0308Y036033D01*
X03015Y0358D02*
X030566D01*
X02935D02*
X03015D01*
Y035D02*
Y0358D01*
X0338Y0411D02*
Y04385D01*
X028233Y03155D02*
Y032502D01*
X02765Y039416D02*
Y040168D01*
X03645Y0428D02*
X0382Y04105D01*
X027657Y040924D02*
Y041892D01*
X025275Y040924D02*
X027657D01*
X02405Y0419D02*
X026783D01*
X02295Y0408D02*
X02405Y0419D01*
X02295Y03965D02*
Y0408D01*
Y03965D02*
X0236Y039D01*
X025275Y033224D02*
X028157D01*
X02535Y02535D02*
X027218D01*
Y024181D02*
Y02535D01*
X02725Y02215D02*
Y023283D01*
Y02215D02*
X02865Y02075D01*
X027981Y02535D02*
X028783D01*
X02695Y03125D02*
Y032357D01*
X0258Y0301D02*
X02695Y03125D01*
X0245Y0301D02*
X0258D01*
X02335Y03125D02*
X0245Y0301D01*
X03855Y039366D02*
X0396D01*
Y0375D02*
Y0385D01*
X03585Y04205D02*
Y04235D01*
X03645Y04295*
X02895D02*
X02985Y04385D01*
X0358*
X03645Y0432*
X03855Y039366D02*
Y0407D01*
X0382Y04105D02*
X03855Y0407D01*
G54D19*
X03785Y02415D02*
X038D01*
X0327Y0199D02*
X0336D01*
X03785Y02415*
G54D20*
X0277Y0436D03*
X0282Y03625D03*
X03115Y02725D03*
X03565Y03445D03*
X03125Y025D03*
X03815Y0206D03*
X0409Y0293D03*
X02405Y02875D03*
X02365Y02695D03*
X024Y01865D03*
X03825Y01875D03*
X02485Y0437D03*
X02425Y03645D03*
X03655Y0247D03*
X04065Y0416D03*
G54D21*
X02865Y02075D03*
X0235Y02435D03*
X02335Y03225D03*
X0236Y04D03*
X0396Y0375D03*
X03745Y0385D03*
X02935Y0358D03*
X03315Y042D03*
X04045Y0323D03*
G54D22*
X02865Y02175D03*
X0235Y02335D03*
X0352Y04105D03*
X0362D03*
X0372D03*
X02335Y03125D03*
X0236Y039D03*
X0396Y036161D03*
X03745Y0395D03*
X03445Y04305D03*
X03545D03*
X03645D03*
X02935Y0368D03*
Y0378D03*
Y0388D03*
X03315Y043D03*
X03945Y0323D03*
X04045Y0343D03*
X03945Y0333D03*
X04045D03*
X03945Y0343D03*
X03195Y04295D03*
X03095D03*
X02995D03*
G54D23*
X03015Y035D03*
G54D24*
X02535Y02335D03*
Y02435D03*
X02525Y03895D03*
Y03995D03*
Y03125D03*
Y03225D03*
G54D25*
X02535Y02535D03*
X02525Y04095D03*
Y03325D03*
G54D26*
X0382Y04105D03*
X03745Y04305D03*
X02895Y04295D03*
G54D27*
X032756Y03225D03*
X03372D03*
X034685D03*
X03565D03*
X032756Y033214D03*
X03372D03*
X034685D03*
X03565D03*
X03715Y03535D03*
G54D28*
X02765Y0275D03*
X0386D03*
G54D29*
X0327Y0219D03*
G54D30*
X0327Y019931D03*
G54D31*
X039968Y02415D03*
G54D32*
X038Y02415D03*
G54D33*
X04045Y04345D03*
Y0197D03*
X022834D03*
Y04345D03*
G54D34*
X03425Y03725D03*
M02*