%FSTAX24Y24*%
%MOIN*%
%SFA1B1*%

%IPPOS*%
%ADD45R,0.063100X0.055200*%
%ADD46O,0.021700X0.102400*%
%ADD47O,0.102400X0.021700*%
%ADD48R,0.102400X0.021700*%
%ADD49R,0.055200X0.063100*%
%ADD50R,0.027600X0.049300*%
%ADD51R,0.049300X0.027600*%
%LNpcb-1*%
%LPD*%
G54D45*
X02655Y039416D03*
Y03855D03*
X0282Y029866D03*
Y029D03*
X0288Y024366D03*
Y0235D03*
X0381Y035334D03*
Y0362D03*
X0371Y036184D03*
Y03705D03*
X03035Y039666D03*
Y0388D03*
X0338Y040234D03*
Y0411D03*
X0396Y039366D03*
Y0385D03*
X0308Y0369D03*
Y036034D03*
X03855Y039366D03*
Y0385D03*
X02765Y039416D03*
Y03855D03*
X02695Y033224D03*
Y032358D03*
X02725Y02415D03*
Y023284D03*
G54D46*
X032868Y038568D03*
X033183D03*
X033498D03*
X033813D03*
X034128D03*
X034443D03*
X034757D03*
X035072D03*
Y034828D03*
X034757D03*
X034443D03*
X034128D03*
X033813D03*
X033498D03*
X033183D03*
X032868D03*
G54D47*
X03584Y0378D03*
Y037485D03*
Y03717D03*
Y036855D03*
Y03654D03*
Y036225D03*
Y03591D03*
Y035595D03*
X0321D03*
Y03591D03*
Y036225D03*
Y03654D03*
Y036855D03*
Y03717D03*
Y037485D03*
G54D48*
X0321Y0378D03*
G54D49*
X031034Y0388D03*
X0319D03*
X028234Y03145D03*
X0291D03*
X028784Y02535D03*
X02965D03*
X03585Y04205D03*
X034984D03*
X02765Y0419D03*
X026784D03*
G54D50*
X027226Y025357D03*
X027974D03*
X0276Y026243D03*
G54D51*
X027657Y040924D03*
Y040176D03*
X028543Y04055D03*
X028157Y033224D03*
Y032476D03*
X029043Y03285D03*
M02*