%FSTAX24Y24*%
%MOIN*%
%SFA1B1*%

%IPPOS*%
%ADD85C,0.002000*%
%ADD86C,0.002700*%
%LNpcb-1*%
%LPD*%
G54D85*
X02892Y02742D02*
Y02758D01*
X02908*
Y02742*
X02892*
X030858Y027382D02*
Y027542D01*
X031018*
Y027382*
X030858*
X02865Y02067D02*
X02857Y02083D01*
X02873*
X02865Y02067*
Y02167D02*
X02857Y02183D01*
X02873*
X02865Y02167*
X02325Y02427D02*
X02317Y02443D01*
X02333*
X02325Y02427*
X02225D02*
X02217Y02443D01*
X02233*
X02225Y02427*
X02527Y02327D02*
Y02343D01*
X02543*
Y02327*
X02527*
Y02427D02*
Y02443D01*
X02543*
Y02427*
X02527*
Y02527D02*
Y02543D01*
X02543*
Y02527*
X02527*
X0352Y04097D02*
X03512Y04113D01*
X03528*
X0352Y04097*
X0362D02*
X03612Y04113D01*
X03628*
X0362Y04097*
X0372D02*
X03712Y04113D01*
X03728*
X0372Y04097*
X0382D02*
X03812Y04113D01*
X03828*
X0382Y04097*
X02325Y03217D02*
X02317Y03233D01*
X02333*
X02325Y03217*
X02225D02*
X02217Y03233D01*
X02233*
X02225Y03217*
X02325Y03987D02*
X02317Y04003D01*
X02333*
X02325Y03987*
X02225D02*
X02217Y04003D01*
X02233*
X02225Y03987*
X02517Y03887D02*
Y03903D01*
X02533*
Y03887*
X02517*
Y03987D02*
Y04003D01*
X02533*
Y03987*
X02517*
Y04087D02*
Y04103D01*
X02533*
Y04087*
X02517*
Y03117D02*
Y03133D01*
X02533*
Y03117*
X02517*
Y03217D02*
Y03233D01*
X02533*
Y03217*
X02517*
Y03317D02*
Y03333D01*
X02533*
Y03317*
X02517*
X0396Y03742D02*
X03952Y03758D01*
X03968*
X0396Y03742*
Y036081D02*
X03952Y036241D01*
X03968*
X0396Y036081*
X03745Y03942D02*
X03737Y03958D01*
X03753*
X03745Y03942*
Y03842D02*
X03737Y03858D01*
X03753*
X03745Y03842*
X03445Y04297D02*
X03437Y04313D01*
X03453*
X03445Y04297*
X03545D02*
X03537Y04313D01*
X03553*
X03545Y04297*
X03645D02*
X03637Y04313D01*
X03653*
X03645Y04297*
X03745D02*
X03737Y04313D01*
X03753*
X03745Y04297*
X032756Y03217D02*
X032796Y03221D01*
X032836*
X032796Y03225*
X032836Y03229*
X032796*
X032756Y03233*
X032716Y03229*
X032676*
X032716Y03225*
X032676Y03221*
X032716*
X032756Y03217*
X033721D02*
X033761Y03221D01*
X033801*
X033761Y03225*
X033801Y03229*
X033761*
X033721Y03233*
X033681Y03229*
X033641*
X033681Y03225*
X033641Y03221*
X033681*
X033721Y03217*
X034685D02*
X034725Y03221D01*
X034765*
X034725Y03225*
X034765Y03229*
X034725*
X034685Y03233*
X034645Y03229*
X034605*
X034645Y03225*
X034605Y03221*
X034645*
X034685Y03217*
X03565D02*
X03569Y03221D01*
X03573*
X03569Y03225*
X03573Y03229*
X03569*
X03565Y03233*
X03561Y03229*
X03557*
X03561Y03225*
X03557Y03221*
X03561*
X03565Y03217*
X032756Y033135D02*
X032796Y033175D01*
X032836*
X032796Y033215*
X032836Y033255*
X032796*
X032756Y033295*
X032716Y033255*
X032676*
X032716Y033215*
X032676Y033175*
X032716*
X032756Y033135*
X033721D02*
X033761Y033175D01*
X033801*
X033761Y033215*
X033801Y033255*
X033761*
X033721Y033295*
X033681Y033255*
X033641*
X033681Y033215*
X033641Y033175*
X033681*
X033721Y033135*
X034685D02*
X034725Y033175D01*
X034765*
X034725Y033215*
X034765Y033255*
X034725*
X034685Y033295*
X034645Y033255*
X034605*
X034645Y033215*
X034605Y033175*
X034645*
X034685Y033135*
X03565D02*
X03569Y033175D01*
X03573*
X03569Y033215*
X03573Y033255*
X03569*
X03565Y033295*
X03561Y033255*
X03557*
X03561Y033215*
X03557Y033175*
X03561*
X03565Y033135*
X02935Y03572D02*
X02939Y03576D01*
X02943*
X02939Y0358*
X02943Y03584*
X02939*
X02935Y03588*
X02931Y03584*
X02927*
X02931Y0358*
X02927Y03576*
X02931*
X02935Y03572*
Y03672D02*
X02939Y03676D01*
X02943*
X02939Y0368*
X02943Y03684*
X02939*
X02935Y03688*
X02931Y03684*
X02927*
X02931Y0368*
X02927Y03676*
X02931*
X02935Y03672*
Y03772D02*
X02939Y03776D01*
X02943*
X02939Y0378*
X02943Y03784*
X02939*
X02935Y03788*
X02931Y03784*
X02927*
X02931Y0378*
X02927Y03776*
X02931*
X02935Y03772*
Y03872D02*
X02939Y03876D01*
X02943*
X02939Y0388*
X02943Y03884*
X02939*
X02935Y03888*
X02931Y03884*
X02927*
X02931Y0388*
X02927Y03876*
X02931*
X02935Y03872*
X03315Y04192D02*
X03319Y04196D01*
X03323*
X03319Y042*
X03323Y04204*
X03319*
X03315Y04208*
X03311Y04204*
X03307*
X03311Y042*
X03307Y04196*
X03311*
X03315Y04192*
Y04292D02*
X03319Y04296D01*
X03323*
X03319Y043*
X03323Y04304*
X03319*
X03315Y04308*
X03311Y04304*
X03307*
X03311Y043*
X03307Y04296*
X03311*
X03315Y04292*
X02777Y02742D02*
Y02758D01*
X02793*
Y02742*
X02777*
X03852D02*
Y02758D01*
X03868*
Y02742*
X03852*
X03945Y03222D02*
X03937Y03238D01*
X03953*
X03945Y03222*
X04045Y03422D02*
X04037Y03438D01*
X04053*
X04045Y03422*
X03945Y03322D02*
X03937Y03338D01*
X03953*
X03945Y03322*
X04045D02*
X04037Y03338D01*
X04053*
X04045Y03322*
Y03222D02*
X04037Y03238D01*
X04053*
X04045Y03222*
X03945Y03422D02*
X03937Y03438D01*
X03953*
X03945Y03422*
X0327Y02182D02*
X03262Y02198D01*
X03278*
X0327Y02182*
Y019851D02*
X03262Y020011D01*
X03278*
X0327Y019851*
X039889Y02407D02*
X039929Y02415D01*
X039889Y02423*
X039969Y02419*
X040048Y02423*
X040009Y02415*
X040048Y02407*
X039969Y02411*
X039889Y02407*
X03792D02*
X03796Y02415D01*
X03792Y02423*
X038Y02419*
X03808Y02423*
X03804Y02415*
X03808Y02407*
X038Y02411*
X03792Y02407*
X03715Y03527D02*
X03719Y03531D01*
X03723*
X03719Y03535*
X03723Y03539*
X03719*
X03715Y03543*
X03711Y03539*
X03707*
X03711Y03535*
X03707Y03531*
X03711*
X03715Y03527*
X03195Y04287D02*
X03199Y04291D01*
X03203*
X03199Y04295*
X03203Y04299*
X03199*
X03195Y04303*
X03191Y04299*
X03187*
X03191Y04295*
X03187Y04291*
X03191*
X03195Y04287*
X03095D02*
X03099Y04291D01*
X03103*
X03099Y04295*
X03103Y04299*
X03099*
X03095Y04303*
X03091Y04299*
X03087*
X03091Y04295*
X03087Y04291*
X03091*
X03095Y04287*
X02995D02*
X02999Y04291D01*
X03003*
X02999Y04295*
X03003Y04299*
X02999*
X02995Y04303*
X02991Y04299*
X02987*
X02991Y04295*
X02987Y04291*
X02991*
X02995Y04287*
X02895D02*
X02899Y04291D01*
X02903*
X02899Y04295*
X02903Y04299*
X02899*
X02895Y04303*
X02891Y04299*
X02887*
X02891Y04295*
X02887Y04291*
X02891*
X02895Y04287*
X04041Y04341D02*
Y04337D01*
X04049*
Y04341*
X04053*
Y04349*
X04049*
Y04353*
X04041*
Y04349*
X04037*
Y04341*
X04041*
Y01966D02*
Y01962D01*
X04049*
Y01966*
X04053*
Y01974*
X04049*
Y01978*
X04041*
Y01974*
X04037*
Y01966*
X04041*
X022795D02*
Y01962D01*
X022875*
Y01966*
X022915*
Y01974*
X022875*
Y01978*
X022795*
Y01974*
X022755*
Y01966*
X022795*
Y04341D02*
Y04337D01*
X022875*
Y04341*
X022915*
Y04349*
X022875*
Y04353*
X022795*
Y04349*
X022755*
Y04341*
X022795*
G54D86*
X02778Y0436D02*
D01*
X027779Y043605*
X027779Y043611*
X027778Y043616*
X027776Y043622*
X027775Y043627*
X027773Y043632*
X02777Y043637*
X027767Y043642*
X027764Y043647*
X027761Y043651*
X027757Y043655*
X027753Y043659*
X027749Y043663*
X027744Y043666*
X02774Y043669*
X027735Y043671*
X027729Y043674*
X027724Y043676*
X027719Y043677*
X027713Y043678*
X027708Y043679*
X027702Y043679*
X027697*
X027691Y043679*
X027686Y043678*
X02768Y043677*
X027675Y043676*
X02767Y043674*
X027664Y043671*
X02766Y043669*
X027655Y043666*
X02765Y043663*
X027646Y043659*
X027642Y043655*
X027638Y043651*
X027635Y043647*
X027632Y043642*
X027629Y043637*
X027626Y043632*
X027624Y043627*
X027623Y043622*
X027621Y043616*
X02762Y043611*
X02762Y043605*
X02762Y0436*
X02762Y043594*
X02762Y043588*
X027621Y043583*
X027623Y043577*
X027624Y043572*
X027626Y043567*
X027629Y043562*
X027632Y043557*
X027635Y043552*
X027638Y043548*
X027642Y043544*
X027646Y04354*
X02765Y043536*
X027655Y043533*
X02766Y04353*
X027664Y043528*
X02767Y043525*
X027675Y043523*
X02768Y043522*
X027686Y043521*
X027691Y04352*
X027697Y04352*
X027702*
X027708Y04352*
X027713Y043521*
X027719Y043522*
X027724Y043523*
X027729Y043525*
X027735Y043528*
X02774Y04353*
X027744Y043533*
X027749Y043536*
X027753Y04354*
X027757Y043544*
X027761Y043548*
X027764Y043552*
X027767Y043557*
X02777Y043562*
X027773Y043567*
X027775Y043572*
X027776Y043577*
X027778Y043583*
X027779Y043588*
X027779Y043594*
X02778Y0436*
X02828Y03625D02*
D01*
X028279Y036255*
X028279Y036261*
X028278Y036266*
X028276Y036272*
X028275Y036277*
X028273Y036282*
X02827Y036287*
X028267Y036292*
X028264Y036297*
X028261Y036301*
X028257Y036305*
X028253Y036309*
X028249Y036313*
X028244Y036316*
X02824Y036319*
X028235Y036321*
X028229Y036324*
X028224Y036326*
X028219Y036327*
X028213Y036328*
X028208Y036329*
X028202Y036329*
X028197*
X028191Y036329*
X028186Y036328*
X02818Y036327*
X028175Y036326*
X02817Y036324*
X028164Y036321*
X02816Y036319*
X028155Y036316*
X02815Y036313*
X028146Y036309*
X028142Y036305*
X028138Y036301*
X028135Y036297*
X028132Y036292*
X028129Y036287*
X028126Y036282*
X028124Y036277*
X028123Y036272*
X028121Y036266*
X02812Y036261*
X02812Y036255*
X02812Y03625*
X02812Y036244*
X02812Y036238*
X028121Y036233*
X028123Y036227*
X028124Y036222*
X028126Y036217*
X028129Y036212*
X028132Y036207*
X028135Y036202*
X028138Y036198*
X028142Y036194*
X028146Y03619*
X02815Y036186*
X028155Y036183*
X02816Y03618*
X028164Y036178*
X02817Y036175*
X028175Y036173*
X02818Y036172*
X028186Y036171*
X028191Y03617*
X028197Y03617*
X028202*
X028208Y03617*
X028213Y036171*
X028219Y036172*
X028224Y036173*
X028229Y036175*
X028235Y036178*
X02824Y03618*
X028244Y036183*
X028249Y036186*
X028253Y03619*
X028257Y036194*
X028261Y036198*
X028264Y036202*
X028267Y036207*
X02827Y036212*
X028273Y036217*
X028275Y036222*
X028276Y036227*
X028278Y036233*
X028279Y036238*
X028279Y036244*
X02828Y03625*
X02943Y03475D02*
D01*
X029429Y034755*
X029429Y034761*
X029428Y034766*
X029426Y034772*
X029425Y034777*
X029423Y034782*
X02942Y034787*
X029417Y034792*
X029414Y034797*
X029411Y034801*
X029407Y034805*
X029403Y034809*
X029399Y034813*
X029394Y034816*
X02939Y034819*
X029385Y034821*
X029379Y034824*
X029374Y034826*
X029369Y034827*
X029363Y034828*
X029358Y034829*
X029352Y034829*
X029347*
X029341Y034829*
X029336Y034828*
X02933Y034827*
X029325Y034826*
X02932Y034824*
X029314Y034821*
X02931Y034819*
X029305Y034816*
X0293Y034813*
X029296Y034809*
X029292Y034805*
X029288Y034801*
X029285Y034797*
X029282Y034792*
X029279Y034787*
X029276Y034782*
X029274Y034777*
X029273Y034772*
X029271Y034766*
X02927Y034761*
X02927Y034755*
X02927Y03475*
X02927Y034744*
X02927Y034738*
X029271Y034733*
X029273Y034727*
X029274Y034722*
X029276Y034717*
X029279Y034712*
X029282Y034707*
X029285Y034702*
X029288Y034698*
X029292Y034694*
X029296Y03469*
X0293Y034686*
X029305Y034683*
X02931Y03468*
X029314Y034678*
X02932Y034675*
X029325Y034673*
X02933Y034672*
X029336Y034671*
X029341Y03467*
X029347Y03467*
X029352*
X029358Y03467*
X029363Y034671*
X029369Y034672*
X029374Y034673*
X029379Y034675*
X029385Y034678*
X02939Y03468*
X029394Y034683*
X029399Y034686*
X029403Y03469*
X029407Y034694*
X029411Y034698*
X029414Y034702*
X029417Y034707*
X02942Y034712*
X029423Y034717*
X029425Y034722*
X029426Y034727*
X029428Y034733*
X029429Y034738*
X029429Y034744*
X02943Y03475*
X03573Y03445D02*
D01*
X035729Y034455*
X035729Y034461*
X035728Y034466*
X035726Y034472*
X035725Y034477*
X035723Y034482*
X03572Y034487*
X035717Y034492*
X035714Y034497*
X035711Y034501*
X035707Y034505*
X035703Y034509*
X035699Y034513*
X035694Y034516*
X03569Y034519*
X035685Y034521*
X035679Y034524*
X035674Y034526*
X035669Y034527*
X035663Y034528*
X035658Y034529*
X035652Y034529*
X035647*
X035641Y034529*
X035636Y034528*
X03563Y034527*
X035625Y034526*
X03562Y034524*
X035614Y034521*
X03561Y034519*
X035605Y034516*
X0356Y034513*
X035596Y034509*
X035592Y034505*
X035588Y034501*
X035585Y034497*
X035582Y034492*
X035579Y034487*
X035576Y034482*
X035574Y034477*
X035573Y034472*
X035571Y034466*
X03557Y034461*
X03557Y034455*
X03557Y03445*
X03557Y034444*
X03557Y034438*
X035571Y034433*
X035573Y034427*
X035574Y034422*
X035576Y034417*
X035579Y034412*
X035582Y034407*
X035585Y034402*
X035588Y034398*
X035592Y034394*
X035596Y03439*
X0356Y034386*
X035605Y034383*
X03561Y03438*
X035614Y034378*
X03562Y034375*
X035625Y034373*
X03563Y034372*
X035636Y034371*
X035641Y03437*
X035647Y03437*
X035652*
X035658Y03437*
X035663Y034371*
X035669Y034372*
X035674Y034373*
X035679Y034375*
X035685Y034378*
X03569Y03438*
X035694Y034383*
X035699Y034386*
X035703Y03439*
X035707Y034394*
X035711Y034398*
X035714Y034402*
X035717Y034407*
X03572Y034412*
X035723Y034417*
X035725Y034422*
X035726Y034427*
X035728Y034433*
X035729Y034438*
X035729Y034444*
X03573Y03445*
X03433Y03725D02*
D01*
X034329Y037255*
X034329Y037261*
X034328Y037266*
X034326Y037272*
X034325Y037277*
X034323Y037282*
X03432Y037287*
X034317Y037292*
X034314Y037297*
X034311Y037301*
X034307Y037305*
X034303Y037309*
X034299Y037313*
X034294Y037316*
X03429Y037319*
X034285Y037321*
X034279Y037324*
X034274Y037326*
X034269Y037327*
X034263Y037328*
X034258Y037329*
X034252Y037329*
X034247*
X034241Y037329*
X034236Y037328*
X03423Y037327*
X034225Y037326*
X03422Y037324*
X034214Y037321*
X03421Y037319*
X034205Y037316*
X0342Y037313*
X034196Y037309*
X034192Y037305*
X034188Y037301*
X034185Y037297*
X034182Y037292*
X034179Y037287*
X034176Y037282*
X034174Y037277*
X034173Y037272*
X034171Y037266*
X03417Y037261*
X03417Y037255*
X03417Y03725*
X03417Y037244*
X03417Y037238*
X034171Y037233*
X034173Y037227*
X034174Y037222*
X034176Y037217*
X034179Y037212*
X034182Y037207*
X034185Y037202*
X034188Y037198*
X034192Y037194*
X034196Y03719*
X0342Y037186*
X034205Y037183*
X03421Y03718*
X034214Y037178*
X03422Y037175*
X034225Y037173*
X03423Y037172*
X034236Y037171*
X034241Y03717*
X034247Y03717*
X034252*
X034258Y03717*
X034263Y037171*
X034269Y037172*
X034274Y037173*
X034279Y037175*
X034285Y037178*
X03429Y03718*
X034294Y037183*
X034299Y037186*
X034303Y03719*
X034307Y037194*
X034311Y037198*
X034314Y037202*
X034317Y037207*
X03432Y037212*
X034323Y037217*
X034325Y037222*
X034326Y037227*
X034328Y037233*
X034329Y037238*
X034329Y037244*
X03433Y03725*
X03133Y025D02*
D01*
X031329Y025005*
X031329Y025011*
X031328Y025016*
X031326Y025022*
X031325Y025027*
X031323Y025032*
X03132Y025037*
X031317Y025042*
X031314Y025047*
X031311Y025051*
X031307Y025055*
X031303Y025059*
X031299Y025063*
X031294Y025066*
X03129Y025069*
X031285Y025071*
X031279Y025074*
X031274Y025076*
X031269Y025077*
X031263Y025078*
X031258Y025079*
X031252Y025079*
X031247*
X031241Y025079*
X031236Y025078*
X03123Y025077*
X031225Y025076*
X03122Y025074*
X031214Y025071*
X03121Y025069*
X031205Y025066*
X0312Y025063*
X031196Y025059*
X031192Y025055*
X031188Y025051*
X031185Y025047*
X031182Y025042*
X031179Y025037*
X031176Y025032*
X031174Y025027*
X031173Y025022*
X031171Y025016*
X03117Y025011*
X03117Y025005*
X03117Y025*
X03117Y024994*
X03117Y024988*
X031171Y024983*
X031173Y024977*
X031174Y024972*
X031176Y024967*
X031179Y024962*
X031182Y024957*
X031185Y024952*
X031188Y024948*
X031192Y024944*
X031196Y02494*
X0312Y024936*
X031205Y024933*
X03121Y02493*
X031214Y024928*
X03122Y024925*
X031225Y024923*
X03123Y024922*
X031236Y024921*
X031241Y02492*
X031247Y02492*
X031252*
X031258Y02492*
X031263Y024921*
X031269Y024922*
X031274Y024923*
X031279Y024925*
X031285Y024928*
X03129Y02493*
X031294Y024933*
X031299Y024936*
X031303Y02494*
X031307Y024944*
X031311Y024948*
X031314Y024952*
X031317Y024957*
X03132Y024962*
X031323Y024967*
X031325Y024972*
X031326Y024977*
X031328Y024983*
X031329Y024988*
X031329Y024994*
X03133Y025*
X03823Y0206D02*
D01*
X038229Y020605*
X038229Y020611*
X038228Y020616*
X038226Y020622*
X038225Y020627*
X038223Y020632*
X03822Y020637*
X038217Y020642*
X038214Y020647*
X038211Y020651*
X038207Y020655*
X038203Y020659*
X038199Y020663*
X038194Y020666*
X03819Y020669*
X038185Y020671*
X038179Y020674*
X038174Y020676*
X038169Y020677*
X038163Y020678*
X038158Y020679*
X038152Y020679*
X038147*
X038141Y020679*
X038136Y020678*
X03813Y020677*
X038125Y020676*
X03812Y020674*
X038114Y020671*
X03811Y020669*
X038105Y020666*
X0381Y020663*
X038096Y020659*
X038092Y020655*
X038088Y020651*
X038085Y020647*
X038082Y020642*
X038079Y020637*
X038076Y020632*
X038074Y020627*
X038073Y020622*
X038071Y020616*
X03807Y020611*
X03807Y020605*
X03807Y0206*
X03807Y020594*
X03807Y020588*
X038071Y020583*
X038073Y020577*
X038074Y020572*
X038076Y020567*
X038079Y020562*
X038082Y020557*
X038085Y020552*
X038088Y020548*
X038092Y020544*
X038096Y02054*
X0381Y020536*
X038105Y020533*
X03811Y02053*
X038114Y020528*
X03812Y020525*
X038125Y020523*
X03813Y020522*
X038136Y020521*
X038141Y02052*
X038147Y02052*
X038152*
X038158Y02052*
X038163Y020521*
X038169Y020522*
X038174Y020523*
X038179Y020525*
X038185Y020528*
X03819Y02053*
X038194Y020533*
X038199Y020536*
X038203Y02054*
X038207Y020544*
X038211Y020548*
X038214Y020552*
X038217Y020557*
X03822Y020562*
X038223Y020567*
X038225Y020572*
X038226Y020577*
X038228Y020583*
X038229Y020588*
X038229Y020594*
X03823Y0206*
X04098Y0293D02*
D01*
X040979Y029305*
X040979Y029311*
X040978Y029316*
X040976Y029322*
X040975Y029327*
X040973Y029332*
X04097Y029337*
X040967Y029342*
X040964Y029347*
X040961Y029351*
X040957Y029355*
X040953Y029359*
X040949Y029363*
X040944Y029366*
X04094Y029369*
X040935Y029371*
X040929Y029374*
X040924Y029376*
X040919Y029377*
X040913Y029378*
X040908Y029379*
X040902Y029379*
X040897*
X040891Y029379*
X040886Y029378*
X04088Y029377*
X040875Y029376*
X04087Y029374*
X040864Y029371*
X04086Y029369*
X040855Y029366*
X04085Y029363*
X040846Y029359*
X040842Y029355*
X040838Y029351*
X040835Y029347*
X040832Y029342*
X040829Y029337*
X040826Y029332*
X040824Y029327*
X040823Y029322*
X040821Y029316*
X04082Y029311*
X04082Y029305*
X04082Y0293*
X04082Y029294*
X04082Y029288*
X040821Y029283*
X040823Y029277*
X040824Y029272*
X040826Y029267*
X040829Y029262*
X040832Y029257*
X040835Y029252*
X040838Y029248*
X040842Y029244*
X040846Y02924*
X04085Y029236*
X040855Y029233*
X04086Y02923*
X040864Y029228*
X04087Y029225*
X040875Y029223*
X04088Y029222*
X040886Y029221*
X040891Y02922*
X040897Y02922*
X040902*
X040908Y02922*
X040913Y029221*
X040919Y029222*
X040924Y029223*
X040929Y029225*
X040935Y029228*
X04094Y02923*
X040944Y029233*
X040949Y029236*
X040953Y02924*
X040957Y029244*
X040961Y029248*
X040964Y029252*
X040967Y029257*
X04097Y029262*
X040973Y029267*
X040975Y029272*
X040976Y029277*
X040978Y029283*
X040979Y029288*
X040979Y029294*
X04098Y0293*
X02413Y02875D02*
D01*
X024129Y028755*
X024129Y028761*
X024128Y028766*
X024126Y028772*
X024125Y028777*
X024123Y028782*
X02412Y028787*
X024117Y028792*
X024114Y028797*
X024111Y028801*
X024107Y028805*
X024103Y028809*
X024099Y028813*
X024094Y028816*
X02409Y028819*
X024085Y028821*
X024079Y028824*
X024074Y028826*
X024069Y028827*
X024063Y028828*
X024058Y028829*
X024052Y028829*
X024047*
X024041Y028829*
X024036Y028828*
X02403Y028827*
X024025Y028826*
X02402Y028824*
X024014Y028821*
X02401Y028819*
X024005Y028816*
X024Y028813*
X023996Y028809*
X023992Y028805*
X023988Y028801*
X023985Y028797*
X023982Y028792*
X023979Y028787*
X023976Y028782*
X023974Y028777*
X023973Y028772*
X023971Y028766*
X02397Y028761*
X02397Y028755*
X02397Y02875*
X02397Y028744*
X02397Y028738*
X023971Y028733*
X023973Y028727*
X023974Y028722*
X023976Y028717*
X023979Y028712*
X023982Y028707*
X023985Y028702*
X023988Y028698*
X023992Y028694*
X023996Y02869*
X024Y028686*
X024005Y028683*
X02401Y02868*
X024014Y028678*
X02402Y028675*
X024025Y028673*
X02403Y028672*
X024036Y028671*
X024041Y02867*
X024047Y02867*
X024052*
X024058Y02867*
X024063Y028671*
X024069Y028672*
X024074Y028673*
X024079Y028675*
X024085Y028678*
X02409Y02868*
X024094Y028683*
X024099Y028686*
X024103Y02869*
X024107Y028694*
X024111Y028698*
X024114Y028702*
X024117Y028707*
X02412Y028712*
X024123Y028717*
X024125Y028722*
X024126Y028727*
X024128Y028733*
X024129Y028738*
X024129Y028744*
X02413Y02875*
X02373Y02695D02*
D01*
X023729Y026955*
X023729Y026961*
X023728Y026966*
X023726Y026972*
X023725Y026977*
X023723Y026982*
X02372Y026987*
X023717Y026992*
X023714Y026997*
X023711Y027001*
X023707Y027005*
X023703Y027009*
X023699Y027013*
X023694Y027016*
X02369Y027019*
X023685Y027021*
X023679Y027024*
X023674Y027026*
X023669Y027027*
X023663Y027028*
X023658Y027029*
X023652Y027029*
X023647*
X023641Y027029*
X023636Y027028*
X02363Y027027*
X023625Y027026*
X02362Y027024*
X023614Y027021*
X02361Y027019*
X023605Y027016*
X0236Y027013*
X023596Y027009*
X023592Y027005*
X023588Y027001*
X023585Y026997*
X023582Y026992*
X023579Y026987*
X023576Y026982*
X023574Y026977*
X023573Y026972*
X023571Y026966*
X02357Y026961*
X02357Y026955*
X02357Y02695*
X02357Y026944*
X02357Y026938*
X023571Y026933*
X023573Y026927*
X023574Y026922*
X023576Y026917*
X023579Y026912*
X023582Y026907*
X023585Y026902*
X023588Y026898*
X023592Y026894*
X023596Y02689*
X0236Y026886*
X023605Y026883*
X02361Y02688*
X023614Y026878*
X02362Y026875*
X023625Y026873*
X02363Y026872*
X023636Y026871*
X023641Y02687*
X023647Y02687*
X023652*
X023658Y02687*
X023663Y026871*
X023669Y026872*
X023674Y026873*
X023679Y026875*
X023685Y026878*
X02369Y02688*
X023694Y026883*
X023699Y026886*
X023703Y02689*
X023707Y026894*
X023711Y026898*
X023714Y026902*
X023717Y026907*
X02372Y026912*
X023723Y026917*
X023725Y026922*
X023726Y026927*
X023728Y026933*
X023729Y026938*
X023729Y026944*
X02373Y02695*
X02408Y01865D02*
D01*
X024079Y018655*
X024079Y018661*
X024078Y018666*
X024076Y018672*
X024075Y018677*
X024073Y018682*
X02407Y018687*
X024067Y018692*
X024064Y018697*
X024061Y018701*
X024057Y018705*
X024053Y018709*
X024049Y018713*
X024044Y018716*
X02404Y018719*
X024035Y018721*
X024029Y018724*
X024024Y018726*
X024019Y018727*
X024013Y018728*
X024008Y018729*
X024002Y018729*
X023997*
X023991Y018729*
X023986Y018728*
X02398Y018727*
X023975Y018726*
X02397Y018724*
X023964Y018721*
X02396Y018719*
X023955Y018716*
X02395Y018713*
X023946Y018709*
X023942Y018705*
X023938Y018701*
X023935Y018697*
X023932Y018692*
X023929Y018687*
X023926Y018682*
X023924Y018677*
X023923Y018672*
X023921Y018666*
X02392Y018661*
X02392Y018655*
X02392Y01865*
X02392Y018644*
X02392Y018638*
X023921Y018633*
X023923Y018627*
X023924Y018622*
X023926Y018617*
X023929Y018612*
X023932Y018607*
X023935Y018602*
X023938Y018598*
X023942Y018594*
X023946Y01859*
X02395Y018586*
X023955Y018583*
X02396Y01858*
X023964Y018578*
X02397Y018575*
X023975Y018573*
X02398Y018572*
X023986Y018571*
X023991Y01857*
X023997Y01857*
X024002*
X024008Y01857*
X024013Y018571*
X024019Y018572*
X024024Y018573*
X024029Y018575*
X024035Y018578*
X02404Y01858*
X024044Y018583*
X024049Y018586*
X024053Y01859*
X024057Y018594*
X024061Y018598*
X024064Y018602*
X024067Y018607*
X02407Y018612*
X024073Y018617*
X024075Y018622*
X024076Y018627*
X024078Y018633*
X024079Y018638*
X024079Y018644*
X02408Y01865*
X03833Y01875D02*
D01*
X038329Y018755*
X038329Y018761*
X038328Y018766*
X038326Y018772*
X038325Y018777*
X038323Y018782*
X03832Y018787*
X038317Y018792*
X038314Y018797*
X038311Y018801*
X038307Y018805*
X038303Y018809*
X038299Y018813*
X038294Y018816*
X03829Y018819*
X038285Y018821*
X038279Y018824*
X038274Y018826*
X038269Y018827*
X038263Y018828*
X038258Y018829*
X038252Y018829*
X038247*
X038241Y018829*
X038236Y018828*
X03823Y018827*
X038225Y018826*
X03822Y018824*
X038214Y018821*
X03821Y018819*
X038205Y018816*
X0382Y018813*
X038196Y018809*
X038192Y018805*
X038188Y018801*
X038185Y018797*
X038182Y018792*
X038179Y018787*
X038176Y018782*
X038174Y018777*
X038173Y018772*
X038171Y018766*
X03817Y018761*
X03817Y018755*
X03817Y01875*
X03817Y018744*
X03817Y018738*
X038171Y018733*
X038173Y018727*
X038174Y018722*
X038176Y018717*
X038179Y018712*
X038182Y018707*
X038185Y018702*
X038188Y018698*
X038192Y018694*
X038196Y01869*
X0382Y018686*
X038205Y018683*
X03821Y01868*
X038214Y018678*
X03822Y018675*
X038225Y018673*
X03823Y018672*
X038236Y018671*
X038241Y01867*
X038247Y01867*
X038252*
X038258Y01867*
X038263Y018671*
X038269Y018672*
X038274Y018673*
X038279Y018675*
X038285Y018678*
X03829Y01868*
X038294Y018683*
X038299Y018686*
X038303Y01869*
X038307Y018694*
X038311Y018698*
X038314Y018702*
X038317Y018707*
X03832Y018712*
X038323Y018717*
X038325Y018722*
X038326Y018727*
X038328Y018733*
X038329Y018738*
X038329Y018744*
X03833Y01875*
X02493Y0437D02*
D01*
X024929Y043705*
X024929Y043711*
X024928Y043716*
X024926Y043722*
X024925Y043727*
X024923Y043732*
X02492Y043737*
X024917Y043742*
X024914Y043747*
X024911Y043751*
X024907Y043755*
X024903Y043759*
X024899Y043763*
X024894Y043766*
X02489Y043769*
X024885Y043771*
X024879Y043774*
X024874Y043776*
X024869Y043777*
X024863Y043778*
X024858Y043779*
X024852Y043779*
X024847*
X024841Y043779*
X024836Y043778*
X02483Y043777*
X024825Y043776*
X02482Y043774*
X024814Y043771*
X02481Y043769*
X024805Y043766*
X0248Y043763*
X024796Y043759*
X024792Y043755*
X024788Y043751*
X024785Y043747*
X024782Y043742*
X024779Y043737*
X024776Y043732*
X024774Y043727*
X024773Y043722*
X024771Y043716*
X02477Y043711*
X02477Y043705*
X02477Y0437*
X02477Y043694*
X02477Y043688*
X024771Y043683*
X024773Y043677*
X024774Y043672*
X024776Y043667*
X024779Y043662*
X024782Y043657*
X024785Y043652*
X024788Y043648*
X024792Y043644*
X024796Y04364*
X0248Y043636*
X024805Y043633*
X02481Y04363*
X024814Y043628*
X02482Y043625*
X024825Y043623*
X02483Y043622*
X024836Y043621*
X024841Y04362*
X024847Y04362*
X024852*
X024858Y04362*
X024863Y043621*
X024869Y043622*
X024874Y043623*
X024879Y043625*
X024885Y043628*
X02489Y04363*
X024894Y043633*
X024899Y043636*
X024903Y04364*
X024907Y043644*
X024911Y043648*
X024914Y043652*
X024917Y043657*
X02492Y043662*
X024923Y043667*
X024925Y043672*
X024926Y043677*
X024928Y043683*
X024929Y043688*
X024929Y043694*
X02493Y0437*
X02433Y03645D02*
D01*
X024329Y036455*
X024329Y036461*
X024328Y036466*
X024326Y036472*
X024325Y036477*
X024323Y036482*
X02432Y036487*
X024317Y036492*
X024314Y036497*
X024311Y036501*
X024307Y036505*
X024303Y036509*
X024299Y036513*
X024294Y036516*
X02429Y036519*
X024285Y036521*
X024279Y036524*
X024274Y036526*
X024269Y036527*
X024263Y036528*
X024258Y036529*
X024252Y036529*
X024247*
X024241Y036529*
X024236Y036528*
X02423Y036527*
X024225Y036526*
X02422Y036524*
X024214Y036521*
X02421Y036519*
X024205Y036516*
X0242Y036513*
X024196Y036509*
X024192Y036505*
X024188Y036501*
X024185Y036497*
X024182Y036492*
X024179Y036487*
X024176Y036482*
X024174Y036477*
X024173Y036472*
X024171Y036466*
X02417Y036461*
X02417Y036455*
X02417Y03645*
X02417Y036444*
X02417Y036438*
X024171Y036433*
X024173Y036427*
X024174Y036422*
X024176Y036417*
X024179Y036412*
X024182Y036407*
X024185Y036402*
X024188Y036398*
X024192Y036394*
X024196Y03639*
X0242Y036386*
X024205Y036383*
X02421Y03638*
X024214Y036378*
X02422Y036375*
X024225Y036373*
X02423Y036372*
X024236Y036371*
X024241Y03637*
X024247Y03637*
X024252*
X024258Y03637*
X024263Y036371*
X024269Y036372*
X024274Y036373*
X024279Y036375*
X024285Y036378*
X02429Y03638*
X024294Y036383*
X024299Y036386*
X024303Y03639*
X024307Y036394*
X024311Y036398*
X024314Y036402*
X024317Y036407*
X02432Y036412*
X024323Y036417*
X024325Y036422*
X024326Y036427*
X024328Y036433*
X024329Y036438*
X024329Y036444*
X02433Y03645*
X03663Y0247D02*
D01*
X036629Y024705*
X036629Y024711*
X036628Y024716*
X036626Y024722*
X036625Y024727*
X036623Y024732*
X03662Y024737*
X036617Y024742*
X036614Y024747*
X036611Y024751*
X036607Y024755*
X036603Y024759*
X036599Y024763*
X036594Y024766*
X03659Y024769*
X036585Y024771*
X036579Y024774*
X036574Y024776*
X036569Y024777*
X036563Y024778*
X036558Y024779*
X036552Y024779*
X036547*
X036541Y024779*
X036536Y024778*
X03653Y024777*
X036525Y024776*
X03652Y024774*
X036514Y024771*
X03651Y024769*
X036505Y024766*
X0365Y024763*
X036496Y024759*
X036492Y024755*
X036488Y024751*
X036485Y024747*
X036482Y024742*
X036479Y024737*
X036476Y024732*
X036474Y024727*
X036473Y024722*
X036471Y024716*
X03647Y024711*
X03647Y024705*
X03647Y0247*
X03647Y024694*
X03647Y024688*
X036471Y024683*
X036473Y024677*
X036474Y024672*
X036476Y024667*
X036479Y024662*
X036482Y024657*
X036485Y024652*
X036488Y024648*
X036492Y024644*
X036496Y02464*
X0365Y024636*
X036505Y024633*
X03651Y02463*
X036514Y024628*
X03652Y024625*
X036525Y024623*
X03653Y024622*
X036536Y024621*
X036541Y02462*
X036547Y02462*
X036552*
X036558Y02462*
X036563Y024621*
X036569Y024622*
X036574Y024623*
X036579Y024625*
X036585Y024628*
X03659Y02463*
X036594Y024633*
X036599Y024636*
X036603Y02464*
X036607Y024644*
X036611Y024648*
X036614Y024652*
X036617Y024657*
X03662Y024662*
X036623Y024667*
X036625Y024672*
X036626Y024677*
X036628Y024683*
X036629Y024688*
X036629Y024694*
X03663Y0247*
X04073Y0416D02*
D01*
X040729Y041605*
X040729Y041611*
X040728Y041616*
X040726Y041622*
X040725Y041627*
X040723Y041632*
X04072Y041637*
X040717Y041642*
X040714Y041647*
X040711Y041651*
X040707Y041655*
X040703Y041659*
X040699Y041663*
X040694Y041666*
X04069Y041669*
X040685Y041671*
X040679Y041674*
X040674Y041676*
X040669Y041677*
X040663Y041678*
X040658Y041679*
X040652Y041679*
X040647*
X040641Y041679*
X040636Y041678*
X04063Y041677*
X040625Y041676*
X04062Y041674*
X040614Y041671*
X04061Y041669*
X040605Y041666*
X0406Y041663*
X040596Y041659*
X040592Y041655*
X040588Y041651*
X040585Y041647*
X040582Y041642*
X040579Y041637*
X040576Y041632*
X040574Y041627*
X040573Y041622*
X040571Y041616*
X04057Y041611*
X04057Y041605*
X04057Y0416*
X04057Y041594*
X04057Y041588*
X040571Y041583*
X040573Y041577*
X040574Y041572*
X040576Y041567*
X040579Y041562*
X040582Y041557*
X040585Y041552*
X040588Y041548*
X040592Y041544*
X040596Y04154*
X0406Y041536*
X040605Y041533*
X04061Y04153*
X040614Y041528*
X04062Y041525*
X040625Y041523*
X04063Y041522*
X040636Y041521*
X040641Y04152*
X040647Y04152*
X040652*
X040658Y04152*
X040663Y041521*
X040669Y041522*
X040674Y041523*
X040679Y041525*
X040685Y041528*
X04069Y04153*
X040694Y041533*
X040699Y041536*
X040703Y04154*
X040707Y041544*
X040711Y041548*
X040714Y041552*
X040717Y041557*
X04072Y041562*
X040723Y041567*
X040725Y041572*
X040726Y041577*
X040728Y041583*
X040729Y041588*
X040729Y041594*
X04073Y0416*
M02*