%FSTAX24Y24*%
%MOIN*%
%SFA1B1*%

%IPPOS*%
%ADD52R,0.069100X0.061200*%
%ADD53O,0.027700X0.108400*%
%ADD54O,0.108400X0.027700*%
%ADD55R,0.108400X0.027700*%
%ADD56R,0.061200X0.069100*%
%ADD57R,0.033600X0.055300*%
%ADD58R,0.055300X0.033600*%
%ADD59O,0.088700X0.128100*%
%ADD60C,0.049400*%
%ADD61R,0.069100X0.069100*%
%ADD62C,0.069100*%
%ADD63C,0.041500*%
%ADD64R,0.069100X0.069100*%
%ADD65O,0.110000X0.088700*%
%ADD66R,0.110000X0.088700*%
%ADD67C,0.070000*%
%ADD68R,0.088700X0.088700*%
%ADD69C,0.088700*%
%ADD70C,0.128100*%
%ADD71R,0.128100X0.128100*%
%ADD72C,0.167500*%
%ADD73C,0.037600*%
%LNpcb-1*%
%LPD*%
G54D52*
X02655Y039416D03*
Y03855D03*
X0282Y029866D03*
Y029D03*
X0288Y024366D03*
Y0235D03*
X0381Y035334D03*
Y0362D03*
X0371Y036184D03*
Y03705D03*
X03035Y039666D03*
Y0388D03*
X0338Y040234D03*
Y0411D03*
X0396Y039366D03*
Y0385D03*
X0308Y0369D03*
Y036034D03*
X03855Y039366D03*
Y0385D03*
X02765Y039416D03*
Y03855D03*
X02695Y033224D03*
Y032358D03*
X02725Y02415D03*
Y023284D03*
G54D53*
X032868Y038568D03*
X033183D03*
X033498D03*
X033813D03*
X034128D03*
X034443D03*
X034757D03*
X035072D03*
Y034828D03*
X034757D03*
X034443D03*
X034128D03*
X033813D03*
X033498D03*
X033183D03*
X032868D03*
G54D54*
X03584Y0378D03*
Y037485D03*
Y03717D03*
Y036855D03*
Y03654D03*
Y036225D03*
Y03591D03*
Y035595D03*
X0321D03*
Y03591D03*
Y036225D03*
Y03654D03*
Y036855D03*
Y03717D03*
Y037485D03*
G54D55*
X0321Y0378D03*
G54D56*
X031034Y0388D03*
X0319D03*
X028234Y03145D03*
X0291D03*
X028784Y02535D03*
X02965D03*
X03585Y04205D03*
X034984D03*
X02765Y0419D03*
X026784D03*
G54D57*
X027226Y025357D03*
X027974D03*
X0276Y026243D03*
G54D58*
X027657Y040924D03*
Y040176D03*
X028543Y04055D03*
X028157Y033224D03*
Y032476D03*
X029043Y03285D03*
G54D59*
X029Y0275D03*
X030938Y027462D03*
X02785Y0275D03*
X0386D03*
G54D60*
X0277Y0436D03*
X0282Y03625D03*
X03565Y03445D03*
X03125Y025D03*
X03815Y0206D03*
X0409Y0293D03*
X02405Y02875D03*
X02365Y02695D03*
X024Y01865D03*
X03825Y01875D03*
X02485Y0437D03*
X02425Y03645D03*
X03655Y0247D03*
X04065Y0416D03*
G54D61*
X02865Y02075D03*
X0396Y0375D03*
X03745Y0385D03*
X02935Y0358D03*
X03315Y042D03*
X04045Y0323D03*
G54D62*
X02865Y02175D03*
X02225Y02435D03*
X0352Y04105D03*
X0362D03*
X0372D03*
X02225Y03225D03*
Y03995D03*
X0396Y036161D03*
X03745Y0395D03*
X03445Y04305D03*
X03545D03*
X03645D03*
X02935Y0368D03*
Y0378D03*
Y0388D03*
X03315Y043D03*
X03945Y0323D03*
X04045Y0343D03*
X03945Y0333D03*
X04045D03*
X03945Y0343D03*
X03195Y04295D03*
X03095D03*
X02995D03*
G54D63*
X02935Y03475D03*
G54D64*
X02325Y02435D03*
X0382Y04105D03*
X02325Y03225D03*
Y03995D03*
X03745Y04305D03*
X02895Y04295D03*
G54D65*
X02535Y02335D03*
Y02435D03*
X02525Y03895D03*
Y03995D03*
Y03125D03*
Y03225D03*
G54D66*
X02535Y02535D03*
X02525Y04095D03*
Y03325D03*
G54D67*
X032756Y03225D03*
X033721D03*
X034685D03*
X03565D03*
X032756Y033215D03*
X033721D03*
X034685D03*
X03565D03*
X03715Y03535D03*
G54D68*
X0327Y0219D03*
G54D69*
X0327Y019931D03*
G54D70*
X039969Y02415D03*
G54D71*
X038Y02415D03*
G54D72*
X04045Y04345D03*
Y0197D03*
X022835D03*
Y04345D03*
G54D73*
X03425Y03725D03*
M02*