%FSTAX24Y24*%
%MOIN*%
%SFA1B1*%

%IPPOS*%
%AMD35*
4,1,8,0.008200,0.040000,-0.008200,0.040000,-0.016500,0.031700,-0.016500,-0.031700,-0.008200,-0.040000,0.008200,-0.040000,0.016500,-0.031700,0.016500,0.031700,0.008200,0.040000,0.0*
%
%AMD38*
4,1,8,-0.034400,0.034900,-0.034400,-0.034900,-0.017200,-0.052200,0.017200,-0.052200,0.034400,-0.034900,0.034400,0.034900,0.017200,0.052200,-0.017200,0.052200,-0.034400,0.034900,0.0*
%
%ADD10R,0.059055X0.051181*%
%ADD14R,0.051181X0.059055*%
%ADD17C,0.015000*%
%ADD18C,0.020000*%
%ADD19C,0.040000*%
%ADD20C,0.060000*%
%ADD21R,0.059055X0.059055*%
%ADD22C,0.059055*%
%ADD23C,0.031496*%
%ADD24C,0.039370*%
%ADD25O,0.100000X0.078740*%
%ADD26R,0.100000X0.078740*%
%ADD27R,0.059055X0.059055*%
%ADD28O,0.078740X0.118110*%
%ADD29R,0.078740X0.078740*%
%ADD30C,0.078740*%
%ADD31C,0.118110*%
%ADD32R,0.118110X0.118110*%
%ADD33C,0.157480*%
%ADD34R,0.122000X0.080000*%
G04~CAMADD=35~4~0.0~0.0~330.0~800.0~0.0~82.5~0~0.0~0.0~0.0~0.0~0~0.0~0.0~0.0~0.0~0~0.0~0.0~0.0~0.0~330.0~800.0*
%ADD35D35*%
%ADD36R,0.033000X0.080000*%
%ADD37R,0.068898X0.104330*%
G04~CAMADD=38~4~0.0~0.0~1043.3~689.0~0.0~172.2~0~0.0~0.0~0.0~0.0~0~0.0~0.0~0.0~0.0~0~0.0~0.0~0.0~90.0~688.0~1044.0*
%ADD38D38*%
%ADD39C,0.060000*%
%LNpcb-1*%
%LPD*%
G36*
X04185Y01805D02*
X0212D01*
Y04475*
X04185*
Y01805*
G37*
%LNpcb-2*%
%LPC*%
G36*
X0278Y04399D02*
Y0437D01*
X02809*
X028089Y043704*
X028049Y043801*
X027985Y043885*
X027901Y043949*
X027804Y043989*
X0278Y04399*
G37*
G36*
X0276D02*
X027595Y043989D01*
X027498Y043949*
X027414Y043885*
X02735Y043801*
X02731Y043704*
X027309Y0437*
X0276*
Y04399*
G37*
G36*
X02809Y0435D02*
X0278D01*
Y043209*
X027804Y04321*
X027901Y04325*
X027985Y043314*
X028049Y043398*
X028089Y043495*
X02809Y0435*
G37*
G36*
X0276D02*
X027309D01*
X02731Y043495*
X02735Y043398*
X027414Y043314*
X027498Y04325*
X027595Y04321*
X0276Y043209*
Y0435*
G37*
G36*
X037845Y043445D02*
X03755D01*
Y04315*
X037845*
Y043445*
G37*
G36*
X03735D02*
X037054D01*
Y04315*
X03735*
Y043445*
G37*
G36*
X03325Y043385D02*
Y0431D01*
X033535*
X033535Y043103*
X033495Y043199*
X033431Y043281*
X033349Y043345*
X033253Y043385*
X03325Y043385*
G37*
G36*
X03305D02*
X033046Y043385D01*
X03295Y043345*
X032868Y043281*
X032804Y043199*
X032764Y043103*
X032764Y0431*
X03305*
Y043385*
G37*
G36*
X03005Y043335D02*
Y04305D01*
X030335*
X030335Y043053*
X030295Y043149*
X030231Y043231*
X030149Y043295*
X030053Y043335*
X03005Y043335*
G37*
G36*
X02985D02*
X029846Y043335D01*
X02975Y043295*
X029668Y043231*
X029604Y043149*
X029564Y043053*
X029564Y04305*
X02985*
Y043335*
G37*
G36*
X037845Y04295D02*
X03755D01*
Y042654*
X037845*
Y04295*
G37*
G36*
X03735D02*
X037054D01*
Y042654*
X03735*
Y04295*
G37*
G36*
X03645Y043448D02*
X036346Y043435D01*
X03625Y043395*
X036168Y043331*
X036104Y043249*
X036064Y043153*
X036051Y04305*
X036064Y042946*
X036104Y04285*
X036168Y042768*
X03625Y042704*
X036346Y042664*
X03645Y042651*
X036553Y042664*
X036649Y042704*
X036731Y042768*
X036795Y04285*
X036835Y042946*
X036848Y04305*
X036835Y043153*
X036795Y043249*
X036731Y043331*
X036649Y043395*
X036553Y043435*
X03645Y043448*
G37*
G36*
X03545D02*
X035346Y043435D01*
X03525Y043395*
X035168Y043331*
X035104Y043249*
X035064Y043153*
X035051Y04305*
X035064Y042946*
X035104Y04285*
X035168Y042768*
X03525Y042704*
X035346Y042664*
X03545Y042651*
X035553Y042664*
X035649Y042704*
X035731Y042768*
X035795Y04285*
X035835Y042946*
X035848Y04305*
X035835Y043153*
X035795Y043249*
X035731Y043331*
X035649Y043395*
X035553Y043435*
X03545Y043448*
G37*
G36*
X03445D02*
X034346Y043435D01*
X03425Y043395*
X034168Y043331*
X034104Y043249*
X034064Y043153*
X034051Y04305*
X034064Y042946*
X034104Y04285*
X034168Y042768*
X03425Y042704*
X034346Y042664*
X03445Y042651*
X034553Y042664*
X034649Y042704*
X034731Y042768*
X034795Y04285*
X034835Y042946*
X034848Y04305*
X034835Y043153*
X034795Y043249*
X034731Y043331*
X034649Y043395*
X034553Y043435*
X03445Y043448*
G37*
G36*
X033535Y0429D02*
X03325D01*
Y042614*
X033253Y042614*
X033349Y042654*
X033431Y042718*
X033495Y0428*
X033535Y042896*
X033535Y0429*
G37*
G36*
X03305D02*
X032764D01*
X032764Y042896*
X032804Y0428*
X032868Y042718*
X03295Y042654*
X033046Y042614*
X03305Y042614*
Y0429*
G37*
G36*
X030335Y04285D02*
X03005D01*
Y042564*
X030053Y042564*
X030149Y042604*
X030231Y042668*
X030295Y04275*
X030335Y042846*
X030335Y04285*
G37*
G36*
X02985D02*
X029564D01*
X029564Y042846*
X029604Y04275*
X029668Y042668*
X02975Y042604*
X029846Y042564*
X02985Y042564*
Y04285*
G37*
G36*
X04045Y044341D02*
X040276Y044324D01*
X040108Y044273*
X039954Y044191*
X039819Y04408*
X039708Y043945*
X039626Y043791*
X039575Y043623*
X039558Y04345*
X039575Y043276*
X039626Y043108*
X039708Y042954*
X039819Y042819*
X039954Y042708*
X040108Y042626*
X040276Y042575*
X04045Y042558*
X040623Y042575*
X040791Y042626*
X040945Y042708*
X04108Y042819*
X041191Y042954*
X041273Y043108*
X041324Y043276*
X041341Y04345*
X041324Y043623*
X041273Y043791*
X041191Y043945*
X04108Y04408*
X040945Y044191*
X040791Y044273*
X040623Y044324*
X04045Y044341*
G37*
G36*
X022834D02*
X02266Y044324D01*
X022493Y044273*
X022339Y044191*
X022204Y04408*
X022093Y043945*
X02201Y043791*
X02196Y043623*
X021942Y04345*
X02196Y043276*
X02201Y043108*
X022093Y042954*
X022204Y042819*
X022339Y042708*
X022493Y042626*
X02266Y042575*
X022834Y042558*
X023008Y042575*
X023175Y042626*
X02333Y042708*
X023465Y042819*
X023576Y042954*
X023658Y043108*
X023709Y043276*
X023726Y04345*
X023709Y043623*
X023658Y043791*
X023576Y043945*
X023465Y04408*
X02333Y044191*
X023175Y044273*
X023008Y044324*
X022834Y044341*
G37*
G36*
X03195Y043348D02*
X031846Y043335D01*
X03175Y043295*
X031668Y043231*
X031604Y043149*
X031564Y043053*
X031551Y04295*
X031564Y042846*
X031604Y04275*
X031668Y042668*
X03175Y042604*
X031846Y042564*
X03195Y042551*
X032053Y042564*
X032149Y042604*
X032231Y042668*
X032295Y04275*
X032335Y042846*
X032348Y04295*
X032335Y043053*
X032295Y043149*
X032231Y043231*
X032149Y043295*
X032053Y043335*
X03195Y043348*
G37*
G36*
X03095D02*
X030846Y043335D01*
X03075Y043295*
X030668Y043231*
X030604Y043149*
X030564Y043053*
X030551Y04295*
X030564Y042846*
X030604Y04275*
X030668Y042668*
X03075Y042604*
X030846Y042564*
X03095Y042551*
X031053Y042564*
X031149Y042604*
X031231Y042668*
X031295Y04275*
X031335Y042846*
X031348Y04295*
X031335Y043053*
X031295Y043149*
X031231Y043231*
X031149Y043295*
X031053Y043335*
X03095Y043348*
G37*
G36*
X0353Y041435D02*
Y04115D01*
X035585*
X035585Y041153*
X035545Y041249*
X035481Y041331*
X035399Y041395*
X035303Y041435*
X0353Y041435*
G37*
G36*
X0351D02*
X035096Y041435D01*
X035Y041395*
X034918Y041331*
X034854Y041249*
X034814Y041153*
X034814Y04115*
X0351*
Y041435*
G37*
G36*
X035585Y04095D02*
X0353D01*
Y040664*
X035303Y040664*
X035399Y040704*
X035481Y040768*
X035545Y04085*
X035585Y040946*
X035585Y04095*
G37*
G36*
X0351D02*
X034814D01*
X034814Y040946*
X034854Y04085*
X034918Y040768*
X035Y040704*
X035096Y040664*
X0351Y040664*
Y04095*
G37*
G36*
X038595Y041445D02*
X037804D01*
Y040654*
X038595*
Y041445*
G37*
G36*
X0372Y041448D02*
X037096Y041435D01*
X037Y041395*
X036918Y041331*
X036854Y041249*
X036814Y041153*
X036801Y04105*
X036814Y040946*
X036854Y04085*
X036918Y040768*
X037Y040704*
X037096Y040664*
X0372Y040651*
X037303Y040664*
X037399Y040704*
X037481Y040768*
X037545Y04085*
X037585Y040946*
X037598Y04105*
X037585Y041153*
X037545Y041249*
X037481Y041331*
X037399Y041395*
X037303Y041435*
X0372Y041448*
G37*
G36*
X0362D02*
X036096Y041435D01*
X036Y041395*
X035918Y041331*
X035854Y041249*
X035814Y041153*
X035801Y04105*
X035814Y040946*
X035854Y04085*
X035918Y040768*
X036Y040704*
X036096Y040664*
X0362Y040651*
X036303Y040664*
X036399Y040704*
X036481Y040768*
X036545Y04085*
X036585Y040946*
X036598Y04105*
X036585Y041153*
X036545Y041249*
X036481Y041331*
X036399Y041395*
X036303Y041435*
X0362Y041448*
G37*
G36*
X02585Y041443D02*
X02465D01*
Y040456*
X024945*
X024955Y040406*
X024894Y040381*
X024858Y040353*
X023995*
Y040395*
X023204*
Y039604*
X023442*
X023448Y0396*
X023545Y03956*
X02365Y039546*
X024858*
X024894Y039518*
X024995Y039477*
Y039422*
X024894Y039381*
X024791Y039302*
X024712Y039198*
X024662Y039078*
X024658Y03905*
X02525*
X025841*
X025837Y039078*
X025787Y039198*
X025708Y039302*
X025605Y039381*
X025504Y039422*
Y039477*
X025605Y039518*
X025708Y039597*
X025787Y039701*
X025837Y039821*
X025854Y03995*
X025837Y040078*
X025787Y040198*
X025708Y040302*
X025605Y040381*
X025544Y040406*
X025554Y040456*
X02585*
Y041443*
G37*
G36*
X0374Y039885D02*
Y0396D01*
X037685*
X037685Y039603*
X037645Y039699*
X037581Y039781*
X037499Y039845*
X037403Y039885*
X0374Y039885*
G37*
G36*
X0372D02*
X037196Y039885D01*
X0371Y039845*
X037018Y039781*
X036954Y039699*
X036914Y039603*
X036914Y0396*
X0372*
Y039885*
G37*
G36*
X037685Y0394D02*
X0374D01*
Y039114*
X037403Y039114*
X037499Y039154*
X037581Y039218*
X037645Y0393*
X037685Y039396*
X037685Y0394*
G37*
G36*
X0372D02*
X036914D01*
X036914Y039396*
X036954Y0393*
X037018Y039218*
X0371Y039154*
X037196Y039114*
X0372Y039114*
Y0394*
G37*
G36*
X025841Y03885D02*
X02535D01*
Y038452*
X025356*
X025485Y038469*
X025605Y038518*
X025708Y038597*
X025787Y038701*
X025837Y038821*
X025841Y03885*
G37*
G36*
X02515D02*
X024658D01*
X024662Y038821*
X024712Y038701*
X024791Y038597*
X024894Y038518*
X025014Y038469*
X025143Y038452*
X02515*
Y03885*
G37*
G36*
X02935Y039198D02*
X029246Y039185D01*
X02915Y039145*
X029068Y039081*
X029004Y038999*
X028964Y038903*
X028951Y0388*
X028964Y038696*
X029004Y0386*
X029068Y038518*
X02915Y038454*
X029246Y038414*
X02935Y038401*
X029453Y038414*
X029549Y038454*
X029631Y038518*
X029695Y0386*
X029735Y038696*
X029748Y0388*
X029735Y038903*
X029695Y038999*
X029631Y039081*
X029549Y039145*
X029453Y039185*
X02935Y039198*
G37*
G36*
X037695Y038895D02*
X036904D01*
Y038104*
X037695*
Y038895*
G37*
G36*
X02935Y038198D02*
X029246Y038185D01*
X02915Y038145*
X029068Y038081*
X029004Y037999*
X028964Y037903*
X028951Y0378*
X028964Y037696*
X029004Y0376*
X029068Y037518*
X02915Y037454*
X029246Y037414*
X02935Y037401*
X029453Y037414*
X029549Y037454*
X029631Y037518*
X029695Y0376*
X029735Y037696*
X029748Y0378*
X029735Y037903*
X029695Y037999*
X029631Y038081*
X029549Y038145*
X029453Y038185*
X02935Y038198*
G37*
G36*
X039995Y037895D02*
X039204D01*
Y037104*
X039995*
Y037895*
G37*
G36*
X02945Y037185D02*
Y0369D01*
X029735*
X029735Y036903*
X029695Y036999*
X029631Y037081*
X029549Y037145*
X029453Y037185*
X02945Y037185*
G37*
G36*
X02925D02*
X029246Y037185D01*
X02915Y037145*
X029068Y037081*
X029004Y036999*
X028964Y036903*
X028964Y0369*
X02925*
Y037185*
G37*
G36*
X029345Y043345D02*
X028554D01*
Y042913*
X028455Y042814*
X028411Y042748*
X028396Y04267*
Y036646*
X028354Y036618*
X028304Y036639*
X0283Y03664*
Y03625*
Y035859*
X028304Y03586*
X028401Y0359*
X028485Y035964*
X028549Y036048*
X028589Y036145*
X028596Y036194*
X028648Y036212*
X028954Y035906*
Y035404*
X029574*
X029594Y035357*
X02957Y035328*
X022653*
Y037482*
X023885Y038714*
X023949Y038798*
X023989Y038895*
X024003Y039*
X023989Y039104*
X023949Y039201*
X023885Y039285*
X023801Y039349*
X023704Y039389*
X0236Y039403*
X023495Y039389*
X023398Y039349*
X023314Y039285*
X021964Y037935*
X0219Y037851*
X02186Y037754*
X021846Y03765*
Y02415*
X02186Y024045*
X0219Y023948*
X021964Y023864*
X022764Y023064*
X022848Y023*
X022945Y02296*
X02305Y022946*
X023096Y022941*
Y0227*
X02311Y022595*
X02315Y022498*
X023214Y022414*
X025164Y020464*
X025248Y0204*
X025345Y02036*
X02545Y020346*
X03155*
X031654Y02036*
X031751Y0204*
X031835Y020464*
X032776Y021406*
X033193*
Y021647*
X034855*
Y021328*
X035744*
Y022038*
X035752Y0221*
X035744Y022161*
Y022571*
X034855*
Y022252*
X033193*
Y022393*
X032206*
Y021976*
X031382Y021153*
X025617*
X023903Y022867*
Y02335*
X023889Y023454*
X023849Y023551*
X023785Y023635*
X023701Y023699*
X023604Y023739*
X0235Y023753*
X023217*
X022653Y024317*
Y030846*
X02335*
X023454Y03086*
X023551Y0309*
X023635Y030964*
X023699Y031048*
X023739Y031145*
X023753Y03125*
X023739Y031354*
X023699Y031451*
X023635Y031535*
X023551Y031599*
X023454Y031639*
X02335Y031653*
X022653*
Y034971*
X02965*
X029718Y034985*
X029776Y035023*
X029863Y03511*
X029905Y035082*
X029899Y035067*
X02989Y035*
X029899Y034932*
X029925Y03487*
X029946Y034842*
Y033516*
X029961Y033438*
X030005Y033371*
X032136Y031241*
X032117Y031195*
X0321*
Y0309*
X032355*
Y030956*
X032402Y030975*
X03251Y030867*
Y030404*
X032973*
X033486Y029891*
X033467Y029845*
X03341*
Y029054*
X033463*
Y028306*
X033473Y028227*
X033495Y028176*
Y0278*
X034025*
Y02815*
X034028Y028154*
X034058Y028227*
X034068Y028306*
Y029054*
X034122*
Y029147*
X038297*
Y028086*
X038247Y028048*
X038168Y027945*
X038119Y027825*
X038102Y027696*
Y027429*
X037786Y027113*
X037737Y027051*
X037707Y026978*
X037697Y0269*
Y02484*
X037309*
Y023459*
X03869*
Y02484*
X038302*
Y026774*
X038385Y026857*
X038471Y026822*
X0386Y026805*
X038728Y026822*
X038848Y026871*
X038952Y026951*
X039031Y027054*
X03908Y027174*
X039097Y027303*
Y027696*
X03908Y027825*
X039031Y027945*
X038952Y028048*
X038902Y028086*
Y02945*
X038893Y029515*
X039663Y030286*
X039712Y030348*
X039742Y030421*
X039752Y0305*
Y032045*
X039795Y0321*
X039835Y032196*
X039848Y0323*
X039835Y032403*
X039795Y032499*
X039731Y032581*
X039649Y032645*
X039553Y032685*
X03945Y032698*
X039346Y032685*
X03925Y032645*
X039168Y032581*
X039104Y032499*
X039064Y032403*
X039051Y0323*
X039064Y032196*
X039104Y0321*
X039147Y032045*
Y030625*
X038274Y029752*
X035338*
Y031921*
X035388Y031946*
X035448Y0319*
X035545Y03186*
X03555Y031859*
Y03225*
Y03264*
X035545Y032639*
X035448Y032599*
X035388Y032553*
X035338Y032578*
Y032651*
X035522Y032834*
X035545Y032824*
X03565Y032811*
X035754Y032824*
X035851Y032865*
X035935Y032929*
X035999Y033012*
X036009Y033036*
X036554*
Y032844*
X037345*
Y033511*
X038336*
X038673Y033173*
X038731Y033135*
X0388Y033121*
X039096*
X039104Y0331*
X039168Y033018*
X03925Y032954*
X039346Y032914*
X03945Y032901*
X039553Y032914*
X039649Y032954*
X039731Y033018*
X039751Y033043*
X039801Y033026*
Y03277*
X039814Y032702*
X039853Y032644*
X040054Y032442*
Y031904*
X040845*
Y032695*
X040307*
X040158Y032844*
Y032962*
X040208Y032987*
X04025Y032954*
X040346Y032914*
X04045Y032901*
X040553Y032914*
X040649Y032954*
X040731Y033018*
X040795Y0331*
X040835Y033196*
X040848Y0333*
X040835Y033403*
X040795Y033499*
X040731Y033581*
X040649Y033645*
X040553Y033685*
X04045Y033698*
X040346Y033685*
X04025Y033645*
X040201Y033607*
X040146Y033628*
X040144Y033638*
X040105Y033696*
X039905Y033896*
X039847Y033935*
X039779Y033948*
X039723*
X039706Y033998*
X039731Y034018*
X039795Y0341*
X039835Y034196*
X039835Y0342*
X03945*
X039064*
X039064Y034196*
X039104Y0341*
X039168Y034018*
X039193Y033998*
X039176Y033948*
X038903*
X038276Y034576*
X038218Y034614*
X03815Y034628*
X035887*
X035861Y034661*
X035799Y034709*
X035727Y034739*
X03565Y034749*
X035572Y034739*
X0355Y034709*
X035438Y034661*
X03539Y034599*
X03536Y034527*
X03535Y03445*
X03536Y034378*
X035355Y03436*
X035334Y034328*
X033984*
X033984*
X033916Y034314*
X033858Y034276*
X033105Y033522*
X03309Y033501*
X033074Y0335*
X033033Y033505*
X032958Y033563*
X03286Y033604*
X032756Y033618*
X032651Y033604*
X032554Y033563*
X032471Y033499*
X032406Y033416*
X032366Y033318*
X032352Y033214*
X032366Y03311*
X032406Y033012*
X032471Y032929*
X032554Y032865*
X032651Y032824*
X032756Y032811*
X03286Y032824*
X032958Y032865*
X033002Y032899*
X033052Y032874*
Y032798*
X032884Y03263*
X03286Y032639*
X032756Y032653*
X032651Y032639*
X032554Y032599*
X032471Y032535*
X032406Y032451*
X032366Y032354*
X032352Y03225*
X032366Y032145*
X032406Y032048*
X032471Y031964*
X032554Y0319*
X032651Y03186*
X032756Y031846*
X03286Y03186*
X032958Y0319*
X033041Y031964*
X033105Y032048*
X033145Y032145*
X033159Y03225*
X033145Y032354*
X033136Y032377*
X033357Y032598*
X033396Y032656*
X033409Y032725*
Y032886*
X033459Y03291*
X033519Y032865*
X033616Y032824*
X03372Y032811*
X033825Y032824*
X033922Y032865*
X034006Y032929*
X03407Y033012*
X03411Y03311*
X034124Y033214*
X03411Y033318*
X0341Y033342*
X034269Y033511*
X034345*
X03437Y033461*
X034336Y033416*
X034295Y033318*
X034281Y033214*
X034295Y03311*
X034336Y033012*
X0344Y032929*
X034483Y032865*
X034581Y032824*
X034685Y032811*
X034789Y032824*
X034887Y032865*
X03497Y032929*
X035034Y033012*
X035075Y03311*
X035088Y033214*
X035075Y033318*
X035034Y033416*
X035Y033461*
X035025Y033511*
X03531*
X035335Y033461*
X0353Y033416*
X03526Y033318*
X035246Y033214*
X03526Y03311*
X035269Y033086*
X035034Y032851*
X034995Y032793*
X034982Y032725*
Y032589*
X034932Y032565*
X034887Y032599*
X034789Y032639*
X034685Y032653*
X034581Y032639*
X034483Y032599*
X0344Y032535*
X034336Y032451*
X034295Y032354*
X034281Y03225*
X034295Y032145*
X034336Y032048*
X0344Y031964*
X034483Y0319*
X034581Y03186*
X034685Y031846*
X034789Y03186*
X034887Y0319*
X034932Y031935*
X034982Y03191*
Y029752*
X034122*
Y029845*
X03397*
Y0299*
X033954Y029978*
X03391Y030044*
X033222Y030732*
Y031195*
X032759*
X030353Y0336*
Y034842*
X030374Y03487*
X0304Y034932*
X030409Y035*
X0304Y035067*
X030378Y035121*
X030398Y035171*
X03679*
X0368Y035148*
X036864Y035064*
X036948Y035*
X037045Y03496*
X03715Y034946*
X037254Y03496*
X037351Y035*
X037435Y035064*
X037499Y035148*
X037539Y035245*
X037553Y03535*
X037539Y035454*
X037499Y035551*
X037435Y035635*
X037351Y035699*
X037254Y035739*
X03715Y035753*
X037045Y035739*
X036948Y035699*
X036864Y035635*
X0368Y035551*
X03679Y035528*
X02985*
X029795Y035517*
X029756Y035539*
X029745Y03555*
Y036195*
X029243*
X028803Y036634*
Y042554*
X029345*
Y043345*
G37*
G36*
X029735Y0367D02*
X02945D01*
Y036414*
X029453Y036414*
X029549Y036454*
X029631Y036518*
X029695Y0366*
X029735Y036696*
X029735Y0367*
G37*
G36*
X02925D02*
X028964D01*
X028964Y036696*
X029004Y0366*
X029068Y036518*
X02915Y036454*
X029246Y036414*
X02925Y036414*
Y0367*
G37*
G36*
X0281Y03664D02*
X028095Y036639D01*
X027998Y036599*
X027914Y036535*
X02785Y036451*
X02781Y036354*
X027809Y03635*
X0281*
Y03664*
G37*
G36*
X0397Y036546D02*
Y036261D01*
X039985*
X039985Y036264*
X039945Y03636*
X039881Y036443*
X039799Y036506*
X039703Y036546*
X0397Y036546*
G37*
G36*
X0395D02*
X039496Y036546D01*
X0394Y036506*
X039318Y036443*
X039254Y03636*
X039214Y036264*
X039214Y036261*
X0395*
Y036546*
G37*
G36*
X0281Y03615D02*
X027809D01*
X02781Y036145*
X02785Y036048*
X027914Y035964*
X027998Y0359*
X028095Y03586*
X0281Y035859*
Y03615*
G37*
G36*
X039985Y036061D02*
X0397D01*
Y035775*
X039703Y035776*
X039799Y035816*
X039881Y035879*
X039945Y035962*
X039985Y036058*
X039985Y036061*
G37*
G36*
X0395D02*
X039214D01*
X039214Y036058*
X039254Y035962*
X039318Y035879*
X0394Y035816*
X039496Y035776*
X0395Y035775*
Y036061*
G37*
G36*
X033545Y042395D02*
X032754D01*
Y041604*
X033545*
Y041796*
X038465*
X040746Y039515*
Y034884*
X040547Y034685*
X04045Y034698*
X040346Y034685*
X04025Y034645*
X040168Y034581*
X040104Y034499*
X040064Y034403*
X040051Y0343*
X040064Y034196*
X040104Y0341*
X040168Y034018*
X04025Y033954*
X040346Y033914*
X04045Y033901*
X040553Y033914*
X040649Y033954*
X040731Y034018*
X040795Y0341*
X040835Y034196*
X040848Y0343*
X040835Y034397*
X041094Y034655*
X041138Y034721*
X041153Y0348*
Y0396*
X041138Y039678*
X041094Y039744*
X038694Y042144*
X038628Y042188*
X03855Y042203*
X033545*
Y042395*
G37*
G36*
X03955Y034685D02*
Y0344D01*
X039835*
X039835Y034403*
X039795Y034499*
X039731Y034581*
X039649Y034645*
X039553Y034685*
X03955Y034685*
G37*
G36*
X03935D02*
X039346Y034685D01*
X03925Y034645*
X039168Y034581*
X039104Y034499*
X039064Y034403*
X039064Y0344*
X03935*
Y034685*
G37*
G36*
X037345Y032689D02*
X03705D01*
Y032433*
X037345*
Y032689*
G37*
G36*
X03685D02*
X036554D01*
Y032433*
X03685*
Y032689*
G37*
G36*
X03575Y03264D02*
Y03235D01*
X03604*
X036039Y032354*
X035999Y032451*
X035935Y032535*
X035851Y032599*
X035754Y032639*
X03575Y03264*
G37*
G36*
X037345Y032233D02*
X03705D01*
Y031977*
X037345*
Y032233*
G37*
G36*
X03685D02*
X036554D01*
Y031977*
X03685*
Y032233*
G37*
G36*
X03604Y03215D02*
X03575D01*
Y031859*
X035754Y03186*
X035851Y0319*
X035935Y031964*
X035999Y032048*
X036039Y032145*
X03604Y03215*
G37*
G36*
X03372Y032653D02*
X033616Y032639D01*
X033519Y032599*
X033435Y032535*
X033371Y032451*
X033331Y032354*
X033317Y03225*
X033331Y032145*
X033371Y032048*
X033435Y031964*
X033519Y0319*
X033616Y03186*
X03372Y031846*
X033825Y03186*
X033922Y0319*
X034006Y031964*
X03407Y032048*
X03411Y032145*
X034124Y03225*
X03411Y032354*
X03407Y032451*
X034006Y032535*
X033922Y032599*
X033825Y032639*
X03372Y032653*
G37*
G36*
X02585Y033743D02*
X02465D01*
Y032756*
X024945*
X024955Y032706*
X024894Y032681*
X024858Y032653*
X02335*
X023287Y032645*
X022954*
Y032312*
X022946Y03225*
X022954Y032187*
Y031854*
X023287*
X02335Y031846*
X024858*
X024894Y031818*
X024995Y031777*
Y031722*
X024894Y031681*
X024791Y031602*
X024712Y031498*
X024662Y031378*
X024658Y03135*
X02525*
X025841*
X025837Y031378*
X025787Y031498*
X025708Y031602*
X025605Y031681*
X025504Y031722*
Y031777*
X025605Y031818*
X025708Y031897*
X025787Y032001*
X025837Y032121*
X025854Y03225*
X025837Y032378*
X025787Y032498*
X025708Y032602*
X025605Y032681*
X025544Y032706*
X025554Y032756*
X02585*
Y033743*
G37*
G36*
X0319Y031195D02*
X031644D01*
Y0309*
X0319*
Y031195*
G37*
G36*
X025841Y03115D02*
X02535D01*
Y030752*
X025356*
X025485Y030769*
X025605Y030818*
X025708Y030897*
X025787Y031001*
X025837Y031121*
X025841Y03115*
G37*
G36*
X02515D02*
X024658D01*
X024662Y031121*
X024712Y031001*
X024791Y030897*
X024894Y030818*
X025014Y030769*
X025143Y030752*
X02515*
Y03115*
G37*
G36*
X032355Y0307D02*
X0321D01*
Y030404*
X032355*
Y0307*
G37*
G36*
X0319D02*
X031644D01*
Y030404*
X0319*
Y0307*
G37*
G36*
X033255Y029845D02*
X032544D01*
Y029752*
X032272*
Y029845*
X03156*
Y029054*
X032272*
Y029147*
X032544*
Y029054*
X032597*
Y028679*
X032585Y028667*
Y027932*
X032717Y0278*
X032982*
X033115Y027932*
Y028137*
X033162Y028198*
X033192Y028271*
X033202Y02835*
Y029054*
X033255*
Y029845*
G37*
G36*
X031405D02*
X03115D01*
Y02955*
X031405*
Y029845*
G37*
G36*
X03095D02*
X030694D01*
Y02955*
X03095*
Y029845*
G37*
G36*
X031405Y02935D02*
X03115D01*
Y029054*
X031405*
Y02935*
G37*
G36*
X03095D02*
X030694D01*
Y029054*
X03095*
Y02935*
G37*
G36*
X036755Y028695D02*
X0365D01*
Y0284*
X036755*
Y028695*
G37*
G36*
X0363D02*
X036044D01*
Y0284*
X0363*
Y028695*
G37*
G36*
X036755Y0282D02*
X0365D01*
Y027904*
X036755*
Y0282*
G37*
G36*
X0363D02*
X036044D01*
Y027904*
X0363*
Y0282*
G37*
G36*
X02775Y028181D02*
Y0276D01*
X028147*
Y027696*
X02813Y027825*
X028081Y027945*
X028002Y028048*
X027898Y028128*
X027778Y028177*
X02775Y028181*
G37*
G36*
X02755D02*
X027521Y028177D01*
X027401Y028128*
X027297Y028048*
X027218Y027945*
X027169Y027825*
X027152Y027696*
Y0276*
X02755*
Y028181*
G37*
G36*
X03125Y02764D02*
Y02735D01*
X03154*
X031539Y027354*
X031499Y027451*
X031435Y027535*
X031351Y027599*
X031254Y027639*
X03125Y02764*
G37*
G36*
X03105D02*
X031045Y027639D01*
X030948Y027599*
X030864Y027535*
X0308Y027451*
X03076Y027354*
X030759Y02735*
X03105*
Y02764*
G37*
G36*
X03154Y02715D02*
X03125D01*
Y026859*
X031254Y02686*
X031351Y0269*
X031435Y026964*
X031499Y027048*
X031539Y027145*
X03154Y02715*
G37*
G36*
X03105D02*
X030759D01*
X03076Y027145*
X0308Y027048*
X030864Y026964*
X030948Y0269*
X031045Y02686*
X03105Y026859*
Y02715*
G37*
G36*
X028147Y0274D02*
X02775D01*
Y026818*
X027778Y026822*
X027898Y026871*
X028002Y026951*
X028081Y027054*
X02813Y027174*
X028147Y027303*
Y0274*
G37*
G36*
X02755D02*
X027152D01*
Y027303*
X027169Y027174*
X027218Y027054*
X027297Y026951*
X027401Y026871*
X027521Y026822*
X02755Y026818*
Y0274*
G37*
G36*
X03447Y026153D02*
X03305D01*
Y025153*
X03447*
Y026153*
G37*
G36*
X040068Y024834D02*
Y02425D01*
X040652*
X040649Y024285*
X040609Y024415*
X040545Y024535*
X040459Y02464*
X040354Y024726*
X040234Y024791*
X040103Y02483*
X040068Y024834*
G37*
G36*
X039868D02*
X039833Y02483D01*
X039702Y024791*
X039582Y024726*
X039477Y02464*
X039391Y024535*
X039327Y024415*
X039287Y024285*
X039284Y02425*
X039868*
Y024834*
G37*
G36*
X040652Y02405D02*
X040068D01*
Y023465*
X040103Y023469*
X040234Y023508*
X040354Y023573*
X040459Y023659*
X040545Y023764*
X040609Y023884*
X040649Y024014*
X040652Y02405*
G37*
G36*
X039868D02*
X039284D01*
X039287Y024014*
X039327Y023884*
X039391Y023764*
X039477Y023659*
X039582Y023573*
X039702Y023508*
X039833Y023469*
X039868Y023465*
Y02405*
G37*
G36*
X02595Y025843D02*
X02475D01*
Y024856*
X025045*
X025055Y024806*
X024994Y024781*
X024958Y024753*
X0235*
X023437Y024745*
X023104*
Y024412*
X023096Y02435*
X023104Y024287*
Y023954*
X023437*
X0235Y023946*
X024958*
X024994Y023918*
X025095Y023877*
Y023822*
X024994Y023781*
X024891Y023702*
X024812Y023598*
X024762Y023478*
X024758Y02345*
X02535*
Y02335*
Y02345*
X025941*
X025937Y023478*
X025887Y023598*
X025808Y023702*
X025705Y023781*
X025604Y023822*
Y023877*
X025705Y023918*
X025808Y023997*
X025887Y024101*
X025937Y024221*
X025954Y02435*
X025937Y024478*
X025887Y024598*
X025808Y024702*
X025705Y024781*
X025644Y024806*
X025654Y024856*
X02595*
Y025843*
G37*
G36*
X034935Y0288D02*
X034405D01*
Y028444*
X034377Y028378*
X034367Y0283*
X034377Y028221*
X034405Y028155*
Y0278*
X034935*
Y027997*
X035177*
Y027904*
X035247*
Y026125*
X035086Y025963*
X035037Y025901*
X035007Y025828*
X034997Y02575*
Y024184*
X034855Y024042*
Y023243*
X035077Y023021*
X035522*
X035744Y023243*
Y024042*
X035602Y024184*
Y025624*
X035763Y025786*
X035812Y025848*
X035842Y025921*
X035852Y026*
Y027904*
X035889*
Y028695*
X035177*
Y028602*
X034935*
Y0288*
G37*
G36*
X025941Y02325D02*
X02545D01*
Y022852*
X025456*
X025585Y022869*
X025705Y022918*
X025808Y022997*
X025887Y023101*
X025937Y023221*
X025941Y02325*
G37*
G36*
X02525D02*
X024758D01*
X024762Y023221*
X024812Y023101*
X024891Y022997*
X024994Y022918*
X025114Y022869*
X025243Y022852*
X02525*
Y02325*
G37*
G36*
X02875Y022135D02*
Y02185D01*
X029035*
X029035Y021853*
X028995Y021949*
X028931Y022031*
X028849Y022095*
X028753Y022135*
X02875Y022135*
G37*
G36*
X02855D02*
X028546Y022135D01*
X02845Y022095*
X028368Y022031*
X028304Y021949*
X028264Y021853*
X028264Y02185*
X02855*
Y022135*
G37*
G36*
X029035Y02165D02*
X02875D01*
Y021364*
X028753Y021364*
X028849Y021404*
X028931Y021468*
X028995Y02155*
X029035Y021646*
X029035Y02165*
G37*
G36*
X02855D02*
X028264D01*
X028264Y021646*
X028304Y02155*
X028368Y021468*
X02845Y021404*
X028546Y021364*
X02855Y021364*
Y02165*
G37*
G36*
X0327Y020429D02*
X032571Y020412D01*
X032451Y020362*
X032347Y020283*
X032268Y02018*
X032219Y02006*
X032202Y019931*
X032219Y019802*
X032268Y019682*
X032347Y019579*
X032451Y0195*
X032571Y01945*
X0327Y019433*
X032828Y01945*
X032948Y0195*
X033052Y019579*
X033131Y019682*
X03318Y019802*
X033197Y019931*
X03318Y02006*
X033131Y02018*
X033052Y020283*
X032948Y020362*
X032828Y020412*
X0327Y020429*
G37*
G36*
X04045Y020591D02*
X040276Y020574D01*
X040108Y020523*
X039954Y020441*
X039819Y02033*
X039708Y020195*
X039626Y020041*
X039575Y019873*
X039558Y0197*
X039575Y019526*
X039626Y019358*
X039708Y019204*
X039819Y019069*
X039954Y018958*
X040108Y018876*
X040276Y018825*
X04045Y018808*
X040623Y018825*
X040791Y018876*
X040945Y018958*
X04108Y019069*
X041191Y019204*
X041273Y019358*
X041324Y019526*
X041341Y0197*
X041324Y019873*
X041273Y020041*
X041191Y020195*
X04108Y02033*
X040945Y020441*
X040791Y020523*
X040623Y020574*
X04045Y020591*
G37*
G36*
X022834D02*
X02266Y020574D01*
X022493Y020523*
X022339Y020441*
X022204Y02033*
X022093Y020195*
X02201Y020041*
X02196Y019873*
X021942Y0197*
X02196Y019526*
X02201Y019358*
X022093Y019204*
X022204Y019069*
X022339Y018958*
X022493Y018876*
X02266Y018825*
X022834Y018808*
X023008Y018825*
X023175Y018876*
X02333Y018958*
X023465Y019069*
X023576Y019204*
X023658Y019358*
X023709Y019526*
X023726Y0197*
X023709Y019873*
X023658Y020041*
X023576Y020195*
X023465Y02033*
X02333Y020441*
X023175Y020523*
X023008Y020574*
X022834Y020591*
G37*
%LNpcb-3*%
%LPD*%
G36*
X038433Y033914D02*
X038412Y033871D01*
X038408Y033867*
X034195*
X034127Y033854*
X034069Y033815*
X033848Y033594*
X033825Y033604*
X033769Y033611*
X033751Y033664*
X034058Y033971*
X03555*
X035556Y033972*
X035562Y033972*
X03559Y033979*
X035618Y033985*
X035623Y033988*
X035629Y03399*
X035652Y034007*
X035676Y034023*
X035679Y034029*
X035684Y034033*
X035698Y034057*
X035714Y034081*
X035716Y034087*
X035719Y034093*
X035743Y034167*
X035799Y03419*
X035861Y034238*
X035887Y034271*
X038076*
X038433Y033914*
G37*
G54D10*
X03695Y0332D03*
Y032333D03*
G54D14*
X033766Y02945D03*
X0329D03*
X031916D03*
X03105D03*
X0364Y0283D03*
X035533D03*
X032Y0308D03*
X032866D03*
G54D17*
X03372Y033214D02*
X034195Y033689D01*
X039779Y03377D02*
X039979Y03357D01*
Y03277D02*
Y03357D01*
Y03277D02*
X04045Y0323D01*
X033231Y033396D02*
X033984Y03415D01*
X033231Y032725D02*
Y033396D01*
X03565Y033214D02*
X03695D01*
X03376Y0283D02*
X033766Y028306D01*
X032756Y03225D02*
X033231Y032725D01*
X03516D02*
X03565Y033214D01*
X03516Y02945D02*
Y032725D01*
X033984Y03415D02*
X03555D01*
X03565Y03445*
X03815*
X038829Y03377*
X039779*
X034195Y033689D02*
X03841D01*
X0388Y0333*
X03945*
X0222Y03515D02*
X02965D01*
X02985Y03535*
X03715*
G54D18*
X03015Y033516D02*
Y035D01*
Y033516D02*
X032866Y0308D01*
X033766Y02945D02*
Y0299D01*
X032866Y0308D02*
X033766Y0299D01*
X03315Y042D02*
X03855D01*
X0286Y03655D02*
X02935Y0358D01*
X0286Y03655D02*
Y04267D01*
X028879Y04295*
X04045Y0343D02*
X04095Y0348D01*
Y0396*
X03855Y042D02*
X04095Y0396D01*
G54D19*
X03467Y0283D02*
X035533D01*
X033766Y028306D02*
Y02945D01*
X031916D02*
X0329D01*
Y02835D02*
Y02945D01*
X038Y02415D02*
Y0269D01*
X0386Y0275*
X033766Y02945D02*
X03516D01*
X03945Y0305D02*
Y0323D01*
X0386Y0275D02*
Y02945D01*
X0384D02*
X03945Y0305D01*
X03516Y02945D02*
X0384D01*
X0353Y02195D02*
X03545Y0221D01*
X03275Y02195D02*
X0353D01*
X03555Y026D02*
Y028283D01*
X0353Y023642D02*
Y02575D01*
X03555Y026*
G54D20*
X0277Y0436D03*
X0282Y03625D03*
X03115Y02725D03*
X032756Y03225D03*
X03372D03*
X034685D03*
X03565D03*
X032756Y033214D03*
X03372D03*
X034685D03*
X03565D03*
X03715Y03535D03*
G54D21*
X02865Y02075D03*
X0235Y02435D03*
X02335Y03225D03*
X0236Y04D03*
X0396Y0375D03*
X0373Y0385D03*
X02935Y0358D03*
X03315Y042D03*
X04045Y0323D03*
G54D22*
X02865Y02175D03*
X0235Y02335D03*
X0352Y04105D03*
X0362D03*
X0372D03*
X02335Y03125D03*
X0236Y039D03*
X0396Y036161D03*
X0373Y0395D03*
X03445Y04305D03*
X03545D03*
X03645D03*
X02935Y0368D03*
Y0378D03*
Y0388D03*
X03315Y043D03*
X03945Y0323D03*
X04045Y0343D03*
X03945Y0333D03*
X04045D03*
X03945Y0343D03*
X03195Y04295D03*
X03095D03*
X02995D03*
G54D23*
X03015Y035D03*
G54D24*
X03565Y03445D03*
G54D25*
X02535Y02335D03*
Y02435D03*
X02525Y03895D03*
Y03995D03*
Y03125D03*
Y03225D03*
G54D26*
X02535Y02535D03*
X02525Y04095D03*
Y03325D03*
G54D27*
X0382Y04105D03*
X03745Y04305D03*
X02895Y04295D03*
G54D28*
X02765Y0275D03*
X0386D03*
G54D29*
X0327Y0219D03*
G54D30*
X0327Y019931D03*
G54D31*
X039968Y02415D03*
G54D32*
X038Y02415D03*
G54D33*
X04045Y04345D03*
Y0197D03*
X022834D03*
Y04345D03*
G54D34*
X03376Y025653D03*
G54D35*
X03285Y0283D03*
G54D36*
X03376Y0283D03*
X03467D03*
G54D37*
X0353Y02195D03*
G54D38*
X0353Y023642D03*
G54D39*
X0235Y02435D02*
X02535D01*
X02335Y03225D02*
X02525D01*
X02365Y03995D02*
X02525D01*
X0223Y03125D02*
X02335D01*
X02305Y02335D02*
X0235D01*
Y0227D02*
Y02335D01*
Y0227D02*
X02545Y02075D01*
X02865*
X02225Y02415D02*
Y03765D01*
X0236Y039*
X02225Y02415D02*
X02305Y02335D01*
X02865Y02075D02*
X03155D01*
X03275Y02195*
M02*