%FSTAX24Y24*%
%MOIN*%
%SFA1B1*%

%IPPOS*%
%ADD50R,0.069055X0.061181*%
%ADD51O,0.027716X0.108425*%
%ADD52O,0.108425X0.027716*%
%ADD53R,0.108425X0.027716*%
%ADD54R,0.061181X0.069055*%
%ADD55R,0.033622X0.055275*%
%ADD56R,0.055275X0.033622*%
%ADD57C,0.070000*%
%ADD58R,0.069055X0.069055*%
%ADD59C,0.069055*%
%ADD60C,0.041496*%
%ADD61C,0.049370*%
%ADD62O,0.110000X0.088740*%
%ADD63R,0.110000X0.088740*%
%ADD64R,0.069055X0.069055*%
%ADD65O,0.088740X0.128110*%
%ADD66R,0.088740X0.088740*%
%ADD67C,0.088740*%
%ADD68C,0.128110*%
%ADD69R,0.128110X0.128110*%
%ADD70C,0.167480*%
%LNpcb-1*%
%LPD*%
G54D50*
X0381Y035333D03*
Y0362D03*
X0371Y036183D03*
Y03705D03*
X03035Y039666D03*
Y0388D03*
X0338Y040233D03*
Y0411D03*
X0396Y039366D03*
Y0385D03*
X0308Y0369D03*
Y036033D03*
X03855Y039366D03*
Y0385D03*
X02765Y039416D03*
Y03855D03*
X02695Y033224D03*
Y032357D03*
X02725Y02415D03*
Y023283D03*
G54D51*
X032867Y038567D03*
X033182D03*
X033497D03*
X033812D03*
X034127D03*
X034442D03*
X034757D03*
X035072D03*
Y034827D03*
X034757D03*
X034442D03*
X034127D03*
X033812D03*
X033497D03*
X033182D03*
X032867D03*
G54D52*
X03584Y0378D03*
Y037485D03*
Y03717D03*
Y036855D03*
Y03654D03*
Y036225D03*
Y03591D03*
Y035595D03*
X0321D03*
Y03591D03*
Y036225D03*
Y03654D03*
Y036855D03*
Y03717D03*
Y037485D03*
G54D53*
X0321Y0378D03*
G54D54*
X031033Y0388D03*
X0319D03*
X028233Y03145D03*
X0291D03*
X028783Y02535D03*
X02965D03*
X03585Y04205D03*
X034983D03*
X02765Y0419D03*
X026783D03*
G54D55*
X027225Y025357D03*
X027974D03*
X0276Y026242D03*
G54D56*
X027657Y040924D03*
Y040175D03*
X028542Y04055D03*
X028157Y033224D03*
Y032475D03*
X029042Y03285D03*
G54D57*
X0277Y0436D03*
X0282Y03625D03*
X03115Y02725D03*
X032756Y03225D03*
X03372D03*
X034685D03*
X03565D03*
X032756Y033214D03*
X03372D03*
X034685D03*
X03565D03*
X03715Y03535D03*
G54D58*
X02865Y02075D03*
X0235Y02435D03*
X02335Y03225D03*
X0236Y04D03*
X0396Y0375D03*
X0373Y0385D03*
X02935Y0358D03*
X03315Y042D03*
X04045Y0323D03*
G54D59*
X02865Y02175D03*
X0235Y02335D03*
X0352Y04105D03*
X0362D03*
X0372D03*
X02335Y03125D03*
X0236Y039D03*
X0396Y036161D03*
X0373Y0395D03*
X03445Y04305D03*
X03545D03*
X03645D03*
X02935Y0368D03*
Y0378D03*
Y0388D03*
X03315Y043D03*
X03945Y0323D03*
X04045Y0343D03*
X03945Y0333D03*
X04045D03*
X03945Y0343D03*
X03195Y04295D03*
X03095D03*
X02995D03*
G54D60*
X03015Y035D03*
G54D61*
X03565Y03445D03*
G54D62*
X02535Y02335D03*
Y02435D03*
X02525Y03895D03*
Y03995D03*
Y03125D03*
Y03225D03*
G54D63*
X02535Y02535D03*
X02525Y04095D03*
Y03325D03*
G54D64*
X0382Y04105D03*
X03745Y04305D03*
X02895Y04295D03*
G54D65*
X02765Y0275D03*
X0386D03*
G54D66*
X0327Y0219D03*
G54D67*
X0327Y019931D03*
G54D68*
X039968Y02415D03*
G54D69*
X038Y02415D03*
G54D70*
X04045Y04345D03*
Y0197D03*
X022834D03*
Y04345D03*
M02*