%FSTAX24Y24*%
%MOIN*%
%SFA1B1*%

%IPPOS*%
%ADD81C,0.002000*%
%LNpcb-1*%
%LPD*%
G54D81*
X02755Y0436D02*
X02785D01*
X0277Y04345D02*
Y04375D01*
X02805Y03625D02*
X02835D01*
X0282Y0361D02*
Y0364D01*
X031Y02725D02*
X0313D01*
X03115Y0271D02*
Y0274D01*
X028472Y02075D02*
X028827D01*
X02865Y020572D02*
Y020927D01*
X028472Y02175D02*
X028827D01*
X02865Y021572D02*
Y021927D01*
X03011Y035D02*
X030189D01*
X03015Y03496D02*
Y035039D01*
X03561Y03445D02*
X035689D01*
X03565Y03441D02*
Y034489D01*
X023322Y02435D02*
X023677D01*
X0235Y024172D02*
Y024527D01*
X023322Y02335D02*
X023677D01*
X0235Y023172D02*
Y023527D01*
X025153Y02335D02*
X025546D01*
X02535Y023153D02*
Y023546D01*
X025153Y02435D02*
X025546D01*
X02535Y024153D02*
Y024546D01*
X025153Y02535D02*
X025546D01*
X02535Y025153D02*
Y025546D01*
X035022Y04105D02*
X035377D01*
X0352Y040872D02*
Y041227D01*
X036022Y04105D02*
X036377D01*
X0362Y040872D02*
Y041227D01*
X037022Y04105D02*
X037377D01*
X0372Y040872D02*
Y041227D01*
X038022Y04105D02*
X038377D01*
X0382Y040872D02*
Y041227D01*
X023172Y03225D02*
X023527D01*
X02335Y032072D02*
Y032427D01*
X023172Y03125D02*
X023527D01*
X02335Y031072D02*
Y031427D01*
X023422Y04D02*
X023777D01*
X0236Y039822D02*
Y040177D01*
X023422Y039D02*
X023777D01*
X0236Y038822D02*
Y039177D01*
X025053Y03895D02*
X025446D01*
X02525Y038753D02*
Y039146D01*
X025053Y03995D02*
X025446D01*
X02525Y039753D02*
Y040146D01*
X025053Y04095D02*
X025446D01*
X02525Y040753D02*
Y041146D01*
X025053Y03125D02*
X025446D01*
X02525Y031053D02*
Y031446D01*
X025053Y03225D02*
X025446D01*
X02525Y032053D02*
Y032446D01*
X025053Y03325D02*
X025446D01*
X02525Y033053D02*
Y033446D01*
X039422Y0375D02*
X039777D01*
X0396Y037322D02*
Y037677D01*
X039422Y036161D02*
X039777D01*
X0396Y035984D02*
Y036338D01*
X037122Y0395D02*
X037477D01*
X0373Y039322D02*
Y039677D01*
X037122Y0385D02*
X037477D01*
X0373Y038322D02*
Y038677D01*
X034272Y04305D02*
X034627D01*
X03445Y042872D02*
Y043227D01*
X035272Y04305D02*
X035627D01*
X03545Y042872D02*
Y043227D01*
X036272Y04305D02*
X036627D01*
X03645Y042872D02*
Y043227D01*
X037272Y04305D02*
X037627D01*
X03745Y042872D02*
Y043227D01*
X032606Y03225D02*
X032906D01*
X032756Y0321D02*
Y0324D01*
X03357Y03225D02*
X03387D01*
X03372Y0321D02*
Y0324D01*
X034535Y03225D02*
X034835D01*
X034685Y0321D02*
Y0324D01*
X0355Y03225D02*
X0358D01*
X03565Y0321D02*
Y0324D01*
X032606Y033214D02*
X032906D01*
X032756Y033064D02*
Y033364D01*
X03357Y033214D02*
X03387D01*
X03372Y033064D02*
Y033364D01*
X034535Y033214D02*
X034835D01*
X034685Y033064D02*
Y033364D01*
X0355Y033214D02*
X0358D01*
X03565Y033064D02*
Y033364D01*
X029172Y0358D02*
X029527D01*
X02935Y035622D02*
Y035977D01*
X029172Y0368D02*
X029527D01*
X02935Y036622D02*
Y036977D01*
X029172Y0378D02*
X029527D01*
X02935Y037622D02*
Y037977D01*
X029172Y0388D02*
X029527D01*
X02935Y038622D02*
Y038977D01*
X032972Y042D02*
X033327D01*
X03315Y041822D02*
Y042177D01*
X032972Y043D02*
X033327D01*
X03315Y042822D02*
Y043177D01*
X0275Y0275D02*
X0278D01*
X02765Y02735D02*
Y02765D01*
X03845Y0275D02*
X03875D01*
X0386Y02735D02*
Y02765D01*
X039272Y0323D02*
X039627D01*
X03945Y032122D02*
Y032477D01*
X040272Y0343D02*
X040627D01*
X04045Y034122D02*
Y034477D01*
X039272Y0333D02*
X039627D01*
X03945Y033122D02*
Y033477D01*
X040272Y0333D02*
X040627D01*
X04045Y033122D02*
Y033477D01*
X040272Y0323D02*
X040627D01*
X04045Y032122D02*
Y032477D01*
X039272Y0343D02*
X039627D01*
X03945Y034122D02*
Y034477D01*
X032522Y0219D02*
X032877D01*
X0327Y021722D02*
Y022077D01*
X032522Y019931D02*
X032877D01*
X0327Y019754D02*
Y020108D01*
X039732Y02415D02*
X040204D01*
X039968Y023913D02*
Y024386D01*
X037763Y02415D02*
X038236D01*
X038Y023913D02*
Y024386D01*
X037Y03535D02*
X0373D01*
X03715Y0352D02*
Y0355D01*
X031772Y04295D02*
X032127D01*
X03195Y042772D02*
Y043127D01*
X030772Y04295D02*
X031127D01*
X03095Y042772D02*
Y043127D01*
X029772Y04295D02*
X030127D01*
X02995Y042772D02*
Y043127D01*
X028772Y04295D02*
X029127D01*
X02895Y042772D02*
Y043127D01*
X040056Y04345D02*
X040843D01*
X04045Y043056D02*
Y043843D01*
X040056Y0197D02*
X040843D01*
X04045Y019306D02*
Y020093D01*
X02244Y0197D02*
X023228D01*
X022834Y019306D02*
Y020093D01*
X02244Y04345D02*
X023228D01*
X022834Y043056D02*
Y043843D01*
M02*