G04 Layer_Color=65535*
%FSLAX44Y44*%
%MOMM*%
G71*
G01*
G75*
%ADD17C,0.3810*%
%ADD40C,0.2540*%
%ADD41C,0.2500*%
%ADD42C,0.2000*%
D17*
X534670Y454660D02*
X1066800D01*
Y1141730D01*
X534670D02*
X1066800D01*
D40*
X835468Y960120D02*
G03*
X835468Y960120I-1078J0D01*
G01*
X534670Y454660D02*
Y1141730D01*
X960120Y907972D02*
Y908988D01*
X975360Y907972D02*
Y908988D01*
X934720Y929562D02*
Y930578D01*
X949960Y929562D02*
Y930578D01*
X584200Y580390D02*
X609600D01*
X584200D02*
Y631190D01*
X609600D01*
Y580390D02*
Y631190D01*
X580390Y781050D02*
X605790D01*
X580390D02*
Y831850D01*
X605790D01*
Y781050D02*
Y831850D01*
X586740Y977900D02*
X612140D01*
X586740D02*
Y1028700D01*
X612140D01*
Y977900D02*
Y1028700D01*
X778510Y996012D02*
Y997028D01*
X763270Y996012D02*
Y997028D01*
X832920Y944460D02*
X850500Y962040D01*
X892760D01*
Y902200D02*
Y962040D01*
X832920Y902200D02*
X892760D01*
X832920D02*
Y944460D01*
X798752Y993140D02*
X799768D01*
X798752Y977900D02*
X799768D01*
X850900Y1032432D02*
Y1033448D01*
X866140Y1032432D02*
Y1033448D01*
X1013460Y988392D02*
Y989408D01*
X998220Y988392D02*
Y989408D01*
X789940Y925752D02*
Y926768D01*
X774700Y925752D02*
Y926768D01*
X986790Y988392D02*
Y989408D01*
X971550Y988392D02*
Y989408D01*
X709930Y989662D02*
Y990678D01*
X694690Y989662D02*
Y990678D01*
X727632Y806450D02*
X728648D01*
X727632Y791210D02*
X728648D01*
X693420Y797560D02*
X984250D01*
Y598170D02*
Y797560D01*
X693420Y598170D02*
X984250D01*
X693420D02*
Y797560D01*
X989330Y883920D02*
X1040130D01*
X989330Y807720D02*
Y883920D01*
Y807720D02*
X1040130D01*
Y883920D01*
X741602Y651510D02*
X742618D01*
X741602Y636270D02*
X742618D01*
X899082Y1060450D02*
X900098D01*
X899082Y1075690D02*
X900098D01*
X690802Y1056640D02*
X691818D01*
X690802Y1071880D02*
X691818D01*
X692150Y832382D02*
Y833398D01*
X676910Y832382D02*
Y833398D01*
X699770Y601902D02*
Y602918D01*
X684530Y601902D02*
Y602918D01*
X725171Y1061717D02*
X715014D01*
X712475Y1059177D01*
Y1054099D01*
X715014Y1051560D01*
X725171D01*
X727710Y1054099D01*
Y1059177D01*
X722632Y1056638D02*
X727710Y1061717D01*
Y1059177D02*
X725171Y1061717D01*
X712475Y1076952D02*
X715014Y1071873D01*
X720092Y1066795D01*
X725171D01*
X727710Y1069334D01*
Y1074413D01*
X725171Y1076952D01*
X722632D01*
X720092Y1074413D01*
Y1066795D01*
X741677Y859789D02*
Y869946D01*
X739137Y872485D01*
X734059D01*
X731520Y869946D01*
Y859789D01*
X734059Y857250D01*
X739137D01*
X736598Y862328D02*
X741677Y857250D01*
X739137D02*
X741677Y859789D01*
X756912Y872485D02*
X746755D01*
Y864867D01*
X751833Y867407D01*
X754373D01*
X756912Y864867D01*
Y859789D01*
X754373Y857250D01*
X749294D01*
X746755Y859789D01*
X707391Y693417D02*
X697234D01*
X694695Y690878D01*
Y685799D01*
X697234Y683260D01*
X707391D01*
X709930Y685799D01*
Y690878D01*
X704852Y688338D02*
X709930Y693417D01*
Y690878D02*
X707391Y693417D01*
X709930Y706113D02*
X694695D01*
X702312Y698495D01*
Y708652D01*
X933450Y952500D02*
Y967735D01*
X941068D01*
X943607Y965196D01*
Y960117D01*
X941068Y957578D01*
X933450D01*
X938528D02*
X943607Y952500D01*
X948685D02*
X953763D01*
X951224D01*
Y967735D01*
X948685Y965196D01*
X971538Y952500D02*
X961381D01*
X971538Y962657D01*
Y965196D01*
X968998Y967735D01*
X963920D01*
X961381Y965196D01*
X981710Y886460D02*
Y871225D01*
X974092D01*
X971553Y873764D01*
Y878842D01*
X974092Y881382D01*
X981710D01*
X976632D02*
X971553Y886460D01*
X966475D02*
X961397D01*
X963936D01*
Y871225D01*
X966475Y873764D01*
X953779Y886460D02*
X948701D01*
X951240D01*
Y871225D01*
X953779Y873764D01*
X725170Y659130D02*
Y674365D01*
X732787D01*
X735327Y671826D01*
Y666748D01*
X732787Y664208D01*
X725170D01*
X730248D02*
X735327Y659130D01*
X740405D02*
X745483D01*
X742944D01*
Y674365D01*
X740405Y671826D01*
X753101D02*
X755640Y674365D01*
X760719D01*
X763258Y671826D01*
Y661669D01*
X760719Y659130D01*
X755640D01*
X753101Y661669D01*
Y671826D01*
X576580Y585470D02*
X561345D01*
Y593088D01*
X563884Y595627D01*
X568963D01*
X571502Y593088D01*
Y585470D01*
X576580Y600705D02*
Y605783D01*
Y603244D01*
X561345D01*
X563884Y600705D01*
Y613401D02*
X561345Y615940D01*
Y621018D01*
X563884Y623558D01*
X574041D01*
X576580Y621018D01*
Y615940D01*
X574041Y613401D01*
X563884D01*
X1045210Y843280D02*
X1060445D01*
Y835663D01*
X1057906Y833123D01*
X1052828D01*
X1050288Y835663D01*
Y843280D01*
X1047749Y828045D02*
X1045210Y825506D01*
Y820427D01*
X1047749Y817888D01*
X1057906D01*
X1060445Y820427D01*
Y825506D01*
X1057906Y828045D01*
X1055367D01*
X1052828Y825506D01*
Y817888D01*
X985520Y575315D02*
Y588011D01*
X982981Y590550D01*
X977903D01*
X975363Y588011D01*
Y575315D01*
X970285Y577854D02*
X967746Y575315D01*
X962667D01*
X960128Y577854D01*
Y580393D01*
X962667Y582933D01*
X965207D01*
X962667D01*
X960128Y585472D01*
Y588011D01*
X962667Y590550D01*
X967746D01*
X970285Y588011D01*
X857250Y953765D02*
Y941069D01*
X859789Y938530D01*
X864867D01*
X867407Y941069D01*
Y953765D01*
X872485Y938530D02*
X877563D01*
X875024D01*
Y953765D01*
X872485Y951226D01*
X709930Y969010D02*
Y953775D01*
X702312D01*
X699773Y956314D01*
Y961393D01*
X702312Y963932D01*
X709930D01*
X704852D02*
X699773Y969010D01*
X694695Y953775D02*
X684538D01*
Y956314D01*
X694695Y966471D01*
Y969010D01*
X717550Y770890D02*
Y786125D01*
X725167D01*
X727707Y783586D01*
Y778508D01*
X725167Y775968D01*
X717550D01*
X722628D02*
X727707Y770890D01*
X742942Y786125D02*
X737863Y783586D01*
X732785Y778508D01*
Y773429D01*
X735324Y770890D01*
X740403D01*
X742942Y773429D01*
Y775968D01*
X740403Y778508D01*
X732785D01*
X844550Y1018540D02*
X829315D01*
Y1026158D01*
X831854Y1028697D01*
X836933D01*
X839472Y1026158D01*
Y1018540D01*
Y1023618D02*
X844550Y1028697D01*
X829315Y1043932D02*
Y1033775D01*
X836933D01*
X834393Y1038853D01*
Y1041393D01*
X836933Y1043932D01*
X842011D01*
X844550Y1041393D01*
Y1036314D01*
X842011Y1033775D01*
X797560Y996950D02*
Y1012185D01*
X805178D01*
X807717Y1009646D01*
Y1004567D01*
X805178Y1002028D01*
X797560D01*
X802638D02*
X807717Y996950D01*
X820413D02*
Y1012185D01*
X812795Y1004567D01*
X822952D01*
X764540Y1022858D02*
Y1038093D01*
X772158D01*
X774697Y1035554D01*
Y1030475D01*
X772158Y1027936D01*
X764540D01*
X769618D02*
X774697Y1022858D01*
X779775Y1035554D02*
X782314Y1038093D01*
X787393D01*
X789932Y1035554D01*
Y1033015D01*
X787393Y1030475D01*
X784853D01*
X787393D01*
X789932Y1027936D01*
Y1025397D01*
X787393Y1022858D01*
X782314D01*
X779775Y1025397D01*
X975360Y1010920D02*
Y1026155D01*
X982978D01*
X985517Y1023616D01*
Y1018538D01*
X982978Y1015998D01*
X975360D01*
X980438D02*
X985517Y1010920D01*
X1000752D02*
X990595D01*
X1000752Y1021077D01*
Y1023616D01*
X998213Y1026155D01*
X993134D01*
X990595Y1023616D01*
X1019810Y995680D02*
X1035045D01*
Y988063D01*
X1032506Y985523D01*
X1027428D01*
X1024888Y988063D01*
Y995680D01*
Y990602D02*
X1019810Y985523D01*
Y980445D02*
Y975367D01*
Y977906D01*
X1035045D01*
X1032506Y980445D01*
X609600Y969010D02*
Y953775D01*
X601982D01*
X599443Y956314D01*
Y961393D01*
X601982Y963932D01*
X609600D01*
X586747Y969010D02*
Y953775D01*
X594365Y961393D01*
X584208D01*
X574040Y792480D02*
X558805D01*
Y800098D01*
X561344Y802637D01*
X566423D01*
X568962Y800098D01*
Y792480D01*
X574040Y817872D02*
Y807715D01*
X563883Y817872D01*
X561344D01*
X558805Y815333D01*
Y810254D01*
X561344Y807715D01*
X783593Y951234D02*
X786133Y948695D01*
X791211D01*
X793750Y951234D01*
Y961391D01*
X791211Y963930D01*
X786133D01*
X783593Y961391D01*
X770897Y963930D02*
Y948695D01*
X778515Y956312D01*
X768358D01*
X928370Y1061720D02*
Y1076955D01*
X935987D01*
X938527Y1074416D01*
Y1069337D01*
X935987Y1066798D01*
X928370D01*
X933448D02*
X938527Y1061720D01*
X943605D02*
X948683D01*
X946144D01*
Y1076955D01*
X943605Y1074416D01*
X963919Y1061720D02*
Y1076955D01*
X956301Y1069337D01*
X966458D01*
X707390Y618490D02*
X722625D01*
Y610872D01*
X720086Y608333D01*
X715007D01*
X712468Y610872D01*
Y618490D01*
Y613412D02*
X707390Y608333D01*
Y603255D02*
Y598177D01*
Y600716D01*
X722625D01*
X720086Y603255D01*
X722625Y580402D02*
Y590559D01*
X715007D01*
X717547Y585481D01*
Y582942D01*
X715007Y580402D01*
X709929D01*
X707390Y582942D01*
Y588020D01*
X709929Y590559D01*
X678180Y859384D02*
Y874619D01*
X685798D01*
X688337Y872080D01*
Y867001D01*
X685798Y864462D01*
X678180D01*
X683258D02*
X688337Y859384D01*
X693415D02*
X698493D01*
X695954D01*
Y874619D01*
X693415Y872080D01*
X716268Y874619D02*
X711189Y872080D01*
X706111Y867001D01*
Y861923D01*
X708650Y859384D01*
X713728D01*
X716268Y861923D01*
Y864462D01*
X713728Y867001D01*
X706111D01*
X675132Y1080770D02*
Y1096005D01*
X682749D01*
X685289Y1093466D01*
Y1088388D01*
X682749Y1085848D01*
X675132D01*
X680210D02*
X685289Y1080770D01*
X690367D02*
X695445D01*
X692906D01*
Y1096005D01*
X690367Y1093466D01*
X703063Y1096005D02*
X713220D01*
Y1093466D01*
X703063Y1083309D01*
Y1080770D01*
X999493Y898311D02*
X1001186Y894926D01*
X1004572Y891540D01*
X1007957D01*
X1009650Y893233D01*
Y896618D01*
X1007957Y898311D01*
X1006264D01*
X1004572Y896618D01*
Y891540D01*
X1024893Y898311D02*
Y891540D01*
X1029972D01*
X1028279Y894926D01*
Y896618D01*
X1029972Y898311D01*
X1033357D01*
X1035050Y896618D01*
Y893233D01*
X1033357Y891540D01*
X1035050Y796798D02*
Y800184D01*
Y798491D01*
X1024893D01*
X1026586Y796798D01*
X1009650Y800013D02*
Y793242D01*
X1002879Y800013D01*
X1001186D01*
X999493Y798320D01*
Y794935D01*
X1001186Y793242D01*
D41*
X684290Y644070D02*
G03*
X684290Y644070I-1250J0D01*
G01*
X703740Y1047970D02*
G03*
X703740Y1047970I-1250J0D01*
G01*
X716440Y852390D02*
G03*
X716440Y852390I-1250J0D01*
G01*
D42*
X686040Y653320D02*
Y662320D01*
X694040D01*
X716040Y653320D02*
Y662320D01*
X708040D02*
X716040D01*
X711740Y1044970D02*
X720740D01*
Y1036970D02*
Y1044970D01*
X711740Y1014970D02*
X720740D01*
Y1022970D01*
X724440Y849390D02*
X733440D01*
Y841390D02*
Y849390D01*
X724440Y819390D02*
X733440D01*
Y827390D01*
M02*
