G04 Layer_Physical_Order=1*
G04 Layer_Color=255*
%FSLAX44Y44*%
%MOMM*%
G71*
G01*
G75*
%ADD10R,1.5000X1.3000*%
%ADD11O,0.4500X2.5000*%
%ADD12O,2.5000X0.4500*%
%ADD13R,2.5000X0.4500*%
%ADD14R,1.3000X1.5000*%
%ADD15R,0.6000X1.1500*%
%ADD16R,1.1500X0.6000*%
%ADD17C,0.3810*%
%ADD18C,0.5080*%
%ADD19C,1.0160*%
%ADD20C,1.0000*%
%ADD21R,1.5000X1.5000*%
%ADD22C,1.5000*%
%ADD23C,0.8000*%
%ADD24O,2.5400X2.0000*%
%ADD25R,2.5400X2.0000*%
%ADD26R,1.5000X1.5000*%
%ADD27C,1.5240*%
%ADD28O,2.0000X3.0000*%
%ADD29R,2.0000X2.0000*%
%ADD30C,2.0000*%
%ADD31C,3.0000*%
%ADD32R,3.0000X3.0000*%
%ADD33C,4.0000*%
%ADD34C,0.7000*%
G36*
X1066800Y459740D02*
X538480D01*
X538480Y1137920D01*
X1066800Y1137920D01*
X1066800Y459740D01*
D02*
G37*
%LPC*%
G36*
X633730Y1117089D02*
Y1112520D01*
X638299D01*
X637776Y1113783D01*
X636568Y1115358D01*
X634992Y1116566D01*
X633730Y1117089D01*
D02*
G37*
G36*
X628650D02*
X627388Y1116566D01*
X625812Y1115358D01*
X624604Y1113783D01*
X624081Y1112520D01*
X628650D01*
Y1117089D01*
D02*
G37*
G36*
X706120Y1114549D02*
Y1109980D01*
X710689D01*
X710166Y1111243D01*
X708958Y1112818D01*
X707383Y1114026D01*
X706120Y1114549D01*
D02*
G37*
G36*
X701040D02*
X699778Y1114026D01*
X698202Y1112818D01*
X696994Y1111243D01*
X696471Y1109980D01*
X701040D01*
Y1114549D01*
D02*
G37*
G36*
X638299Y1107440D02*
X633730D01*
Y1102871D01*
X634992Y1103394D01*
X636568Y1104602D01*
X637776Y1106178D01*
X638299Y1107440D01*
D02*
G37*
G36*
X628650D02*
X624081D01*
X624604Y1106178D01*
X625812Y1104602D01*
X627388Y1103394D01*
X628650Y1102871D01*
Y1107440D01*
D02*
G37*
G36*
X710689Y1104900D02*
X706120D01*
Y1100331D01*
X707383Y1100854D01*
X708958Y1102062D01*
X710166Y1103637D01*
X710689Y1104900D01*
D02*
G37*
G36*
X701040D02*
X696471D01*
X696994Y1103637D01*
X698202Y1102062D01*
X699778Y1100854D01*
X701040Y1100331D01*
Y1104900D01*
D02*
G37*
G36*
X961270Y1103510D02*
X953770D01*
Y1096010D01*
X961270D01*
Y1103510D01*
D02*
G37*
G36*
X948690D02*
X941190D01*
Y1096010D01*
X948690D01*
Y1103510D01*
D02*
G37*
G36*
X839470Y1101992D02*
X839389Y1101982D01*
X836947Y1100970D01*
X834849Y1099361D01*
X833240Y1097263D01*
X832228Y1094821D01*
X832218Y1094740D01*
X839470D01*
Y1101992D01*
D02*
G37*
G36*
X763270Y1100722D02*
Y1093470D01*
X770522D01*
X770512Y1093551D01*
X769500Y1095993D01*
X767891Y1098091D01*
X765793Y1099700D01*
X763351Y1100712D01*
X763270Y1100722D01*
D02*
G37*
G36*
X758190D02*
X758109Y1100712D01*
X755667Y1099700D01*
X753569Y1098091D01*
X751960Y1095993D01*
X750948Y1093551D01*
X750938Y1093470D01*
X758190D01*
Y1100722D01*
D02*
G37*
G36*
X961270Y1090930D02*
X953770D01*
Y1083430D01*
X961270D01*
Y1090930D01*
D02*
G37*
G36*
X948690D02*
X941190D01*
Y1083430D01*
X948690D01*
Y1090930D01*
D02*
G37*
G36*
X839470Y1089660D02*
X832218D01*
X832228Y1089579D01*
X833240Y1087137D01*
X834849Y1085039D01*
X836947Y1083430D01*
X839389Y1082418D01*
X839470Y1082408D01*
Y1089660D01*
D02*
G37*
G36*
X770522Y1088390D02*
X763270D01*
Y1081138D01*
X763351Y1081148D01*
X765793Y1082160D01*
X767891Y1083769D01*
X769500Y1085867D01*
X770512Y1088309D01*
X770522Y1088390D01*
D02*
G37*
G36*
X758190D02*
X750938D01*
X750948Y1088309D01*
X751960Y1085867D01*
X753569Y1083769D01*
X755667Y1082160D01*
X758109Y1081148D01*
X758190Y1081138D01*
Y1088390D01*
D02*
G37*
G36*
X1027430Y1126279D02*
X1023011Y1125844D01*
X1018763Y1124555D01*
X1014847Y1122462D01*
X1011415Y1119645D01*
X1008598Y1116213D01*
X1006505Y1112297D01*
X1005216Y1108049D01*
X1004781Y1103630D01*
X1005216Y1099211D01*
X1006505Y1094963D01*
X1008598Y1091047D01*
X1011415Y1087615D01*
X1014847Y1084798D01*
X1018763Y1082705D01*
X1023011Y1081416D01*
X1027430Y1080981D01*
X1031849Y1081416D01*
X1036097Y1082705D01*
X1040013Y1084798D01*
X1043445Y1087615D01*
X1046262Y1091047D01*
X1048355Y1094963D01*
X1049644Y1099211D01*
X1050079Y1103630D01*
X1049644Y1108049D01*
X1048355Y1112297D01*
X1046262Y1116213D01*
X1043445Y1119645D01*
X1040013Y1122462D01*
X1036097Y1124555D01*
X1031849Y1125844D01*
X1027430Y1126279D01*
D02*
G37*
G36*
X580000D02*
X575581Y1125844D01*
X571333Y1124555D01*
X567417Y1122462D01*
X563985Y1119645D01*
X561168Y1116213D01*
X559075Y1112297D01*
X557786Y1108049D01*
X557351Y1103630D01*
X557786Y1099211D01*
X559075Y1094963D01*
X561168Y1091047D01*
X563985Y1087615D01*
X567417Y1084798D01*
X571333Y1082705D01*
X575581Y1081416D01*
X580000Y1080981D01*
X584419Y1081416D01*
X588667Y1082705D01*
X592583Y1084798D01*
X596015Y1087615D01*
X598832Y1091047D01*
X600925Y1094963D01*
X602214Y1099211D01*
X602649Y1103630D01*
X602214Y1108049D01*
X600925Y1112297D01*
X598832Y1116213D01*
X596015Y1119645D01*
X592583Y1122462D01*
X588667Y1124555D01*
X584419Y1125844D01*
X580000Y1126279D01*
D02*
G37*
G36*
X1035050Y1063749D02*
Y1059180D01*
X1039619D01*
X1039096Y1060443D01*
X1037888Y1062018D01*
X1036312Y1063226D01*
X1035050Y1063749D01*
D02*
G37*
G36*
X1029970D02*
X1028708Y1063226D01*
X1027132Y1062018D01*
X1025924Y1060443D01*
X1025401Y1059180D01*
X1029970D01*
Y1063749D01*
D02*
G37*
G36*
X689350Y1074300D02*
X671270D01*
Y1069439D01*
X610870D01*
X608888Y1069045D01*
X607207Y1067923D01*
X579268Y1039983D01*
X578145Y1038302D01*
X577751Y1036320D01*
Y1007110D01*
X578145Y1005128D01*
X579268Y1003447D01*
X589639Y993076D01*
X589313Y990600D01*
X589658Y987979D01*
X590670Y985537D01*
X592279Y983439D01*
X594377Y981830D01*
X596819Y980818D01*
X599440Y980473D01*
X602061Y980818D01*
X604503Y981830D01*
X606601Y983439D01*
X608210Y985537D01*
X609222Y987979D01*
X609567Y990600D01*
X609222Y993221D01*
X608210Y995663D01*
X606601Y997761D01*
X604503Y999370D01*
X602061Y1000382D01*
X599440Y1000727D01*
X596964Y1000401D01*
X592578Y1004787D01*
X593064Y1005960D01*
X609480D01*
Y1026040D01*
X589400D01*
Y1011130D01*
X588130Y1010451D01*
X588110Y1010464D01*
Y1034175D01*
X613015Y1059081D01*
X671270D01*
Y1054220D01*
X689350D01*
Y1074300D01*
D02*
G37*
G36*
X1039619Y1054100D02*
X1035050D01*
Y1049531D01*
X1036312Y1050054D01*
X1037888Y1051262D01*
X1039096Y1052838D01*
X1039619Y1054100D01*
D02*
G37*
G36*
X1029970D02*
X1025401D01*
X1025924Y1052838D01*
X1027132Y1051262D01*
X1028708Y1050054D01*
X1029970Y1049531D01*
Y1054100D01*
D02*
G37*
G36*
X896620Y1052462D02*
Y1045210D01*
X903872D01*
X903862Y1045291D01*
X902850Y1047733D01*
X901241Y1049831D01*
X899143Y1051440D01*
X896701Y1052452D01*
X896620Y1052462D01*
D02*
G37*
G36*
X711350Y1074300D02*
X693270D01*
Y1054220D01*
X697310D01*
Y1045010D01*
X694200D01*
Y1044650D01*
X656590D01*
Y1052670D01*
X626110D01*
Y1027590D01*
X633610D01*
X633862Y1026320D01*
X632326Y1025684D01*
X629706Y1023674D01*
X627696Y1021054D01*
X626433Y1018004D01*
X626002Y1014730D01*
X626433Y1011456D01*
X627696Y1008406D01*
X629706Y1005786D01*
X632326Y1003776D01*
X634883Y1002717D01*
Y1001343D01*
X632326Y1000284D01*
X629706Y998274D01*
X627696Y995654D01*
X626433Y992604D01*
X626336Y991870D01*
X641350D01*
Y989330D01*
D01*
Y991870D01*
X656364D01*
X656267Y992604D01*
X655004Y995654D01*
X652994Y998274D01*
X650374Y1000284D01*
X647817Y1001343D01*
Y1002717D01*
X650374Y1003776D01*
X652994Y1005786D01*
X655004Y1008406D01*
X656267Y1011456D01*
X656698Y1014730D01*
X656267Y1018004D01*
X655004Y1021054D01*
X652994Y1023674D01*
X650374Y1025684D01*
X648838Y1026320D01*
X649090Y1027590D01*
X656590D01*
Y1034290D01*
X694200D01*
Y1033930D01*
X710780D01*
Y1045010D01*
X707670D01*
Y1054220D01*
X711350D01*
Y1074300D01*
D02*
G37*
G36*
X903872Y1040130D02*
X896620D01*
Y1032878D01*
X896701Y1032888D01*
X899143Y1033900D01*
X901241Y1035509D01*
X902850Y1037607D01*
X903862Y1040049D01*
X903872Y1040130D01*
D02*
G37*
G36*
X733280Y1035510D02*
X727530D01*
Y1032510D01*
X733280D01*
Y1035510D01*
D02*
G37*
G36*
X722450D02*
X716700D01*
Y1032510D01*
X722450D01*
Y1035510D01*
D02*
G37*
G36*
X733280Y1027430D02*
X727530D01*
Y1024430D01*
X733280D01*
Y1027430D01*
D02*
G37*
G36*
X722450D02*
X716700D01*
Y1024430D01*
X722450D01*
Y1027430D01*
D02*
G37*
G36*
X780930Y1016560D02*
X773430D01*
Y1010060D01*
X780930D01*
Y1016560D01*
D02*
G37*
G36*
X768350D02*
X760850D01*
Y1010060D01*
X768350D01*
Y1016560D01*
D02*
G37*
G36*
X953770Y1013092D02*
Y1005840D01*
X961022D01*
X961012Y1005921D01*
X960000Y1008363D01*
X958391Y1010461D01*
X956293Y1012070D01*
X953851Y1013082D01*
X953770Y1013092D01*
D02*
G37*
G36*
X948690D02*
X948609Y1013082D01*
X946167Y1012070D01*
X944069Y1010461D01*
X942460Y1008363D01*
X941448Y1005921D01*
X941438Y1005840D01*
X948690D01*
Y1013092D01*
D02*
G37*
G36*
X780930Y1004980D02*
X773430D01*
Y998480D01*
X780930D01*
Y1004980D01*
D02*
G37*
G36*
X768350D02*
X760850D01*
Y998480D01*
X768350D01*
Y1004980D01*
D02*
G37*
G36*
X961022Y1000760D02*
X953770D01*
Y993508D01*
X953851Y993518D01*
X956293Y994530D01*
X958391Y996139D01*
X960000Y998237D01*
X961012Y1000679D01*
X961022Y1000760D01*
D02*
G37*
G36*
X948690D02*
X941438D01*
X941448Y1000679D01*
X942460Y998237D01*
X944069Y996139D01*
X946167Y994530D01*
X948609Y993518D01*
X948690Y993508D01*
Y1000760D01*
D02*
G37*
G36*
X710780Y1026010D02*
X694200D01*
Y1014930D01*
X697131D01*
Y1010210D01*
X692270D01*
Y992130D01*
X712350D01*
Y1010210D01*
X707489D01*
Y1014930D01*
X710780D01*
Y1026010D01*
D02*
G37*
G36*
X909320Y1118969D02*
X758190D01*
X756208Y1118575D01*
X754528Y1117452D01*
X738045Y1100970D01*
X725290D01*
Y1080890D01*
X745370D01*
Y1093645D01*
X760335Y1108611D01*
X853341D01*
Y1092786D01*
X852070Y1092702D01*
X852041Y1092927D01*
X851792Y1094821D01*
X850780Y1097263D01*
X849171Y1099361D01*
X847073Y1100970D01*
X844631Y1101982D01*
X844550Y1101992D01*
Y1092200D01*
Y1082408D01*
X844631Y1082418D01*
X847073Y1083430D01*
X849171Y1085039D01*
X850780Y1087137D01*
X851792Y1089579D01*
X852041Y1091473D01*
X852070Y1091697D01*
X853341Y1091614D01*
Y1052980D01*
X848480D01*
Y1038244D01*
X847291Y1037723D01*
X846542Y1038327D01*
Y1056760D01*
X852050D01*
Y1076840D01*
X831970D01*
Y1072219D01*
X830827Y1071824D01*
X830700Y1071819D01*
X818716Y1083803D01*
X820300Y1085867D01*
X821312Y1088309D01*
X821657Y1090930D01*
X821312Y1093551D01*
X820300Y1095993D01*
X818691Y1098091D01*
X816593Y1099700D01*
X814151Y1100712D01*
X811530Y1101057D01*
X808909Y1100712D01*
X806467Y1099700D01*
X804369Y1098091D01*
X802760Y1095993D01*
X801748Y1093551D01*
X801403Y1090930D01*
X801748Y1088309D01*
X802760Y1085867D01*
X804369Y1083769D01*
X806467Y1082160D01*
X808312Y1081396D01*
X808325Y1081375D01*
X822993Y1066708D01*
Y1062136D01*
X821820Y1061650D01*
X795692Y1087778D01*
X795912Y1088309D01*
X796257Y1090930D01*
X795912Y1093551D01*
X794900Y1095993D01*
X793291Y1098091D01*
X791193Y1099700D01*
X788751Y1100712D01*
X786130Y1101057D01*
X783509Y1100712D01*
X781067Y1099700D01*
X778969Y1098091D01*
X777360Y1095993D01*
X776348Y1093551D01*
X776003Y1090930D01*
X776348Y1088309D01*
X777360Y1085867D01*
X778969Y1083769D01*
X781067Y1082160D01*
X783509Y1081148D01*
X786130Y1080803D01*
X788751Y1081148D01*
X789282Y1081368D01*
X816643Y1054008D01*
Y1030019D01*
X816988Y1028284D01*
X817970Y1026814D01*
X838308Y1006476D01*
Y994841D01*
X837038Y994162D01*
X836709Y994382D01*
X834840Y994754D01*
X832971Y994382D01*
X831387Y993323D01*
X830328Y991739D01*
X830200Y991096D01*
X828940Y990052D01*
X819300D01*
Y995560D01*
X801220D01*
Y975480D01*
X819300D01*
Y980988D01*
X827063D01*
X829956Y978094D01*
Y969370D01*
X830328Y967501D01*
X831387Y965917D01*
X832971Y964858D01*
X834840Y964486D01*
X836709Y964858D01*
X837993Y965716D01*
X838840Y965838D01*
X839687Y965716D01*
X840971Y964858D01*
X842840Y964486D01*
X844709Y964858D01*
X845993Y965716D01*
X846840Y965838D01*
X847687Y965716D01*
X848971Y964858D01*
X850840Y964486D01*
X852709Y964858D01*
X853993Y965716D01*
X854840Y965838D01*
X855687Y965716D01*
X856971Y964858D01*
X858840Y964486D01*
X860709Y964858D01*
X861993Y965716D01*
X862840Y965838D01*
X863687Y965716D01*
X864971Y964858D01*
X866840Y964486D01*
X868709Y964858D01*
X869993Y965716D01*
X870840Y965838D01*
X871687Y965716D01*
X872971Y964858D01*
X874840Y964486D01*
X876709Y964858D01*
X877993Y965716D01*
X878840Y965838D01*
X879687Y965716D01*
X880971Y964858D01*
X882840Y964486D01*
X884709Y964858D01*
X885993Y965716D01*
X886840Y965838D01*
X887687Y965716D01*
X888971Y964858D01*
X890840Y964486D01*
X892709Y964858D01*
X894294Y965917D01*
X895352Y967501D01*
X895724Y969370D01*
Y987105D01*
X941728Y1033109D01*
X942259Y1032888D01*
X944880Y1032543D01*
X947501Y1032888D01*
X949943Y1033900D01*
X952041Y1035509D01*
X953650Y1037607D01*
X954662Y1040049D01*
X955007Y1042670D01*
X954662Y1045291D01*
X953650Y1047733D01*
X952041Y1049831D01*
X949943Y1051440D01*
X947501Y1052452D01*
X944880Y1052797D01*
X942259Y1052452D01*
X939817Y1051440D01*
X937719Y1049831D01*
X936110Y1047733D01*
X935098Y1045291D01*
X934753Y1042670D01*
X935098Y1040049D01*
X935319Y1039518D01*
X890484Y994683D01*
X888971Y994382D01*
X888642Y994162D01*
X887372Y994841D01*
Y1002883D01*
X917317Y1032828D01*
X919480Y1032543D01*
X922101Y1032888D01*
X924543Y1033900D01*
X926641Y1035509D01*
X928250Y1037607D01*
X929262Y1040049D01*
X929607Y1042670D01*
X929262Y1045291D01*
X928250Y1047733D01*
X926641Y1049831D01*
X924543Y1051440D01*
X922101Y1052452D01*
X919480Y1052797D01*
X916859Y1052452D01*
X914417Y1051440D01*
X912319Y1049831D01*
X910710Y1047733D01*
X909698Y1045291D01*
X909353Y1042670D01*
X909698Y1040049D01*
X910291Y1038620D01*
X887085Y1015415D01*
X885912Y1015901D01*
Y1034907D01*
X887182Y1035308D01*
X889017Y1033900D01*
X891459Y1032888D01*
X891540Y1032878D01*
Y1042670D01*
Y1052462D01*
X891459Y1052452D01*
X889017Y1051440D01*
X887182Y1050032D01*
X885912Y1050433D01*
Y1058030D01*
X897630D01*
Y1076641D01*
X903635Y1082645D01*
X903635Y1082645D01*
X904617Y1084116D01*
X904665Y1084357D01*
X905493Y1084700D01*
X907591Y1086309D01*
X909200Y1088407D01*
X910212Y1090849D01*
X910557Y1093470D01*
X910212Y1096091D01*
X909200Y1098533D01*
X907591Y1100631D01*
X905493Y1102240D01*
X903051Y1103252D01*
X900430Y1103597D01*
X897809Y1103252D01*
X895367Y1102240D01*
X893269Y1100631D01*
X891660Y1098533D01*
X890648Y1096091D01*
X890303Y1093470D01*
X890648Y1090849D01*
X891660Y1088407D01*
X893269Y1086309D01*
X893344Y1085173D01*
X886281Y1078110D01*
X879550D01*
Y1078110D01*
X878292Y1078139D01*
Y1083954D01*
X880093Y1084700D01*
X882191Y1086309D01*
X883800Y1088407D01*
X884812Y1090849D01*
X885157Y1093470D01*
X884812Y1096091D01*
X883800Y1098533D01*
X882191Y1100631D01*
X880093Y1102240D01*
X877651Y1103252D01*
X875030Y1103597D01*
X872409Y1103252D01*
X869967Y1102240D01*
X867869Y1100631D01*
X866260Y1098533D01*
X865248Y1096091D01*
X864999Y1094197D01*
X864969Y1093972D01*
X863723Y1094054D01*
X863699Y1094157D01*
Y1108611D01*
X907175D01*
X917143Y1098642D01*
X917060Y1098533D01*
X916048Y1096091D01*
X915703Y1093470D01*
X916048Y1090849D01*
X916744Y1089169D01*
X906927Y1079352D01*
X906097Y1078110D01*
X901550D01*
Y1058030D01*
X919630D01*
Y1077405D01*
X923925Y1081700D01*
X960240Y1045385D01*
Y1032630D01*
X972995D01*
X973990Y1031635D01*
Y1008940D01*
X969130D01*
Y990860D01*
X989210D01*
Y994721D01*
X995800D01*
Y990860D01*
X1015880D01*
Y1008940D01*
X995800D01*
Y1005079D01*
X989210D01*
Y1008940D01*
X984350D01*
Y1033780D01*
X983955Y1035762D01*
X982832Y1037442D01*
X980320Y1039955D01*
Y1052710D01*
X967565D01*
X933414Y1086861D01*
X934600Y1088407D01*
X935612Y1090849D01*
X935957Y1093470D01*
X935612Y1096091D01*
X934600Y1098533D01*
X932991Y1100631D01*
X930893Y1102240D01*
X928451Y1103252D01*
X926991Y1103444D01*
X912982Y1117452D01*
X911302Y1118575D01*
X909320Y1118969D01*
D02*
G37*
G36*
X656364Y986790D02*
X643890D01*
Y976682D01*
X644050D01*
X647324Y977113D01*
X650374Y978376D01*
X652994Y980386D01*
X655004Y983006D01*
X656267Y986056D01*
X656364Y986790D01*
D02*
G37*
G36*
X638810D02*
X626336D01*
X626433Y986056D01*
X627696Y983006D01*
X629706Y980386D01*
X632326Y978376D01*
X635376Y977113D01*
X638650Y976682D01*
X638810D01*
Y986790D01*
D02*
G37*
G36*
X745490Y995647D02*
X742869Y995302D01*
X740427Y994290D01*
X738329Y992681D01*
X736720Y990583D01*
X735708Y988141D01*
X735363Y985520D01*
X735708Y982899D01*
X736720Y980457D01*
X738329Y978359D01*
X740427Y976750D01*
X742869Y975738D01*
X745490Y975393D01*
X748111Y975738D01*
X750553Y976750D01*
X752651Y978359D01*
X754260Y980457D01*
X754480Y980988D01*
X760850D01*
Y976480D01*
X779220D01*
Y975480D01*
X797300D01*
Y995560D01*
X779220D01*
Y994560D01*
X760850D01*
Y990052D01*
X754480D01*
X754260Y990583D01*
X752651Y992681D01*
X750553Y994290D01*
X748111Y995302D01*
X745490Y995647D01*
D02*
G37*
G36*
X872490Y951717D02*
Y948690D01*
X875517D01*
X874305Y950505D01*
X872490Y951717D01*
D02*
G37*
G36*
X867410D02*
X865595Y950505D01*
X864383Y948690D01*
X867410D01*
Y951717D01*
D02*
G37*
G36*
X745490Y970247D02*
X742869Y969902D01*
X740427Y968890D01*
X738329Y967281D01*
X736720Y965183D01*
X735708Y962741D01*
X735363Y960120D01*
X735708Y957499D01*
X736720Y955057D01*
X738329Y952959D01*
X740427Y951350D01*
X742869Y950338D01*
X745490Y949993D01*
X748111Y950338D01*
X750553Y951350D01*
X752651Y952959D01*
X754260Y955057D01*
X754480Y955588D01*
X799137D01*
X800203Y955351D01*
X800728Y954214D01*
X800578Y953989D01*
X800206Y952120D01*
X800578Y950251D01*
X801436Y948967D01*
X801558Y948120D01*
X801436Y947273D01*
X801026Y946660D01*
X815340D01*
X829654D01*
X829244Y947273D01*
X829122Y948120D01*
X829244Y948967D01*
X830102Y950251D01*
X830474Y952120D01*
X830102Y953989D01*
X829858Y954354D01*
X830380Y955330D01*
X830380D01*
Y964910D01*
X800300D01*
Y964652D01*
X754480D01*
X754260Y965183D01*
X752651Y967281D01*
X750553Y968890D01*
X748111Y969902D01*
X745490Y970247D01*
D02*
G37*
G36*
X961270Y987940D02*
X941190D01*
Y982432D01*
X928120D01*
X926386Y982087D01*
X924915Y981105D01*
X924915Y981105D01*
X908815Y965004D01*
X900090D01*
X898221Y964632D01*
X896637Y963573D01*
X895578Y961989D01*
X895206Y960120D01*
X895578Y958251D01*
X896436Y956967D01*
X896558Y956120D01*
X896436Y955273D01*
X895578Y953989D01*
X895206Y952120D01*
X895578Y950251D01*
X896436Y948967D01*
X896558Y948120D01*
X896436Y947273D01*
X895578Y945989D01*
X895206Y944120D01*
X895578Y942251D01*
X896436Y940967D01*
X896558Y940120D01*
X896436Y939273D01*
X896026Y938660D01*
X910340D01*
X924654D01*
X924244Y939273D01*
X924122Y940120D01*
X924244Y940967D01*
X925102Y942251D01*
X925474Y944120D01*
X925102Y945989D01*
X924629Y946698D01*
X925307Y947968D01*
X932300D01*
Y943610D01*
X952380D01*
Y947968D01*
X995800D01*
Y942460D01*
X1015880D01*
Y962540D01*
X1011020D01*
Y968860D01*
X1015880D01*
Y986940D01*
X995800D01*
Y968860D01*
X1000660D01*
Y962540D01*
X995800D01*
Y957032D01*
X925758D01*
X925090Y958077D01*
X925112Y958302D01*
X925474Y960120D01*
X925102Y961989D01*
X924044Y963573D01*
X922818Y964392D01*
X922458Y965829D01*
X929997Y973368D01*
X941190D01*
Y967860D01*
X961270D01*
Y973368D01*
X969130D01*
Y968860D01*
X989210D01*
Y986940D01*
X969130D01*
Y982432D01*
X961270D01*
Y987940D01*
D02*
G37*
G36*
X875517Y943610D02*
X872490D01*
Y940583D01*
X874305Y941795D01*
X875517Y943610D01*
D02*
G37*
G36*
X867410D02*
X864383D01*
X865595Y941795D01*
X867410Y940583D01*
Y943610D01*
D02*
G37*
G36*
X792360Y946300D02*
X784860D01*
Y939800D01*
X792360D01*
Y946300D01*
D02*
G37*
G36*
X779780D02*
X772280D01*
Y939800D01*
X779780D01*
Y946300D01*
D02*
G37*
G36*
X748030Y944512D02*
Y937260D01*
X755282D01*
X755272Y937341D01*
X754260Y939783D01*
X752651Y941881D01*
X750553Y943490D01*
X748111Y944502D01*
X748030Y944512D01*
D02*
G37*
G36*
X742950D02*
X742869Y944502D01*
X740427Y943490D01*
X738329Y941881D01*
X736720Y939783D01*
X735708Y937341D01*
X735698Y937260D01*
X742950D01*
Y944512D01*
D02*
G37*
G36*
X952380Y938530D02*
X944880D01*
Y932030D01*
X952380D01*
Y938530D01*
D02*
G37*
G36*
X939800D02*
X932300D01*
Y932030D01*
X939800D01*
Y938530D01*
D02*
G37*
G36*
X618490Y932939D02*
Y928370D01*
X623059D01*
X622536Y929632D01*
X621328Y931208D01*
X619753Y932416D01*
X618490Y932939D01*
D02*
G37*
G36*
X613410D02*
X612147Y932416D01*
X610572Y931208D01*
X609364Y929632D01*
X608841Y928370D01*
X613410D01*
Y932939D01*
D02*
G37*
G36*
X792360Y934720D02*
X784860D01*
Y928220D01*
X792360D01*
Y934720D01*
D02*
G37*
G36*
X779780D02*
X772280D01*
Y928220D01*
X779780D01*
Y934720D01*
D02*
G37*
G36*
X755282Y932180D02*
X748030D01*
Y924928D01*
X748111Y924938D01*
X750553Y925950D01*
X752651Y927559D01*
X754260Y929657D01*
X755272Y932099D01*
X755282Y932180D01*
D02*
G37*
G36*
X742950D02*
X735698D01*
X735708Y932099D01*
X736720Y929657D01*
X738329Y927559D01*
X740427Y925950D01*
X742869Y924938D01*
X742950Y924928D01*
Y932180D01*
D02*
G37*
G36*
X718820Y927859D02*
Y923290D01*
X723389D01*
X722866Y924553D01*
X721658Y926128D01*
X720082Y927336D01*
X718820Y927859D01*
D02*
G37*
G36*
X713740D02*
X712477Y927336D01*
X710902Y926128D01*
X709694Y924553D01*
X709171Y923290D01*
X713740D01*
Y927859D01*
D02*
G37*
G36*
X1008380Y928292D02*
Y921040D01*
X1015632D01*
X1015622Y921121D01*
X1014610Y923563D01*
X1013001Y925661D01*
X1010903Y927270D01*
X1008461Y928282D01*
X1008380Y928292D01*
D02*
G37*
G36*
X1003300D02*
X1003219Y928282D01*
X1000777Y927270D01*
X998679Y925661D01*
X997070Y923563D01*
X996058Y921121D01*
X996048Y921040D01*
X1003300D01*
Y928292D01*
D02*
G37*
G36*
X623059Y923290D02*
X618490D01*
Y918721D01*
X619753Y919244D01*
X621328Y920452D01*
X622536Y922028D01*
X623059Y923290D01*
D02*
G37*
G36*
X613410D02*
X608841D01*
X609364Y922028D01*
X610572Y920452D01*
X612147Y919244D01*
X613410Y918721D01*
Y923290D01*
D02*
G37*
G36*
X723389Y918210D02*
X718820D01*
Y913641D01*
X720082Y914164D01*
X721658Y915372D01*
X722866Y916947D01*
X723389Y918210D01*
D02*
G37*
G36*
X713740D02*
X709171D01*
X709694Y916947D01*
X710902Y915372D01*
X712477Y914164D01*
X713740Y913641D01*
Y918210D01*
D02*
G37*
G36*
X712350Y988210D02*
X692270D01*
Y970130D01*
X697778D01*
Y913130D01*
X698123Y911396D01*
X699105Y909925D01*
X734665Y874365D01*
X736136Y873383D01*
X737870Y873038D01*
X737870Y873038D01*
X827790D01*
X828883Y873255D01*
X830327Y872508D01*
X830328Y872501D01*
X831387Y870917D01*
X831752Y870672D01*
X831367Y869402D01*
X820420D01*
X820420Y869402D01*
X818686Y869057D01*
X817215Y868075D01*
X755043Y805902D01*
X748180D01*
Y808870D01*
X730100D01*
Y788790D01*
X747340D01*
X748235Y788638D01*
X748578Y787685D01*
Y653930D01*
X744070D01*
Y633850D01*
X762150D01*
Y653930D01*
X757642D01*
Y786702D01*
X824928Y853988D01*
X827100D01*
X827353Y852718D01*
X826886Y852525D01*
X824764Y850896D01*
X823135Y848774D01*
X822112Y846302D01*
X821762Y843650D01*
X822112Y840998D01*
X823135Y838526D01*
X824764Y836404D01*
X826886Y834775D01*
X829358Y833752D01*
X832010Y833402D01*
X834662Y833752D01*
X837134Y834775D01*
X839176Y836342D01*
X839337Y836394D01*
X840721Y836226D01*
X841240Y835448D01*
X848308Y828380D01*
X848308Y828380D01*
X849086Y827860D01*
X849254Y826477D01*
X849202Y826316D01*
X847635Y824274D01*
X846611Y821802D01*
X846262Y819150D01*
X846611Y816498D01*
X847635Y814026D01*
X849264Y811904D01*
X851386Y810275D01*
X853858Y809251D01*
X856510Y808902D01*
X857189Y808992D01*
X864205Y801975D01*
X865676Y800993D01*
X867410Y800648D01*
X937260D01*
X938994Y800993D01*
X940465Y801975D01*
X950175Y811685D01*
X951157Y813156D01*
X951502Y814890D01*
X951502Y814890D01*
Y866688D01*
X979546D01*
X981281Y867033D01*
X982751Y868015D01*
X992483Y877747D01*
X992749Y877703D01*
X993293Y876326D01*
X993260Y876283D01*
X992248Y873841D01*
X992238Y873760D01*
X1002030D01*
Y871220D01*
X1004570D01*
Y861428D01*
X1004651Y861438D01*
X1007093Y862450D01*
X1009081Y863975D01*
X1009598Y863914D01*
X1010448Y863612D01*
X1010543Y863136D01*
X1011525Y861665D01*
X1020244Y852947D01*
X1018660Y850883D01*
X1017648Y848441D01*
X1017303Y845820D01*
X1017648Y843199D01*
X1018660Y840757D01*
X1020269Y838659D01*
X1022367Y837050D01*
X1024809Y836038D01*
X1027430Y835693D01*
X1030051Y836038D01*
X1032493Y837050D01*
X1034591Y838659D01*
X1036200Y840757D01*
X1037212Y843199D01*
X1037557Y845820D01*
X1037212Y848441D01*
X1036200Y850883D01*
X1034591Y852981D01*
X1032493Y854590D01*
X1030648Y855354D01*
X1030635Y855375D01*
X1030635Y855375D01*
X1026010Y859999D01*
X1026603Y861202D01*
X1027430Y861093D01*
X1030051Y861438D01*
X1032493Y862450D01*
X1034591Y864059D01*
X1036200Y866157D01*
X1037212Y868599D01*
X1037557Y871220D01*
X1037212Y873841D01*
X1036200Y876283D01*
X1034591Y878381D01*
X1032493Y879990D01*
X1030051Y881002D01*
X1027430Y881347D01*
X1024809Y881002D01*
X1022367Y879990D01*
X1020532Y878582D01*
X1019725Y878746D01*
X1019212Y879090D01*
X1018917Y880574D01*
X1017935Y882045D01*
X1017935Y882045D01*
X1013610Y886370D01*
X1012139Y887352D01*
X1010405Y887697D01*
X991491D01*
X991491Y887697D01*
X989757Y887352D01*
X988287Y886370D01*
X988287Y886370D01*
X977669Y875752D01*
X947652D01*
X923926Y899478D01*
X924044Y900667D01*
X925102Y902251D01*
X925474Y904120D01*
X925102Y905989D01*
X924244Y907273D01*
X924122Y908120D01*
X924244Y908967D01*
X925102Y910251D01*
X925474Y912120D01*
X925102Y913989D01*
X924882Y914318D01*
X925561Y915588D01*
X932300D01*
Y910030D01*
X952380D01*
Y914538D01*
X957700D01*
Y910440D01*
X977780D01*
Y928520D01*
X957700D01*
Y923602D01*
X952380D01*
Y928110D01*
X932300D01*
Y924652D01*
X925561D01*
X924882Y925922D01*
X925102Y926251D01*
X925474Y928120D01*
X925102Y929989D01*
X924244Y931273D01*
X924122Y932120D01*
X924244Y932967D01*
X924654Y933580D01*
X910340D01*
X895615D01*
X895119Y932652D01*
X855567D01*
X848895Y939325D01*
X847424Y940307D01*
X845690Y940652D01*
X830561D01*
X830065Y941580D01*
X815340D01*
X801026D01*
X801436Y940967D01*
X801558Y940120D01*
X801436Y939273D01*
X800578Y937989D01*
X800206Y936120D01*
X800578Y934251D01*
X801436Y932967D01*
X801558Y932120D01*
X801436Y931273D01*
X801026Y930660D01*
X815340D01*
Y925580D01*
X800615D01*
X800119Y924652D01*
X787630D01*
X785896Y924307D01*
X785885Y924300D01*
X772280D01*
Y914500D01*
X755530D01*
Y919360D01*
X735450D01*
Y899280D01*
X755530D01*
Y904140D01*
X760630D01*
Y892993D01*
X760097Y892298D01*
X759438Y890707D01*
X759214Y889000D01*
X759438Y887293D01*
X760097Y885702D01*
X761146Y884336D01*
X761495Y884068D01*
X761699Y882345D01*
X761506Y882102D01*
X739747D01*
X706842Y915007D01*
Y970130D01*
X712350D01*
Y988210D01*
D02*
G37*
G36*
X1015632Y915960D02*
X1008380D01*
Y908708D01*
X1008461Y908718D01*
X1010903Y909730D01*
X1013001Y911339D01*
X1014610Y913437D01*
X1015622Y915879D01*
X1015632Y915960D01*
D02*
G37*
G36*
X1003300D02*
X996048D01*
X996058Y915879D01*
X997070Y913437D01*
X998679Y911339D01*
X1000777Y909730D01*
X1003219Y908718D01*
X1003300Y908708D01*
Y915960D01*
D02*
G37*
G36*
X943610Y908138D02*
X940958Y907788D01*
X938486Y906765D01*
X936364Y905136D01*
X934735Y903014D01*
X933711Y900542D01*
X933362Y897890D01*
X933711Y895238D01*
X934735Y892766D01*
X936364Y890644D01*
X938486Y889015D01*
X940958Y887991D01*
X943610Y887642D01*
X946262Y887991D01*
X948734Y889015D01*
X950856Y890644D01*
X952485Y892766D01*
X952560Y892948D01*
X957700D01*
Y888440D01*
X977780D01*
Y906520D01*
X957700D01*
Y902012D01*
X952900D01*
X952485Y903014D01*
X950856Y905136D01*
X948734Y906765D01*
X946262Y907788D01*
X943610Y908138D01*
D02*
G37*
G36*
X999490Y868680D02*
X992238D01*
X992248Y868599D01*
X993260Y866157D01*
X994869Y864059D01*
X996967Y862450D01*
X999409Y861438D01*
X999490Y861428D01*
Y868680D01*
D02*
G37*
G36*
X656590Y857090D02*
X626110D01*
Y832010D01*
X633610D01*
X633862Y830740D01*
X632326Y830104D01*
X629706Y828094D01*
X627696Y825474D01*
X626433Y822424D01*
X626002Y819150D01*
X626433Y815876D01*
X627696Y812826D01*
X629706Y810206D01*
X632326Y808196D01*
X634883Y807137D01*
Y805763D01*
X632326Y804704D01*
X629706Y802694D01*
X627696Y800074D01*
X626433Y797024D01*
X626336Y796290D01*
X641350D01*
X656364D01*
X656267Y797024D01*
X655004Y800074D01*
X652994Y802694D01*
X650374Y804704D01*
X647817Y805763D01*
Y807137D01*
X650374Y808196D01*
X652994Y810206D01*
X655004Y812826D01*
X656267Y815876D01*
X656698Y819150D01*
X656267Y822424D01*
X655004Y825474D01*
X652994Y828094D01*
X650374Y830104D01*
X648838Y830740D01*
X649090Y832010D01*
X656590D01*
Y838710D01*
X674490D01*
Y834850D01*
X694570D01*
Y838710D01*
X706900D01*
Y838350D01*
X723480D01*
Y849430D01*
X706900D01*
Y849070D01*
X694570D01*
Y852930D01*
X674490D01*
Y849070D01*
X656590D01*
Y857090D01*
D02*
G37*
G36*
X745980Y839930D02*
X740230D01*
Y836930D01*
X745980D01*
Y839930D01*
D02*
G37*
G36*
X735150D02*
X729400D01*
Y836930D01*
X735150D01*
Y839930D01*
D02*
G37*
G36*
X1002030Y855947D02*
X999409Y855602D01*
X996967Y854590D01*
X994869Y852981D01*
X993260Y850883D01*
X992248Y848441D01*
X991903Y845820D01*
X992248Y843199D01*
X993260Y840757D01*
X994869Y838659D01*
X996967Y837050D01*
X999409Y836038D01*
X1002030Y835693D01*
X1004651Y836038D01*
X1007093Y837050D01*
X1009191Y838659D01*
X1010800Y840757D01*
X1011812Y843199D01*
X1012157Y845820D01*
X1011812Y848441D01*
X1010800Y850883D01*
X1009191Y852981D01*
X1007093Y854590D01*
X1004651Y855602D01*
X1002030Y855947D01*
D02*
G37*
G36*
X745980Y831850D02*
X740230D01*
Y828850D01*
X745980D01*
Y831850D01*
D02*
G37*
G36*
X735150D02*
X729400D01*
Y828850D01*
X735150D01*
Y831850D01*
D02*
G37*
G36*
X1037470Y830460D02*
X1017390D01*
Y810380D01*
X1037470D01*
Y830460D01*
D02*
G37*
G36*
X1002030Y830547D02*
X999409Y830202D01*
X996967Y829190D01*
X994869Y827581D01*
X993260Y825483D01*
X992248Y823041D01*
X991903Y820420D01*
X992248Y817799D01*
X993260Y815357D01*
X994869Y813259D01*
X996967Y811650D01*
X999409Y810638D01*
X1002030Y810293D01*
X1004651Y810638D01*
X1007093Y811650D01*
X1009191Y813259D01*
X1010800Y815357D01*
X1011812Y817799D01*
X1012157Y820420D01*
X1011812Y823041D01*
X1010800Y825483D01*
X1009191Y827581D01*
X1007093Y829190D01*
X1004651Y830202D01*
X1002030Y830547D01*
D02*
G37*
G36*
X603130Y829190D02*
X583050D01*
Y809110D01*
X603130D01*
Y829190D01*
D02*
G37*
G36*
X832010Y829398D02*
X829358Y829048D01*
X826886Y828025D01*
X824764Y826396D01*
X823135Y824274D01*
X822112Y821802D01*
X821762Y819150D01*
X822112Y816498D01*
X823135Y814026D01*
X824764Y811904D01*
X826886Y810275D01*
X829358Y809251D01*
X832010Y808902D01*
X834662Y809251D01*
X837134Y810275D01*
X839256Y811904D01*
X840885Y814026D01*
X841908Y816498D01*
X842258Y819150D01*
X841908Y821802D01*
X840885Y824274D01*
X839256Y826396D01*
X837134Y828025D01*
X834662Y829048D01*
X832010Y829398D01*
D02*
G37*
G36*
X717140Y830750D02*
X715534Y830430D01*
X706900D01*
Y819350D01*
X711961D01*
Y808870D01*
X708100D01*
Y788790D01*
X726180D01*
Y808870D01*
X722319D01*
Y819350D01*
X723480D01*
Y830430D01*
X718746D01*
X717140Y830750D01*
D02*
G37*
G36*
X656364Y791210D02*
X643890D01*
Y781102D01*
X644050D01*
X647324Y781533D01*
X650374Y782796D01*
X652994Y784806D01*
X655004Y787426D01*
X656267Y790476D01*
X656364Y791210D01*
D02*
G37*
G36*
X638810D02*
X626336D01*
X626433Y790476D01*
X627696Y787426D01*
X629706Y784806D01*
X632326Y782796D01*
X635376Y781533D01*
X638650Y781102D01*
X638810D01*
Y791210D01*
D02*
G37*
G36*
X694570Y830930D02*
X674490D01*
Y812850D01*
X679351D01*
Y795895D01*
X653175Y769719D01*
X624445D01*
X602891Y791274D01*
X603217Y793750D01*
X602872Y796371D01*
X601860Y798813D01*
X600251Y800911D01*
X598153Y802520D01*
X595711Y803532D01*
X593090Y803877D01*
X590469Y803532D01*
X588027Y802520D01*
X585929Y800911D01*
X584320Y798813D01*
X583308Y796371D01*
X582963Y793750D01*
X583308Y791129D01*
X584320Y788687D01*
X585929Y786589D01*
X588027Y784980D01*
X590469Y783968D01*
X593090Y783623D01*
X595566Y783949D01*
X618638Y760878D01*
X620318Y759755D01*
X622300Y759361D01*
X622300Y759361D01*
X655320D01*
X657302Y759755D01*
X658982Y760878D01*
X688193Y790088D01*
X689315Y791768D01*
X689709Y793750D01*
X689709Y793750D01*
Y812850D01*
X694570D01*
Y830930D01*
D02*
G37*
G36*
X1041400Y751329D02*
Y746760D01*
X1045969D01*
X1045446Y748023D01*
X1044238Y749598D01*
X1042663Y750806D01*
X1041400Y751329D01*
D02*
G37*
G36*
X1036320D02*
X1035058Y750806D01*
X1033482Y749598D01*
X1032274Y748023D01*
X1031751Y746760D01*
X1036320D01*
Y751329D01*
D02*
G37*
G36*
X1045969Y741680D02*
X1041400D01*
Y737111D01*
X1042663Y737634D01*
X1044238Y738842D01*
X1045446Y740417D01*
X1045969Y741680D01*
D02*
G37*
G36*
X1036320D02*
X1031751D01*
X1032274Y740417D01*
X1033482Y738842D01*
X1035058Y737634D01*
X1036320Y737111D01*
Y741680D01*
D02*
G37*
G36*
X613410Y737359D02*
Y732790D01*
X617979D01*
X617456Y734053D01*
X616248Y735628D01*
X614673Y736836D01*
X613410Y737359D01*
D02*
G37*
G36*
X608330D02*
X607067Y736836D01*
X605492Y735628D01*
X604284Y734053D01*
X603761Y732790D01*
X608330D01*
Y737359D01*
D02*
G37*
G36*
X617979Y727710D02*
X613410D01*
Y723141D01*
X614673Y723664D01*
X616248Y724872D01*
X617456Y726448D01*
X617979Y727710D01*
D02*
G37*
G36*
X608330D02*
X603761D01*
X604284Y726448D01*
X605492Y724872D01*
X607067Y723664D01*
X608330Y723141D01*
Y727710D01*
D02*
G37*
G36*
X949960Y757671D02*
X807762D01*
Y702310D01*
X949960D01*
Y757671D01*
D02*
G37*
G36*
X704850Y715814D02*
Y701040D01*
X714958D01*
Y703500D01*
X714527Y706774D01*
X713264Y709824D01*
X711254Y712444D01*
X708634Y714454D01*
X705584Y715717D01*
X704850Y715814D01*
D02*
G37*
G36*
X699770D02*
X699036Y715717D01*
X695986Y714454D01*
X693366Y712444D01*
X691356Y709824D01*
X690093Y706774D01*
X689662Y703500D01*
Y701040D01*
X699770D01*
Y715814D01*
D02*
G37*
G36*
X793750Y699259D02*
Y694690D01*
X798319D01*
X797796Y695953D01*
X796588Y697528D01*
X795013Y698736D01*
X793750Y699259D01*
D02*
G37*
G36*
X788670D02*
X787408Y698736D01*
X785832Y697528D01*
X784624Y695953D01*
X784101Y694690D01*
X788670D01*
Y699259D01*
D02*
G37*
G36*
X603250Y691639D02*
Y687070D01*
X607819D01*
X607296Y688333D01*
X606088Y689908D01*
X604512Y691116D01*
X603250Y691639D01*
D02*
G37*
G36*
X598170D02*
X596908Y691116D01*
X595332Y689908D01*
X594124Y688333D01*
X593601Y687070D01*
X598170D01*
Y691639D01*
D02*
G37*
G36*
X798319Y689610D02*
X793750D01*
Y685041D01*
X795013Y685564D01*
X796588Y686772D01*
X797796Y688347D01*
X798319Y689610D01*
D02*
G37*
G36*
X788670D02*
X784101D01*
X784624Y688347D01*
X785832Y686772D01*
X787408Y685564D01*
X788670Y685041D01*
Y689610D01*
D02*
G37*
G36*
X714958Y695960D02*
X704850D01*
Y681186D01*
X705584Y681283D01*
X708634Y682546D01*
X711254Y684556D01*
X713264Y687176D01*
X714527Y690226D01*
X714958Y693500D01*
Y695960D01*
D02*
G37*
G36*
X699770D02*
X689662D01*
Y693500D01*
X690093Y690226D01*
X691356Y687176D01*
X693366Y684556D01*
X695986Y682546D01*
X699036Y681283D01*
X699770Y681186D01*
Y695960D01*
D02*
G37*
G36*
X980440Y716148D02*
X977166Y715717D01*
X974116Y714454D01*
X971496Y712444D01*
X969486Y709824D01*
X968223Y706774D01*
X967792Y703500D01*
Y693500D01*
X968223Y690226D01*
X969486Y687176D01*
X971496Y684556D01*
X974116Y682546D01*
X977166Y681283D01*
X980440Y680852D01*
X983714Y681283D01*
X986764Y682546D01*
X989384Y684556D01*
X991394Y687176D01*
X992657Y690226D01*
X993088Y693500D01*
Y703500D01*
X992657Y706774D01*
X991394Y709824D01*
X989384Y712444D01*
X986764Y714454D01*
X983714Y715717D01*
X980440Y716148D01*
D02*
G37*
G36*
X607819Y681990D02*
X603250D01*
Y677421D01*
X604512Y677944D01*
X606088Y679152D01*
X607296Y680727D01*
X607819Y681990D01*
D02*
G37*
G36*
X598170D02*
X593601D01*
X594124Y680727D01*
X595332Y679152D01*
X596908Y677944D01*
X598170Y677421D01*
Y681990D01*
D02*
G37*
G36*
X706580Y674860D02*
X703580D01*
Y669110D01*
X706580D01*
Y674860D01*
D02*
G37*
G36*
X698500D02*
X695500D01*
Y669110D01*
X698500D01*
Y674860D01*
D02*
G37*
G36*
X706580Y664030D02*
X703580D01*
Y658280D01*
X706580D01*
Y664030D01*
D02*
G37*
G36*
X698500D02*
X695500D01*
Y658280D01*
X698500D01*
Y664030D01*
D02*
G37*
G36*
X740150Y653930D02*
X722070D01*
Y649070D01*
X716080D01*
Y652360D01*
X705000D01*
Y635780D01*
X716080D01*
Y638711D01*
X722070D01*
Y633850D01*
X740150D01*
Y653930D01*
D02*
G37*
G36*
X796290Y642109D02*
Y637540D01*
X800859D01*
X800336Y638802D01*
X799128Y640378D01*
X797552Y641586D01*
X796290Y642109D01*
D02*
G37*
G36*
X791210D02*
X789948Y641586D01*
X788372Y640378D01*
X787164Y638802D01*
X786641Y637540D01*
X791210D01*
Y642109D01*
D02*
G37*
G36*
X930910Y634489D02*
Y629920D01*
X935479D01*
X934956Y631183D01*
X933748Y632758D01*
X932172Y633966D01*
X930910Y634489D01*
D02*
G37*
G36*
X925830D02*
X924567Y633966D01*
X922992Y632758D01*
X921784Y631183D01*
X921261Y629920D01*
X925830D01*
Y634489D01*
D02*
G37*
G36*
X800859Y632460D02*
X796290D01*
Y627891D01*
X797552Y628414D01*
X799128Y629622D01*
X800336Y631198D01*
X800859Y632460D01*
D02*
G37*
G36*
X791210D02*
X786641D01*
X787164Y631198D01*
X788372Y629622D01*
X789948Y628414D01*
X791210Y627891D01*
Y632460D01*
D02*
G37*
G36*
X935479Y624840D02*
X930910D01*
Y620271D01*
X932172Y620794D01*
X933748Y622002D01*
X934956Y623577D01*
X935479Y624840D01*
D02*
G37*
G36*
X925830D02*
X921261D01*
X921784Y623577D01*
X922992Y622002D01*
X924567Y620794D01*
X925830Y620271D01*
Y624840D01*
D02*
G37*
G36*
X1017740Y630785D02*
Y615950D01*
X1032575D01*
X1032486Y616848D01*
X1031483Y620155D01*
X1029855Y623202D01*
X1027663Y625873D01*
X1024992Y628064D01*
X1021945Y629693D01*
X1018639Y630696D01*
X1017740Y630785D01*
D02*
G37*
G36*
X1012660D02*
X1011762Y630696D01*
X1008455Y629693D01*
X1005408Y628064D01*
X1002737Y625873D01*
X1000546Y623202D01*
X998917Y620155D01*
X997914Y616848D01*
X997825Y615950D01*
X1012660D01*
Y630785D01*
D02*
G37*
G36*
X606940Y628530D02*
X586860D01*
Y608450D01*
X606940D01*
Y628530D01*
D02*
G37*
G36*
X659130Y656430D02*
X628650D01*
Y631350D01*
X636149D01*
X636402Y630080D01*
X634866Y629444D01*
X632246Y627434D01*
X630236Y624814D01*
X628973Y621764D01*
X628542Y618490D01*
X628973Y615216D01*
X630236Y612166D01*
X632246Y609546D01*
X634866Y607536D01*
X637423Y606477D01*
Y605103D01*
X634866Y604044D01*
X632246Y602034D01*
X630236Y599414D01*
X628973Y596364D01*
X628876Y595630D01*
X643890D01*
X658904D01*
X658807Y596364D01*
X657544Y599414D01*
X655534Y602034D01*
X652914Y604044D01*
X650357Y605103D01*
Y606477D01*
X652914Y607536D01*
X655534Y609546D01*
X657544Y612166D01*
X658807Y615216D01*
X659238Y618490D01*
X658807Y621764D01*
X657544Y624814D01*
X655534Y627434D01*
X652914Y629444D01*
X651378Y630080D01*
X651630Y631350D01*
X659130D01*
Y638711D01*
X686000D01*
Y635780D01*
X686180D01*
Y622450D01*
X682110D01*
Y604370D01*
X702190D01*
Y622450D01*
X696540D01*
Y635780D01*
X697080D01*
Y652360D01*
X686000D01*
Y649070D01*
X659130D01*
Y656430D01*
D02*
G37*
G36*
X1032575Y610870D02*
X1017740D01*
Y596035D01*
X1018639Y596124D01*
X1021945Y597127D01*
X1024992Y598755D01*
X1027663Y600947D01*
X1029855Y603618D01*
X1031483Y606665D01*
X1032486Y609972D01*
X1032575Y610870D01*
D02*
G37*
G36*
X1012660D02*
X997825D01*
X997914Y609972D01*
X998917Y606665D01*
X1000546Y603618D01*
X1002737Y600947D01*
X1005408Y598755D01*
X1008455Y597127D01*
X1011762Y596124D01*
X1012660Y596035D01*
Y610870D01*
D02*
G37*
G36*
X596900Y603217D02*
X594279Y602872D01*
X591837Y601860D01*
X589739Y600251D01*
X588130Y598153D01*
X587118Y595711D01*
X586773Y593090D01*
X587118Y590469D01*
X588130Y588027D01*
X589739Y585929D01*
X591837Y584320D01*
X594279Y583308D01*
X596900Y582963D01*
X599521Y583308D01*
X601963Y584320D01*
X604061Y585929D01*
X605670Y588027D01*
X606682Y590469D01*
X607027Y593090D01*
X606682Y595711D01*
X605670Y598153D01*
X604061Y600251D01*
X601963Y601860D01*
X599521Y602872D01*
X596900Y603217D01*
D02*
G37*
G36*
X658904Y590550D02*
X646430D01*
Y580442D01*
X646590D01*
X649864Y580873D01*
X652914Y582136D01*
X655534Y584146D01*
X657544Y586766D01*
X658807Y589816D01*
X658904Y590550D01*
D02*
G37*
G36*
X641350D02*
X628876D01*
X628973Y589816D01*
X630236Y586766D01*
X632246Y584146D01*
X634866Y582136D01*
X637916Y580873D01*
X641190Y580442D01*
X641350D01*
Y590550D01*
D02*
G37*
G36*
X730250Y562242D02*
Y554990D01*
X737502D01*
X737492Y555071D01*
X736480Y557513D01*
X734871Y559611D01*
X732773Y561220D01*
X730331Y562232D01*
X730250Y562242D01*
D02*
G37*
G36*
X725170D02*
X725089Y562232D01*
X722647Y561220D01*
X720549Y559611D01*
X718940Y557513D01*
X717928Y555071D01*
X717918Y554990D01*
X725170D01*
Y562242D01*
D02*
G37*
G36*
X843120Y568800D02*
X818040D01*
Y543720D01*
X843120D01*
Y568800D01*
D02*
G37*
G36*
X737502Y549910D02*
X730250D01*
Y542658D01*
X730331Y542668D01*
X732773Y543680D01*
X734871Y545289D01*
X736480Y547387D01*
X737492Y549829D01*
X737502Y549910D01*
D02*
G37*
G36*
X725170D02*
X717918D01*
X717928Y549829D01*
X718940Y547387D01*
X720549Y545289D01*
X722647Y543680D01*
X725089Y542668D01*
X725170Y542658D01*
Y549910D01*
D02*
G37*
G36*
X971550Y530349D02*
Y525780D01*
X976119D01*
X975596Y527043D01*
X974388Y528618D01*
X972812Y529826D01*
X971550Y530349D01*
D02*
G37*
G36*
X966470D02*
X965208Y529826D01*
X963632Y528618D01*
X962424Y527043D01*
X961901Y525780D01*
X966470D01*
Y530349D01*
D02*
G37*
G36*
X702190Y600450D02*
X682110D01*
Y582370D01*
X686971D01*
Y562610D01*
X687365Y560628D01*
X688487Y558947D01*
X717670Y529765D01*
Y517010D01*
X737750D01*
Y537090D01*
X724995D01*
X697329Y564755D01*
Y582370D01*
X702190D01*
Y600450D01*
D02*
G37*
G36*
X976119Y520700D02*
X971550D01*
Y516131D01*
X972812Y516654D01*
X974388Y517862D01*
X975596Y519437D01*
X976119Y520700D01*
D02*
G37*
G36*
X966470D02*
X961901D01*
X962424Y519437D01*
X963632Y517862D01*
X965208Y516654D01*
X966470Y516131D01*
Y520700D01*
D02*
G37*
G36*
X982740Y630950D02*
X947660D01*
Y610549D01*
X850256Y513146D01*
X841103D01*
X839524Y515204D01*
X836904Y517214D01*
X833854Y518477D01*
X830580Y518908D01*
X827306Y518477D01*
X824256Y517214D01*
X821636Y515204D01*
X819626Y512584D01*
X818363Y509534D01*
X817932Y506260D01*
X818363Y502986D01*
X819626Y499936D01*
X821636Y497316D01*
X824256Y495306D01*
X827306Y494043D01*
X830580Y493612D01*
X833854Y494043D01*
X836904Y495306D01*
X839524Y497316D01*
X839875Y497774D01*
X853440D01*
X855429Y498036D01*
X857283Y498804D01*
X858875Y500025D01*
X954719Y595870D01*
X982740D01*
Y630950D01*
D02*
G37*
G36*
X974090Y483359D02*
Y478790D01*
X978659D01*
X978136Y480052D01*
X976928Y481628D01*
X975352Y482836D01*
X974090Y483359D01*
D02*
G37*
G36*
X969010D02*
X967747Y482836D01*
X966172Y481628D01*
X964964Y480052D01*
X964441Y478790D01*
X969010D01*
Y483359D01*
D02*
G37*
G36*
X1027430Y523029D02*
X1023011Y522594D01*
X1018763Y521305D01*
X1014847Y519212D01*
X1011415Y516395D01*
X1008598Y512963D01*
X1006505Y509047D01*
X1005216Y504799D01*
X1004781Y500380D01*
X1005216Y495961D01*
X1006505Y491713D01*
X1008598Y487797D01*
X1011415Y484365D01*
X1014847Y481548D01*
X1018763Y479455D01*
X1023011Y478166D01*
X1027430Y477731D01*
X1031849Y478166D01*
X1036097Y479455D01*
X1040013Y481548D01*
X1043445Y484365D01*
X1046262Y487797D01*
X1048355Y491713D01*
X1049644Y495961D01*
X1050079Y500380D01*
X1049644Y504799D01*
X1048355Y509047D01*
X1046262Y512963D01*
X1043445Y516395D01*
X1040013Y519212D01*
X1036097Y521305D01*
X1031849Y522594D01*
X1027430Y523029D01*
D02*
G37*
G36*
X580000D02*
X575581Y522594D01*
X571333Y521305D01*
X567417Y519212D01*
X563985Y516395D01*
X561168Y512963D01*
X559075Y509047D01*
X557786Y504799D01*
X557351Y500380D01*
X557786Y495961D01*
X559075Y491713D01*
X561168Y487797D01*
X563985Y484365D01*
X567417Y481548D01*
X571333Y479455D01*
X575581Y478166D01*
X580000Y477731D01*
X584419Y478166D01*
X588667Y479455D01*
X592583Y481548D01*
X596015Y484365D01*
X598832Y487797D01*
X600925Y491713D01*
X602214Y495961D01*
X602649Y500380D01*
X602214Y504799D01*
X600925Y509047D01*
X598832Y512963D01*
X596015Y516395D01*
X592583Y519212D01*
X588667Y521305D01*
X584419Y522594D01*
X580000Y523029D01*
D02*
G37*
G36*
X612140Y480819D02*
Y476250D01*
X616709D01*
X616186Y477513D01*
X614978Y479088D01*
X613402Y480296D01*
X612140Y480819D01*
D02*
G37*
G36*
X607060D02*
X605798Y480296D01*
X604222Y479088D01*
X603014Y477513D01*
X602491Y476250D01*
X607060D01*
Y480819D01*
D02*
G37*
G36*
X978659Y473710D02*
X974090D01*
Y469141D01*
X975352Y469664D01*
X976928Y470872D01*
X978136Y472448D01*
X978659Y473710D01*
D02*
G37*
G36*
X969010D02*
X964441D01*
X964964Y472448D01*
X966172Y470872D01*
X967747Y469664D01*
X969010Y469141D01*
Y473710D01*
D02*
G37*
G36*
X616709Y471170D02*
X612140D01*
Y466601D01*
X613402Y467124D01*
X614978Y468332D01*
X616186Y469907D01*
X616709Y471170D01*
D02*
G37*
G36*
X607060D02*
X602491D01*
X603014Y469907D01*
X604222Y468332D01*
X605798Y467124D01*
X607060Y466601D01*
Y471170D01*
D02*
G37*
%LPD*%
G36*
X864999Y1092743D02*
X865248Y1090849D01*
X866260Y1088407D01*
X867869Y1086309D01*
X869228Y1085267D01*
Y1053973D01*
X868560Y1052980D01*
X863699D01*
Y1092783D01*
X863723Y1092886D01*
X864969Y1092968D01*
X864999Y1092743D01*
D02*
G37*
G36*
X837478Y1036320D02*
X837823Y1034586D01*
X838805Y1033115D01*
X848480Y1023441D01*
Y1019762D01*
X847307Y1019276D01*
X832057Y1034526D01*
Y1056760D01*
X837478D01*
Y1036320D01*
D02*
G37*
G36*
X895798Y922318D02*
X895578Y921989D01*
X895206Y920120D01*
X895578Y918251D01*
X896245Y917252D01*
X895567Y915982D01*
X865887D01*
X859551Y922318D01*
X859635Y923588D01*
X895119D01*
X895798Y922318D01*
D02*
G37*
G36*
X860805Y908245D02*
X860805Y908245D01*
X862276Y907263D01*
X864010Y906918D01*
X894788D01*
X895510Y905648D01*
X895206Y904120D01*
X895578Y902251D01*
X896637Y900667D01*
X898221Y899608D01*
X900090Y899236D01*
X911349D01*
X942438Y868148D01*
Y816767D01*
X935383Y809712D01*
X911986D01*
X911555Y810982D01*
X912756Y811904D01*
X914385Y814026D01*
X915408Y816498D01*
X915423Y816610D01*
X905510D01*
X895597D01*
X895611Y816498D01*
X896635Y814026D01*
X898264Y811904D01*
X899465Y810982D01*
X899034Y809712D01*
X887486D01*
X887055Y810982D01*
X888256Y811904D01*
X889885Y814026D01*
X890909Y816498D01*
X891258Y819150D01*
X890909Y821802D01*
X889885Y824274D01*
X888318Y826316D01*
X888266Y826477D01*
X888434Y827860D01*
X889212Y828380D01*
X896280Y835448D01*
X896280Y835448D01*
X896799Y836226D01*
X898183Y836394D01*
X898344Y836342D01*
X900386Y834775D01*
X902858Y833752D01*
X905510Y833402D01*
X908162Y833752D01*
X910634Y834775D01*
X912756Y836404D01*
X914385Y838526D01*
X915408Y840998D01*
X915758Y843650D01*
X915408Y846302D01*
X914385Y848774D01*
X912756Y850896D01*
X910634Y852525D01*
X908162Y853549D01*
X905510Y853898D01*
X902858Y853549D01*
X900386Y852525D01*
X898877Y851367D01*
X897607Y851993D01*
Y858259D01*
X897262Y859993D01*
X896280Y861464D01*
X896280Y861464D01*
X889232Y868511D01*
X889858Y869681D01*
X890840Y869486D01*
X892709Y869858D01*
X894294Y870917D01*
X895352Y872501D01*
X895674Y874120D01*
X896846Y874745D01*
X898109Y873482D01*
X898164Y873062D01*
X898924Y871227D01*
X900132Y869652D01*
X901708Y868444D01*
X903542Y867684D01*
X905510Y867425D01*
X907478Y867684D01*
X909313Y868444D01*
X910888Y869652D01*
X912096Y871227D01*
X912856Y873062D01*
X913115Y875030D01*
X912856Y876998D01*
X912096Y878832D01*
X910888Y880408D01*
X909313Y881616D01*
X907478Y882376D01*
X905510Y882635D01*
X903542Y882376D01*
X902475Y881934D01*
X896585Y887825D01*
X895724Y888400D01*
Y894870D01*
X895352Y896739D01*
X894294Y898323D01*
X892709Y899382D01*
X890840Y899754D01*
X888971Y899382D01*
X887687Y898524D01*
X886840Y898402D01*
X885993Y898524D01*
X884709Y899382D01*
X882840Y899754D01*
X880971Y899382D01*
X879687Y898524D01*
X878840Y898402D01*
X877993Y898524D01*
X876709Y899382D01*
X874840Y899754D01*
X872971Y899382D01*
X871687Y898524D01*
X870840Y898402D01*
X869993Y898524D01*
X868709Y899382D01*
X866840Y899754D01*
X864971Y899382D01*
X863687Y898524D01*
X862840Y898402D01*
X861993Y898524D01*
X860709Y899382D01*
X858840Y899754D01*
X856971Y899382D01*
X855687Y898524D01*
X854840Y898402D01*
X853993Y898524D01*
X852709Y899382D01*
X850840Y899754D01*
X848971Y899382D01*
X847687Y898524D01*
X846840Y898402D01*
X845993Y898524D01*
X844709Y899382D01*
X842840Y899754D01*
X840971Y899382D01*
X839687Y898524D01*
X838840Y898402D01*
X837993Y898524D01*
X836709Y899382D01*
X834840Y899754D01*
X832971Y899382D01*
X831387Y898323D01*
X830328Y896739D01*
X829956Y894870D01*
Y886145D01*
X825913Y882102D01*
X770114D01*
X769921Y882345D01*
X770125Y884068D01*
X770474Y884336D01*
X771523Y885702D01*
X772182Y887293D01*
X772406Y889000D01*
X772182Y890707D01*
X771523Y892298D01*
X770990Y892993D01*
Y904140D01*
X776380D01*
X778362Y904535D01*
X780042Y905658D01*
X780605Y906220D01*
X792360D01*
Y915588D01*
X800119D01*
X800798Y914318D01*
X800578Y913989D01*
X800206Y912120D01*
X800578Y910251D01*
X801436Y908967D01*
X801558Y908120D01*
X801436Y907273D01*
X800578Y905989D01*
X800206Y904120D01*
X800578Y902251D01*
X801637Y900667D01*
X803221Y899608D01*
X805090Y899236D01*
X825590D01*
X827459Y899608D01*
X829043Y900667D01*
X830102Y902251D01*
X830474Y904120D01*
X830102Y905989D01*
X829244Y907273D01*
X829122Y908120D01*
X829244Y908967D01*
X830102Y910251D01*
X830474Y912120D01*
X830102Y913989D01*
X829882Y914318D01*
X830561Y915588D01*
X853463D01*
X860805Y908245D01*
D02*
G37*
G36*
X870308Y866305D02*
Y865060D01*
X870653Y863326D01*
X871635Y861855D01*
X876478Y857013D01*
Y852770D01*
X875886Y852525D01*
X873764Y850896D01*
X872135Y848774D01*
X871112Y846302D01*
X870924Y844879D01*
X869583Y844424D01*
X868792Y845215D01*
X867322Y846197D01*
X866374Y846386D01*
X865385Y848774D01*
X863756Y850896D01*
X861634Y852525D01*
X859162Y853549D01*
X857739Y853736D01*
X857284Y855077D01*
X869038Y866831D01*
X870308Y866305D01*
D02*
G37*
%LPC*%
G36*
X908050Y829063D02*
Y821690D01*
X915423D01*
X915408Y821802D01*
X914385Y824274D01*
X912756Y826396D01*
X910634Y828025D01*
X908162Y829048D01*
X908050Y829063D01*
D02*
G37*
G36*
X902970D02*
X902858Y829048D01*
X900386Y828025D01*
X898264Y826396D01*
X896635Y824274D01*
X895611Y821802D01*
X895597Y821690D01*
X902970D01*
Y829063D01*
D02*
G37*
%LPD*%
D10*
X967740Y897480D02*
D03*
Y919480D02*
D03*
X942340Y919070D02*
D03*
Y941070D02*
D03*
X770890Y1007520D02*
D03*
Y985520D02*
D03*
X858520Y1021940D02*
D03*
Y1043940D02*
D03*
X1005840Y999900D02*
D03*
Y977900D02*
D03*
X782320Y937260D02*
D03*
Y915260D02*
D03*
X979170Y999900D02*
D03*
Y977900D02*
D03*
X702310Y1001170D02*
D03*
Y979170D02*
D03*
X684530Y843890D02*
D03*
Y821890D02*
D03*
X692150Y613410D02*
D03*
Y591410D02*
D03*
D11*
X834840Y979620D02*
D03*
X842840D02*
D03*
X850840D02*
D03*
X858840D02*
D03*
X866840D02*
D03*
X874840D02*
D03*
X882840D02*
D03*
X890840D02*
D03*
Y884620D02*
D03*
X882840D02*
D03*
X874840D02*
D03*
X866840D02*
D03*
X858840D02*
D03*
X850840D02*
D03*
X842840D02*
D03*
X834840D02*
D03*
D12*
X910340Y960120D02*
D03*
Y952120D02*
D03*
Y944120D02*
D03*
Y936120D02*
D03*
Y928120D02*
D03*
Y920120D02*
D03*
Y912120D02*
D03*
Y904120D02*
D03*
X815340D02*
D03*
Y912120D02*
D03*
Y920120D02*
D03*
Y928120D02*
D03*
Y936120D02*
D03*
Y944120D02*
D03*
Y952120D02*
D03*
D13*
Y960120D02*
D03*
D14*
X788260Y985520D02*
D03*
X810260D02*
D03*
X717140Y798830D02*
D03*
X739140D02*
D03*
X731110Y643890D02*
D03*
X753110D02*
D03*
X910590Y1068070D02*
D03*
X888590D02*
D03*
X702310Y1064260D02*
D03*
X680310D02*
D03*
D15*
X691540Y644070D02*
D03*
X710540D02*
D03*
X701040Y666570D02*
D03*
D16*
X702490Y1039470D02*
D03*
Y1020470D02*
D03*
X724990Y1029970D02*
D03*
X715190Y843890D02*
D03*
Y824890D02*
D03*
X737690Y834390D02*
D03*
D17*
X1027430Y845820D02*
Y852170D01*
X1014730Y864870D02*
X1027430Y852170D01*
X1014730Y864870D02*
Y878840D01*
X893380Y884620D02*
X905510Y872490D01*
X782770Y915260D02*
X787630Y920120D01*
X815340D01*
X782320Y915260D02*
X782770D01*
X854960Y920500D02*
Y926850D01*
Y920500D02*
X864010Y911450D01*
X910340D01*
X845690Y936120D02*
X854960Y926850D01*
X815340Y936120D02*
X845690D01*
X854960Y928120D02*
X910340D01*
X867410Y805180D02*
X937260D01*
X856510Y816080D02*
X867410Y805180D01*
X866840Y871042D02*
Y884620D01*
X844445Y848648D02*
X866840Y871042D01*
X905510Y872490D02*
Y875030D01*
X890840Y884620D02*
X893380D01*
X856510Y816080D02*
Y819150D01*
X890840Y988630D02*
X944880Y1042670D01*
X890840Y979620D02*
Y988630D01*
X815340Y920120D02*
X854960D01*
X858840Y979620D02*
Y1021620D01*
X858520Y1021940D02*
X858840Y1021620D01*
X850840Y979620D02*
Y1009334D01*
X827525Y1032649D02*
X850840Y1009334D01*
X842840Y979620D02*
Y1008354D01*
X821175Y1030019D02*
X842840Y1008354D01*
X821175Y1030019D02*
Y1055885D01*
X786130Y1090930D02*
X821175Y1055885D01*
X811530Y1084580D02*
Y1090930D01*
Y1084580D02*
X827525Y1068585D01*
Y1032649D02*
Y1068585D01*
X828940Y985520D02*
X834840Y979620D01*
X810260Y985520D02*
X828940D01*
X770890D02*
X788260D01*
X745490D02*
X770890D01*
X745490Y960120D02*
X815340D01*
X866840Y979620D02*
Y1009974D01*
X881010Y843650D02*
Y858890D01*
X874840Y865060D02*
X881010Y858890D01*
X874840Y865060D02*
Y884620D01*
X876012Y831585D02*
X886008D01*
X893075Y838652D01*
X882840Y868494D02*
X893075Y858259D01*
X882840Y868494D02*
Y884620D01*
X856510Y843650D02*
X857965Y845105D01*
X867032Y831585D02*
X879467Y819150D01*
X851513Y831585D02*
X867032D01*
X844445Y838652D02*
Y848648D01*
Y838652D02*
X851513Y831585D01*
X893075Y838652D02*
Y858259D01*
X910340Y920120D02*
X941290D01*
X942340Y919070D01*
X839470Y1066800D02*
X842010Y1064260D01*
X925830Y1087120D02*
Y1093470D01*
X842010Y1036320D02*
Y1064260D01*
Y1036320D02*
X856390Y1021940D01*
X858520D01*
X702310Y913130D02*
Y979170D01*
X739140Y801370D02*
X756920D01*
X643890Y643890D02*
X644500Y644500D01*
X753110Y643890D02*
Y788580D01*
X979170Y977900D02*
X979805Y977265D01*
X928120Y977900D02*
X947420D01*
X910340Y960120D02*
X928120Y977900D01*
X947420D02*
X979170D01*
X910720Y952500D02*
X1005840D01*
X942340Y919070D02*
X967330D01*
X874840Y979620D02*
Y1006920D01*
X881380Y1013460D01*
Y1060860D01*
X888590Y1068070D01*
X925830Y1090930D02*
Y1093470D01*
X888590Y1068070D02*
Y1074010D01*
X900430Y1085850D01*
Y1093470D01*
X866840Y1009974D02*
X873760Y1016894D01*
Y1089660D01*
X876300Y1092200D01*
X919480Y1041400D02*
Y1042670D01*
X882840Y979620D02*
Y1004760D01*
X919480Y1041400D01*
X925830Y1093470D02*
Y1097280D01*
X857965Y845105D02*
X861060Y842010D01*
X865587D01*
X876012Y831585D01*
X850840Y866080D02*
Y884620D01*
X753110Y788580D02*
X823050Y858520D01*
X843280D01*
X850840Y866080D01*
X756920Y801370D02*
X820420Y864870D01*
X838200D01*
X842840Y869510D01*
Y884620D01*
X937260Y805180D02*
X946970Y814890D01*
X944020Y897480D02*
X967740D01*
X1010405Y883165D02*
X1014730Y878840D01*
X910340Y904120D02*
X912875D01*
X946970Y870025D01*
X991491Y883165D02*
X1010405D01*
X946970Y814890D02*
Y871220D01*
X979546D01*
X991491Y883165D01*
X702310Y913130D02*
X737870Y877570D01*
X827790D01*
X834840Y884620D01*
X943610Y751321D02*
Y738625D01*
X941071Y736086D01*
X935993D01*
X933453Y738625D01*
Y751321D01*
X928375Y736086D02*
Y751321D01*
X918218Y736086D01*
Y751321D01*
X913140D02*
X908062D01*
X910601D01*
Y736086D01*
X913140D01*
X908062D01*
X900444Y751321D02*
Y741164D01*
X895366Y736086D01*
X890287Y741164D01*
Y751321D01*
X875052D02*
X885209D01*
Y736086D01*
X875052D01*
X885209Y743704D02*
X880130D01*
X869974Y736086D02*
Y751321D01*
X862356D01*
X859817Y748782D01*
Y743704D01*
X862356Y741164D01*
X869974D01*
X864895D02*
X859817Y736086D01*
X844582Y748782D02*
X847121Y751321D01*
X852200D01*
X854739Y748782D01*
Y746243D01*
X852200Y743704D01*
X847121D01*
X844582Y741164D01*
Y738625D01*
X847121Y736086D01*
X852200D01*
X854739Y738625D01*
X839504Y736086D02*
Y746243D01*
X834425Y751321D01*
X829347Y746243D01*
Y736086D01*
Y743704D01*
X839504D01*
X824269Y751321D02*
Y736086D01*
X814112D01*
X943610Y723895D02*
Y713738D01*
X938532Y708660D01*
X933453Y713738D01*
Y723895D01*
X928375Y708660D02*
X923297D01*
X925836D01*
Y723895D01*
X928375Y721356D01*
X915679Y708660D02*
Y711199D01*
X913140D01*
Y708660D01*
X915679D01*
X902983Y721356D02*
X900444Y723895D01*
X895366D01*
X892826Y721356D01*
Y711199D01*
X895366Y708660D01*
X900444D01*
X902983Y711199D01*
Y721356D01*
D18*
X776380Y909320D02*
X782320Y915260D01*
X765810Y909320D02*
X776380D01*
X745490D02*
X765810D01*
Y889000D02*
Y909320D01*
X858520Y1043940D02*
Y1113790D01*
X717140Y801370D02*
Y825570D01*
X702310Y1001170D02*
Y1020290D01*
X925830Y1087120D02*
X970280Y1042670D01*
X702490Y1039470D02*
Y1064080D01*
X642010Y1039470D02*
X702490D01*
X610870Y1064260D02*
X680310D01*
X582930Y1036320D02*
X610870Y1064260D01*
X582930Y1007110D02*
Y1036320D01*
Y1007110D02*
X599440Y990600D01*
X642010Y843890D02*
X715190D01*
X643890Y643890D02*
X691360D01*
Y614200D02*
Y643890D01*
X692150Y562610D02*
Y591410D01*
Y562610D02*
X727710Y527050D01*
X710720Y643890D02*
X731110D01*
X684530Y793750D02*
Y821890D01*
X655320Y764540D02*
X684530Y793750D01*
X622300Y764540D02*
X655320D01*
X593090Y793750D02*
X622300Y764540D01*
X979170Y999900D02*
X1005840D01*
Y952500D02*
Y977900D01*
X910590Y1068070D02*
Y1075690D01*
X925830Y1090930D01*
X735330D02*
X758190Y1113790D01*
X909320D01*
X925830Y1097280D01*
X979170Y999900D02*
Y1033780D01*
X970280Y1042670D02*
X979170Y1033780D01*
D19*
X961390Y613410D02*
X965200D01*
X830580Y505460D02*
X853440D01*
X961390Y613410D01*
D20*
X703580Y1107440D02*
D03*
X716280Y920750D02*
D03*
X791210Y692150D02*
D03*
X905510Y875030D02*
D03*
X793750Y635000D02*
D03*
X969010Y523240D02*
D03*
X1038860Y744220D02*
D03*
X610870Y730250D02*
D03*
X600710Y684530D02*
D03*
X609600Y473710D02*
D03*
X971550Y476250D02*
D03*
X631190Y1109980D02*
D03*
X615950Y925830D02*
D03*
X928370Y627380D02*
D03*
X1032510Y1056640D02*
D03*
D21*
X727710Y527050D02*
D03*
X596900Y618490D02*
D03*
X593090Y819150D02*
D03*
X599440Y1016000D02*
D03*
X1005840Y952500D02*
D03*
X951230Y977900D02*
D03*
X745490Y909320D02*
D03*
X842010Y1066800D02*
D03*
X1027430Y820420D02*
D03*
D22*
X727710Y552450D02*
D03*
X596900Y593090D02*
D03*
X894080Y1042670D02*
D03*
X919480D02*
D03*
X944880D02*
D03*
X593090Y793750D02*
D03*
X599440Y990600D02*
D03*
X1005840Y918500D02*
D03*
X951230Y1003300D02*
D03*
X875030Y1093470D02*
D03*
X900430D02*
D03*
X925830D02*
D03*
X745490Y934720D02*
D03*
Y960120D02*
D03*
Y985520D02*
D03*
X842010Y1092200D02*
D03*
X1002030Y820420D02*
D03*
X1027430Y871220D02*
D03*
X1002030Y845820D02*
D03*
X1027430D02*
D03*
X1002030Y871220D02*
D03*
X811530Y1090930D02*
D03*
X786130D02*
D03*
X760730D02*
D03*
D23*
X765810Y889000D02*
D03*
D24*
X643890Y593090D02*
D03*
Y618490D02*
D03*
X641350Y989330D02*
D03*
Y1014730D02*
D03*
Y793750D02*
D03*
Y819150D02*
D03*
D25*
X643890Y643890D02*
D03*
X641350Y1040130D02*
D03*
Y844550D02*
D03*
D26*
X970280Y1042670D02*
D03*
X951230Y1093470D02*
D03*
X735330Y1090930D02*
D03*
D27*
X832010Y819150D02*
D03*
X856510D02*
D03*
X881010D02*
D03*
X905510D02*
D03*
X832010Y843650D02*
D03*
X856510D02*
D03*
X881010D02*
D03*
X905510D02*
D03*
X943610Y897890D02*
D03*
D28*
X702310Y698500D02*
D03*
X980440D02*
D03*
D29*
X830580Y556260D02*
D03*
D30*
Y506260D02*
D03*
D31*
X1015200Y613410D02*
D03*
D32*
X965200D02*
D03*
D33*
X1027430Y1103630D02*
D03*
Y500380D02*
D03*
X580000D02*
D03*
Y1103630D02*
D03*
D34*
X869950Y946150D02*
D03*
M02*
