G04 Layer_Color=32896*
%FSLAX24Y24*%
%MOIN*%
G70*
G01*
G75*
%ADD20C,0.0100*%
G36*
X34093Y18860D02*
X33980D01*
X33790Y18670D01*
X33600D01*
X33480Y18550D01*
X33190D01*
X33095Y18455D01*
X32325D01*
X32240Y18540D01*
X31930D01*
X31790Y18680D01*
X31600D01*
X31440Y18840D01*
X31327D01*
X31130Y19037D01*
X34270D01*
X34093Y18860D01*
D02*
G37*
G36*
X41040Y25543D02*
Y25430D01*
X41230Y25240D01*
Y25050D01*
X41350Y24930D01*
Y24640D01*
X41445Y24545D01*
Y23775D01*
X41360Y23690D01*
Y23380D01*
X41220Y23240D01*
Y23050D01*
X41060Y22890D01*
Y22777D01*
X40863Y22580D01*
Y25720D01*
X41040Y25543D01*
D02*
G37*
D20*
X32740Y27450D02*
G03*
X32740Y27450I-50J0D01*
G01*
X40446Y37372D02*
G03*
X40097Y37703I-846J-541D01*
G01*
X39103D02*
G03*
X38754Y37372I497J-872D01*
G01*
Y36290D02*
G03*
X39171Y35923I846J541D01*
G01*
X40029D02*
G03*
X40446Y36290I-429J908D01*
G01*
X36997Y39453D02*
G03*
X36997Y38547I453J-453D01*
G01*
X37903D02*
G03*
X37903Y39453I-453J453D01*
G01*
X35161Y20916D02*
G03*
X35161Y20916I-2461J0D01*
G01*
X41445Y24150D02*
G03*
X41445Y24150I-2461J0D01*
G01*
X29480Y21750D02*
X29780D01*
X29480Y20750D02*
Y21750D01*
Y20750D02*
X29780D01*
Y20250D02*
Y22250D01*
X27480D02*
X29780D01*
X27480Y20250D02*
Y22250D01*
Y20250D02*
X29780D01*
X36650Y32747D02*
Y32787D01*
X37250Y32747D02*
Y32787D01*
X24228Y22244D02*
X26078D01*
X24228Y26456D02*
X26078D01*
Y22244D02*
Y26456D01*
X24228Y22244D02*
Y26456D01*
X24425Y22244D02*
Y26456D01*
X24228Y24350D02*
X24425D01*
X38700Y40550D02*
Y41550D01*
X34700D02*
X38700D01*
X34700Y40550D02*
X38700D01*
X34700D02*
Y41550D01*
X35080Y26253D02*
Y27700D01*
X32440Y26253D02*
Y27700D01*
X35080D01*
X32440Y26253D02*
X35080D01*
X35300Y22900D02*
X35500Y22700D01*
X35100D02*
X35500D01*
X35100D02*
X35300Y22900D01*
X35100D02*
X35500D01*
X24128Y37844D02*
X25978D01*
X24128Y42056D02*
X25978D01*
Y37844D02*
Y42056D01*
X24128Y37844D02*
Y42056D01*
X24325Y37844D02*
Y42056D01*
X24128Y39950D02*
X24325D01*
X24128Y30144D02*
X25978D01*
X24128Y34356D02*
X25978D01*
Y30144D02*
Y34356D01*
X24128Y30144D02*
Y34356D01*
X24325Y30144D02*
Y34356D01*
X24128Y32250D02*
X24325D01*
X40446Y36290D02*
Y37372D01*
X38754Y36290D02*
Y37372D01*
X37950Y42550D02*
Y43550D01*
X33950D02*
X37950D01*
X33950Y42550D02*
X37950D01*
X33950D02*
Y43550D01*
X36400Y31600D02*
Y43050D01*
X30450D02*
X36400D01*
X30450Y31600D02*
Y43050D01*
Y31600D02*
X36400D01*
X28858Y35300D02*
X29842D01*
Y39300D01*
X28858D02*
X29842D01*
X28858Y35300D02*
Y39300D01*
X32650Y43500D02*
X33650D01*
X32650Y41500D02*
Y43500D01*
Y41500D02*
X33650D01*
Y43500D01*
X33313Y29750D02*
X33353D01*
X33313Y29150D02*
X33353D01*
X31463Y29750D02*
X31503D01*
X31463Y29150D02*
X31503D01*
X35947Y28600D02*
X35987D01*
X35947Y28000D02*
X35987D01*
X31130Y19037D02*
X34270D01*
X33303Y21900D02*
X33703D01*
X33503Y21700D02*
Y22100D01*
Y19732D02*
Y20131D01*
X39769Y25150D02*
X40168D01*
X37800D02*
X38200D01*
X38000Y24950D02*
Y25350D01*
X40863Y22580D02*
Y25720D01*
X28450Y42450D02*
Y43450D01*
Y42450D02*
X32450D01*
X28450Y43450D02*
X32450D01*
Y42450D02*
Y43450D01*
X33247Y30850D02*
X33287D01*
X33247Y30250D02*
X33287D01*
X38100Y32650D02*
X38200Y32550D01*
Y32350D01*
X38100Y32250D01*
X37700D01*
X37600Y32350D01*
Y32550D01*
X37700Y32650D01*
X38200Y33250D02*
Y32850D01*
X37900D01*
X38000Y33050D01*
Y33150D01*
X37900Y33250D01*
X37700D01*
X37600Y33150D01*
Y32950D01*
X37700Y32850D01*
X25630Y26960D02*
Y27360D01*
X25730Y27460D01*
X25930D01*
X26030Y27360D01*
Y26960D01*
X25930Y26860D01*
X25730D01*
X25830Y27060D02*
X25630Y26860D01*
X25730D02*
X25630Y26960D01*
X25430Y27360D02*
X25330Y27460D01*
X25130D01*
X25030Y27360D01*
Y27260D01*
X25130Y27160D01*
X25230D01*
X25130D01*
X25030Y27060D01*
Y26960D01*
X25130Y26860D01*
X25330D01*
X25430Y26960D01*
X27060Y29090D02*
Y28490D01*
Y28790D01*
X26660D01*
Y29090D01*
Y28490D01*
X26060Y28990D02*
X26160Y29090D01*
X26360D01*
X26460Y28990D01*
Y28890D01*
X26360Y28790D01*
X26160D01*
X26060Y28690D01*
Y28590D01*
X26160Y28490D01*
X26360D01*
X26460Y28590D01*
X25860Y28990D02*
X25760Y29090D01*
X25560D01*
X25461Y28990D01*
Y28890D01*
X25560Y28790D01*
X25660D01*
X25560D01*
X25461Y28690D01*
Y28590D01*
X25560Y28490D01*
X25760D01*
X25860Y28590D01*
X28300Y20000D02*
Y19400D01*
X28600D01*
X28700Y19500D01*
Y19700D01*
X28600Y19800D01*
X28300D01*
X28900Y19500D02*
X29000Y19400D01*
X29200D01*
X29300Y19500D01*
Y19600D01*
X29200Y19700D01*
X29300Y19800D01*
Y19900D01*
X29200Y20000D01*
X29000D01*
X28900Y19900D01*
Y19800D01*
X29000Y19700D01*
X28900Y19600D01*
Y19500D01*
X29000Y19700D02*
X29200D01*
X34250Y27300D02*
Y26800D01*
X34150Y26700D01*
X33950D01*
X33850Y26800D01*
Y27300D01*
X33350Y26700D02*
Y27300D01*
X33650Y27000D01*
X33250D01*
X34200Y31450D02*
Y30950D01*
X34100Y30850D01*
X33900D01*
X33800Y30950D01*
Y31450D01*
X33200Y30850D02*
X33600D01*
X33200Y31250D01*
Y31350D01*
X33300Y31450D01*
X33500D01*
X33600Y31350D01*
X30500Y29900D02*
X29900D01*
Y29600D01*
X30000Y29500D01*
X30200D01*
X30300Y29600D01*
Y29900D01*
Y29700D02*
X30500Y29500D01*
X30400Y29300D02*
X30500Y29200D01*
Y29000D01*
X30400Y28900D01*
X30000D01*
X29900Y29000D01*
Y29200D01*
X30000Y29300D01*
X30100D01*
X30200Y29200D01*
Y28900D01*
X34250Y29950D02*
Y30550D01*
X33950D01*
X33850Y30450D01*
Y30250D01*
X33950Y30150D01*
X34250D01*
X34050D02*
X33850Y29950D01*
X33650Y30450D02*
X33550Y30550D01*
X33350D01*
X33250Y30450D01*
Y30350D01*
X33350Y30250D01*
X33250Y30150D01*
Y30050D01*
X33350Y29950D01*
X33550D01*
X33650Y30050D01*
Y30150D01*
X33550Y30250D01*
X33650Y30350D01*
Y30450D01*
X33550Y30250D02*
X33350D01*
X25100Y42446D02*
Y42846D01*
X25200Y42946D01*
X25400D01*
X25500Y42846D01*
Y42446D01*
X25400Y42346D01*
X25200D01*
X25300Y42546D02*
X25100Y42346D01*
X25200D02*
X25100Y42446D01*
X24500Y42346D02*
X24900D01*
X24500Y42746D01*
Y42846D01*
X24600Y42946D01*
X24800D01*
X24900Y42846D01*
X23650Y33500D02*
X23250D01*
X23150Y33600D01*
Y33800D01*
X23250Y33900D01*
X23650D01*
X23750Y33800D01*
Y33600D01*
X23550Y33700D02*
X23750Y33500D01*
Y33600D02*
X23650Y33500D01*
X23750Y33300D02*
Y33100D01*
Y33200D01*
X23150D01*
X23250Y33300D01*
X38900Y40650D02*
X39500D01*
Y40950D01*
X39400Y41050D01*
X39200D01*
X39100Y40950D01*
Y40650D01*
X39500Y41250D02*
Y41650D01*
X39400D01*
X39000Y41250D01*
X38900D01*
X38100Y42600D02*
X38700D01*
Y42900D01*
X38600Y43000D01*
X38400D01*
X38300Y42900D01*
Y42600D01*
X38700Y43600D02*
X38600Y43400D01*
X38400Y43200D01*
X38200D01*
X38100Y43300D01*
Y43500D01*
X38200Y43600D01*
X38300D01*
X38400Y43500D01*
Y43200D01*
X33700Y43700D02*
Y44300D01*
X33400D01*
X33300Y44200D01*
Y44000D01*
X33400Y43900D01*
X33700D01*
X32700Y44300D02*
X33100D01*
Y44000D01*
X32900Y44100D01*
X32800D01*
X32700Y44000D01*
Y43800D01*
X32800Y43700D01*
X33000D01*
X33100Y43800D01*
X30650Y43650D02*
Y44250D01*
X30350D01*
X30250Y44150D01*
Y43950D01*
X30350Y43850D01*
X30650D01*
X30050Y44150D02*
X29950Y44250D01*
X29750D01*
X29650Y44150D01*
Y44050D01*
X29750Y43950D01*
X29850D01*
X29750D01*
X29650Y43850D01*
Y43750D01*
X29750Y43650D01*
X29950D01*
X30050Y43750D01*
X29790Y39700D02*
Y40300D01*
X29490D01*
X29390Y40200D01*
Y40000D01*
X29490Y39900D01*
X29790D01*
X29190Y39700D02*
X28990D01*
X29090D01*
Y40300D01*
X29190Y40200D01*
X36600Y21800D02*
X36000D01*
Y22100D01*
X36100Y22200D01*
X36500D01*
X36600Y22100D01*
Y21800D01*
X36000Y22400D02*
Y22600D01*
Y22500D01*
X36600D01*
X36500Y22400D01*
X35500Y19200D02*
X35400Y19100D01*
X35200D01*
X35100Y19200D01*
Y19600D01*
X35200Y19700D01*
X35400D01*
X35500Y19600D01*
X35700Y19200D02*
X35800Y19100D01*
X36000D01*
X36100Y19200D01*
Y19300D01*
X36000Y19400D01*
X35900D01*
X36000D01*
X36100Y19500D01*
Y19600D01*
X36000Y19700D01*
X35800D01*
X35700Y19600D01*
X34600Y30400D02*
X34500Y30300D01*
X34300D01*
X34200Y30400D01*
Y30800D01*
X34300Y30900D01*
X34500D01*
X34600Y30800D01*
X35200Y30900D02*
X34800D01*
X35200Y30500D01*
Y30400D01*
X35100Y30300D01*
X34900D01*
X34800Y30400D01*
X36210Y29450D02*
X36310Y29550D01*
X36510D01*
X36610Y29450D01*
Y29050D01*
X36510Y28950D01*
X36310D01*
X36210Y29050D01*
X36010Y28950D02*
X35810D01*
X35910D01*
Y29550D01*
X36010Y29450D01*
X37750Y40250D02*
Y39850D01*
X38150Y40250D01*
X38250D01*
X38350Y40150D01*
Y39950D01*
X38250Y39850D01*
X40700Y36950D02*
Y37150D01*
Y37050D01*
X41300D01*
X41200Y36950D01*
X22550Y43750D02*
Y43150D01*
Y43450D01*
X22150D01*
Y43750D01*
Y43150D01*
X21550Y43650D02*
X21650Y43750D01*
X21850D01*
X21950Y43650D01*
Y43550D01*
X21850Y43450D01*
X21650D01*
X21550Y43350D01*
Y43250D01*
X21650Y43150D01*
X21850D01*
X21950Y43250D01*
X21350Y43150D02*
X21150D01*
X21250D01*
Y43750D01*
X21350Y43650D01*
X21800Y35700D02*
X22400D01*
X22100D01*
Y35300D01*
X21800D01*
X22400D01*
X21900Y34700D02*
X21800Y34800D01*
Y35000D01*
X21900Y35100D01*
X22000D01*
X22100Y35000D01*
Y34800D01*
X22200Y34700D01*
X22300D01*
X22400Y34800D01*
Y35000D01*
X22300Y35100D01*
X22400Y34101D02*
Y34500D01*
X22000Y34101D01*
X21900D01*
X21800Y34200D01*
Y34400D01*
X21900Y34500D01*
X40990Y27460D02*
X41090Y27560D01*
X41290D01*
X41390Y27460D01*
Y27060D01*
X41290Y26960D01*
X41090D01*
X40990Y27060D01*
X40390Y27560D02*
X40590Y27460D01*
X40790Y27260D01*
Y27060D01*
X40690Y26960D01*
X40490D01*
X40390Y27060D01*
Y27160D01*
X40490Y27260D01*
X40790D01*
M02*
