M48
;Layer_Color=9474304
;FILE_FORMAT=2:5
INCH,LZ
;TYPE=PLATED
T1F00S00C0.00787
T2F00S00C0.03000
T3F00S00C0.03543
T4F00S00C0.03937
T5F00S00C0.04724
T6F00S00C0.07874
%
T01
X03125Y025
X03655Y0247
X03815Y0206
X03825Y01875
X0409Y0293
X02405Y02875
X02365Y02695
X024Y01865
X02425Y03645
X0282Y03625
X02935Y03475
X0277Y0436
X02485Y0437
X03425Y03725
X03565Y03445
X04065Y0416
T02
X02935Y0358
Y0368
Y0378
Y0388
X02895Y04295
X02995
X03095
X03195
X03315Y043
Y042
X0327563Y0332146
Y03225
X0337209
X0346854
X03565
Y0332146
X0346854
X0337209
X03715Y03535
T03
X0327Y0199315
Y0219
X02865Y02175
Y02075
X02325Y02435
X02225
Y03225
X02325
Y03995
X02225
X0352Y04105
X0362
X0372
X0382
X03745Y0395
Y0385
X0396Y0375
Y0361614
X03945Y0343
X04045
Y0333
X03945
Y0323
X04045
X03745Y04305
X03645
X03545
X03445
T04
X0386Y0275
X0309383Y0274617
X029Y0275
X02785
X02535Y02535
Y02435
Y02335
X02525Y03125
Y03225
Y03325
Y03895
Y03995
Y04095
T05
X038Y02415
X0399685
T06
X04045Y0197
X0228346
Y04345
X04045
M30
