G04 Layer_Color=8388736*
%FSLAX44Y44*%
%MOMM*%
G71*
G01*
G75*
%ADD37R,1.4040X0.8540*%
%ADD38R,1.5540X1.7540*%
%ADD39R,1.7540X1.5540*%
%ADD40R,2.7540X0.7040*%
%ADD41O,2.7540X0.7040*%
%ADD42O,0.7040X2.7540*%
%ADD43C,1.7780*%
%ADD44R,3.2540X3.2540*%
%ADD45C,3.2540*%
%ADD46C,2.2540*%
%ADD47R,2.2540X2.2540*%
%ADD48C,1.7540*%
%ADD49R,1.7540X1.7540*%
%ADD50O,2.2540X3.2540*%
%ADD51R,1.7540X1.7540*%
%ADD52R,2.7940X2.2540*%
%ADD53O,2.7940X2.2540*%
%ADD54C,1.2540*%
%ADD55C,0.7540*%
D37*
X1704532Y1031240D02*
D03*
X1727032Y1021740D02*
D03*
Y1040740D02*
D03*
X1711971Y636270D02*
D03*
X1734471Y626770D02*
D03*
Y645770D02*
D03*
X1708342Y834390D02*
D03*
X1730842Y824890D02*
D03*
Y843890D02*
D03*
D38*
X1750482Y868680D02*
D03*
X1728481D02*
D03*
X1705211Y1064260D02*
D03*
X1727211D02*
D03*
X1756651Y670560D02*
D03*
X1734651D02*
D03*
X1713062Y600710D02*
D03*
X1735061D02*
D03*
X1706891Y801370D02*
D03*
X1728891D02*
D03*
X1424951Y970280D02*
D03*
X1402952D02*
D03*
X1587511Y985520D02*
D03*
X1609512D02*
D03*
D39*
X1498611Y1114650D02*
D03*
Y1136650D02*
D03*
X1727211Y980440D02*
D03*
Y1002440D02*
D03*
X1615452Y915260D02*
D03*
Y937260D02*
D03*
X1421142Y952500D02*
D03*
Y930500D02*
D03*
X1539252Y1043940D02*
D03*
Y1021940D02*
D03*
X1626882Y985520D02*
D03*
Y1007520D02*
D03*
X1455432Y941070D02*
D03*
Y919070D02*
D03*
X1428761Y902970D02*
D03*
Y880970D02*
D03*
D40*
X1582431Y960120D02*
D03*
D41*
Y952120D02*
D03*
Y944120D02*
D03*
Y936120D02*
D03*
Y928120D02*
D03*
Y920120D02*
D03*
Y912120D02*
D03*
Y904120D02*
D03*
X1487431D02*
D03*
Y912120D02*
D03*
Y920120D02*
D03*
Y928120D02*
D03*
Y936120D02*
D03*
Y944120D02*
D03*
Y952120D02*
D03*
Y960120D02*
D03*
D42*
X1562932Y884620D02*
D03*
X1554931D02*
D03*
X1546931D02*
D03*
X1538931D02*
D03*
X1530931D02*
D03*
X1522931D02*
D03*
X1514931D02*
D03*
X1506931D02*
D03*
Y979620D02*
D03*
X1514931D02*
D03*
X1522931D02*
D03*
X1530931D02*
D03*
X1538931D02*
D03*
X1546931D02*
D03*
X1554931D02*
D03*
X1562932D02*
D03*
D43*
X1450352Y894080D02*
D03*
X1492262Y843650D02*
D03*
X1516761D02*
D03*
X1541261D02*
D03*
X1565762D02*
D03*
X1492262Y819150D02*
D03*
X1516761D02*
D03*
X1541261D02*
D03*
X1565762D02*
D03*
X1362722Y1051560D02*
D03*
X1440191Y778510D02*
D03*
X1690381Y938530D02*
D03*
X1729751Y1140460D02*
D03*
D44*
X1399552Y623570D02*
D03*
D45*
X1349552D02*
D03*
X1850401Y487680D02*
D03*
X1852941Y1146810D02*
D03*
X1355101D02*
D03*
X1361452Y494030D02*
D03*
D46*
X1567191Y498640D02*
D03*
D47*
Y548640D02*
D03*
D48*
X1395741Y871220D02*
D03*
X1370341Y845820D02*
D03*
X1395741D02*
D03*
X1370341Y871220D02*
D03*
X1395741Y820420D02*
D03*
X1555762Y1092200D02*
D03*
X1637041Y1090930D02*
D03*
X1611642D02*
D03*
X1586241D02*
D03*
X1652281Y985520D02*
D03*
Y960120D02*
D03*
Y934720D02*
D03*
X1471942Y1093470D02*
D03*
X1497341D02*
D03*
X1522742D02*
D03*
X1451622Y995680D02*
D03*
X1391931Y918500D02*
D03*
X1761501Y989330D02*
D03*
X1760231Y793750D02*
D03*
X1452892Y1042670D02*
D03*
X1478291D02*
D03*
X1503692D02*
D03*
X1761501Y594360D02*
D03*
X1677939Y552450D02*
D03*
D49*
X1370341Y820420D02*
D03*
X1555762Y1066800D02*
D03*
X1652281Y909320D02*
D03*
X1451622Y970280D02*
D03*
X1391931Y952500D02*
D03*
X1761501Y1014730D02*
D03*
X1760231Y819150D02*
D03*
X1761501Y619760D02*
D03*
X1677939Y527050D02*
D03*
D50*
X1391931Y699770D02*
D03*
X1670061D02*
D03*
D51*
X1662442Y1090930D02*
D03*
X1446541Y1093470D02*
D03*
X1427491Y1042670D02*
D03*
D52*
X1825002Y844550D02*
D03*
X1826272Y1040130D02*
D03*
X1825002Y645160D02*
D03*
D53*
Y819150D02*
D03*
Y793750D02*
D03*
X1826272Y1014730D02*
D03*
Y989330D02*
D03*
X1825002Y619760D02*
D03*
Y594360D02*
D03*
D54*
X1492262Y875030D02*
D03*
D55*
X1631962Y883920D02*
D03*
M02*
