G04 Layer_Color=16711935*
%FSLAX44Y44*%
%MOMM*%
G71*
G01*
G75*
%ADD50R,1.7540X1.5540*%
%ADD54R,1.5540X1.7540*%
%ADD57C,1.7780*%
%ADD58R,1.7540X1.7540*%
%ADD59C,1.7540*%
%ADD60C,1.0540*%
%ADD61C,1.2540*%
%ADD62O,2.7940X2.2540*%
%ADD63R,2.7940X2.2540*%
%ADD64R,1.7540X1.7540*%
%ADD65O,2.2540X3.2540*%
%ADD66R,2.2540X2.2540*%
%ADD67C,2.2540*%
%ADD68C,3.2540*%
%ADD69R,3.2540X3.2540*%
%ADD70C,4.2540*%
%ADD71R,3.3528X2.2860*%
G04:AMPARAMS|DCode=72|XSize=1.0922mm|YSize=2.286mm|CornerRadius=0mm|HoleSize=0mm|Usage=FLASHONLY|Rotation=0.000|XOffset=0mm|YOffset=0mm|HoleType=Round|Shape=Octagon|*
%AMOCTAGOND72*
4,1,8,-0.2731,1.1430,0.2731,1.1430,0.5461,0.8700,0.5461,-0.8700,0.2731,-1.1430,-0.2731,-1.1430,-0.5461,-0.8700,-0.5461,0.8700,-0.2731,1.1430,0.0*
%
%ADD72OCTAGOND72*%

%ADD73R,1.0922X2.2860*%
%ADD74R,2.0040X2.9040*%
G04:AMPARAMS|DCode=75|XSize=2.904mm|YSize=2.004mm|CornerRadius=0mm|HoleSize=0mm|Usage=FLASHONLY|Rotation=90.000|XOffset=0mm|YOffset=0mm|HoleType=Round|Shape=Octagon|*
%AMOCTAGOND75*
4,1,8,0.5010,1.4520,-0.5010,1.4520,-1.0020,0.9510,-1.0020,-0.9510,-0.5010,-1.4520,0.5010,-1.4520,1.0020,-0.9510,1.0020,0.9510,0.5010,1.4520,0.0*
%
%ADD75OCTAGOND75*%

D50*
X938530Y843280D02*
D03*
Y821280D02*
D03*
D54*
X857660Y748030D02*
D03*
X835660D02*
D03*
X810670D02*
D03*
X788670D02*
D03*
X924560Y718820D02*
D03*
X902560D02*
D03*
X812800Y782320D02*
D03*
X834800D02*
D03*
D57*
X703580Y1107440D02*
D03*
X716280Y920750D02*
D03*
X791210Y692150D02*
D03*
X832010Y819150D02*
D03*
X856510D02*
D03*
X881010D02*
D03*
X905510D02*
D03*
X832010Y843650D02*
D03*
X856510D02*
D03*
X881010D02*
D03*
X905510D02*
D03*
X943610Y897890D02*
D03*
D58*
X727710Y527050D02*
D03*
X596900Y618490D02*
D03*
X593090Y819150D02*
D03*
X599440Y1016000D02*
D03*
X1005840Y952500D02*
D03*
X947420Y977900D02*
D03*
X745490Y909320D02*
D03*
X842010Y1066800D02*
D03*
X1027430Y820420D02*
D03*
D59*
X727710Y552450D02*
D03*
X596900Y593090D02*
D03*
X894080Y1042670D02*
D03*
X919480D02*
D03*
X944880D02*
D03*
X593090Y793750D02*
D03*
X599440Y990600D02*
D03*
X1005840Y918500D02*
D03*
X947420Y1003300D02*
D03*
X875030Y1093470D02*
D03*
X900430D02*
D03*
X925830D02*
D03*
X745490Y934720D02*
D03*
Y960120D02*
D03*
Y985520D02*
D03*
X842010Y1092200D02*
D03*
X1002030Y820420D02*
D03*
X1027430Y871220D02*
D03*
X1002030Y845820D02*
D03*
X1027430D02*
D03*
X1002030Y871220D02*
D03*
X811530Y1090930D02*
D03*
X786130D02*
D03*
X760730D02*
D03*
D60*
X765810Y889000D02*
D03*
D61*
X905510Y875030D02*
D03*
D62*
X643890Y593090D02*
D03*
Y618490D02*
D03*
X641350Y989330D02*
D03*
Y1014730D02*
D03*
Y793750D02*
D03*
Y819150D02*
D03*
D63*
X643890Y643890D02*
D03*
X641350Y1040130D02*
D03*
Y844550D02*
D03*
D64*
X970280Y1042670D02*
D03*
X951230Y1093470D02*
D03*
X735330Y1090930D02*
D03*
D65*
X702310Y698500D02*
D03*
X980440D02*
D03*
D66*
X830580Y556260D02*
D03*
D67*
Y506260D02*
D03*
D68*
X1015200Y613410D02*
D03*
D69*
X965200D02*
D03*
D70*
X1027430Y1103630D02*
D03*
Y500380D02*
D03*
X580000D02*
D03*
Y1103630D02*
D03*
D71*
X857504Y651590D02*
D03*
D72*
X834390Y718820D02*
D03*
D73*
X857504D02*
D03*
X880618D02*
D03*
D74*
X896620Y557530D02*
D03*
D75*
Y600530D02*
D03*
M02*
