G04 Layer_Color=8388736*
%FSLAX24Y24*%
%MOIN*%
G70*
G01*
G75*
%ADD52R,0.0691X0.0612*%
%ADD53O,0.0277X0.1084*%
%ADD54O,0.1084X0.0277*%
%ADD55R,0.1084X0.0277*%
%ADD56R,0.0612X0.0691*%
%ADD57R,0.0336X0.0553*%
%ADD58R,0.0553X0.0336*%
%ADD59O,0.0887X0.1281*%
%ADD60C,0.0494*%
%ADD61R,0.0691X0.0691*%
%ADD62C,0.0691*%
%ADD63C,0.0415*%
%ADD64R,0.0691X0.0691*%
%ADD65O,0.1100X0.0887*%
%ADD66R,0.1100X0.0887*%
%ADD67C,0.0700*%
%ADD68R,0.0887X0.0887*%
%ADD69C,0.0887*%
%ADD70C,0.1281*%
%ADD71R,0.1281X0.1281*%
%ADD72C,0.1675*%
%ADD73C,0.0376*%
D52*
X26550Y39416D02*
D03*
Y38550D02*
D03*
X28200Y29866D02*
D03*
Y29000D02*
D03*
X28800Y24366D02*
D03*
Y23500D02*
D03*
X38100Y35334D02*
D03*
Y36200D02*
D03*
X37100Y36184D02*
D03*
Y37050D02*
D03*
X30350Y39666D02*
D03*
Y38800D02*
D03*
X33800Y40234D02*
D03*
Y41100D02*
D03*
X39600Y39366D02*
D03*
Y38500D02*
D03*
X30800Y36900D02*
D03*
Y36034D02*
D03*
X38550Y39366D02*
D03*
Y38500D02*
D03*
X27650Y39416D02*
D03*
Y38550D02*
D03*
X26950Y33224D02*
D03*
Y32358D02*
D03*
X27250Y24150D02*
D03*
Y23284D02*
D03*
D53*
X32868Y38568D02*
D03*
X33183D02*
D03*
X33498D02*
D03*
X33813D02*
D03*
X34128D02*
D03*
X34443D02*
D03*
X34757D02*
D03*
X35072D02*
D03*
Y34828D02*
D03*
X34757D02*
D03*
X34443D02*
D03*
X34128D02*
D03*
X33813D02*
D03*
X33498D02*
D03*
X33183D02*
D03*
X32868D02*
D03*
D54*
X35840Y37800D02*
D03*
Y37485D02*
D03*
Y37170D02*
D03*
Y36855D02*
D03*
Y36540D02*
D03*
Y36225D02*
D03*
Y35910D02*
D03*
Y35595D02*
D03*
X32100D02*
D03*
Y35910D02*
D03*
Y36225D02*
D03*
Y36540D02*
D03*
Y36855D02*
D03*
Y37170D02*
D03*
Y37485D02*
D03*
D55*
Y37800D02*
D03*
D56*
X31034Y38800D02*
D03*
X31900D02*
D03*
X28234Y31450D02*
D03*
X29100D02*
D03*
X28784Y25350D02*
D03*
X29650D02*
D03*
X35850Y42050D02*
D03*
X34984D02*
D03*
X27650Y41900D02*
D03*
X26784D02*
D03*
D57*
X27226Y25357D02*
D03*
X27974D02*
D03*
X27600Y26243D02*
D03*
D58*
X27657Y40924D02*
D03*
Y40176D02*
D03*
X28543Y40550D02*
D03*
X28157Y33224D02*
D03*
Y32476D02*
D03*
X29043Y32850D02*
D03*
D59*
X29000Y27500D02*
D03*
X30938Y27462D02*
D03*
X27850Y27500D02*
D03*
X38600D02*
D03*
D60*
X27700Y43600D02*
D03*
X28200Y36250D02*
D03*
X35650Y34450D02*
D03*
X31250Y25000D02*
D03*
X38150Y20600D02*
D03*
X40900Y29300D02*
D03*
X24050Y28750D02*
D03*
X23650Y26950D02*
D03*
X24000Y18650D02*
D03*
X38250Y18750D02*
D03*
X24850Y43700D02*
D03*
X24250Y36450D02*
D03*
X36550Y24700D02*
D03*
X40650Y41600D02*
D03*
D61*
X28650Y20750D02*
D03*
X39600Y37500D02*
D03*
X37450Y38500D02*
D03*
X29350Y35800D02*
D03*
X33150Y42000D02*
D03*
X40450Y32300D02*
D03*
D62*
X28650Y21750D02*
D03*
X22250Y24350D02*
D03*
X35200Y41050D02*
D03*
X36200D02*
D03*
X37200D02*
D03*
X22250Y32250D02*
D03*
Y39950D02*
D03*
X39600Y36161D02*
D03*
X37450Y39500D02*
D03*
X34450Y43050D02*
D03*
X35450D02*
D03*
X36450D02*
D03*
X29350Y36800D02*
D03*
Y37800D02*
D03*
Y38800D02*
D03*
X33150Y43000D02*
D03*
X39450Y32300D02*
D03*
X40450Y34300D02*
D03*
X39450Y33300D02*
D03*
X40450D02*
D03*
X39450Y34300D02*
D03*
X31950Y42950D02*
D03*
X30950D02*
D03*
X29950D02*
D03*
D63*
X29350Y34750D02*
D03*
D64*
X23250Y24350D02*
D03*
X38200Y41050D02*
D03*
X23250Y32250D02*
D03*
Y39950D02*
D03*
X37450Y43050D02*
D03*
X28950Y42950D02*
D03*
D65*
X25350Y23350D02*
D03*
Y24350D02*
D03*
X25250Y38950D02*
D03*
Y39950D02*
D03*
Y31250D02*
D03*
Y32250D02*
D03*
D66*
X25350Y25350D02*
D03*
X25250Y40950D02*
D03*
Y33250D02*
D03*
D67*
X32756Y32250D02*
D03*
X33721D02*
D03*
X34685D02*
D03*
X35650D02*
D03*
X32756Y33215D02*
D03*
X33721D02*
D03*
X34685D02*
D03*
X35650D02*
D03*
X37150Y35350D02*
D03*
D68*
X32700Y21900D02*
D03*
D69*
Y19931D02*
D03*
D70*
X39969Y24150D02*
D03*
D71*
X38000D02*
D03*
D72*
X40450Y43450D02*
D03*
Y19700D02*
D03*
X22835D02*
D03*
Y43450D02*
D03*
D73*
X34250Y37250D02*
D03*
M02*
