G04 Layer_Color=8421504*
%FSLAX44Y44*%
%MOMM*%
G71*
G01*
G75*
%ADD44R,1.6016X1.4016*%
%ADD45O,0.5516X2.6016*%
%ADD46O,2.6016X0.5516*%
%ADD47R,2.6016X0.5516*%
%ADD48R,1.4016X1.6016*%
%ADD49R,0.7016X1.2516*%
%ADD50R,1.2516X0.7016*%
D44*
X967740Y897480D02*
D03*
Y919480D02*
D03*
X942340Y919070D02*
D03*
Y941070D02*
D03*
X770890Y1007520D02*
D03*
Y985520D02*
D03*
X858520Y1021940D02*
D03*
Y1043940D02*
D03*
X1005840Y999900D02*
D03*
Y977900D02*
D03*
X782320Y937260D02*
D03*
Y915260D02*
D03*
X979170Y999900D02*
D03*
Y977900D02*
D03*
X702310Y1001170D02*
D03*
Y979170D02*
D03*
X684530Y843890D02*
D03*
Y821890D02*
D03*
X692150Y613410D02*
D03*
Y591410D02*
D03*
D45*
X834840Y979620D02*
D03*
X842840D02*
D03*
X850840D02*
D03*
X858840D02*
D03*
X866840D02*
D03*
X874840D02*
D03*
X882840D02*
D03*
X890840D02*
D03*
Y884620D02*
D03*
X882840D02*
D03*
X874840D02*
D03*
X866840D02*
D03*
X858840D02*
D03*
X850840D02*
D03*
X842840D02*
D03*
X834840D02*
D03*
D46*
X910340Y960120D02*
D03*
Y952120D02*
D03*
Y944120D02*
D03*
Y936120D02*
D03*
Y928120D02*
D03*
Y920120D02*
D03*
Y912120D02*
D03*
Y904120D02*
D03*
X815340D02*
D03*
Y912120D02*
D03*
Y920120D02*
D03*
Y928120D02*
D03*
Y936120D02*
D03*
Y944120D02*
D03*
Y952120D02*
D03*
D47*
Y960120D02*
D03*
D48*
X788260Y985520D02*
D03*
X810260D02*
D03*
X717140Y798830D02*
D03*
X739140D02*
D03*
X731110Y643890D02*
D03*
X753110D02*
D03*
X910590Y1068070D02*
D03*
X888590D02*
D03*
X702310Y1064260D02*
D03*
X680310D02*
D03*
D49*
X691540Y644070D02*
D03*
X710540D02*
D03*
X701040Y666570D02*
D03*
D50*
X702490Y1039470D02*
D03*
Y1020470D02*
D03*
X724990Y1029970D02*
D03*
X715190Y843890D02*
D03*
Y824890D02*
D03*
X737690Y834390D02*
D03*
M02*
