G04 Layer_Physical_Order=1*
G04 Layer_Color=255*
%FSLAX25Y25*%
%MOIN*%
G70*
G01*
G75*
%ADD10R,0.04528X0.02362*%
%ADD11R,0.05906X0.05118*%
%ADD12O,0.01772X0.09843*%
%ADD13O,0.09843X0.01772*%
%ADD14R,0.09843X0.01772*%
%ADD15R,0.05118X0.05906*%
%ADD16C,0.01500*%
%ADD17C,0.04000*%
%ADD18C,0.06000*%
%ADD19R,0.05906X0.05906*%
%ADD20C,0.05906*%
%ADD21C,0.01969*%
%ADD22C,0.03937*%
%ADD23O,0.10000X0.07000*%
%ADD24R,0.10000X0.07000*%
%ADD25R,0.05906X0.05906*%
%ADD26O,0.07874X0.11811*%
%ADD27C,0.11811*%
%ADD28R,0.07874X0.07874*%
%ADD29C,0.07874*%
%ADD30R,0.11811X0.11811*%
G36*
X516005Y181000D02*
X748860D01*
Y467270D01*
X516005D01*
Y181000D01*
D02*
G37*
%LPC*%
G36*
X680005Y452903D02*
Y450000D01*
X677102D01*
X677107Y450044D01*
X677510Y451017D01*
X678152Y451853D01*
X678987Y452494D01*
X679960Y452897D01*
X680005Y452903D01*
D02*
G37*
G36*
X682004D02*
X682049Y452897D01*
X683022Y452494D01*
X683857Y451853D01*
X684499Y451017D01*
X684902Y450044D01*
X684907Y450000D01*
X682004D01*
Y452903D01*
D02*
G37*
G36*
X677102Y448000D02*
X680005D01*
Y445097D01*
X679960Y445103D01*
X678987Y445506D01*
X678152Y446147D01*
X677510Y446983D01*
X677107Y447956D01*
X677102Y448000D01*
D02*
G37*
G36*
X682004D02*
X684907D01*
X684902Y447956D01*
X684499Y446983D01*
X683857Y446147D01*
X683022Y445506D01*
X682049Y445103D01*
X682004Y445097D01*
Y448000D01*
D02*
G37*
G36*
X533504Y458439D02*
X534858Y458306D01*
X536160Y457911D01*
X537360Y457269D01*
X538411Y456407D01*
X539274Y455355D01*
X539915Y454155D01*
X540310Y452854D01*
X540443Y451500D01*
X540310Y450146D01*
X539915Y448845D01*
X539274Y447645D01*
X538411Y446593D01*
X537360Y445730D01*
X536160Y445089D01*
X534858Y444694D01*
X533504Y444561D01*
X532151Y444694D01*
X530849Y445089D01*
X529649Y445730D01*
X528598Y446593D01*
X527735Y447645D01*
X527094Y448845D01*
X526699Y450146D01*
X526566Y451500D01*
X526699Y452854D01*
X527094Y454155D01*
X527735Y455355D01*
X528598Y456407D01*
X529649Y457269D01*
X530849Y457911D01*
X532151Y458306D01*
X533504Y458439D01*
D02*
G37*
G36*
X729504D02*
X730858Y458306D01*
X732160Y457911D01*
X733360Y457269D01*
X734411Y456407D01*
X735274Y455355D01*
X735915Y454155D01*
X736310Y452854D01*
X736443Y451500D01*
X736310Y450146D01*
X735915Y448845D01*
X735274Y447645D01*
X734411Y446593D01*
X733360Y445730D01*
X732160Y445089D01*
X730858Y444694D01*
X729504Y444561D01*
X728151Y444694D01*
X726849Y445089D01*
X725649Y445730D01*
X724598Y446593D01*
X723735Y447645D01*
X723094Y448845D01*
X722699Y450146D01*
X722566Y451500D01*
X722699Y452854D01*
X723094Y454155D01*
X723735Y455355D01*
X724598Y456407D01*
X725649Y457269D01*
X726849Y457911D01*
X728151Y458306D01*
X729504Y458439D01*
D02*
G37*
G36*
X565552Y434453D02*
X568504D01*
Y431500D01*
X565552D01*
Y434453D01*
D02*
G37*
G36*
X570505D02*
X573457D01*
Y431500D01*
X570505D01*
Y434453D01*
D02*
G37*
G36*
X611505Y433855D02*
Y431000D01*
X608649D01*
X608653Y431032D01*
X609052Y431993D01*
X609685Y432819D01*
X610511Y433453D01*
X611473Y433851D01*
X611505Y433855D01*
D02*
G37*
G36*
X613505D02*
X613536Y433851D01*
X614498Y433453D01*
X615324Y432819D01*
X615957Y431993D01*
X616356Y431032D01*
X616360Y431000D01*
X613505D01*
Y433855D01*
D02*
G37*
G36*
X643504Y433355D02*
Y430500D01*
X640649D01*
X640654Y430532D01*
X641052Y431493D01*
X641685Y432319D01*
X642511Y432953D01*
X643473Y433351D01*
X643504Y433355D01*
D02*
G37*
G36*
X645505D02*
X645536Y433351D01*
X646498Y432953D01*
X647324Y432319D01*
X647957Y431493D01*
X648355Y430532D01*
X648360Y430500D01*
X645505D01*
Y433355D01*
D02*
G37*
G36*
X565552Y429500D02*
X568504D01*
Y426547D01*
X565552D01*
Y429500D01*
D02*
G37*
G36*
X570505D02*
X573457D01*
Y426547D01*
X570505D01*
Y429500D01*
D02*
G37*
G36*
X608649Y429000D02*
X611505D01*
Y426145D01*
X611473Y426149D01*
X610511Y426547D01*
X609685Y427181D01*
X609052Y428007D01*
X608653Y428968D01*
X608649Y429000D01*
D02*
G37*
G36*
X613505D02*
X616360D01*
X616356Y428968D01*
X615957Y428007D01*
X615324Y427181D01*
X614498Y426547D01*
X613536Y426149D01*
X613505Y426145D01*
Y429000D01*
D02*
G37*
G36*
X640649Y428500D02*
X643504D01*
Y425645D01*
X643473Y425649D01*
X642511Y426047D01*
X641685Y426681D01*
X641052Y427507D01*
X640654Y428468D01*
X640649Y428500D01*
D02*
G37*
G36*
X645505D02*
X648360D01*
X648355Y428468D01*
X647957Y427507D01*
X647324Y426681D01*
X646498Y426047D01*
X645536Y425649D01*
X645505Y425645D01*
Y428500D01*
D02*
G37*
G36*
X535504Y417903D02*
Y415000D01*
X532602D01*
X532608Y415044D01*
X533010Y416017D01*
X533652Y416853D01*
X534487Y417494D01*
X535460Y417897D01*
X535504Y417903D01*
D02*
G37*
G36*
X537504D02*
X537549Y417897D01*
X538522Y417494D01*
X539357Y416853D01*
X539998Y416017D01*
X540402Y415044D01*
X540407Y415000D01*
X537504D01*
Y417903D01*
D02*
G37*
G36*
X676445Y422953D02*
X683564D01*
Y415047D01*
X681718D01*
Y411921D01*
X683197D01*
Y411524D01*
X713004D01*
Y414000D01*
X725004D01*
Y405000D01*
X713004D01*
Y407956D01*
X683197D01*
Y407559D01*
X676670D01*
Y411921D01*
X678149D01*
Y415047D01*
X676445D01*
Y422953D01*
D02*
G37*
G36*
X591005Y414355D02*
Y411500D01*
X588149D01*
X588154Y411532D01*
X588552Y412493D01*
X589185Y413319D01*
X590011Y413953D01*
X590973Y414351D01*
X591005Y414355D01*
D02*
G37*
G36*
X593005D02*
X593036Y414351D01*
X593998Y413953D01*
X594824Y413319D01*
X595457Y412493D01*
X595856Y411532D01*
X595860Y411500D01*
X593005D01*
Y414355D01*
D02*
G37*
G36*
X532602Y413000D02*
X535504D01*
Y410097D01*
X535460Y410103D01*
X534487Y410506D01*
X533652Y411147D01*
X533010Y411983D01*
X532608Y412956D01*
X532602Y413000D01*
D02*
G37*
G36*
X537504D02*
X540407D01*
X540402Y412956D01*
X539998Y411983D01*
X539357Y411147D01*
X538522Y410506D01*
X537549Y410103D01*
X537504Y410097D01*
Y413000D01*
D02*
G37*
G36*
X667812Y408181D02*
X670075D01*
Y407000D01*
X667812D01*
Y408181D01*
D02*
G37*
G36*
X672075D02*
X674339D01*
Y407000D01*
X672075D01*
Y408181D01*
D02*
G37*
G36*
X588149Y409500D02*
X591005D01*
Y406645D01*
X590973Y406649D01*
X590011Y407047D01*
X589185Y407681D01*
X588552Y408507D01*
X588154Y409468D01*
X588149Y409500D01*
D02*
G37*
G36*
X593005D02*
X595860D01*
X595856Y409468D01*
X595457Y408507D01*
X594824Y407681D01*
X593998Y407047D01*
X593036Y406649D01*
X593005Y406645D01*
Y409500D01*
D02*
G37*
G36*
X667812Y405000D02*
X670075D01*
Y403819D01*
X667812D01*
Y405000D01*
D02*
G37*
G36*
X672075D02*
X674339D01*
Y403819D01*
X672075D01*
Y405000D01*
D02*
G37*
G36*
X636552Y400220D02*
X639504D01*
Y397661D01*
X636552D01*
Y400220D01*
D02*
G37*
G36*
X641504D02*
X644457D01*
Y397661D01*
X641504D01*
Y400220D01*
D02*
G37*
G36*
X717505Y404039D02*
X720505D01*
X721679Y403884D01*
X722774Y403431D01*
X723714Y402709D01*
X724435Y401769D01*
X724889Y400675D01*
X725043Y399500D01*
X724889Y398325D01*
X724435Y397231D01*
X723714Y396291D01*
X722774Y395569D01*
X721679Y395116D01*
X720505Y394961D01*
X717505D01*
X716330Y395116D01*
X715235Y395569D01*
X714295Y396291D01*
X714154Y396474D01*
X697457D01*
Y395547D01*
X689552D01*
Y403453D01*
X697457D01*
Y402526D01*
X714154D01*
X714295Y402709D01*
X715235Y403431D01*
X716330Y403884D01*
X717505Y404039D01*
D02*
G37*
G36*
X636552Y395661D02*
X639504D01*
Y393102D01*
X636552D01*
Y395661D01*
D02*
G37*
G36*
X641504D02*
X644457D01*
Y393102D01*
X641504D01*
Y395661D01*
D02*
G37*
G36*
X570505Y395855D02*
Y393000D01*
X567649D01*
X567654Y393032D01*
X568052Y393993D01*
X568685Y394819D01*
X569511Y395453D01*
X570473Y395851D01*
X570505Y395855D01*
D02*
G37*
G36*
X572505D02*
X572536Y395851D01*
X573498Y395453D01*
X574324Y394819D01*
X574957Y393993D01*
X575355Y393032D01*
X575360Y393000D01*
X572505D01*
Y395855D01*
D02*
G37*
G36*
X667784Y422953D02*
X674902D01*
Y415047D01*
X669914D01*
X663789Y408922D01*
Y399739D01*
X671434Y392093D01*
X676052D01*
Y398220D01*
X678220D01*
Y400079D01*
X676670D01*
Y404441D01*
X683197D01*
Y400079D01*
X681789D01*
Y398220D01*
X683957D01*
Y392093D01*
X690512D01*
X690685Y392319D01*
X691511Y392953D01*
X692473Y393351D01*
X693504Y393487D01*
X694536Y393351D01*
X695498Y392953D01*
X696324Y392319D01*
X696957Y391493D01*
X697356Y390532D01*
X697491Y389500D01*
X697356Y388468D01*
X696957Y387507D01*
X696324Y386681D01*
X695498Y386047D01*
X694536Y385649D01*
X693504Y385513D01*
X692473Y385649D01*
X692264Y385736D01*
X690950Y384422D01*
Y345953D01*
X692725D01*
Y338047D01*
X685607D01*
Y345953D01*
X687382D01*
Y385161D01*
X687382Y385161D01*
X687517Y385844D01*
X687904Y386423D01*
X689506Y388025D01*
X689299Y388525D01*
X683957D01*
Y382441D01*
X681789D01*
Y356000D01*
X681653Y355317D01*
X681266Y354738D01*
X669766Y343238D01*
X669766Y343238D01*
X669187Y342851D01*
X668504Y342716D01*
X668504Y342716D01*
X650965D01*
X650774Y342254D01*
X673266Y319762D01*
X673473Y319453D01*
X675564D01*
Y311547D01*
X668445D01*
X668289Y311112D01*
Y245168D01*
X673004Y240453D01*
X677993D01*
Y232547D01*
X670875D01*
Y237536D01*
X665243Y243167D01*
X665243Y243167D01*
X664856Y243746D01*
X664720Y244429D01*
X664720Y244429D01*
Y315761D01*
X643161Y337320D01*
X611711D01*
X611534Y337355D01*
X611288Y336894D01*
X612808Y335375D01*
X613012Y335069D01*
X613557Y335002D01*
X613620Y335023D01*
X614424Y335640D01*
X615397Y336043D01*
X616441Y336180D01*
X617486Y336043D01*
X618459Y335640D01*
X619294Y334998D01*
X619936Y334163D01*
X620339Y333190D01*
X620476Y332146D01*
X620339Y331101D01*
X619936Y330128D01*
X619294Y329293D01*
X618459Y328652D01*
X617486Y328249D01*
X616441Y328111D01*
X615397Y328249D01*
X614424Y328652D01*
X613620Y329269D01*
X613557Y329289D01*
X613012Y329223D01*
X612808Y328917D01*
X610025Y326134D01*
X610025Y326134D01*
X609719Y325929D01*
X609653Y325385D01*
X609673Y325321D01*
X610290Y324517D01*
X610693Y323544D01*
X610830Y322500D01*
X610693Y321456D01*
X610290Y320483D01*
X609649Y319647D01*
X608813Y319006D01*
X607840Y318603D01*
X606796Y318465D01*
X606529Y318501D01*
X603766Y315738D01*
X603187Y315352D01*
X602504Y315216D01*
X575004D01*
X574322Y315352D01*
X573743Y315738D01*
X570743Y318738D01*
X570356Y319317D01*
X570220Y320000D01*
Y340745D01*
X558827D01*
X558144Y340881D01*
X557565Y341268D01*
X553263Y345570D01*
X553159Y345552D01*
X552944Y345010D01*
X552957Y344993D01*
X553356Y344032D01*
X553360Y344000D01*
X549505D01*
Y343000D01*
X548504D01*
Y339145D01*
X548473Y339149D01*
X547511Y339547D01*
X546729Y340148D01*
X546525Y340124D01*
X546190Y340005D01*
X546153Y339817D01*
X545766Y339238D01*
X542334Y335806D01*
X542957Y334993D01*
X543356Y334032D01*
X543491Y333000D01*
X543356Y331968D01*
X542957Y331007D01*
X542324Y330181D01*
X541498Y329547D01*
X540536Y329149D01*
X539504Y329013D01*
X538473Y329149D01*
X537511Y329547D01*
X536685Y330181D01*
X536052Y331007D01*
X535653Y331968D01*
X535518Y333000D01*
X535653Y334032D01*
X536052Y334993D01*
X536685Y335819D01*
X537511Y336453D01*
X538237Y336754D01*
X538243Y336762D01*
X538243Y336762D01*
X540064Y338582D01*
X539830Y339056D01*
X539504Y339013D01*
X538473Y339149D01*
X537511Y339547D01*
X536685Y340181D01*
X536052Y341007D01*
X535653Y341968D01*
X535518Y343000D01*
X535653Y344032D01*
X536052Y344993D01*
X536685Y345819D01*
X537511Y346453D01*
X538473Y346851D01*
X539504Y346987D01*
X540536Y346851D01*
X541498Y346453D01*
X542220Y345899D01*
X542538Y345963D01*
X542740Y346098D01*
X542856Y346683D01*
X543243Y347262D01*
X543243Y347262D01*
X544946Y348964D01*
X545525Y349351D01*
X546207Y349487D01*
X553654D01*
X553654Y349487D01*
X554337Y349351D01*
X554915Y348964D01*
X554915Y348964D01*
X558090Y345790D01*
X558552Y345981D01*
Y350398D01*
X566457D01*
Y350398D01*
X566755Y350274D01*
X567204Y350723D01*
X567107Y350956D01*
X566970Y352000D01*
X567107Y353044D01*
X567511Y354017D01*
X568152Y354853D01*
X568987Y355494D01*
X569960Y355897D01*
X571004Y356034D01*
X572049Y355897D01*
X573022Y355494D01*
X573857Y354853D01*
X574499Y354017D01*
X574902Y353044D01*
X575039Y352000D01*
X574902Y350956D01*
X574499Y349983D01*
X573857Y349147D01*
X573022Y348506D01*
X572049Y348103D01*
X571004Y347966D01*
X569960Y348103D01*
X569727Y348199D01*
X567105Y345577D01*
X566526Y345190D01*
X566457Y345177D01*
Y344314D01*
X571441D01*
X580832Y353705D01*
X580690Y354271D01*
X580208Y354593D01*
X579791Y355217D01*
X579645Y355953D01*
X579791Y356688D01*
X580129Y357194D01*
X580177Y357527D01*
X580129Y357861D01*
X579791Y358366D01*
X579645Y359102D01*
X579791Y359838D01*
X579878Y359968D01*
X579610Y360468D01*
X576957D01*
Y358279D01*
X569052D01*
Y360054D01*
X567082D01*
X566349Y359321D01*
X566457Y359059D01*
X566457D01*
Y351941D01*
X558552D01*
Y359059D01*
X561107D01*
X561243Y359262D01*
X565081Y363100D01*
X565660Y363487D01*
X566343Y363623D01*
X569052D01*
Y365398D01*
X576957D01*
Y364036D01*
X579610D01*
X579878Y364536D01*
X579791Y364666D01*
X579645Y365402D01*
X579791Y366137D01*
X580129Y366643D01*
X580177Y366976D01*
X580129Y367310D01*
X579968Y367551D01*
X585603D01*
X591400D01*
X591596Y367186D01*
X607167D01*
X609794Y369813D01*
X610373Y370200D01*
X611056Y370335D01*
X617012D01*
X617207Y370701D01*
X623004D01*
X628640D01*
X628478Y370459D01*
X628431Y370126D01*
X628478Y369793D01*
X628816Y369287D01*
X628963Y368551D01*
X628816Y367815D01*
X628478Y367310D01*
X628431Y366976D01*
X628478Y366643D01*
X628640Y366402D01*
X623004D01*
Y364402D01*
X628802D01*
X628997Y364036D01*
X633914D01*
X634597Y363900D01*
X634601Y363898D01*
X639957D01*
Y359784D01*
X646552D01*
Y361953D01*
X654457D01*
Y354047D01*
X646552D01*
Y356216D01*
X644289D01*
Y348901D01*
X644374Y348774D01*
X644528Y348000D01*
X644374Y347226D01*
X644079Y346784D01*
X644340Y346284D01*
X667765D01*
X678220Y356739D01*
Y382441D01*
X676052D01*
Y388525D01*
X670695D01*
X670013Y388661D01*
X669434Y389047D01*
X660743Y397738D01*
X660743Y397738D01*
X660356Y398317D01*
X660220Y399000D01*
X660220Y399000D01*
Y409661D01*
X660220Y409661D01*
X660356Y410344D01*
X660743Y410923D01*
X660743Y410923D01*
X667784Y417964D01*
Y422953D01*
D02*
G37*
G36*
X717505Y394039D02*
X718005D01*
Y390500D01*
X713097D01*
X713120Y390675D01*
X713574Y391769D01*
X714295Y392709D01*
X715235Y393431D01*
X716330Y393884D01*
X717505Y394039D01*
D02*
G37*
G36*
X720005D02*
X720505D01*
X721679Y393884D01*
X722774Y393431D01*
X723714Y392709D01*
X724435Y391769D01*
X724889Y390675D01*
X724912Y390500D01*
X720005D01*
Y394039D01*
D02*
G37*
G36*
X567649Y391000D02*
X570505D01*
Y388145D01*
X570473Y388149D01*
X569511Y388547D01*
X568685Y389181D01*
X568052Y390007D01*
X567654Y390968D01*
X567649Y391000D01*
D02*
G37*
G36*
X572505D02*
X575360D01*
X575355Y390968D01*
X574957Y390007D01*
X574324Y389181D01*
X573498Y388547D01*
X572536Y388149D01*
X572505Y388145D01*
Y391000D01*
D02*
G37*
G36*
X713097Y388500D02*
X718005D01*
Y384961D01*
X717505D01*
X716330Y385116D01*
X715235Y385569D01*
X714295Y386291D01*
X713574Y387231D01*
X713120Y388325D01*
X713097Y388500D01*
D02*
G37*
G36*
X720005D02*
X724912D01*
X724889Y388325D01*
X724435Y387231D01*
X723714Y386291D01*
X722774Y385569D01*
X721679Y385116D01*
X720505Y384961D01*
X720005D01*
Y388500D01*
D02*
G37*
G36*
X650504Y391987D02*
X651536Y391851D01*
X652498Y391453D01*
X653324Y390819D01*
X653957Y389993D01*
X654355Y389032D01*
X654491Y388000D01*
X654355Y386968D01*
X653957Y386007D01*
X653324Y385181D01*
X652498Y384547D01*
X651536Y384149D01*
X650504Y384013D01*
X649473Y384149D01*
X648511Y384547D01*
X647685Y385181D01*
X647052Y386007D01*
X646965Y386216D01*
X644457D01*
Y384441D01*
X637225D01*
Y384047D01*
X630107D01*
Y391953D01*
X637225D01*
Y391559D01*
X644457D01*
Y389784D01*
X646965D01*
X647052Y389993D01*
X647685Y390819D01*
X648511Y391453D01*
X649473Y391851D01*
X650504Y391987D01*
D02*
G37*
G36*
X586052Y451059D02*
X593957D01*
Y449784D01*
X636004D01*
X636687Y449649D01*
X637266Y449262D01*
X653075Y433453D01*
X658457D01*
Y425547D01*
X650552D01*
Y430929D01*
X635265Y446216D01*
X607789D01*
Y414559D01*
X609957D01*
Y408757D01*
X610425Y408553D01*
X610720Y408790D01*
Y416047D01*
X608552D01*
Y423953D01*
X616457D01*
Y422134D01*
X616907Y421978D01*
X616957Y421976D01*
X621675Y426694D01*
X621052Y427507D01*
X620653Y428468D01*
X620518Y429500D01*
X620653Y430532D01*
X621052Y431493D01*
X621685Y432319D01*
X622511Y432953D01*
X623473Y433351D01*
X624505Y433487D01*
X625536Y433351D01*
X626498Y432953D01*
X627324Y432319D01*
X627957Y431493D01*
X628356Y430532D01*
X628491Y429500D01*
X628356Y428468D01*
X627957Y427507D01*
X627324Y426681D01*
X626498Y426047D01*
X625772Y425746D01*
X625766Y425738D01*
X619992Y419964D01*
Y418164D01*
X620454Y417972D01*
X630740Y428259D01*
X630653Y428468D01*
X630518Y429500D01*
X630653Y430532D01*
X631052Y431493D01*
X631685Y432319D01*
X632511Y432953D01*
X633473Y433351D01*
X634505Y433487D01*
X635536Y433351D01*
X636498Y432953D01*
X637324Y432319D01*
X637957Y431493D01*
X638355Y430532D01*
X638491Y429500D01*
X638355Y428468D01*
X637957Y427507D01*
X637324Y426681D01*
X636498Y426047D01*
X635536Y425649D01*
X634505Y425513D01*
X633473Y425649D01*
X633263Y425736D01*
X622492Y414964D01*
Y405519D01*
X622356Y404836D01*
X621969Y404257D01*
X613962Y396251D01*
Y391670D01*
X614462Y391403D01*
X614592Y391489D01*
X615327Y391635D01*
X616063Y391489D01*
X616687Y391072D01*
X617104Y390448D01*
X617154Y390195D01*
X617650Y389784D01*
X621446D01*
Y391953D01*
X628564D01*
Y384047D01*
X621446D01*
Y386216D01*
X618389D01*
X617250Y385077D01*
Y381642D01*
X617104Y380906D01*
X616687Y380282D01*
X616063Y379865D01*
X615327Y379719D01*
X614592Y379865D01*
X614086Y380203D01*
X613753Y380251D01*
X613419Y380203D01*
X612914Y379865D01*
X612178Y379719D01*
X611442Y379865D01*
X610936Y380203D01*
X610603Y380251D01*
X610269Y380203D01*
X609764Y379865D01*
X609028Y379719D01*
X608292Y379865D01*
X607787Y380203D01*
X607453Y380251D01*
X607120Y380203D01*
X606614Y379865D01*
X605878Y379719D01*
X605143Y379865D01*
X604637Y380203D01*
X604304Y380251D01*
X603970Y380203D01*
X603465Y379865D01*
X602729Y379719D01*
X601993Y379865D01*
X601487Y380203D01*
X601154Y380251D01*
X600821Y380203D01*
X600315Y379865D01*
X599579Y379719D01*
X598843Y379865D01*
X598338Y380203D01*
X598004Y380251D01*
X597671Y380203D01*
X597165Y379865D01*
X596430Y379719D01*
X595694Y379865D01*
X595188Y380203D01*
X594855Y380251D01*
X594522Y380203D01*
X594016Y379865D01*
X593280Y379719D01*
X592544Y379865D01*
X591921Y380282D01*
X591504Y380906D01*
X591357Y381642D01*
Y388624D01*
X573246Y406736D01*
X573036Y406649D01*
X572005Y406513D01*
X570973Y406649D01*
X570011Y407047D01*
X569185Y407681D01*
X568552Y408507D01*
X568153Y409468D01*
X568018Y410500D01*
X568153Y411532D01*
X568552Y412493D01*
X569185Y413319D01*
X570011Y413953D01*
X570973Y414351D01*
X572005Y414487D01*
X573036Y414351D01*
X573998Y413953D01*
X574824Y413319D01*
X575457Y412493D01*
X575855Y411532D01*
X575991Y410500D01*
X575855Y409468D01*
X575769Y409259D01*
X593420Y391607D01*
X594016Y391489D01*
X594145Y391403D01*
X594645Y391670D01*
Y394836D01*
X582856Y406625D01*
X582004Y406513D01*
X580973Y406649D01*
X580011Y407047D01*
X579185Y407681D01*
X578552Y408507D01*
X578154Y409468D01*
X578018Y410500D01*
X578154Y411532D01*
X578552Y412493D01*
X579185Y413319D01*
X580011Y413953D01*
X580973Y414351D01*
X582004Y414487D01*
X583036Y414351D01*
X583998Y413953D01*
X584824Y413319D01*
X585457Y412493D01*
X585855Y411532D01*
X585991Y410500D01*
X585855Y409468D01*
X585623Y408905D01*
X596524Y398004D01*
X597017Y398218D01*
Y420964D01*
X591099Y426882D01*
X590536Y426649D01*
X589504Y426513D01*
X588473Y426649D01*
X587511Y427047D01*
X586685Y427681D01*
X586052Y428507D01*
X585653Y429468D01*
X585518Y430500D01*
X585653Y431532D01*
X586052Y432493D01*
X586685Y433319D01*
X587511Y433953D01*
X588220Y434246D01*
Y435280D01*
X586052D01*
Y442398D01*
X593957D01*
Y435280D01*
X591789D01*
Y433730D01*
X592324Y433319D01*
X592957Y432493D01*
X593356Y431532D01*
X593491Y430500D01*
X593379Y429649D01*
X599055Y423972D01*
X599517Y424164D01*
Y426502D01*
X599505Y426513D01*
X598473Y426649D01*
X597511Y427047D01*
X596685Y427681D01*
X596052Y428507D01*
X595653Y429468D01*
X595518Y430500D01*
X595653Y431532D01*
X596052Y432493D01*
X596685Y433319D01*
X597511Y433953D01*
X598473Y434351D01*
X599505Y434487D01*
X600536Y434351D01*
X601498Y433953D01*
X602324Y433319D01*
X602957Y432493D01*
X603356Y431532D01*
X603491Y430500D01*
X603356Y429468D01*
X602957Y428507D01*
X602910Y428445D01*
X602950Y428386D01*
X603086Y427703D01*
Y414559D01*
X604220D01*
Y446216D01*
X593957D01*
Y443941D01*
X586052D01*
Y444548D01*
X585590Y444740D01*
X581289Y440439D01*
Y434039D01*
X581498Y433953D01*
X582324Y433319D01*
X582957Y432493D01*
X583356Y431532D01*
X583491Y430500D01*
X583356Y429468D01*
X582957Y428507D01*
X582324Y427681D01*
X581498Y427047D01*
X580772Y426746D01*
X580766Y426738D01*
X565957Y411929D01*
Y406547D01*
X560575D01*
X554127Y400100D01*
Y385953D01*
X555902D01*
Y378559D01*
X557445D01*
Y385953D01*
X564564D01*
Y383784D01*
X567552D01*
Y385953D01*
X575457D01*
Y380571D01*
X576244Y379784D01*
X580871D01*
X581567Y379923D01*
X589638D01*
X590374Y379776D01*
X590998Y379360D01*
X591415Y378736D01*
X591561Y378000D01*
X591415Y377264D01*
X591077Y376759D01*
X591029Y376425D01*
X591077Y376092D01*
X591415Y375586D01*
X591561Y374850D01*
X591415Y374115D01*
X591077Y373609D01*
X591029Y373276D01*
X591077Y372942D01*
X591415Y372437D01*
X591561Y371701D01*
X591415Y370965D01*
X591077Y370459D01*
X591029Y370126D01*
X591077Y369793D01*
X591238Y369551D01*
X585603D01*
X579968D01*
X580129Y369793D01*
X580177Y370126D01*
X580129Y370459D01*
X579791Y370965D01*
X579645Y371701D01*
X579791Y372437D01*
X579978Y372716D01*
X579710Y373216D01*
X576957D01*
Y371500D01*
X569052D01*
Y373216D01*
X563457D01*
Y371441D01*
X557633D01*
X557425Y370941D01*
X558469Y369898D01*
X563457D01*
Y362779D01*
X555552D01*
Y367768D01*
X555104Y368216D01*
X542505D01*
X541822Y368352D01*
X541243Y368738D01*
X539743Y370238D01*
X539356Y370817D01*
X539220Y371500D01*
Y379000D01*
X539356Y379683D01*
X539743Y380262D01*
X542743Y383262D01*
X543322Y383648D01*
X544004Y383784D01*
X548784D01*
Y385953D01*
X550559D01*
Y400839D01*
X550695Y401521D01*
X551081Y402100D01*
X558052Y409071D01*
Y414453D01*
X563434D01*
X576675Y427694D01*
X576052Y428507D01*
X575654Y429468D01*
X575518Y430500D01*
X575654Y431532D01*
X576052Y432493D01*
X576685Y433319D01*
X577511Y433953D01*
X577720Y434039D01*
Y441178D01*
X577720Y441178D01*
X577856Y441860D01*
X578243Y442439D01*
X585065Y449262D01*
X585644Y449649D01*
X586052Y449730D01*
Y451059D01*
D02*
G37*
G36*
X650504Y381987D02*
X651536Y381851D01*
X652498Y381453D01*
X653324Y380819D01*
X653957Y379993D01*
X654355Y379032D01*
X654491Y378000D01*
X654355Y376968D01*
X653957Y376007D01*
X653324Y375181D01*
X652498Y374547D01*
X651536Y374149D01*
X650504Y374013D01*
X649473Y374149D01*
X648511Y374547D01*
X647685Y375181D01*
X647052Y376007D01*
X646965Y376216D01*
X629384D01*
X628964Y376123D01*
X628757Y375675D01*
X628816Y375586D01*
X628963Y374850D01*
X628816Y374115D01*
X628478Y373609D01*
X628431Y373276D01*
X628478Y372942D01*
X628640Y372701D01*
X623004D01*
X617369D01*
X617530Y372942D01*
X617579Y373276D01*
X617530Y373609D01*
X617193Y374115D01*
X617046Y374850D01*
X617193Y375586D01*
X617289Y375730D01*
X617083Y376114D01*
X617083D01*
Y379886D01*
X628926D01*
Y379784D01*
X646965D01*
X647052Y379993D01*
X647685Y380819D01*
X648511Y381453D01*
X649473Y381851D01*
X650504Y381987D01*
D02*
G37*
G36*
X664504Y373403D02*
Y370500D01*
X661602D01*
X661608Y370544D01*
X662010Y371517D01*
X662652Y372353D01*
X663487Y372994D01*
X664460Y373397D01*
X664504Y373403D01*
D02*
G37*
G36*
X666504D02*
X666549Y373397D01*
X667522Y372994D01*
X668357Y372353D01*
X668998Y371517D01*
X669402Y370544D01*
X669407Y370500D01*
X666504D01*
Y373403D01*
D02*
G37*
G36*
X632052Y372559D02*
X635005D01*
Y370000D01*
X632052D01*
Y372559D01*
D02*
G37*
G36*
X637005D02*
X639957D01*
Y370000D01*
X637005D01*
Y372559D01*
D02*
G37*
G36*
X649505Y371855D02*
Y369000D01*
X646649D01*
X646654Y369032D01*
X647052Y369993D01*
X647685Y370819D01*
X648511Y371453D01*
X649473Y371851D01*
X649505Y371855D01*
D02*
G37*
G36*
X651505D02*
X651536Y371851D01*
X652498Y371453D01*
X653324Y370819D01*
X653957Y369993D01*
X654355Y369032D01*
X654360Y369000D01*
X651505D01*
Y371855D01*
D02*
G37*
G36*
X569052Y369500D02*
X572005D01*
Y366941D01*
X569052D01*
Y369500D01*
D02*
G37*
G36*
X574005D02*
X576957D01*
Y366941D01*
X574005D01*
Y369500D01*
D02*
G37*
G36*
X661602Y368500D02*
X664504D01*
Y365597D01*
X664460Y365603D01*
X663487Y366006D01*
X662652Y366647D01*
X662010Y367483D01*
X661608Y368456D01*
X661602Y368500D01*
D02*
G37*
G36*
X666504D02*
X669407D01*
X669402Y368456D01*
X668998Y367483D01*
X668357Y366647D01*
X667522Y366006D01*
X666549Y365603D01*
X666504Y365597D01*
Y368500D01*
D02*
G37*
G36*
X632052Y368000D02*
X635005D01*
Y365441D01*
X632052D01*
Y368000D01*
D02*
G37*
G36*
X637005D02*
X639957D01*
Y365441D01*
X637005D01*
Y368000D01*
D02*
G37*
G36*
X646649Y367000D02*
X649505D01*
Y364145D01*
X649473Y364149D01*
X648511Y364547D01*
X647685Y365181D01*
X647052Y366007D01*
X646654Y366968D01*
X646649Y367000D01*
D02*
G37*
G36*
X651505D02*
X654360D01*
X654355Y366968D01*
X653957Y366007D01*
X653324Y365181D01*
X652498Y364547D01*
X651536Y364149D01*
X651505Y364145D01*
Y367000D01*
D02*
G37*
G36*
X547005Y365469D02*
Y362614D01*
X544149D01*
X544153Y362646D01*
X544552Y363608D01*
X545185Y364433D01*
X546011Y365067D01*
X546973Y365465D01*
X547005Y365469D01*
D02*
G37*
G36*
X549005D02*
X549036Y365465D01*
X549998Y365067D01*
X550824Y364433D01*
X551457Y363608D01*
X551856Y362646D01*
X551860Y362614D01*
X549005D01*
Y365469D01*
D02*
G37*
G36*
X544149Y360614D02*
X547005D01*
Y357759D01*
X546973Y357763D01*
X546011Y358161D01*
X545185Y358795D01*
X544552Y359621D01*
X544153Y360582D01*
X544149Y360614D01*
D02*
G37*
G36*
X549005D02*
X551860D01*
X551856Y360582D01*
X551457Y359621D01*
X550824Y358795D01*
X549998Y358161D01*
X549036Y357763D01*
X549005Y357759D01*
Y360614D01*
D02*
G37*
G36*
X550504Y342000D02*
X553360D01*
X553356Y341968D01*
X552957Y341007D01*
X552324Y340181D01*
X551498Y339547D01*
X550536Y339149D01*
X550504Y339145D01*
Y342000D01*
D02*
G37*
G36*
X676945Y345953D02*
X684064D01*
Y338047D01*
X682289D01*
Y334421D01*
X684697D01*
Y334284D01*
X712504D01*
Y337000D01*
X724505D01*
Y328000D01*
X712504D01*
Y330716D01*
X684697D01*
Y330059D01*
X678170D01*
Y334421D01*
X678720D01*
Y338047D01*
X676945D01*
Y345953D01*
D02*
G37*
G36*
X669312Y330681D02*
X671575D01*
Y329500D01*
X669312D01*
Y330681D01*
D02*
G37*
G36*
X673575D02*
X675839D01*
Y329500D01*
X673575D01*
Y330681D01*
D02*
G37*
G36*
X549505Y336987D02*
X550536Y336851D01*
X551498Y336453D01*
X552324Y335819D01*
X552957Y334993D01*
X553356Y334032D01*
X553491Y333000D01*
X553356Y331968D01*
X552957Y331007D01*
X552324Y330181D01*
X551498Y329547D01*
X550536Y329149D01*
X549505Y329013D01*
X548473Y329149D01*
X547511Y329547D01*
X546685Y330181D01*
X546052Y331007D01*
X545653Y331968D01*
X545518Y333000D01*
X545653Y334032D01*
X546052Y334993D01*
X546685Y335819D01*
X547511Y336453D01*
X548473Y336851D01*
X549505Y336987D01*
D02*
G37*
G36*
X669312Y327500D02*
X671575D01*
Y326319D01*
X669312D01*
Y327500D01*
D02*
G37*
G36*
X673575D02*
X675839D01*
Y326319D01*
X673575D01*
Y327500D01*
D02*
G37*
G36*
X535552Y326953D02*
X543457D01*
Y319047D01*
X535552D01*
Y326953D01*
D02*
G37*
G36*
X549505Y326987D02*
X550536Y326851D01*
X551498Y326453D01*
X552324Y325819D01*
X552957Y324993D01*
X553356Y324032D01*
X553491Y323000D01*
X553356Y321968D01*
X552957Y321007D01*
X552324Y320181D01*
X551498Y319547D01*
X550536Y319149D01*
X549505Y319013D01*
X548473Y319149D01*
X547511Y319547D01*
X546685Y320181D01*
X546052Y321007D01*
X545653Y321968D01*
X545518Y323000D01*
X545653Y324032D01*
X546052Y324993D01*
X546685Y325819D01*
X547511Y326453D01*
X548473Y326851D01*
X549505Y326987D01*
D02*
G37*
G36*
X717004Y327039D02*
X720005D01*
X721179Y326884D01*
X722274Y326431D01*
X723214Y325709D01*
X723935Y324769D01*
X724389Y323675D01*
X724543Y322500D01*
X724389Y321325D01*
X723935Y320231D01*
X723214Y319291D01*
X722274Y318569D01*
X721179Y318116D01*
X720005Y317961D01*
X717004D01*
X715830Y318116D01*
X714735Y318569D01*
X713795Y319291D01*
X713654Y319474D01*
X696957D01*
Y318547D01*
X689052D01*
Y326453D01*
X696957D01*
Y325526D01*
X713654D01*
X713795Y325709D01*
X714735Y326431D01*
X715830Y326884D01*
X717004Y327039D01*
D02*
G37*
G36*
X616441Y326535D02*
X617486Y326397D01*
X618459Y325994D01*
X619294Y325353D01*
X619936Y324517D01*
X620339Y323544D01*
X620476Y322500D01*
X620339Y321456D01*
X619936Y320483D01*
X619294Y319647D01*
X618459Y319006D01*
X617486Y318603D01*
X616441Y318465D01*
X615397Y318603D01*
X614424Y319006D01*
X613589Y319647D01*
X612948Y320483D01*
X612544Y321456D01*
X612407Y322500D01*
X612544Y323544D01*
X612948Y324517D01*
X613589Y325353D01*
X614424Y325994D01*
X615397Y326397D01*
X616441Y326535D01*
D02*
G37*
G36*
X717004Y317039D02*
X717505D01*
Y313500D01*
X712597D01*
X712620Y313675D01*
X713074Y314769D01*
X713795Y315709D01*
X714735Y316431D01*
X715830Y316884D01*
X717004Y317039D01*
D02*
G37*
G36*
X719504D02*
X720005D01*
X721179Y316884D01*
X722274Y316431D01*
X723214Y315709D01*
X723935Y314769D01*
X724389Y313675D01*
X724412Y313500D01*
X719504D01*
Y317039D01*
D02*
G37*
G36*
X678170Y326941D02*
X684697D01*
Y322579D01*
X682450D01*
Y319453D01*
X684225D01*
Y311547D01*
X677107D01*
Y319453D01*
X678882D01*
Y322579D01*
X678170D01*
Y326941D01*
D02*
G37*
G36*
X712597Y311500D02*
X717505D01*
Y307961D01*
X717004D01*
X715830Y308116D01*
X714735Y308569D01*
X713795Y309291D01*
X713074Y310231D01*
X712620Y311325D01*
X712597Y311500D01*
D02*
G37*
G36*
X719504D02*
X724412D01*
X724389Y311325D01*
X723935Y310231D01*
X723214Y309291D01*
X722274Y308569D01*
X721179Y308116D01*
X720005Y307961D01*
X719504D01*
Y311500D01*
D02*
G37*
G36*
X566005Y310403D02*
Y307500D01*
X563102D01*
X563107Y307544D01*
X563511Y308517D01*
X564152Y309353D01*
X564987Y309994D01*
X565960Y310397D01*
X566005Y310403D01*
D02*
G37*
G36*
X568005D02*
X568049Y310397D01*
X569022Y309994D01*
X569857Y309353D01*
X570499Y308517D01*
X570902Y307544D01*
X570907Y307500D01*
X568005D01*
Y310403D01*
D02*
G37*
G36*
X563102Y305500D02*
X566005D01*
Y302597D01*
X565960Y302603D01*
X564987Y303006D01*
X564152Y303647D01*
X563511Y304483D01*
X563107Y305456D01*
X563102Y305500D01*
D02*
G37*
G36*
X568005D02*
X570907D01*
X570902Y305456D01*
X570499Y304483D01*
X569857Y303647D01*
X569022Y303006D01*
X568049Y302603D01*
X568005Y302597D01*
Y305500D01*
D02*
G37*
G36*
X656504Y282316D02*
Y276500D01*
X652525D01*
Y277468D01*
X652695Y278757D01*
X653192Y279958D01*
X653983Y280990D01*
X655015Y281781D01*
X656216Y282278D01*
X656504Y282316D01*
D02*
G37*
G36*
X658504D02*
X658793Y282278D01*
X659994Y281781D01*
X661026Y280990D01*
X661817Y279958D01*
X662315Y278757D01*
X662484Y277468D01*
Y276500D01*
X658504D01*
Y282316D01*
D02*
G37*
G36*
X652525Y274500D02*
X656504D01*
Y268684D01*
X656216Y268722D01*
X655015Y269219D01*
X653983Y270010D01*
X653192Y271042D01*
X652695Y272243D01*
X652525Y273532D01*
Y274500D01*
D02*
G37*
G36*
X658504D02*
X662484D01*
Y273532D01*
X662315Y272243D01*
X661817Y271042D01*
X661026Y270010D01*
X659994Y269219D01*
X658793Y268722D01*
X658504Y268684D01*
Y274500D01*
D02*
G37*
G36*
X548004Y282448D02*
X549293Y282278D01*
X550494Y281781D01*
X551526Y280990D01*
X552317Y279958D01*
X552814Y278757D01*
X552984Y277468D01*
Y273532D01*
X552814Y272243D01*
X552317Y271042D01*
X551526Y270010D01*
X550494Y269219D01*
X549293Y268722D01*
X548004Y268552D01*
X546716Y268722D01*
X545515Y269219D01*
X544483Y270010D01*
X543692Y271042D01*
X543195Y272243D01*
X543025Y273532D01*
Y277468D01*
X543195Y278757D01*
X543692Y279958D01*
X544483Y280990D01*
X545515Y281781D01*
X546716Y282278D01*
X548004Y282448D01*
D02*
G37*
G36*
X693005Y316487D02*
X694036Y316351D01*
X694998Y315953D01*
X695824Y315319D01*
X696457Y314493D01*
X696855Y313532D01*
X696991Y312500D01*
X696855Y311468D01*
X696457Y310507D01*
X695824Y309681D01*
X694998Y309047D01*
X694789Y308961D01*
Y267953D01*
X695154D01*
Y260047D01*
X688036D01*
Y267953D01*
X691220D01*
Y308961D01*
X691011Y309047D01*
X690185Y309681D01*
X689552Y310507D01*
X689153Y311468D01*
X689018Y312500D01*
X689153Y313532D01*
X689552Y314493D01*
X690185Y315319D01*
X691011Y315953D01*
X691973Y316351D01*
X693005Y316487D01*
D02*
G37*
G36*
X679375Y267953D02*
X686493D01*
Y260047D01*
X684718D01*
Y256421D01*
X686127D01*
Y255784D01*
X712504D01*
Y258500D01*
X724505D01*
Y249500D01*
X712504D01*
Y252216D01*
X686127D01*
Y252059D01*
X679599D01*
Y256421D01*
X681149D01*
Y260047D01*
X679375D01*
Y267953D01*
D02*
G37*
G36*
X670741Y252681D02*
X673004D01*
Y251500D01*
X670741D01*
Y252681D01*
D02*
G37*
G36*
X675004D02*
X677268D01*
Y251500D01*
X675004D01*
Y252681D01*
D02*
G37*
G36*
X670741Y249500D02*
X673004D01*
Y248319D01*
X670741D01*
Y249500D01*
D02*
G37*
G36*
X675004D02*
X677268D01*
Y248319D01*
X675004D01*
Y249500D01*
D02*
G37*
G36*
X530319Y252340D02*
Y246500D01*
X524479D01*
X524514Y246854D01*
X524909Y248155D01*
X525550Y249355D01*
X526413Y250407D01*
X527464Y251270D01*
X528664Y251911D01*
X529966Y252306D01*
X530319Y252340D01*
D02*
G37*
G36*
X532319D02*
X532673Y252306D01*
X533975Y251911D01*
X535175Y251270D01*
X536226Y250407D01*
X537089Y249355D01*
X537730Y248155D01*
X538125Y246854D01*
X538160Y246500D01*
X532319D01*
Y252340D01*
D02*
G37*
G36*
X717004Y248539D02*
X720005D01*
X721179Y248384D01*
X722274Y247931D01*
X723214Y247209D01*
X723935Y246269D01*
X724389Y245175D01*
X724543Y244000D01*
X724389Y242825D01*
X723935Y241731D01*
X723214Y240791D01*
X722274Y240069D01*
X721179Y239616D01*
X720005Y239461D01*
X717004D01*
X715830Y239616D01*
X714735Y240069D01*
X713795Y240791D01*
X713654Y240974D01*
X697457D01*
Y240047D01*
X689552D01*
Y247953D01*
X697457D01*
Y247026D01*
X713654D01*
X713795Y247209D01*
X714735Y247931D01*
X715830Y248384D01*
X717004Y248539D01*
D02*
G37*
G36*
X524479Y244500D02*
X530319D01*
Y238660D01*
X529966Y238694D01*
X528664Y239089D01*
X527464Y239731D01*
X526413Y240593D01*
X525550Y241645D01*
X524909Y242845D01*
X524514Y244146D01*
X524479Y244500D01*
D02*
G37*
G36*
X532319D02*
X538160D01*
X538125Y244146D01*
X537730Y242845D01*
X537089Y241645D01*
X536226Y240593D01*
X535175Y239731D01*
X533975Y239089D01*
X532673Y238694D01*
X532319Y238660D01*
Y244500D01*
D02*
G37*
G36*
X717004Y238539D02*
X717505D01*
Y235000D01*
X712597D01*
X712620Y235175D01*
X713074Y236269D01*
X713795Y237209D01*
X714735Y237931D01*
X715830Y238384D01*
X717004Y238539D01*
D02*
G37*
G36*
X719504D02*
X720005D01*
X721179Y238384D01*
X722274Y237931D01*
X723214Y237209D01*
X723935Y236269D01*
X724389Y235175D01*
X724412Y235000D01*
X719504D01*
Y238539D01*
D02*
G37*
G36*
X679599Y248941D02*
X686127D01*
Y244579D01*
X684647D01*
Y240453D01*
X686654D01*
Y232547D01*
X679536D01*
Y240453D01*
X681078D01*
Y244579D01*
X679599D01*
Y248941D01*
D02*
G37*
G36*
X693504Y237987D02*
X694536Y237851D01*
X695498Y237453D01*
X696324Y236819D01*
X696957Y235993D01*
X697356Y235032D01*
X697491Y234000D01*
X697356Y232968D01*
X696957Y232007D01*
X696324Y231181D01*
X695498Y230547D01*
X694536Y230149D01*
X693504Y230013D01*
X692473Y230149D01*
X691511Y230547D01*
X690685Y231181D01*
X690052Y232007D01*
X689653Y232968D01*
X689518Y234000D01*
X689653Y235032D01*
X690052Y235993D01*
X690685Y236819D01*
X691511Y237453D01*
X692473Y237851D01*
X693504Y237987D01*
D02*
G37*
G36*
X712597Y233000D02*
X717505D01*
Y229461D01*
X717004D01*
X715830Y229616D01*
X714735Y230069D01*
X713795Y230791D01*
X713074Y231731D01*
X712620Y232825D01*
X712597Y233000D01*
D02*
G37*
G36*
X719504D02*
X724412D01*
X724389Y232825D01*
X723935Y231731D01*
X723214Y230791D01*
X722274Y230069D01*
X721179Y229616D01*
X720005Y229461D01*
X719504D01*
Y233000D01*
D02*
G37*
G36*
X659606Y221355D02*
Y218500D01*
X656751D01*
X656755Y218532D01*
X657153Y219493D01*
X657787Y220319D01*
X658612Y220953D01*
X659574Y221351D01*
X659606Y221355D01*
D02*
G37*
G36*
X661606D02*
X661638Y221351D01*
X662599Y220953D01*
X663425Y220319D01*
X664058Y219493D01*
X664457Y218532D01*
X664461Y218500D01*
X661606D01*
Y221355D01*
D02*
G37*
G36*
X656751Y216500D02*
X659606D01*
Y213645D01*
X659574Y213649D01*
X658612Y214047D01*
X657787Y214681D01*
X657153Y215507D01*
X656755Y216468D01*
X656751Y216500D01*
D02*
G37*
G36*
X661606D02*
X664461D01*
X664457Y216468D01*
X664058Y215507D01*
X663425Y214681D01*
X662599Y214047D01*
X661638Y213649D01*
X661606Y213645D01*
Y216500D01*
D02*
G37*
G36*
X612068Y220937D02*
X621942D01*
Y211063D01*
X612068D01*
Y220937D01*
D02*
G37*
G36*
X656653Y211453D02*
X664559D01*
Y203547D01*
X656653D01*
Y211453D01*
D02*
G37*
G36*
X544099Y252406D02*
X557910D01*
Y242874D01*
X601443Y199341D01*
X613103D01*
X613483Y199836D01*
X614515Y200627D01*
X615716Y201125D01*
X617004Y201295D01*
X618293Y201125D01*
X619494Y200627D01*
X620526Y199836D01*
X621317Y198805D01*
X621814Y197604D01*
X621984Y196315D01*
X621814Y195026D01*
X621317Y193825D01*
X620526Y192794D01*
X619494Y192002D01*
X618293Y191505D01*
X617004Y191335D01*
X615716Y191505D01*
X614515Y192002D01*
X613483Y192794D01*
X613103Y193289D01*
X600190D01*
X599406Y193392D01*
X598677Y193694D01*
X598050Y194175D01*
X553631Y238595D01*
X544099D01*
Y252406D01*
D02*
G37*
G36*
X536004Y201439D02*
X537358Y201306D01*
X538660Y200911D01*
X539860Y200270D01*
X540911Y199407D01*
X541774Y198355D01*
X542415Y197155D01*
X542810Y195854D01*
X542943Y194500D01*
X542810Y193146D01*
X542415Y191845D01*
X541774Y190645D01*
X540911Y189593D01*
X539860Y188731D01*
X538660Y188089D01*
X537358Y187694D01*
X536004Y187561D01*
X534651Y187694D01*
X533349Y188089D01*
X532150Y188731D01*
X531098Y189593D01*
X530235Y190645D01*
X529594Y191845D01*
X529199Y193146D01*
X529066Y194500D01*
X529199Y195854D01*
X529594Y197155D01*
X530235Y198355D01*
X531098Y199407D01*
X532150Y200270D01*
X533349Y200911D01*
X534651Y201306D01*
X536004Y201439D01*
D02*
G37*
G36*
X728505Y198939D02*
X729858Y198806D01*
X731160Y198411D01*
X732360Y197769D01*
X733411Y196907D01*
X734274Y195855D01*
X734915Y194655D01*
X735310Y193354D01*
X735443Y192000D01*
X735310Y190646D01*
X734915Y189345D01*
X734274Y188145D01*
X733411Y187093D01*
X732360Y186231D01*
X731160Y185589D01*
X729858Y185194D01*
X728505Y185061D01*
X727151Y185194D01*
X725849Y185589D01*
X724649Y186231D01*
X723598Y187093D01*
X722735Y188145D01*
X722094Y189345D01*
X721699Y190646D01*
X721566Y192000D01*
X721699Y193354D01*
X722094Y194655D01*
X722735Y195855D01*
X723598Y196907D01*
X724649Y197769D01*
X725849Y198411D01*
X727151Y198806D01*
X728505Y198939D01*
D02*
G37*
%LPD*%
G36*
X591328Y363117D02*
X591415Y362988D01*
X591561Y362252D01*
X591415Y361516D01*
X591152Y361123D01*
X591419Y360623D01*
X603104D01*
X605598Y363117D01*
X605565Y363617D01*
X591596D01*
X591328Y363117D01*
D02*
G37*
G36*
X605105Y357577D02*
X605105Y357577D01*
X604526Y357190D01*
X603843Y357054D01*
X591726D01*
X591441Y356554D01*
X591561Y355953D01*
X591415Y355217D01*
X590998Y354593D01*
X590374Y354176D01*
X589638Y354030D01*
X586203D01*
X573789Y341615D01*
Y320739D01*
X575744Y318784D01*
X584955D01*
X585125Y319284D01*
X584652Y319647D01*
X584011Y320483D01*
X583607Y321456D01*
X583602Y321500D01*
X587504D01*
X591407D01*
X591402Y321456D01*
X590999Y320483D01*
X590357Y319647D01*
X589885Y319284D01*
X590054Y318784D01*
X594600D01*
X594770Y319284D01*
X594297Y319647D01*
X593656Y320483D01*
X593253Y321456D01*
X593116Y322500D01*
X593253Y323544D01*
X593656Y324517D01*
X594273Y325321D01*
X594293Y325385D01*
X594227Y325929D01*
X593921Y326134D01*
X591139Y328917D01*
X591139Y328917D01*
X590934Y329223D01*
X590389Y329289D01*
X590326Y329269D01*
X589522Y328652D01*
X588549Y328249D01*
X587504Y328111D01*
X586460Y328249D01*
X585487Y328652D01*
X584652Y329293D01*
X584011Y330128D01*
X583607Y331101D01*
X583470Y332146D01*
X583607Y333190D01*
X584011Y334163D01*
X584652Y334998D01*
X585487Y335640D01*
X586460Y336043D01*
X587504Y336180D01*
X588549Y336043D01*
X589522Y335640D01*
X590116Y335184D01*
X590616Y335430D01*
Y337897D01*
X590752Y338580D01*
X591139Y339159D01*
X591139Y339159D01*
X593913Y341933D01*
X593667Y342394D01*
X593280Y342317D01*
X592544Y342464D01*
X591921Y342881D01*
X591504Y343504D01*
X591377Y344142D01*
X590916Y344388D01*
X590418Y343891D01*
X590397Y343725D01*
X590098Y343003D01*
X589622Y342383D01*
X589002Y341907D01*
X588279Y341608D01*
X587504Y341506D01*
X586730Y341608D01*
X586007Y341907D01*
X585387Y342383D01*
X584911Y343003D01*
X584612Y343725D01*
X584510Y344500D01*
X584612Y345275D01*
X584911Y345997D01*
X585387Y346617D01*
X586007Y347093D01*
X586730Y347392D01*
X587504Y347494D01*
X588279Y347392D01*
X588699Y347218D01*
X591018Y349537D01*
X591357Y349764D01*
Y352311D01*
X591504Y353047D01*
X591921Y353671D01*
X592544Y354087D01*
X593280Y354234D01*
X594016Y354087D01*
X594522Y353750D01*
X594855Y353702D01*
X595188Y353750D01*
X595694Y354087D01*
X596430Y354234D01*
X597165Y354087D01*
X597671Y353750D01*
X598004Y353702D01*
X598338Y353750D01*
X598843Y354087D01*
X599579Y354234D01*
X600315Y354087D01*
X600821Y353750D01*
X601154Y353702D01*
X601487Y353750D01*
X601993Y354087D01*
X602729Y354234D01*
X603465Y354087D01*
X603970Y353750D01*
X604304Y353702D01*
X604637Y353750D01*
X605143Y354087D01*
X605878Y354234D01*
X606614Y354087D01*
X607120Y353750D01*
X607453Y353702D01*
X607787Y353750D01*
X608292Y354087D01*
X609028Y354234D01*
X609764Y354087D01*
X610269Y353750D01*
X610603Y353702D01*
X610936Y353750D01*
X611442Y354087D01*
X612178Y354234D01*
X612914Y354087D01*
X613419Y353750D01*
X613753Y353702D01*
X614086Y353750D01*
X614592Y354087D01*
X615327Y354234D01*
X616063Y354087D01*
X616687Y353671D01*
X617104Y353047D01*
X617250Y352311D01*
Y348876D01*
X619842Y346284D01*
X640669D01*
X640930Y346784D01*
X640635Y347226D01*
X640481Y348000D01*
X640635Y348774D01*
X640720Y348901D01*
Y356216D01*
X638343D01*
X637660Y356351D01*
X637081Y356738D01*
X637040Y356780D01*
X632052D01*
Y360468D01*
X628997D01*
X628730Y359968D01*
X628816Y359838D01*
X628963Y359102D01*
X628816Y358366D01*
X628478Y357861D01*
X628431Y357527D01*
X628478Y357194D01*
X628816Y356688D01*
X628963Y355953D01*
X628816Y355217D01*
X628400Y354593D01*
X627776Y354176D01*
X627040Y354030D01*
X618969D01*
X618233Y354176D01*
X617610Y354593D01*
X617193Y355217D01*
X617046Y355953D01*
X617193Y356688D01*
X617530Y357194D01*
X617579Y357527D01*
X617530Y357861D01*
X617193Y358366D01*
X617046Y359102D01*
X617193Y359838D01*
X617279Y359968D01*
X617012Y360468D01*
X607996D01*
X605105Y357577D01*
D02*
G37*
G36*
X601364Y341065D02*
Y340575D01*
X601228Y339892D01*
X600841Y339313D01*
X598935Y337407D01*
Y335736D01*
X599167Y335640D01*
X600003Y334998D01*
X600644Y334163D01*
X601047Y333190D01*
X601161Y332325D01*
X601511Y331986D01*
X601659Y331914D01*
X601900Y331962D01*
X602601D01*
X602761Y332146D01*
X602899Y333190D01*
X603302Y334163D01*
X603943Y334998D01*
X604779Y335640D01*
X605752Y336043D01*
X606312Y336117D01*
X606491Y336644D01*
X601864Y341272D01*
X601364Y341065D01*
D02*
G37*
G36*
X646170Y339358D02*
X667766Y317762D01*
X667945Y317493D01*
X668445Y317645D01*
Y319453D01*
X668445Y319453D01*
X668445D01*
X668161Y319820D01*
X648161Y339820D01*
X646361D01*
X646170Y339358D01*
D02*
G37*
%LPC*%
G36*
X586505Y326403D02*
Y323500D01*
X583602D01*
X583607Y323544D01*
X584011Y324517D01*
X584652Y325353D01*
X585487Y325994D01*
X586460Y326397D01*
X586505Y326403D01*
D02*
G37*
G36*
X588505D02*
X588549Y326397D01*
X589522Y325994D01*
X590357Y325353D01*
X590999Y324517D01*
X591402Y323544D01*
X591407Y323500D01*
X588505D01*
Y326403D01*
D02*
G37*
%LPD*%
G36*
X614289Y408000D02*
X614153Y407317D01*
X613766Y406738D01*
X609957Y402929D01*
Y401481D01*
X610419Y401290D01*
X616423Y407294D01*
Y416047D01*
X614289D01*
Y408000D01*
D02*
G37*
D10*
X681434Y332240D02*
D03*
Y324760D02*
D03*
X672575Y328500D02*
D03*
X682863Y254240D02*
D03*
Y246760D02*
D03*
X674005Y250500D02*
D03*
X679934Y409740D02*
D03*
Y402260D02*
D03*
X671075Y406000D02*
D03*
D11*
X562504Y346839D02*
D03*
Y355500D02*
D03*
X573004Y361839D02*
D03*
Y370500D02*
D03*
X640505Y396661D02*
D03*
Y388000D02*
D03*
X606004Y402339D02*
D03*
Y411000D02*
D03*
X559505Y366339D02*
D03*
Y375000D02*
D03*
X636004Y369000D02*
D03*
Y360339D02*
D03*
X680005Y394661D02*
D03*
Y386000D02*
D03*
X590004Y447500D02*
D03*
Y438839D02*
D03*
D12*
X615327Y385677D02*
D03*
X612178D02*
D03*
X609028D02*
D03*
X605878D02*
D03*
X602729D02*
D03*
X599579D02*
D03*
X596430D02*
D03*
X593280D02*
D03*
Y348276D02*
D03*
X596430D02*
D03*
X599579D02*
D03*
X602729D02*
D03*
X605878D02*
D03*
X609028D02*
D03*
X612178D02*
D03*
X615327D02*
D03*
D13*
X585603Y378000D02*
D03*
Y374850D02*
D03*
Y371701D02*
D03*
Y368551D02*
D03*
Y365402D02*
D03*
Y362252D02*
D03*
Y359102D02*
D03*
Y355953D02*
D03*
X623004D02*
D03*
Y359102D02*
D03*
Y362252D02*
D03*
Y365402D02*
D03*
Y368551D02*
D03*
Y371701D02*
D03*
Y374850D02*
D03*
D14*
Y378000D02*
D03*
D15*
X633666Y388000D02*
D03*
X625004D02*
D03*
X552343Y382000D02*
D03*
X561004D02*
D03*
X680666Y315500D02*
D03*
X672005D02*
D03*
X683095Y236500D02*
D03*
X674434D02*
D03*
X682934Y264000D02*
D03*
X691595D02*
D03*
X680005Y419000D02*
D03*
X671343D02*
D03*
X680505Y342000D02*
D03*
X689166D02*
D03*
D16*
X606223Y332718D02*
X603683Y330178D01*
X539504Y333000D02*
Y335500D01*
X544504Y340500D02*
X539504Y335500D01*
X544504Y340500D02*
Y346000D01*
X571829Y342530D02*
X558827D01*
X572005Y342354D02*
X571829Y342530D01*
X558827D02*
X553654Y347703D01*
X546207D01*
X544504Y346000D01*
X572005Y320000D02*
Y342354D01*
X592280Y348276D02*
X587504Y343500D01*
X635827Y360339D02*
X633914Y362252D01*
X623004D01*
X636004Y360339D02*
X635827D01*
X638343Y358000D02*
X636004Y360339D01*
X642505Y358000D02*
X638343D01*
X650504D02*
X642505D01*
Y348000D02*
Y358000D01*
X619103Y344500D02*
X615327Y348276D01*
X668504Y344500D02*
X619103D01*
X680005Y356000D02*
X668504Y344500D01*
X648900Y341604D02*
X613900D01*
X672005Y318500D02*
X648900Y341604D01*
X643900Y339104D02*
X611711D01*
X666504Y316500D02*
X643900Y339104D01*
X611711D02*
X609028Y341787D01*
X607406Y362402D02*
Y364902D01*
Y362402D02*
X603843Y358839D01*
X585603D01*
X611056Y368551D02*
X607406Y364902D01*
X623004Y368551D02*
X611056D01*
X607406Y365402D02*
X585603D01*
Y355953D02*
X572005Y342354D01*
X575004Y317000D02*
X572005Y320000D01*
X602504Y317000D02*
X575004D01*
X606796Y321291D02*
X602504Y317000D01*
X722505Y399500D02*
X719004D01*
X602729Y342930D02*
Y348276D01*
X611546Y334113D02*
X602729Y342930D01*
X587504Y343500D02*
Y344500D01*
X593280Y348276D02*
X592280D01*
X542505Y370000D02*
X541005Y371500D01*
X555843Y370000D02*
X542505D01*
X559505Y366339D02*
X555843Y370000D01*
X606796Y321291D02*
Y322500D01*
X552343Y382000D02*
Y400839D01*
X562005Y410500D02*
X552343Y400839D01*
X544004Y382000D02*
X541005Y379000D01*
Y371500D02*
Y379000D01*
X552343Y382000D02*
X544004D01*
X593280Y389224D02*
X572005Y410500D01*
X593280Y385677D02*
Y389224D01*
X582004Y410000D02*
Y410500D01*
X596430Y395575D02*
X582004Y410000D01*
X596430Y385677D02*
Y395575D01*
X606843Y402339D02*
X606004D01*
X612504Y408000D02*
X606843Y402339D01*
X612504Y408000D02*
Y419000D01*
X606004Y411000D02*
Y448000D01*
X623004Y362252D02*
X607406D01*
X585453Y375000D02*
X547005D01*
X605878Y385677D02*
Y402213D01*
X606004Y402339D02*
X605878Y402213D01*
X609028Y385677D02*
Y397375D01*
X618207Y406555D02*
X609028Y397375D01*
X612178Y385677D02*
Y396990D01*
X620707Y405519D02*
X612178Y396990D01*
X620707Y405519D02*
Y415703D01*
X634505Y429500D02*
X620707Y415703D01*
X624505Y427000D02*
Y429500D01*
Y427000D02*
X618207Y420703D01*
Y406555D02*
Y420703D01*
X617650Y388000D02*
X615327Y385677D01*
X625004Y388000D02*
X617650D01*
X640505D02*
X633666D01*
X650504D02*
X640505D01*
X650504Y378000D02*
X623004D01*
X602729Y385677D02*
Y397627D01*
X601302Y399055D01*
X599579Y385677D02*
Y397242D01*
X598802Y398019D01*
Y421703D01*
X575504Y378000D02*
X571504Y382000D01*
X585603Y378000D02*
X575504D01*
X571504Y382000D02*
X561004D01*
X598802Y421703D02*
X591005Y429500D01*
X601302Y399055D02*
Y427703D01*
X599005Y430000D01*
X597150Y332146D02*
Y338146D01*
X599579Y340575D02*
X597150Y338146D01*
X599579Y340575D02*
Y348276D01*
X601900Y330178D02*
X599118Y327396D01*
X595183D01*
X592400Y330178D01*
X596430Y341927D02*
X592400Y337897D01*
X596430Y341927D02*
Y348276D01*
X606796Y332146D02*
X606223Y332718D01*
X603683Y330178D02*
X601900D01*
X597758Y322500D02*
X597150D01*
X602653Y327396D02*
X597758Y322500D01*
X608763Y327396D02*
X602653D01*
X611546Y330178D02*
Y334113D01*
Y330178D02*
X608763Y327396D01*
X592400Y330178D02*
Y337897D01*
X682863Y236732D02*
Y246760D01*
X680666Y315500D02*
Y325028D01*
X680005Y394661D02*
Y402189D01*
X718764Y409740D02*
X679934D01*
X585603Y362252D02*
X573418D01*
X573004Y361839D01*
X566343D01*
X562504Y358000D01*
Y355500D02*
Y358000D01*
X654504Y429500D02*
X636004Y448000D01*
X586327D01*
X579504Y441178D01*
Y430500D02*
Y441178D01*
X590004Y431000D02*
Y438839D01*
X591005Y429500D02*
X589504D01*
X682934Y254311D02*
Y264000D01*
X718504Y254000D02*
X682863D01*
X680505Y333169D02*
Y342000D01*
X681434Y332240D02*
X681174Y332500D01*
X680505Y333169D01*
X718504Y332500D02*
X681174D01*
X689166Y342000D02*
Y385161D01*
X693504Y389500D02*
X689166Y385161D01*
X693504Y389500D02*
Y390309D01*
X671343Y419000D02*
X662005Y409661D01*
X693504Y390309D02*
X670695D01*
X662005Y399000D01*
Y409661D01*
X679934Y409740D02*
Y418929D01*
X693005Y265409D02*
Y312500D01*
Y265409D02*
X691595Y264000D01*
X613505Y420000D02*
X612504Y419000D01*
X579504Y428000D02*
X562005Y410500D01*
X579504Y428000D02*
Y430500D01*
X672005Y315500D02*
Y318500D01*
X609028Y341787D02*
Y348276D01*
X666504Y244429D02*
Y316500D01*
X674434Y236500D02*
X666504Y244429D01*
X680005Y356000D02*
Y386000D01*
X613900Y341604D02*
X612178Y343327D01*
Y348276D01*
X565843Y346839D02*
X562504D01*
X571004Y352000D02*
X565843Y346839D01*
D17*
X718504Y244000D02*
X693504D01*
X718504Y322500D02*
X693005D01*
X719004Y399500D02*
X693504D01*
X617004Y196315D02*
X600190D01*
X551005Y245500D01*
D18*
X681004Y449000D02*
D03*
X665505Y369500D02*
D03*
X567004Y306500D02*
D03*
X536505Y414000D02*
D03*
X616441Y322500D02*
D03*
X606796D02*
D03*
X597150D02*
D03*
X587504D02*
D03*
X616441Y332146D02*
D03*
X606796D02*
D03*
X597150D02*
D03*
X587504D02*
D03*
X571004Y352000D02*
D03*
D19*
X660606Y207500D02*
D03*
X693504Y244000D02*
D03*
X693005Y322500D02*
D03*
X693504Y399500D02*
D03*
X548004Y375000D02*
D03*
X571504Y382000D02*
D03*
X650504Y358000D02*
D03*
X612504Y420000D02*
D03*
X539504Y323000D02*
D03*
D20*
X660606Y217500D02*
D03*
X693504Y234000D02*
D03*
X592004Y410500D02*
D03*
X582004D02*
D03*
X572005D02*
D03*
X693005Y312500D02*
D03*
X693504Y389500D02*
D03*
X548004Y361614D02*
D03*
X571504Y392000D02*
D03*
X599505Y430500D02*
D03*
X589504D02*
D03*
X579504D02*
D03*
X650504Y368000D02*
D03*
Y378000D02*
D03*
Y388000D02*
D03*
X624505Y429500D02*
D03*
X634505D02*
D03*
X644504D02*
D03*
X612504Y430000D02*
D03*
X549505Y323000D02*
D03*
X539504Y343000D02*
D03*
X549505Y333000D02*
D03*
X539504D02*
D03*
X549505Y343000D02*
D03*
D21*
X642505Y348000D02*
D03*
D22*
X587504Y344500D02*
D03*
D23*
X718504Y234000D02*
D03*
Y244000D02*
D03*
X719004Y389500D02*
D03*
Y399500D02*
D03*
X718504Y312500D02*
D03*
Y322500D02*
D03*
D24*
Y254000D02*
D03*
X719004Y409500D02*
D03*
X718504Y332500D02*
D03*
D25*
X562005Y410500D02*
D03*
X569504Y430500D02*
D03*
X654504Y429500D02*
D03*
D26*
X657505Y275500D02*
D03*
X548004D02*
D03*
D27*
X536004Y194500D02*
D03*
X533504Y451500D02*
D03*
X729504D02*
D03*
X728505Y192000D02*
D03*
X531320Y245500D02*
D03*
D28*
X617004Y216000D02*
D03*
D29*
Y196315D02*
D03*
D30*
X551005Y245500D02*
D03*
M02*
