G04 Layer_Color=65535*
%FSLAX24Y24*%
%MOIN*%
G70*
G01*
G75*
%ADD17C,0.0150*%
%ADD20C,0.0100*%
%ADD43C,0.0098*%
%ADD44C,0.0079*%
D17*
X21050Y17900D02*
X42000D01*
Y44950D01*
X21050D02*
X42000D01*
D20*
X32892Y37800D02*
G03*
X32892Y37800I-42J0D01*
G01*
X26850Y38963D02*
Y39003D01*
X26250Y38963D02*
Y39003D01*
X28500Y29413D02*
Y29453D01*
X27900Y29413D02*
Y29453D01*
X29100Y23913D02*
Y23953D01*
X28500Y23913D02*
Y23953D01*
X21050Y17900D02*
Y44950D01*
X37800Y35747D02*
Y35787D01*
X38400Y35747D02*
Y35787D01*
X36800Y36597D02*
Y36637D01*
X37400Y36597D02*
Y36637D01*
X21750Y23850D02*
Y24850D01*
X23750D01*
Y23850D02*
Y24850D01*
X21750Y23850D02*
X23750D01*
X21750Y31750D02*
Y32750D01*
X23750D01*
Y31750D02*
Y32750D01*
X21750Y31750D02*
X23750D01*
X21750Y39450D02*
Y40450D01*
X23750D01*
Y39450D02*
Y40450D01*
X21750Y39450D02*
X23750D01*
X30650Y39213D02*
Y39253D01*
X30050Y39213D02*
Y39253D01*
X32792Y37183D02*
X33484Y37876D01*
X35148D01*
Y35520D02*
Y37876D01*
X32792Y35520D02*
X35148D01*
X32792D02*
Y37183D01*
X31447Y39100D02*
X31487D01*
X31447Y38500D02*
X31487D01*
X33500Y40647D02*
Y40687D01*
X34100Y40647D02*
Y40687D01*
X39900Y38913D02*
Y38953D01*
X39300Y38913D02*
Y38953D01*
X31100Y36447D02*
Y36487D01*
X30500Y36447D02*
Y36487D01*
X38850Y38913D02*
Y38953D01*
X38250Y38913D02*
Y38953D01*
X27950Y38963D02*
Y39003D01*
X27350Y38963D02*
Y39003D01*
X28647Y31750D02*
X28687D01*
X28647Y31150D02*
X28687D01*
X27300Y31400D02*
X38750D01*
Y23550D02*
Y31400D01*
X27300Y23550D02*
X38750D01*
X27300D02*
Y31400D01*
X38950Y34800D02*
X40950D01*
X38950Y31800D02*
Y34800D01*
Y31800D02*
X40950D01*
Y34800D01*
X29197Y25650D02*
X29237D01*
X29197Y25050D02*
X29237D01*
X35397Y41750D02*
X35437D01*
X35397Y42350D02*
X35437D01*
X27197Y41600D02*
X27237D01*
X27197Y42200D02*
X27237D01*
X27250Y32771D02*
Y32811D01*
X26650Y32771D02*
Y32811D01*
X27550Y23697D02*
Y23737D01*
X26950Y23697D02*
Y23737D01*
X26200Y37950D02*
X26800D01*
Y37650D01*
X26700Y37550D01*
X26500D01*
X26400Y37650D01*
Y37950D01*
Y37750D02*
X26200Y37550D01*
Y37350D02*
Y37150D01*
Y37250D01*
X26800D01*
X26700Y37350D01*
X26300Y36850D02*
X26200Y36750D01*
Y36550D01*
X26300Y36450D01*
X26700D01*
X26800Y36550D01*
Y36750D01*
X26700Y36850D01*
X26600D01*
X26500Y36750D01*
Y36450D01*
X28700Y30100D02*
X29300D01*
Y29800D01*
X29200Y29700D01*
X29000D01*
X28900Y29800D01*
Y30100D01*
Y29900D02*
X28700Y29700D01*
Y29500D02*
Y29300D01*
Y29400D01*
X29300D01*
X29200Y29500D01*
Y29000D02*
X29300Y28900D01*
Y28700D01*
X29200Y28600D01*
X29100D01*
X29000Y28700D01*
X28900Y28600D01*
X28800D01*
X28700Y28700D01*
Y28900D01*
X28800Y29000D01*
X28900D01*
X29000Y28900D01*
X29100Y29000D01*
X29200D01*
X29000Y28900D02*
Y28700D01*
X29450Y24550D02*
X30050D01*
Y24250D01*
X29950Y24150D01*
X29750D01*
X29650Y24250D01*
Y24550D01*
Y24350D02*
X29450Y24150D01*
Y23950D02*
Y23750D01*
Y23850D01*
X30050D01*
X29950Y23950D01*
Y23450D02*
X30050Y23350D01*
Y23150D01*
X29950Y23050D01*
X29850D01*
X29750Y23150D01*
Y23250D01*
Y23150D01*
X29650Y23050D01*
X29550D01*
X29450Y23150D01*
Y23350D01*
X29550Y23450D01*
X28550Y41800D02*
X28150D01*
X28050Y41700D01*
Y41500D01*
X28150Y41400D01*
X28550D01*
X28650Y41500D01*
Y41700D01*
X28450Y41600D02*
X28650Y41800D01*
Y41700D02*
X28550Y41800D01*
X28050Y42400D02*
X28150Y42200D01*
X28350Y42000D01*
X28550D01*
X28650Y42100D01*
Y42300D01*
X28550Y42400D01*
X28450D01*
X28350Y42300D01*
Y42000D01*
X29200Y33850D02*
Y34250D01*
X29100Y34350D01*
X28900D01*
X28800Y34250D01*
Y33850D01*
X28900Y33750D01*
X29100D01*
X29000Y33950D02*
X29200Y33750D01*
X29100D02*
X29200Y33850D01*
X29800Y34350D02*
X29400D01*
Y34050D01*
X29600Y34150D01*
X29700D01*
X29800Y34050D01*
Y33850D01*
X29700Y33750D01*
X29500D01*
X29400Y33850D01*
X26900Y26850D02*
X26500D01*
X26400Y26750D01*
Y26550D01*
X26500Y26450D01*
X26900D01*
X27000Y26550D01*
Y26750D01*
X26800Y26650D02*
X27000Y26850D01*
Y26750D02*
X26900Y26850D01*
X27000Y27350D02*
X26400D01*
X26700Y27050D01*
Y27450D01*
X36750Y37500D02*
Y38100D01*
X37050D01*
X37150Y38000D01*
Y37800D01*
X37050Y37700D01*
X36750D01*
X36950D02*
X37150Y37500D01*
X37350D02*
X37550D01*
X37450D01*
Y38100D01*
X37350Y38000D01*
X38250Y37500D02*
X37850D01*
X38250Y37900D01*
Y38000D01*
X38150Y38100D01*
X37950D01*
X37850Y38000D01*
X38650Y34900D02*
Y34300D01*
X38350D01*
X38250Y34400D01*
Y34600D01*
X38350Y34700D01*
X38650D01*
X38450D02*
X38250Y34900D01*
X38050D02*
X37850D01*
X37950D01*
Y34300D01*
X38050Y34400D01*
X37550Y34900D02*
X37350D01*
X37450D01*
Y34300D01*
X37550Y34400D01*
X28550Y25950D02*
Y26550D01*
X28850D01*
X28950Y26450D01*
Y26250D01*
X28850Y26150D01*
X28550D01*
X28750D02*
X28950Y25950D01*
X29150D02*
X29350D01*
X29250D01*
Y26550D01*
X29150Y26450D01*
X29650D02*
X29750Y26550D01*
X29950D01*
X30050Y26450D01*
Y26050D01*
X29950Y25950D01*
X29750D01*
X29650Y26050D01*
Y26450D01*
X21950Y25150D02*
Y25750D01*
X22250D01*
X22350Y25650D01*
Y25450D01*
X22250Y25350D01*
X21950D01*
X22550Y25150D02*
X22750D01*
X22650D01*
Y25750D01*
X22550Y25650D01*
X23050D02*
X23150Y25750D01*
X23350D01*
X23450Y25650D01*
Y25250D01*
X23350Y25150D01*
X23150D01*
X23050Y25250D01*
Y25650D01*
X41150Y33200D02*
X41750D01*
Y32900D01*
X41650Y32800D01*
X41450D01*
X41350Y32900D01*
Y33200D01*
X41250Y32600D02*
X41150Y32500D01*
Y32300D01*
X41250Y32200D01*
X41650D01*
X41750Y32300D01*
Y32500D01*
X41650Y32600D01*
X41550D01*
X41450Y32500D01*
Y32200D01*
X38800Y22650D02*
Y23150D01*
X38700Y23250D01*
X38500D01*
X38400Y23150D01*
Y22650D01*
X38200Y22750D02*
X38100Y22650D01*
X37900D01*
X37800Y22750D01*
Y22850D01*
X37900Y22950D01*
X38000D01*
X37900D01*
X37800Y23050D01*
Y23150D01*
X37900Y23250D01*
X38100D01*
X38200Y23150D01*
X33750Y37550D02*
Y37050D01*
X33850Y36950D01*
X34050D01*
X34150Y37050D01*
Y37550D01*
X34350Y36950D02*
X34550D01*
X34450D01*
Y37550D01*
X34350Y37450D01*
X27950Y38150D02*
Y37550D01*
X27650D01*
X27550Y37650D01*
Y37850D01*
X27650Y37950D01*
X27950D01*
X27750D02*
X27550Y38150D01*
X27350Y37550D02*
X26950D01*
Y37650D01*
X27350Y38050D01*
Y38150D01*
X29200Y30950D02*
Y30350D01*
X28900D01*
X28800Y30450D01*
Y30650D01*
X28900Y30750D01*
X29200D01*
X29000D02*
X28800Y30950D01*
X28200Y30350D02*
X28400Y30450D01*
X28600Y30650D01*
Y30850D01*
X28500Y30950D01*
X28300D01*
X28200Y30850D01*
Y30750D01*
X28300Y30650D01*
X28600D01*
X33250Y40100D02*
X32650D01*
Y40400D01*
X32750Y40500D01*
X32950D01*
X33050Y40400D01*
Y40100D01*
Y40300D02*
X33250Y40500D01*
X32650Y41100D02*
Y40700D01*
X32950D01*
X32850Y40900D01*
Y41000D01*
X32950Y41100D01*
X33150D01*
X33250Y41000D01*
Y40800D01*
X33150Y40700D01*
X31400Y39250D02*
Y39850D01*
X31700D01*
X31800Y39750D01*
Y39550D01*
X31700Y39450D01*
X31400D01*
X31600D02*
X31800Y39250D01*
X32300D02*
Y39850D01*
X32000Y39550D01*
X32400D01*
X30100Y40270D02*
Y40870D01*
X30400D01*
X30500Y40770D01*
Y40570D01*
X30400Y40470D01*
X30100D01*
X30300D02*
X30500Y40270D01*
X30700Y40770D02*
X30800Y40870D01*
X31000D01*
X31100Y40770D01*
Y40670D01*
X31000Y40570D01*
X30900D01*
X31000D01*
X31100Y40470D01*
Y40370D01*
X31000Y40270D01*
X30800D01*
X30700Y40370D01*
X38400Y39800D02*
Y40400D01*
X38700D01*
X38800Y40300D01*
Y40100D01*
X38700Y40000D01*
X38400D01*
X38600D02*
X38800Y39800D01*
X39400D02*
X39000D01*
X39400Y40200D01*
Y40300D01*
X39300Y40400D01*
X39100D01*
X39000Y40300D01*
X40150Y39200D02*
X40750D01*
Y38900D01*
X40650Y38800D01*
X40450D01*
X40350Y38900D01*
Y39200D01*
Y39000D02*
X40150Y38800D01*
Y38600D02*
Y38400D01*
Y38500D01*
X40750D01*
X40650Y38600D01*
X22350Y40750D02*
Y41350D01*
X22650D01*
X22750Y41250D01*
Y41050D01*
X22650Y40950D01*
X22350D01*
X23250Y40750D02*
Y41350D01*
X22950Y41050D01*
X23350D01*
X22200Y33000D02*
Y33600D01*
X22500D01*
X22600Y33500D01*
Y33300D01*
X22500Y33200D01*
X22200D01*
X23200Y33000D02*
X22800D01*
X23200Y33400D01*
Y33500D01*
X23100Y33600D01*
X22900D01*
X22800Y33500D01*
X30850Y37450D02*
X30950Y37350D01*
X31150D01*
X31250Y37450D01*
Y37850D01*
X31150Y37950D01*
X30950D01*
X30850Y37850D01*
X30350Y37950D02*
Y37350D01*
X30650Y37650D01*
X30250D01*
X36550Y41800D02*
Y42400D01*
X36850D01*
X36950Y42300D01*
Y42100D01*
X36850Y42000D01*
X36550D01*
X36750D02*
X36950Y41800D01*
X37150D02*
X37350D01*
X37250D01*
Y42400D01*
X37150Y42300D01*
X37950Y41800D02*
Y42400D01*
X37650Y42100D01*
X38050D01*
X26700Y23000D02*
X26100D01*
Y23300D01*
X26200Y23400D01*
X26400D01*
X26500Y23300D01*
Y23000D01*
Y23200D02*
X26700Y23400D01*
Y23600D02*
Y23800D01*
Y23700D01*
X26100D01*
X26200Y23600D01*
X26100Y24500D02*
Y24100D01*
X26400D01*
X26300Y24300D01*
Y24400D01*
X26400Y24500D01*
X26600D01*
X26700Y24400D01*
Y24200D01*
X26600Y24100D01*
X26700Y33834D02*
Y34434D01*
X27000D01*
X27100Y34334D01*
Y34134D01*
X27000Y34034D01*
X26700D01*
X26900D02*
X27100Y33834D01*
X27300D02*
X27500D01*
X27400D01*
Y34434D01*
X27300Y34334D01*
X28200Y34434D02*
X28000Y34334D01*
X27800Y34134D01*
Y33934D01*
X27900Y33834D01*
X28100D01*
X28200Y33934D01*
Y34034D01*
X28100Y34134D01*
X27800D01*
X26580Y42550D02*
Y43150D01*
X26880D01*
X26980Y43050D01*
Y42850D01*
X26880Y42750D01*
X26580D01*
X26780D02*
X26980Y42550D01*
X27180D02*
X27380D01*
X27280D01*
Y43150D01*
X27180Y43050D01*
X27680Y43150D02*
X28080D01*
Y43050D01*
X27680Y42650D01*
Y42550D01*
X39350Y35367D02*
X39417Y35233D01*
X39550Y35100D01*
X39683D01*
X39750Y35167D01*
Y35300D01*
X39683Y35367D01*
X39617D01*
X39550Y35300D01*
Y35100D01*
X40350Y35367D02*
Y35100D01*
X40550D01*
X40483Y35233D01*
Y35300D01*
X40550Y35367D01*
X40683D01*
X40750Y35300D01*
Y35167D01*
X40683Y35100D01*
X40750Y31370D02*
Y31503D01*
Y31437D01*
X40350D01*
X40417Y31370D01*
X39750Y31497D02*
Y31230D01*
X39483Y31497D01*
X39417D01*
X39350Y31430D01*
Y31297D01*
X39417Y31230D01*
D43*
X26941Y25357D02*
G03*
X26941Y25357I-49J0D01*
G01*
X27706Y41259D02*
G03*
X27706Y41259I-49J0D01*
G01*
X28206Y33559D02*
G03*
X28206Y33559I-49J0D01*
G01*
D44*
X27009Y25721D02*
Y26076D01*
X27324D01*
X28191Y25721D02*
Y26076D01*
X27876D02*
X28191D01*
X28021Y41141D02*
X28376D01*
Y40826D02*
Y41141D01*
X28021Y39959D02*
X28376D01*
Y40274D01*
X28521Y33441D02*
X28876D01*
Y33126D02*
Y33441D01*
X28521Y32259D02*
X28876D01*
Y32574D01*
M02*
