G04 Layer_Physical_Order=1*
G04 Layer_Color=255*
%FSLAX44Y44*%
%MOMM*%
G71*
G01*
G75*
%ADD10R,1.1500X0.6000*%
%ADD11R,1.5000X1.3000*%
%ADD12R,1.3000X1.5000*%
%ADD13R,0.6000X1.1500*%
%ADD14R,2.5000X0.4500*%
%ADD15O,2.5000X0.4500*%
%ADD16O,0.4500X2.5000*%
%ADD17C,0.3810*%
%ADD18C,1.0160*%
%ADD19C,4.0000*%
%ADD20R,1.5000X1.5000*%
%ADD21C,1.5000*%
%ADD22C,1.5240*%
%ADD23R,3.0000X3.0000*%
%ADD24C,3.0000*%
%ADD25C,2.0000*%
%ADD26R,2.0000X2.0000*%
%ADD27R,1.5000X1.5000*%
%ADD28O,2.0000X3.0000*%
%ADD29R,2.5400X2.0000*%
%ADD30O,2.5400X2.0000*%
%ADD31C,1.0000*%
%ADD32C,0.5000*%
G36*
X1398905Y459740D02*
X1927225D01*
X1927225Y1137920D01*
X1398905Y1137920D01*
X1398905Y459740D01*
D02*
G37*
%LPC*%
G36*
X1759585Y1117353D02*
Y1109980D01*
X1752212D01*
X1752227Y1110092D01*
X1753250Y1112564D01*
X1754879Y1114686D01*
X1757001Y1116315D01*
X1759473Y1117338D01*
X1759585Y1117353D01*
D02*
G37*
G36*
X1764665D02*
X1764777Y1117338D01*
X1767249Y1116315D01*
X1769371Y1114686D01*
X1771000Y1112564D01*
X1772023Y1110092D01*
X1772038Y1109980D01*
X1764665D01*
Y1117353D01*
D02*
G37*
G36*
X1752212Y1104900D02*
X1759585D01*
Y1097527D01*
X1759473Y1097542D01*
X1757001Y1098565D01*
X1754879Y1100194D01*
X1753250Y1102316D01*
X1752227Y1104788D01*
X1752212Y1104900D01*
D02*
G37*
G36*
X1764665D02*
X1772038D01*
X1772023Y1104788D01*
X1771000Y1102316D01*
X1769371Y1100194D01*
X1767249Y1098565D01*
X1764777Y1097542D01*
X1764665Y1097527D01*
Y1104900D01*
D02*
G37*
G36*
X1504435Y1103510D02*
X1511935D01*
Y1096010D01*
X1504435D01*
Y1103510D01*
D02*
G37*
G36*
X1517015D02*
X1524515D01*
Y1096010D01*
X1517015D01*
Y1103510D01*
D02*
G37*
G36*
X1621155Y1101992D02*
Y1094740D01*
X1613903D01*
X1613913Y1094821D01*
X1614925Y1097263D01*
X1616534Y1099361D01*
X1618632Y1100970D01*
X1621074Y1101982D01*
X1621155Y1101992D01*
D02*
G37*
G36*
X1626235D02*
X1626316Y1101982D01*
X1628758Y1100970D01*
X1630856Y1099361D01*
X1632465Y1097263D01*
X1633477Y1094821D01*
X1633487Y1094740D01*
X1626235D01*
Y1101992D01*
D02*
G37*
G36*
X1702435Y1100722D02*
Y1093470D01*
X1695183D01*
X1695193Y1093551D01*
X1696205Y1095993D01*
X1697814Y1098091D01*
X1699912Y1099700D01*
X1702354Y1100712D01*
X1702435Y1100722D01*
D02*
G37*
G36*
X1707515D02*
X1707596Y1100712D01*
X1710038Y1099700D01*
X1712136Y1098091D01*
X1713745Y1095993D01*
X1714757Y1093551D01*
X1714767Y1093470D01*
X1707515D01*
Y1100722D01*
D02*
G37*
G36*
X1504435Y1090930D02*
X1511935D01*
Y1083430D01*
X1504435D01*
Y1090930D01*
D02*
G37*
G36*
X1517015D02*
X1524515D01*
Y1083430D01*
X1517015D01*
Y1090930D01*
D02*
G37*
G36*
X1613903Y1089660D02*
X1621155D01*
Y1082408D01*
X1621074Y1082418D01*
X1618632Y1083430D01*
X1616534Y1085039D01*
X1614925Y1087137D01*
X1613913Y1089579D01*
X1613903Y1089660D01*
D02*
G37*
G36*
X1626235D02*
X1633487D01*
X1633477Y1089579D01*
X1632465Y1087137D01*
X1630856Y1085039D01*
X1628758Y1083430D01*
X1626316Y1082418D01*
X1626235Y1082408D01*
Y1089660D01*
D02*
G37*
G36*
X1695183Y1088390D02*
X1702435D01*
Y1081138D01*
X1702354Y1081148D01*
X1699912Y1082160D01*
X1697814Y1083769D01*
X1696205Y1085867D01*
X1695193Y1088309D01*
X1695183Y1088390D01*
D02*
G37*
G36*
X1707515D02*
X1714767D01*
X1714757Y1088309D01*
X1713745Y1085867D01*
X1712136Y1083769D01*
X1710038Y1082160D01*
X1707596Y1081148D01*
X1707515Y1081138D01*
Y1088390D01*
D02*
G37*
G36*
X1438275Y1126279D02*
X1442694Y1125844D01*
X1446942Y1124555D01*
X1450858Y1122462D01*
X1454290Y1119645D01*
X1457107Y1116213D01*
X1459200Y1112297D01*
X1460489Y1108049D01*
X1460924Y1103630D01*
X1460489Y1099211D01*
X1459200Y1094963D01*
X1457107Y1091047D01*
X1454290Y1087615D01*
X1450858Y1084798D01*
X1446942Y1082705D01*
X1442694Y1081416D01*
X1438275Y1080981D01*
X1433856Y1081416D01*
X1429608Y1082705D01*
X1425692Y1084798D01*
X1422260Y1087615D01*
X1419443Y1091047D01*
X1417350Y1094963D01*
X1416061Y1099211D01*
X1415626Y1103630D01*
X1416061Y1108049D01*
X1417350Y1112297D01*
X1419443Y1116213D01*
X1422260Y1119645D01*
X1425692Y1122462D01*
X1429608Y1124555D01*
X1433856Y1125844D01*
X1438275Y1126279D01*
D02*
G37*
G36*
X1885705D02*
X1890124Y1125844D01*
X1894372Y1124555D01*
X1898288Y1122462D01*
X1901720Y1119645D01*
X1904537Y1116213D01*
X1906630Y1112297D01*
X1907919Y1108049D01*
X1908354Y1103630D01*
X1907919Y1099211D01*
X1906630Y1094963D01*
X1904537Y1091047D01*
X1901720Y1087615D01*
X1898288Y1084798D01*
X1894372Y1082705D01*
X1890124Y1081416D01*
X1885705Y1080981D01*
X1881286Y1081416D01*
X1877038Y1082705D01*
X1873122Y1084798D01*
X1869690Y1087615D01*
X1866873Y1091047D01*
X1864780Y1094963D01*
X1863491Y1099211D01*
X1863056Y1103630D01*
X1863491Y1108049D01*
X1864780Y1112297D01*
X1866873Y1116213D01*
X1869690Y1119645D01*
X1873122Y1122462D01*
X1877038Y1124555D01*
X1881286Y1125844D01*
X1885705Y1126279D01*
D02*
G37*
G36*
X1776355Y1074300D02*
X1794435D01*
Y1068792D01*
X1854835D01*
X1854835Y1068792D01*
X1856569Y1068447D01*
X1858040Y1067465D01*
X1885980Y1039525D01*
X1886962Y1038054D01*
X1887307Y1036320D01*
Y1007110D01*
X1886962Y1005376D01*
X1885980Y1003905D01*
X1875827Y993752D01*
X1876047Y993221D01*
X1876392Y990600D01*
X1876047Y987979D01*
X1875035Y985537D01*
X1873426Y983439D01*
X1871328Y981830D01*
X1868886Y980818D01*
X1866265Y980473D01*
X1863644Y980818D01*
X1861202Y981830D01*
X1859104Y983439D01*
X1857495Y985537D01*
X1856483Y987979D01*
X1856138Y990600D01*
X1856483Y993221D01*
X1857495Y995663D01*
X1859104Y997761D01*
X1861202Y999370D01*
X1863644Y1000382D01*
X1866265Y1000727D01*
X1868886Y1000382D01*
X1869417Y1000162D01*
X1874042Y1004787D01*
X1873556Y1005960D01*
X1856225D01*
Y1026040D01*
X1876305D01*
Y1009034D01*
X1877494Y1008513D01*
X1878243Y1009117D01*
Y1034443D01*
X1852958Y1059728D01*
X1794435D01*
Y1054220D01*
X1776355D01*
Y1074300D01*
D02*
G37*
G36*
X1569085Y1052462D02*
Y1045210D01*
X1561833D01*
X1561843Y1045291D01*
X1562855Y1047733D01*
X1564464Y1049831D01*
X1566562Y1051440D01*
X1569004Y1052452D01*
X1569085Y1052462D01*
D02*
G37*
G36*
X1754355Y1074300D02*
X1772435D01*
Y1054220D01*
X1767747D01*
Y1045010D01*
X1771505D01*
Y1044002D01*
X1809115D01*
Y1052670D01*
X1839595D01*
Y1027590D01*
X1832095D01*
X1831843Y1026320D01*
X1833379Y1025684D01*
X1835999Y1023674D01*
X1838009Y1021054D01*
X1839272Y1018004D01*
X1839703Y1014730D01*
X1839272Y1011456D01*
X1838009Y1008406D01*
X1835999Y1005786D01*
X1833379Y1003776D01*
X1830822Y1002717D01*
Y1001343D01*
X1833379Y1000284D01*
X1835999Y998274D01*
X1838009Y995654D01*
X1839272Y992604D01*
X1839369Y991870D01*
X1824355D01*
X1809341D01*
X1809438Y992604D01*
X1810701Y995654D01*
X1812711Y998274D01*
X1815331Y1000284D01*
X1817888Y1001343D01*
Y1002717D01*
X1815331Y1003776D01*
X1812711Y1005786D01*
X1810701Y1008406D01*
X1809438Y1011456D01*
X1809007Y1014730D01*
X1809438Y1018004D01*
X1810701Y1021054D01*
X1812711Y1023674D01*
X1815331Y1025684D01*
X1816867Y1026320D01*
X1816615Y1027590D01*
X1809115D01*
Y1034938D01*
X1771505D01*
Y1033930D01*
X1754925D01*
Y1045010D01*
X1758683D01*
Y1054220D01*
X1754355D01*
Y1074300D01*
D02*
G37*
G36*
X1561833Y1040130D02*
X1569085D01*
Y1032878D01*
X1569004Y1032888D01*
X1566562Y1033900D01*
X1564464Y1035509D01*
X1562855Y1037607D01*
X1561843Y1040049D01*
X1561833Y1040130D01*
D02*
G37*
G36*
X1732425Y1035510D02*
X1738175D01*
Y1032510D01*
X1732425D01*
Y1035510D01*
D02*
G37*
G36*
X1743255D02*
X1749005D01*
Y1032510D01*
X1743255D01*
Y1035510D01*
D02*
G37*
G36*
X1732425Y1027430D02*
X1738175D01*
Y1024430D01*
X1732425D01*
Y1027430D01*
D02*
G37*
G36*
X1743255D02*
X1749005D01*
Y1024430D01*
X1743255D01*
Y1027430D01*
D02*
G37*
G36*
X1684775Y1016560D02*
X1692275D01*
Y1010060D01*
X1684775D01*
Y1016560D01*
D02*
G37*
G36*
X1697355D02*
X1704855D01*
Y1010060D01*
X1697355D01*
Y1016560D01*
D02*
G37*
G36*
X1515745Y1013092D02*
Y1005840D01*
X1508493D01*
X1508503Y1005921D01*
X1509515Y1008363D01*
X1511124Y1010461D01*
X1513222Y1012070D01*
X1515664Y1013082D01*
X1515745Y1013092D01*
D02*
G37*
G36*
X1520825D02*
X1520906Y1013082D01*
X1523348Y1012070D01*
X1525446Y1010461D01*
X1527055Y1008363D01*
X1528067Y1005921D01*
X1528077Y1005840D01*
X1520825D01*
Y1013092D01*
D02*
G37*
G36*
X1684775Y1004980D02*
X1692275D01*
Y998480D01*
X1684775D01*
Y1004980D01*
D02*
G37*
G36*
X1697355D02*
X1704855D01*
Y998480D01*
X1697355D01*
Y1004980D01*
D02*
G37*
G36*
X1508493Y1000760D02*
X1515745D01*
Y993508D01*
X1515664Y993518D01*
X1513222Y994530D01*
X1511124Y996139D01*
X1509515Y998237D01*
X1508503Y1000679D01*
X1508493Y1000760D01*
D02*
G37*
G36*
X1520825D02*
X1528077D01*
X1528067Y1000679D01*
X1527055Y998237D01*
X1525446Y996139D01*
X1523348Y994530D01*
X1520906Y993518D01*
X1520825Y993508D01*
Y1000760D01*
D02*
G37*
G36*
X1754925Y1026010D02*
X1771505D01*
Y1014930D01*
X1767927D01*
Y1010210D01*
X1773435D01*
Y992130D01*
X1753355D01*
Y1010210D01*
X1758863D01*
Y1014930D01*
X1754925D01*
Y1026010D01*
D02*
G37*
G36*
X1556385Y1118322D02*
X1707515D01*
X1709249Y1117977D01*
X1710720Y1116995D01*
X1726744Y1100970D01*
X1740415D01*
Y1080890D01*
X1720335D01*
Y1094561D01*
X1705638Y1109258D01*
X1611717D01*
Y1052980D01*
X1617225D01*
Y1038244D01*
X1618414Y1037723D01*
X1619163Y1038327D01*
Y1056760D01*
X1613655D01*
Y1076840D01*
X1633735D01*
Y1072219D01*
X1634878Y1071824D01*
X1635005Y1071819D01*
X1646989Y1083803D01*
X1645405Y1085867D01*
X1644393Y1088309D01*
X1644048Y1090930D01*
X1644393Y1093551D01*
X1645405Y1095993D01*
X1647014Y1098091D01*
X1649112Y1099700D01*
X1651554Y1100712D01*
X1654175Y1101057D01*
X1656796Y1100712D01*
X1659238Y1099700D01*
X1661336Y1098091D01*
X1662945Y1095993D01*
X1663957Y1093551D01*
X1664302Y1090930D01*
X1663957Y1088309D01*
X1662945Y1085867D01*
X1661336Y1083769D01*
X1659238Y1082160D01*
X1657393Y1081396D01*
X1657380Y1081375D01*
X1642712Y1066708D01*
Y1062136D01*
X1643885Y1061650D01*
X1670013Y1087778D01*
X1669793Y1088309D01*
X1669448Y1090930D01*
X1669793Y1093551D01*
X1670805Y1095993D01*
X1672414Y1098091D01*
X1674512Y1099700D01*
X1676954Y1100712D01*
X1679575Y1101057D01*
X1682196Y1100712D01*
X1684638Y1099700D01*
X1686736Y1098091D01*
X1688345Y1095993D01*
X1689357Y1093551D01*
X1689702Y1090930D01*
X1689357Y1088309D01*
X1688345Y1085867D01*
X1686736Y1083769D01*
X1684638Y1082160D01*
X1682196Y1081148D01*
X1679575Y1080803D01*
X1676954Y1081148D01*
X1676423Y1081368D01*
X1649062Y1054008D01*
Y1030019D01*
X1648717Y1028284D01*
X1647735Y1026814D01*
X1627397Y1006476D01*
Y994841D01*
X1628667Y994162D01*
X1628996Y994382D01*
X1630865Y994754D01*
X1632734Y994382D01*
X1634318Y993323D01*
X1635377Y991739D01*
X1635505Y991096D01*
X1636765Y990052D01*
X1646405D01*
Y995560D01*
X1664485D01*
Y975480D01*
X1646405D01*
Y980988D01*
X1638642D01*
X1635749Y978094D01*
Y969370D01*
X1635377Y967501D01*
X1634318Y965917D01*
X1632734Y964858D01*
X1630865Y964486D01*
X1628996Y964858D01*
X1627712Y965716D01*
X1626865Y965838D01*
X1626018Y965716D01*
X1624734Y964858D01*
X1622865Y964486D01*
X1620996Y964858D01*
X1619712Y965716D01*
X1618865Y965838D01*
X1618018Y965716D01*
X1616734Y964858D01*
X1614865Y964486D01*
X1612996Y964858D01*
X1611712Y965716D01*
X1610865Y965838D01*
X1610018Y965716D01*
X1608734Y964858D01*
X1606865Y964486D01*
X1604996Y964858D01*
X1603712Y965716D01*
X1602865Y965838D01*
X1602018Y965716D01*
X1600734Y964858D01*
X1598865Y964486D01*
X1596996Y964858D01*
X1595712Y965716D01*
X1594865Y965838D01*
X1594018Y965716D01*
X1592734Y964858D01*
X1590865Y964486D01*
X1588996Y964858D01*
X1587712Y965716D01*
X1586865Y965838D01*
X1586018Y965716D01*
X1584734Y964858D01*
X1582865Y964486D01*
X1580996Y964858D01*
X1579712Y965716D01*
X1578865Y965838D01*
X1578018Y965716D01*
X1576734Y964858D01*
X1574865Y964486D01*
X1572996Y964858D01*
X1571411Y965917D01*
X1570353Y967501D01*
X1569981Y969370D01*
Y987105D01*
X1523977Y1033109D01*
X1523446Y1032888D01*
X1520825Y1032543D01*
X1518204Y1032888D01*
X1515762Y1033900D01*
X1513664Y1035509D01*
X1512055Y1037607D01*
X1511043Y1040049D01*
X1510698Y1042670D01*
X1511043Y1045291D01*
X1512055Y1047733D01*
X1513664Y1049831D01*
X1515762Y1051440D01*
X1518204Y1052452D01*
X1520825Y1052797D01*
X1523446Y1052452D01*
X1525888Y1051440D01*
X1527986Y1049831D01*
X1529595Y1047733D01*
X1530607Y1045291D01*
X1530952Y1042670D01*
X1530607Y1040049D01*
X1530387Y1039518D01*
X1575221Y994683D01*
X1576734Y994382D01*
X1577063Y994162D01*
X1578333Y994841D01*
Y1002883D01*
X1548388Y1032828D01*
X1546225Y1032543D01*
X1543604Y1032888D01*
X1541162Y1033900D01*
X1539064Y1035509D01*
X1537455Y1037607D01*
X1536443Y1040049D01*
X1536098Y1042670D01*
X1536443Y1045291D01*
X1537455Y1047733D01*
X1539064Y1049831D01*
X1541162Y1051440D01*
X1543604Y1052452D01*
X1546225Y1052797D01*
X1548846Y1052452D01*
X1551288Y1051440D01*
X1553386Y1049831D01*
X1554995Y1047733D01*
X1556007Y1045291D01*
X1556352Y1042670D01*
X1556007Y1040049D01*
X1555414Y1038620D01*
X1578620Y1015415D01*
X1579793Y1015901D01*
Y1034907D01*
X1578523Y1035308D01*
X1576688Y1033900D01*
X1574246Y1032888D01*
X1574165Y1032878D01*
Y1042670D01*
Y1052462D01*
X1574246Y1052452D01*
X1576688Y1051440D01*
X1578523Y1050032D01*
X1579793Y1050433D01*
Y1058030D01*
X1568075D01*
Y1076641D01*
X1562070Y1082645D01*
X1562070Y1082645D01*
X1561088Y1084116D01*
X1561040Y1084357D01*
X1560212Y1084700D01*
X1558114Y1086309D01*
X1556505Y1088407D01*
X1555493Y1090849D01*
X1555148Y1093470D01*
X1555493Y1096091D01*
X1556505Y1098533D01*
X1558114Y1100631D01*
X1560212Y1102240D01*
X1562654Y1103252D01*
X1565275Y1103597D01*
X1567896Y1103252D01*
X1570338Y1102240D01*
X1572436Y1100631D01*
X1574045Y1098533D01*
X1575057Y1096091D01*
X1575402Y1093470D01*
X1575057Y1090849D01*
X1574045Y1088407D01*
X1572436Y1086309D01*
X1572361Y1085173D01*
X1579424Y1078110D01*
X1586155D01*
Y1078110D01*
X1587413Y1078139D01*
Y1083954D01*
X1585612Y1084700D01*
X1583514Y1086309D01*
X1581905Y1088407D01*
X1580893Y1090849D01*
X1580548Y1093470D01*
X1580893Y1096091D01*
X1581905Y1098533D01*
X1583514Y1100631D01*
X1585612Y1102240D01*
X1588054Y1103252D01*
X1590675Y1103597D01*
X1593296Y1103252D01*
X1595738Y1102240D01*
X1597836Y1100631D01*
X1599445Y1098533D01*
X1600457Y1096091D01*
X1600802Y1093470D01*
X1600457Y1090849D01*
X1599445Y1088407D01*
X1597836Y1086309D01*
X1596477Y1085267D01*
Y1053973D01*
X1597145Y1052980D01*
X1602653D01*
Y1109258D01*
X1558262D01*
X1548164Y1099160D01*
X1548645Y1098533D01*
X1549657Y1096091D01*
X1550002Y1093470D01*
X1549657Y1090849D01*
X1548693Y1088522D01*
X1558320Y1078895D01*
X1558844Y1078110D01*
X1564155D01*
Y1058030D01*
X1546075D01*
Y1078110D01*
X1546075Y1078110D01*
X1546075D01*
X1545352Y1079043D01*
X1541780Y1082616D01*
X1505465Y1046301D01*
Y1032630D01*
X1491794D01*
X1491067Y1031903D01*
Y1008940D01*
X1496575D01*
Y990860D01*
X1476495D01*
Y995368D01*
X1469905D01*
Y990860D01*
X1449825D01*
Y1008940D01*
X1469905D01*
Y1004432D01*
X1476495D01*
Y1008940D01*
X1482003D01*
Y1033780D01*
X1482003Y1033780D01*
X1482348Y1035514D01*
X1483330Y1036985D01*
X1483330Y1036985D01*
X1485385Y1039039D01*
Y1052710D01*
X1499056D01*
X1532689Y1086343D01*
X1531105Y1088407D01*
X1530093Y1090849D01*
X1529748Y1093470D01*
X1530093Y1096091D01*
X1531105Y1098533D01*
X1532714Y1100631D01*
X1534812Y1102240D01*
X1537254Y1103252D01*
X1539768Y1103583D01*
X1553180Y1116995D01*
X1554651Y1117977D01*
X1556385Y1118322D01*
D02*
G37*
G36*
X1809341Y986790D02*
X1821815D01*
Y976682D01*
X1821655D01*
X1818381Y977113D01*
X1815331Y978376D01*
X1812711Y980386D01*
X1810701Y983006D01*
X1809438Y986056D01*
X1809341Y986790D01*
D02*
G37*
G36*
X1826895D02*
X1839369D01*
X1839272Y986056D01*
X1838009Y983006D01*
X1835999Y980386D01*
X1833379Y978376D01*
X1830329Y977113D01*
X1827055Y976682D01*
X1826895D01*
Y986790D01*
D02*
G37*
G36*
X1720215Y995647D02*
X1722836Y995302D01*
X1725278Y994290D01*
X1727376Y992681D01*
X1728985Y990583D01*
X1729997Y988141D01*
X1730342Y985520D01*
X1729997Y982899D01*
X1728985Y980457D01*
X1727376Y978359D01*
X1725278Y976750D01*
X1722836Y975738D01*
X1720215Y975393D01*
X1717594Y975738D01*
X1715152Y976750D01*
X1713054Y978359D01*
X1711445Y980457D01*
X1711225Y980988D01*
X1704855D01*
Y976480D01*
X1686485D01*
Y975480D01*
X1668405D01*
Y995560D01*
X1686485D01*
Y994560D01*
X1704855D01*
Y990052D01*
X1711225D01*
X1711445Y990583D01*
X1713054Y992681D01*
X1715152Y994290D01*
X1717594Y995302D01*
X1720215Y995647D01*
D02*
G37*
G36*
Y970247D02*
X1722836Y969902D01*
X1725278Y968890D01*
X1727376Y967281D01*
X1728985Y965183D01*
X1729997Y962741D01*
X1730342Y960120D01*
X1729997Y957499D01*
X1728985Y955057D01*
X1727376Y952959D01*
X1725278Y951350D01*
X1722836Y950338D01*
X1720215Y949993D01*
X1717594Y950338D01*
X1715152Y951350D01*
X1713054Y952959D01*
X1711445Y955057D01*
X1711225Y955588D01*
X1666568D01*
X1665502Y955351D01*
X1664977Y954214D01*
X1665127Y953989D01*
X1665499Y952120D01*
X1665127Y950251D01*
X1664269Y948967D01*
X1664147Y948120D01*
X1664269Y947273D01*
X1664679Y946660D01*
X1650365D01*
X1636051D01*
X1636461Y947273D01*
X1636583Y948120D01*
X1636461Y948967D01*
X1635603Y950251D01*
X1635231Y952120D01*
X1635603Y953989D01*
X1635847Y954354D01*
X1635325Y955330D01*
X1635325D01*
Y964910D01*
X1665405D01*
Y964652D01*
X1711225D01*
X1711445Y965183D01*
X1713054Y967281D01*
X1715152Y968890D01*
X1717594Y969902D01*
X1720215Y970247D01*
D02*
G37*
G36*
X1508245Y987940D02*
X1528325D01*
Y982432D01*
X1537585D01*
X1539319Y982087D01*
X1540790Y981105D01*
X1540790Y981105D01*
X1556890Y965004D01*
X1565615D01*
X1567484Y964632D01*
X1569068Y963573D01*
X1570127Y961989D01*
X1570499Y960120D01*
X1570127Y958251D01*
X1569269Y956967D01*
X1569147Y956120D01*
X1569269Y955273D01*
X1570127Y953989D01*
X1570499Y952120D01*
X1570127Y950251D01*
X1569269Y948967D01*
X1569147Y948120D01*
X1569269Y947273D01*
X1570127Y945989D01*
X1570499Y944120D01*
X1570127Y942251D01*
X1569269Y940967D01*
X1569147Y940120D01*
X1569269Y939273D01*
X1569679Y938660D01*
X1555365D01*
X1541051D01*
X1541461Y939273D01*
X1541583Y940120D01*
X1541461Y940967D01*
X1540603Y942251D01*
X1540231Y944120D01*
X1540603Y945989D01*
X1541077Y946698D01*
X1540398Y947968D01*
X1533405D01*
Y943610D01*
X1513325D01*
Y947968D01*
X1469905D01*
Y942460D01*
X1449825D01*
Y962540D01*
X1455333D01*
Y968860D01*
X1449825D01*
Y986940D01*
X1469905D01*
Y968860D01*
X1464397D01*
Y962540D01*
X1469905D01*
Y957032D01*
X1539947D01*
X1540615Y958077D01*
X1540593Y958302D01*
X1540231Y960120D01*
X1540603Y961989D01*
X1541662Y963573D01*
X1542887Y964392D01*
X1543247Y965829D01*
X1535708Y973368D01*
X1528325D01*
Y967860D01*
X1508245D01*
Y973368D01*
X1496575D01*
Y968860D01*
X1476495D01*
Y986940D01*
X1496575D01*
Y982432D01*
X1508245D01*
Y987940D01*
D02*
G37*
G36*
X1673345Y946300D02*
X1680845D01*
Y939800D01*
X1673345D01*
Y946300D01*
D02*
G37*
G36*
X1685925D02*
X1693425D01*
Y939800D01*
X1685925D01*
Y946300D01*
D02*
G37*
G36*
X1717675Y944512D02*
Y937260D01*
X1710423D01*
X1710433Y937341D01*
X1711445Y939783D01*
X1713054Y941881D01*
X1715152Y943490D01*
X1717594Y944502D01*
X1717675Y944512D01*
D02*
G37*
G36*
X1722755D02*
X1722836Y944502D01*
X1725278Y943490D01*
X1727376Y941881D01*
X1728985Y939783D01*
X1729997Y937341D01*
X1730007Y937260D01*
X1722755D01*
Y944512D01*
D02*
G37*
G36*
X1513325Y938530D02*
X1520825D01*
Y932030D01*
X1513325D01*
Y938530D01*
D02*
G37*
G36*
X1525905D02*
X1533405D01*
Y932030D01*
X1525905D01*
Y938530D01*
D02*
G37*
G36*
X1673345Y934720D02*
X1680845D01*
Y928220D01*
X1673345D01*
Y934720D01*
D02*
G37*
G36*
X1685925D02*
X1693425D01*
Y928220D01*
X1685925D01*
Y934720D01*
D02*
G37*
G36*
X1710423Y932180D02*
X1717675D01*
Y924928D01*
X1717594Y924938D01*
X1715152Y925950D01*
X1713054Y927559D01*
X1711445Y929657D01*
X1710433Y932099D01*
X1710423Y932180D01*
D02*
G37*
G36*
X1722755D02*
X1730007D01*
X1729997Y932099D01*
X1728985Y929657D01*
X1727376Y927559D01*
X1725278Y925950D01*
X1722836Y924938D01*
X1722755Y924928D01*
Y932180D01*
D02*
G37*
G36*
X1746885Y930663D02*
Y923290D01*
X1739512D01*
X1739527Y923402D01*
X1740550Y925874D01*
X1742179Y927996D01*
X1744301Y929625D01*
X1746773Y930648D01*
X1746885Y930663D01*
D02*
G37*
G36*
X1457325Y928292D02*
Y921040D01*
X1450073D01*
X1450083Y921121D01*
X1451095Y923563D01*
X1452704Y925661D01*
X1454802Y927270D01*
X1457244Y928282D01*
X1457325Y928292D01*
D02*
G37*
G36*
X1462405D02*
X1462486Y928282D01*
X1464928Y927270D01*
X1467026Y925661D01*
X1468635Y923563D01*
X1469647Y921121D01*
X1469657Y921040D01*
X1462405D01*
Y928292D01*
D02*
G37*
G36*
X1739512Y918210D02*
X1746885D01*
Y910837D01*
X1746773Y910852D01*
X1744301Y911875D01*
X1742179Y913504D01*
X1740550Y915626D01*
X1739527Y918098D01*
X1739512Y918210D01*
D02*
G37*
G36*
X1753355Y988210D02*
X1773435D01*
Y970130D01*
X1767927D01*
Y913130D01*
X1767582Y911396D01*
X1766600Y909925D01*
X1732310Y875635D01*
X1732310Y875635D01*
X1730839Y874653D01*
X1729105Y874308D01*
X1636645D01*
X1635523Y873236D01*
X1635377Y872501D01*
X1634318Y870917D01*
X1633952Y870672D01*
X1634338Y869402D01*
X1645285D01*
X1645285Y869402D01*
X1647019Y869057D01*
X1648490Y868075D01*
X1710662Y805902D01*
X1717525D01*
Y808870D01*
X1735605D01*
Y788790D01*
X1718365D01*
X1717470Y788638D01*
X1717127Y787685D01*
Y653930D01*
X1721635D01*
Y633850D01*
X1703555D01*
Y653930D01*
X1708063D01*
Y786702D01*
X1640777Y853988D01*
X1638605D01*
X1638353Y852718D01*
X1638819Y852525D01*
X1640941Y850896D01*
X1642570Y848774D01*
X1643593Y846302D01*
X1643943Y843650D01*
X1643593Y840998D01*
X1642570Y838526D01*
X1640941Y836404D01*
X1638819Y834775D01*
X1636347Y833752D01*
X1633695Y833402D01*
X1631043Y833752D01*
X1628571Y834775D01*
X1626529Y836342D01*
X1626368Y836394D01*
X1624984Y836226D01*
X1624465Y835448D01*
X1617397Y828380D01*
X1617397Y828380D01*
X1616619Y827860D01*
X1616451Y826477D01*
X1616503Y826316D01*
X1618070Y824274D01*
X1619093Y821802D01*
X1619443Y819150D01*
X1619093Y816498D01*
X1618070Y814026D01*
X1616441Y811904D01*
X1614319Y810275D01*
X1611847Y809251D01*
X1609195Y808902D01*
X1608516Y808992D01*
X1601500Y801975D01*
X1600029Y800993D01*
X1598295Y800648D01*
X1528445D01*
X1526711Y800993D01*
X1525240Y801975D01*
X1515530Y811685D01*
X1514548Y813156D01*
X1514203Y814890D01*
X1514203Y814890D01*
Y866688D01*
X1486159D01*
X1484424Y867033D01*
X1482954Y868015D01*
X1473222Y877747D01*
X1472956Y877703D01*
X1472412Y876326D01*
X1472445Y876283D01*
X1473457Y873841D01*
X1473467Y873760D01*
X1463675D01*
Y871220D01*
X1461135D01*
Y861428D01*
X1461054Y861438D01*
X1458612Y862450D01*
X1456624Y863975D01*
X1456107Y863914D01*
X1455257Y863612D01*
X1455162Y863136D01*
X1454180Y861665D01*
X1445461Y852947D01*
X1447045Y850883D01*
X1448057Y848441D01*
X1448402Y845820D01*
X1448057Y843199D01*
X1447045Y840757D01*
X1445436Y838659D01*
X1443338Y837050D01*
X1440896Y836038D01*
X1438275Y835693D01*
X1435654Y836038D01*
X1433212Y837050D01*
X1431114Y838659D01*
X1429505Y840757D01*
X1428493Y843199D01*
X1428148Y845820D01*
X1428493Y848441D01*
X1429505Y850883D01*
X1431114Y852981D01*
X1433212Y854590D01*
X1435057Y855354D01*
X1435070Y855375D01*
X1435070Y855375D01*
X1439695Y859999D01*
X1439102Y861202D01*
X1438275Y861093D01*
X1435654Y861438D01*
X1433212Y862450D01*
X1431114Y864059D01*
X1429505Y866157D01*
X1428493Y868599D01*
X1428148Y871220D01*
X1428493Y873841D01*
X1429505Y876283D01*
X1431114Y878381D01*
X1433212Y879990D01*
X1435654Y881002D01*
X1438275Y881347D01*
X1440896Y881002D01*
X1443338Y879990D01*
X1445173Y878582D01*
X1445981Y878746D01*
X1446492Y879090D01*
X1446788Y880574D01*
X1447770Y882045D01*
X1447770Y882045D01*
X1452095Y886370D01*
X1453566Y887352D01*
X1455300Y887697D01*
X1474214D01*
X1474214Y887697D01*
X1475948Y887352D01*
X1477419Y886370D01*
X1477419Y886370D01*
X1488036Y875752D01*
X1518053D01*
X1541779Y899478D01*
X1541662Y900667D01*
X1540603Y902251D01*
X1540231Y904120D01*
X1540603Y905989D01*
X1541461Y907273D01*
X1541583Y908120D01*
X1541461Y908967D01*
X1540603Y910251D01*
X1540231Y912120D01*
X1540603Y913989D01*
X1540823Y914318D01*
X1540144Y915588D01*
X1533405D01*
Y910030D01*
X1513325D01*
Y914538D01*
X1508005D01*
Y910440D01*
X1487925D01*
Y928520D01*
X1508005D01*
Y923602D01*
X1513325D01*
Y928110D01*
X1533405D01*
Y924652D01*
X1540144D01*
X1540823Y925922D01*
X1540603Y926251D01*
X1540231Y928120D01*
X1540603Y929989D01*
X1541461Y931273D01*
X1541583Y932120D01*
X1541461Y932967D01*
X1541051Y933580D01*
X1555365D01*
X1570090D01*
X1570586Y932652D01*
X1610138D01*
X1616810Y939325D01*
X1618281Y940307D01*
X1620015Y940652D01*
X1635144D01*
X1635640Y941580D01*
X1650365D01*
X1664679D01*
X1664269Y940967D01*
X1664147Y940120D01*
X1664269Y939273D01*
X1665127Y937989D01*
X1665499Y936120D01*
X1665127Y934251D01*
X1664269Y932967D01*
X1664147Y932120D01*
X1664269Y931273D01*
X1664679Y930660D01*
X1650365D01*
Y925580D01*
X1665090D01*
X1665586Y924652D01*
X1678075D01*
X1679809Y924307D01*
X1679820Y924300D01*
X1693425D01*
Y913852D01*
X1710175D01*
Y919360D01*
X1730255D01*
Y899280D01*
X1710175D01*
Y904788D01*
X1704427D01*
Y890019D01*
X1704643Y889697D01*
X1705034Y887730D01*
X1704643Y885763D01*
X1703893Y884642D01*
X1704557Y883372D01*
X1727228D01*
X1754220Y910364D01*
X1753501Y911441D01*
X1752077Y910852D01*
X1751965Y910837D01*
Y920750D01*
Y930663D01*
X1752077Y930648D01*
X1754549Y929625D01*
X1756671Y927996D01*
X1757593Y926795D01*
X1758863Y927226D01*
Y970130D01*
X1753355D01*
Y988210D01*
D02*
G37*
G36*
X1450073Y915960D02*
X1457325D01*
Y908708D01*
X1457244Y908718D01*
X1454802Y909730D01*
X1452704Y911339D01*
X1451095Y913437D01*
X1450083Y915879D01*
X1450073Y915960D01*
D02*
G37*
G36*
X1462405D02*
X1469657D01*
X1469647Y915879D01*
X1468635Y913437D01*
X1467026Y911339D01*
X1464928Y909730D01*
X1462486Y908718D01*
X1462405Y908708D01*
Y915960D01*
D02*
G37*
G36*
X1522095Y908138D02*
X1524747Y907788D01*
X1527219Y906765D01*
X1529341Y905136D01*
X1530970Y903014D01*
X1531994Y900542D01*
X1532343Y897890D01*
X1531994Y895238D01*
X1530970Y892766D01*
X1529341Y890644D01*
X1527219Y889015D01*
X1524747Y887991D01*
X1522095Y887642D01*
X1519443Y887991D01*
X1516971Y889015D01*
X1514849Y890644D01*
X1513220Y892766D01*
X1513145Y892948D01*
X1508005D01*
Y888440D01*
X1487925D01*
Y906520D01*
X1508005D01*
Y902012D01*
X1512805D01*
X1513220Y903014D01*
X1514849Y905136D01*
X1516971Y906765D01*
X1519443Y907788D01*
X1522095Y908138D01*
D02*
G37*
G36*
X1466215Y868680D02*
X1473467D01*
X1473457Y868599D01*
X1472445Y866157D01*
X1470836Y864059D01*
X1468738Y862450D01*
X1466296Y861438D01*
X1466215Y861428D01*
Y868680D01*
D02*
G37*
G36*
X1809115Y857090D02*
X1839595D01*
Y832010D01*
X1832095D01*
X1831843Y830740D01*
X1833379Y830104D01*
X1835999Y828094D01*
X1838009Y825474D01*
X1839272Y822424D01*
X1839703Y819150D01*
X1839272Y815876D01*
X1838009Y812826D01*
X1835999Y810206D01*
X1833379Y808196D01*
X1830822Y807137D01*
Y805763D01*
X1833379Y804704D01*
X1835999Y802694D01*
X1838009Y800074D01*
X1839272Y797024D01*
X1839369Y796290D01*
X1824355D01*
X1809341D01*
X1809438Y797024D01*
X1810701Y800074D01*
X1812711Y802694D01*
X1815331Y804704D01*
X1817888Y805763D01*
Y807137D01*
X1815331Y808196D01*
X1812711Y810206D01*
X1810701Y812826D01*
X1809438Y815876D01*
X1809007Y819150D01*
X1809438Y822424D01*
X1810701Y825474D01*
X1812711Y828094D01*
X1815331Y830104D01*
X1816867Y830740D01*
X1816615Y832010D01*
X1809115D01*
Y839358D01*
X1791215D01*
Y834850D01*
X1771135D01*
Y839358D01*
X1758805D01*
Y838350D01*
X1742225D01*
Y849430D01*
X1758805D01*
Y848422D01*
X1771135D01*
Y852930D01*
X1791215D01*
Y848422D01*
X1809115D01*
Y857090D01*
D02*
G37*
G36*
X1719725Y839930D02*
X1725475D01*
Y836930D01*
X1719725D01*
Y839930D01*
D02*
G37*
G36*
X1730555D02*
X1736305D01*
Y836930D01*
X1730555D01*
Y839930D01*
D02*
G37*
G36*
X1463675Y855947D02*
X1466296Y855602D01*
X1468738Y854590D01*
X1470836Y852981D01*
X1472445Y850883D01*
X1473457Y848441D01*
X1473802Y845820D01*
X1473457Y843199D01*
X1472445Y840757D01*
X1470836Y838659D01*
X1468738Y837050D01*
X1466296Y836038D01*
X1463675Y835693D01*
X1461054Y836038D01*
X1458612Y837050D01*
X1456514Y838659D01*
X1454905Y840757D01*
X1453893Y843199D01*
X1453548Y845820D01*
X1453893Y848441D01*
X1454905Y850883D01*
X1456514Y852981D01*
X1458612Y854590D01*
X1461054Y855602D01*
X1463675Y855947D01*
D02*
G37*
G36*
X1719725Y831850D02*
X1725475D01*
Y828850D01*
X1719725D01*
Y831850D01*
D02*
G37*
G36*
X1730555D02*
X1736305D01*
Y828850D01*
X1730555D01*
Y831850D01*
D02*
G37*
G36*
X1428235Y830460D02*
X1448315D01*
Y810380D01*
X1428235D01*
Y830460D01*
D02*
G37*
G36*
X1463675Y830547D02*
X1466296Y830202D01*
X1468738Y829190D01*
X1470836Y827581D01*
X1472445Y825483D01*
X1473457Y823041D01*
X1473802Y820420D01*
X1473457Y817799D01*
X1472445Y815357D01*
X1470836Y813259D01*
X1468738Y811650D01*
X1466296Y810638D01*
X1463675Y810293D01*
X1461054Y810638D01*
X1458612Y811650D01*
X1456514Y813259D01*
X1454905Y815357D01*
X1453893Y817799D01*
X1453548Y820420D01*
X1453893Y823041D01*
X1454905Y825483D01*
X1456514Y827581D01*
X1458612Y829190D01*
X1461054Y830202D01*
X1463675Y830547D01*
D02*
G37*
G36*
X1862575Y829190D02*
X1882655D01*
Y809110D01*
X1862575D01*
Y829190D01*
D02*
G37*
G36*
X1633695Y829398D02*
X1636347Y829048D01*
X1638819Y828025D01*
X1640941Y826396D01*
X1642570Y824274D01*
X1643593Y821802D01*
X1643943Y819150D01*
X1643593Y816498D01*
X1642570Y814026D01*
X1640941Y811904D01*
X1638819Y810275D01*
X1636347Y809251D01*
X1633695Y808902D01*
X1631043Y809251D01*
X1628571Y810275D01*
X1626449Y811904D01*
X1624820Y814026D01*
X1623797Y816498D01*
X1623447Y819150D01*
X1623797Y821802D01*
X1624820Y824274D01*
X1626449Y826396D01*
X1628571Y828025D01*
X1631043Y829048D01*
X1633695Y829398D01*
D02*
G37*
G36*
X1742225Y830430D02*
X1758805D01*
Y819350D01*
X1753097D01*
Y808870D01*
X1757605D01*
Y788790D01*
X1739525D01*
Y808870D01*
X1744033D01*
Y819350D01*
X1742225D01*
Y830430D01*
D02*
G37*
G36*
X1809341Y791210D02*
X1821815D01*
Y781102D01*
X1821655D01*
X1818381Y781533D01*
X1815331Y782796D01*
X1812711Y784806D01*
X1810701Y787426D01*
X1809438Y790476D01*
X1809341Y791210D01*
D02*
G37*
G36*
X1826895D02*
X1839369D01*
X1839272Y790476D01*
X1838009Y787426D01*
X1835999Y784806D01*
X1833379Y782796D01*
X1830329Y781533D01*
X1827055Y781102D01*
X1826895D01*
Y791210D01*
D02*
G37*
G36*
X1505585Y788423D02*
Y781050D01*
X1498212D01*
X1498226Y781162D01*
X1499250Y783634D01*
X1500879Y785756D01*
X1503001Y787385D01*
X1505473Y788409D01*
X1505585Y788423D01*
D02*
G37*
G36*
X1510665D02*
X1510777Y788409D01*
X1513249Y787385D01*
X1515371Y785756D01*
X1517000Y783634D01*
X1518024Y781162D01*
X1518038Y781050D01*
X1510665D01*
Y788423D01*
D02*
G37*
G36*
X1771135Y830930D02*
X1791215D01*
Y812850D01*
X1785707D01*
Y795627D01*
X1812262Y769072D01*
X1841528D01*
X1863053Y790598D01*
X1862833Y791129D01*
X1862488Y793750D01*
X1862833Y796371D01*
X1863845Y798813D01*
X1865454Y800911D01*
X1867552Y802520D01*
X1869994Y803532D01*
X1872615Y803877D01*
X1875236Y803532D01*
X1877678Y802520D01*
X1879776Y800911D01*
X1881385Y798813D01*
X1882397Y796371D01*
X1882742Y793750D01*
X1882397Y791129D01*
X1881385Y788687D01*
X1879776Y786589D01*
X1877678Y784980D01*
X1875236Y783968D01*
X1872615Y783623D01*
X1869994Y783968D01*
X1869463Y784189D01*
X1846610Y761335D01*
X1846610Y761335D01*
X1845139Y760353D01*
X1843405Y760008D01*
X1843405Y760008D01*
X1810385D01*
X1808651Y760353D01*
X1807180Y761335D01*
X1777970Y790545D01*
X1777970Y790545D01*
X1776988Y792016D01*
X1776643Y793750D01*
X1776643Y793750D01*
Y812850D01*
X1771135D01*
Y830930D01*
D02*
G37*
G36*
X1498212Y775970D02*
X1505585D01*
Y768597D01*
X1505473Y768612D01*
X1503001Y769635D01*
X1500879Y771264D01*
X1499250Y773386D01*
X1498226Y775858D01*
X1498212Y775970D01*
D02*
G37*
G36*
X1510665D02*
X1518038D01*
X1518024Y775858D01*
X1517000Y773386D01*
X1515371Y771264D01*
X1513249Y769635D01*
X1510777Y768612D01*
X1510665Y768597D01*
Y775970D01*
D02*
G37*
G36*
X1760855Y715814D02*
Y701040D01*
X1750747D01*
Y703500D01*
X1751178Y706774D01*
X1752441Y709824D01*
X1754451Y712444D01*
X1757071Y714454D01*
X1760121Y715717D01*
X1760855Y715814D01*
D02*
G37*
G36*
X1765935D02*
X1766669Y715717D01*
X1769719Y714454D01*
X1772339Y712444D01*
X1774349Y709824D01*
X1775612Y706774D01*
X1776043Y703500D01*
Y701040D01*
X1765935D01*
Y715814D01*
D02*
G37*
G36*
X1671955Y702063D02*
Y694690D01*
X1664582D01*
X1664597Y694802D01*
X1665620Y697274D01*
X1667249Y699396D01*
X1669371Y701025D01*
X1671843Y702048D01*
X1671955Y702063D01*
D02*
G37*
G36*
X1677035D02*
X1677147Y702048D01*
X1679619Y701025D01*
X1681741Y699396D01*
X1683370Y697274D01*
X1684393Y694802D01*
X1684408Y694690D01*
X1677035D01*
Y702063D01*
D02*
G37*
G36*
X1664582Y689610D02*
X1671955D01*
Y682237D01*
X1671843Y682252D01*
X1669371Y683275D01*
X1667249Y684904D01*
X1665620Y687026D01*
X1664597Y689498D01*
X1664582Y689610D01*
D02*
G37*
G36*
X1677035D02*
X1684408D01*
X1684393Y689498D01*
X1683370Y687026D01*
X1681741Y684904D01*
X1679619Y683275D01*
X1677147Y682252D01*
X1677035Y682237D01*
Y689610D01*
D02*
G37*
G36*
X1750747Y695960D02*
X1760855D01*
Y681186D01*
X1760121Y681283D01*
X1757071Y682546D01*
X1754451Y684556D01*
X1752441Y687176D01*
X1751178Y690226D01*
X1750747Y693500D01*
Y695960D01*
D02*
G37*
G36*
X1765935D02*
X1776043D01*
Y693500D01*
X1775612Y690226D01*
X1774349Y687176D01*
X1772339Y684556D01*
X1769719Y682546D01*
X1766669Y681283D01*
X1765935Y681186D01*
Y695960D01*
D02*
G37*
G36*
X1485265Y716148D02*
X1488539Y715717D01*
X1491589Y714454D01*
X1494209Y712444D01*
X1496219Y709824D01*
X1497482Y706774D01*
X1497913Y703500D01*
Y693500D01*
X1497482Y690226D01*
X1496219Y687176D01*
X1494209Y684556D01*
X1491589Y682546D01*
X1488539Y681283D01*
X1485265Y680852D01*
X1481991Y681283D01*
X1478941Y682546D01*
X1476321Y684556D01*
X1474311Y687176D01*
X1473048Y690226D01*
X1472617Y693500D01*
Y703500D01*
X1473048Y706774D01*
X1474311Y709824D01*
X1476321Y712444D01*
X1478941Y714454D01*
X1481991Y715717D01*
X1485265Y716148D01*
D02*
G37*
G36*
X1759125Y674860D02*
X1762125D01*
Y669110D01*
X1759125D01*
Y674860D01*
D02*
G37*
G36*
X1767205D02*
X1770205D01*
Y669110D01*
X1767205D01*
Y674860D01*
D02*
G37*
G36*
X1759125Y664030D02*
X1762125D01*
Y658280D01*
X1759125D01*
Y664030D01*
D02*
G37*
G36*
X1767205D02*
X1770205D01*
Y658280D01*
X1767205D01*
Y664030D01*
D02*
G37*
G36*
X1725555Y653930D02*
X1743635D01*
Y648422D01*
X1749625D01*
Y652360D01*
X1760705D01*
Y635780D01*
X1749625D01*
Y639358D01*
X1743635D01*
Y633850D01*
X1725555D01*
Y653930D01*
D02*
G37*
G36*
X1447965Y630785D02*
Y615950D01*
X1433130D01*
X1433219Y616848D01*
X1434222Y620155D01*
X1435851Y623202D01*
X1438042Y625873D01*
X1440713Y628064D01*
X1443760Y629693D01*
X1447066Y630696D01*
X1447965Y630785D01*
D02*
G37*
G36*
X1453045D02*
X1453943Y630696D01*
X1457250Y629693D01*
X1460297Y628064D01*
X1462968Y625873D01*
X1465159Y623202D01*
X1466788Y620155D01*
X1467791Y616848D01*
X1467880Y615950D01*
X1453045D01*
Y630785D01*
D02*
G37*
G36*
X1858765Y628530D02*
X1878845D01*
Y608450D01*
X1858765D01*
Y628530D01*
D02*
G37*
G36*
X1806575Y656430D02*
X1837055D01*
Y631350D01*
X1829556D01*
X1829303Y630080D01*
X1830839Y629444D01*
X1833459Y627434D01*
X1835469Y624814D01*
X1836732Y621764D01*
X1837163Y618490D01*
X1836732Y615216D01*
X1835469Y612166D01*
X1833459Y609546D01*
X1830839Y607536D01*
X1828282Y606477D01*
Y605103D01*
X1830839Y604044D01*
X1833459Y602034D01*
X1835469Y599414D01*
X1836732Y596364D01*
X1836829Y595630D01*
X1821815D01*
Y593090D01*
D01*
Y595630D01*
X1806801D01*
X1806898Y596364D01*
X1808161Y599414D01*
X1810171Y602034D01*
X1812791Y604044D01*
X1815348Y605103D01*
Y606477D01*
X1812791Y607536D01*
X1810171Y609546D01*
X1808161Y612166D01*
X1806898Y615216D01*
X1806467Y618490D01*
X1806898Y621764D01*
X1808161Y624814D01*
X1810171Y627434D01*
X1812791Y629444D01*
X1814327Y630080D01*
X1814075Y631350D01*
X1806575D01*
Y639358D01*
X1779705D01*
Y635780D01*
X1778877D01*
Y622450D01*
X1783595D01*
Y604370D01*
X1763515D01*
Y622450D01*
X1769813D01*
Y635780D01*
X1768625D01*
Y652360D01*
X1779705D01*
Y648422D01*
X1806575D01*
Y656430D01*
D02*
G37*
G36*
X1433130Y610870D02*
X1447965D01*
Y596035D01*
X1447066Y596124D01*
X1443760Y597127D01*
X1440713Y598755D01*
X1438042Y600947D01*
X1435851Y603618D01*
X1434222Y606665D01*
X1433219Y609972D01*
X1433130Y610870D01*
D02*
G37*
G36*
X1453045D02*
X1467880D01*
X1467791Y609972D01*
X1466788Y606665D01*
X1465159Y603618D01*
X1462968Y600947D01*
X1460297Y598755D01*
X1457250Y597127D01*
X1453943Y596124D01*
X1453045Y596035D01*
Y610870D01*
D02*
G37*
G36*
X1868805Y603217D02*
X1871426Y602872D01*
X1873868Y601860D01*
X1875966Y600251D01*
X1877575Y598153D01*
X1878587Y595711D01*
X1878932Y593090D01*
X1878587Y590469D01*
X1877575Y588027D01*
X1875966Y585929D01*
X1873868Y584320D01*
X1871426Y583308D01*
X1868805Y582963D01*
X1866184Y583308D01*
X1863742Y584320D01*
X1861644Y585929D01*
X1860035Y588027D01*
X1859023Y590469D01*
X1858678Y593090D01*
X1859023Y595711D01*
X1860035Y598153D01*
X1861644Y600251D01*
X1863742Y601860D01*
X1866184Y602872D01*
X1868805Y603217D01*
D02*
G37*
G36*
X1806801Y590550D02*
X1819275D01*
Y580442D01*
X1819115D01*
X1815841Y580873D01*
X1812791Y582136D01*
X1810171Y584146D01*
X1808161Y586766D01*
X1806898Y589816D01*
X1806801Y590550D01*
D02*
G37*
G36*
X1824355D02*
X1836829D01*
X1836732Y589816D01*
X1835469Y586766D01*
X1833459Y584146D01*
X1830839Y582136D01*
X1827789Y580873D01*
X1824515Y580442D01*
X1824355D01*
Y590550D01*
D02*
G37*
G36*
X1735455Y562242D02*
Y554990D01*
X1728203D01*
X1728213Y555071D01*
X1729225Y557513D01*
X1730834Y559611D01*
X1732932Y561220D01*
X1735374Y562232D01*
X1735455Y562242D01*
D02*
G37*
G36*
X1740535D02*
X1740616Y562232D01*
X1743058Y561220D01*
X1745156Y559611D01*
X1746765Y557513D01*
X1747777Y555071D01*
X1747787Y554990D01*
X1740535D01*
Y562242D01*
D02*
G37*
G36*
X1622585Y568800D02*
X1647665D01*
Y543720D01*
X1622585D01*
Y568800D01*
D02*
G37*
G36*
X1728203Y549910D02*
X1735455D01*
Y542658D01*
X1735374Y542668D01*
X1732932Y543680D01*
X1730834Y545289D01*
X1729225Y547387D01*
X1728213Y549829D01*
X1728203Y549910D01*
D02*
G37*
G36*
X1740535D02*
X1747787D01*
X1747777Y549829D01*
X1746765Y547387D01*
X1745156Y545289D01*
X1743058Y543680D01*
X1740616Y542668D01*
X1740535Y542658D01*
Y549910D01*
D02*
G37*
G36*
X1763515Y600450D02*
X1783595D01*
Y582370D01*
X1778087D01*
Y562610D01*
X1777742Y560876D01*
X1776760Y559405D01*
X1748035Y530681D01*
Y517010D01*
X1727955D01*
Y537090D01*
X1741626D01*
X1769023Y564487D01*
Y582370D01*
X1763515D01*
Y600450D01*
D02*
G37*
G36*
X1482965Y630950D02*
X1518045D01*
Y610549D01*
X1621328Y507266D01*
X1622669Y507721D01*
X1622908Y509534D01*
X1624171Y512584D01*
X1626181Y515204D01*
X1628801Y517214D01*
X1631851Y518477D01*
X1635125Y518908D01*
X1638399Y518477D01*
X1641449Y517214D01*
X1644069Y515204D01*
X1646079Y512584D01*
X1647342Y509534D01*
X1647773Y506260D01*
X1647342Y502986D01*
X1646079Y499936D01*
X1644069Y497316D01*
X1642245Y495917D01*
X1641781Y494797D01*
X1640560Y493205D01*
X1638968Y491984D01*
X1637114Y491216D01*
X1635125Y490954D01*
X1619085D01*
X1617096Y491216D01*
X1615242Y491984D01*
X1613650Y493205D01*
X1510986Y595870D01*
X1482965D01*
Y630950D01*
D02*
G37*
G36*
X1438275Y523029D02*
X1442694Y522594D01*
X1446942Y521305D01*
X1450858Y519212D01*
X1454290Y516395D01*
X1457107Y512963D01*
X1459200Y509047D01*
X1460489Y504799D01*
X1460924Y500380D01*
X1460489Y495961D01*
X1459200Y491713D01*
X1457107Y487797D01*
X1454290Y484365D01*
X1450858Y481548D01*
X1446942Y479455D01*
X1442694Y478166D01*
X1438275Y477731D01*
X1433856Y478166D01*
X1429608Y479455D01*
X1425692Y481548D01*
X1422260Y484365D01*
X1419443Y487797D01*
X1417350Y491713D01*
X1416061Y495961D01*
X1415626Y500380D01*
X1416061Y504799D01*
X1417350Y509047D01*
X1419443Y512963D01*
X1422260Y516395D01*
X1425692Y519212D01*
X1429608Y521305D01*
X1433856Y522594D01*
X1438275Y523029D01*
D02*
G37*
G36*
X1885705D02*
X1890124Y522594D01*
X1894372Y521305D01*
X1898288Y519212D01*
X1901720Y516395D01*
X1904537Y512963D01*
X1906630Y509047D01*
X1907919Y504799D01*
X1908354Y500380D01*
X1907919Y495961D01*
X1906630Y491713D01*
X1904537Y487797D01*
X1901720Y484365D01*
X1898288Y481548D01*
X1894372Y479455D01*
X1890124Y478166D01*
X1885705Y477731D01*
X1881286Y478166D01*
X1877038Y479455D01*
X1873122Y481548D01*
X1869690Y484365D01*
X1866873Y487797D01*
X1864780Y491713D01*
X1863491Y495961D01*
X1863056Y500380D01*
X1863491Y504799D01*
X1864780Y509047D01*
X1866873Y512963D01*
X1869690Y516395D01*
X1873122Y519212D01*
X1877038Y521305D01*
X1881286Y522594D01*
X1885705Y523029D01*
D02*
G37*
%LPD*%
G36*
X1628227Y1036320D02*
X1627882Y1034586D01*
X1626900Y1033115D01*
X1617225Y1023441D01*
Y1019762D01*
X1618398Y1019276D01*
X1633648Y1034526D01*
Y1056760D01*
X1628227D01*
Y1036320D01*
D02*
G37*
G36*
X1569907Y922318D02*
X1570127Y921989D01*
X1570499Y920120D01*
X1570127Y918251D01*
X1569460Y917252D01*
X1570138Y915982D01*
X1599818D01*
X1606154Y922318D01*
X1606070Y923588D01*
X1570586D01*
X1569907Y922318D01*
D02*
G37*
G36*
X1604900Y908245D02*
X1604900Y908245D01*
X1603429Y907263D01*
X1601695Y906918D01*
X1570917D01*
X1570195Y905648D01*
X1570499Y904120D01*
X1570127Y902251D01*
X1569068Y900667D01*
X1567484Y899608D01*
X1565615Y899236D01*
X1554355D01*
X1523267Y868148D01*
Y816767D01*
X1530322Y809712D01*
X1553719D01*
X1554150Y810982D01*
X1552949Y811904D01*
X1551320Y814026D01*
X1550296Y816498D01*
X1550282Y816610D01*
X1560195D01*
X1570108D01*
X1570094Y816498D01*
X1569070Y814026D01*
X1567441Y811904D01*
X1566240Y810982D01*
X1566671Y809712D01*
X1578219D01*
X1578650Y810982D01*
X1577449Y811904D01*
X1575820Y814026D01*
X1574796Y816498D01*
X1574447Y819150D01*
X1574796Y821802D01*
X1575820Y824274D01*
X1577387Y826316D01*
X1577439Y826477D01*
X1577271Y827860D01*
X1576493Y828380D01*
X1569425Y835448D01*
X1569425Y835448D01*
X1568905Y836226D01*
X1567522Y836394D01*
X1567361Y836342D01*
X1565319Y834775D01*
X1562847Y833752D01*
X1560195Y833402D01*
X1557543Y833752D01*
X1555071Y834775D01*
X1552949Y836404D01*
X1551320Y838526D01*
X1550296Y840998D01*
X1549947Y843650D01*
X1550296Y846302D01*
X1551320Y848774D01*
X1552949Y850896D01*
X1555071Y852525D01*
X1557543Y853549D01*
X1560195Y853898D01*
X1562847Y853549D01*
X1565319Y852525D01*
X1566828Y851367D01*
X1568098Y851993D01*
Y858259D01*
X1568443Y859993D01*
X1569425Y861464D01*
X1569425Y861464D01*
X1576473Y868511D01*
X1575847Y869681D01*
X1574865Y869486D01*
X1572996Y869858D01*
X1571411Y870917D01*
X1570353Y872501D01*
X1570031Y874120D01*
X1568859Y874745D01*
X1567596Y873482D01*
X1567541Y873062D01*
X1566781Y871227D01*
X1565573Y869652D01*
X1563997Y868444D01*
X1562163Y867684D01*
X1560195Y867425D01*
X1558227Y867684D01*
X1556393Y868444D01*
X1554817Y869652D01*
X1553609Y871227D01*
X1552849Y873062D01*
X1552590Y875030D01*
X1552849Y876998D01*
X1553609Y878832D01*
X1554817Y880408D01*
X1556393Y881616D01*
X1558227Y882376D01*
X1560195Y882635D01*
X1562163Y882376D01*
X1563230Y881934D01*
X1569120Y887825D01*
X1569981Y888400D01*
Y894870D01*
X1570353Y896739D01*
X1571411Y898323D01*
X1572996Y899382D01*
X1574865Y899754D01*
X1576734Y899382D01*
X1578018Y898524D01*
X1578865Y898402D01*
X1579712Y898524D01*
X1580996Y899382D01*
X1582865Y899754D01*
X1584734Y899382D01*
X1586018Y898524D01*
X1586865Y898402D01*
X1587712Y898524D01*
X1588996Y899382D01*
X1590865Y899754D01*
X1592734Y899382D01*
X1594018Y898524D01*
X1594865Y898402D01*
X1595712Y898524D01*
X1596996Y899382D01*
X1598865Y899754D01*
X1600734Y899382D01*
X1602018Y898524D01*
X1602865Y898402D01*
X1603712Y898524D01*
X1604996Y899382D01*
X1606865Y899754D01*
X1608734Y899382D01*
X1610018Y898524D01*
X1610865Y898402D01*
X1611712Y898524D01*
X1612996Y899382D01*
X1614865Y899754D01*
X1616734Y899382D01*
X1618018Y898524D01*
X1618865Y898402D01*
X1619712Y898524D01*
X1620996Y899382D01*
X1622865Y899754D01*
X1624734Y899382D01*
X1626018Y898524D01*
X1626865Y898402D01*
X1627712Y898524D01*
X1628996Y899382D01*
X1630865Y899754D01*
X1632734Y899382D01*
X1634318Y898323D01*
X1635377Y896739D01*
X1635749Y894870D01*
Y886145D01*
X1638522Y883372D01*
X1695233D01*
X1695897Y884642D01*
X1695147Y885763D01*
X1694756Y887730D01*
X1695147Y889697D01*
X1695363Y890019D01*
Y904788D01*
X1689325D01*
X1687591Y905133D01*
X1686120Y906115D01*
X1686016Y906220D01*
X1673345D01*
Y915588D01*
X1665586D01*
X1664907Y914318D01*
X1665127Y913989D01*
X1665499Y912120D01*
X1665127Y910251D01*
X1664269Y908967D01*
X1664147Y908120D01*
X1664269Y907273D01*
X1665127Y905989D01*
X1665499Y904120D01*
X1665127Y902251D01*
X1664068Y900667D01*
X1662484Y899608D01*
X1660615Y899236D01*
X1640115D01*
X1638246Y899608D01*
X1636662Y900667D01*
X1635603Y902251D01*
X1635231Y904120D01*
X1635603Y905989D01*
X1636461Y907273D01*
X1636583Y908120D01*
X1636461Y908967D01*
X1635603Y910251D01*
X1635231Y912120D01*
X1635603Y913989D01*
X1635823Y914318D01*
X1635144Y915588D01*
X1612242D01*
X1604900Y908245D01*
D02*
G37*
G36*
X1595397Y866305D02*
Y865060D01*
X1595052Y863326D01*
X1594070Y861855D01*
X1589227Y857013D01*
Y852770D01*
X1589819Y852525D01*
X1591941Y850896D01*
X1593570Y848774D01*
X1594594Y846302D01*
X1594781Y844879D01*
X1596122Y844424D01*
X1596913Y845215D01*
X1598383Y846197D01*
X1599331Y846386D01*
X1600320Y848774D01*
X1601949Y850896D01*
X1604071Y852525D01*
X1606543Y853549D01*
X1607966Y853736D01*
X1608421Y855077D01*
X1596667Y866831D01*
X1595397Y866305D01*
D02*
G37*
%LPC*%
G36*
X1557655Y829063D02*
Y821690D01*
X1550282D01*
X1550296Y821802D01*
X1551320Y824274D01*
X1552949Y826396D01*
X1555071Y828025D01*
X1557543Y829048D01*
X1557655Y829063D01*
D02*
G37*
G36*
X1562735D02*
X1562847Y829048D01*
X1565319Y828025D01*
X1567441Y826396D01*
X1569070Y824274D01*
X1570094Y821802D01*
X1570108Y821690D01*
X1562735D01*
Y829063D01*
D02*
G37*
%LPD*%
D10*
X1728015Y834390D02*
D03*
X1750515Y824890D02*
D03*
Y843890D02*
D03*
X1740715Y1029970D02*
D03*
X1763215Y1020470D02*
D03*
Y1039470D02*
D03*
D11*
X1773555Y591410D02*
D03*
Y613410D02*
D03*
X1781175Y821890D02*
D03*
Y843890D02*
D03*
X1763395Y979170D02*
D03*
Y1001170D02*
D03*
X1486535Y977900D02*
D03*
Y999900D02*
D03*
X1683385Y915260D02*
D03*
Y937260D02*
D03*
X1459865Y977900D02*
D03*
Y999900D02*
D03*
X1607185Y1043940D02*
D03*
Y1021940D02*
D03*
X1694815Y985520D02*
D03*
Y1007520D02*
D03*
X1523365Y941070D02*
D03*
Y919070D02*
D03*
X1497965Y919480D02*
D03*
Y897480D02*
D03*
D12*
X1785395Y1064260D02*
D03*
X1763395D02*
D03*
X1577115Y1068070D02*
D03*
X1555115D02*
D03*
X1712595Y643890D02*
D03*
X1734595D02*
D03*
X1726565Y798830D02*
D03*
X1748565D02*
D03*
X1655445Y985520D02*
D03*
X1677445D02*
D03*
D13*
X1764665Y666570D02*
D03*
X1755165Y644070D02*
D03*
X1774165D02*
D03*
D14*
X1650365Y960120D02*
D03*
D15*
Y952120D02*
D03*
Y944120D02*
D03*
Y936120D02*
D03*
Y928120D02*
D03*
Y920120D02*
D03*
Y912120D02*
D03*
Y904120D02*
D03*
X1555365D02*
D03*
Y912120D02*
D03*
Y920120D02*
D03*
Y928120D02*
D03*
Y936120D02*
D03*
Y944120D02*
D03*
Y952120D02*
D03*
Y960120D02*
D03*
D16*
X1630865Y884620D02*
D03*
X1622865D02*
D03*
X1614865D02*
D03*
X1606865D02*
D03*
X1598865D02*
D03*
X1590865D02*
D03*
X1582865D02*
D03*
X1574865D02*
D03*
Y979620D02*
D03*
X1582865D02*
D03*
X1590865D02*
D03*
X1598865D02*
D03*
X1606865D02*
D03*
X1614865D02*
D03*
X1622865D02*
D03*
X1630865D02*
D03*
D17*
X1486159Y871220D02*
X1474214Y883165D01*
X1518735Y871220D02*
X1486159D01*
X1518735Y814890D02*
Y871220D01*
X1474214Y883165D02*
X1455300D01*
X1552830Y904120D02*
X1518735Y870025D01*
X1555365Y904120D02*
X1552830D01*
X1455300Y883165D02*
X1450975Y878840D01*
X1521685Y897480D02*
X1497965D01*
X1528445Y805180D02*
X1518735Y814890D01*
X1622865Y869510D02*
Y884620D01*
X1627505Y864870D02*
X1622865Y869510D01*
X1645285Y864870D02*
X1627505D01*
X1708785Y801370D02*
X1645285Y864870D01*
X1622425Y858520D02*
X1614865Y866080D01*
X1642655Y858520D02*
X1622425D01*
X1712595Y788580D02*
X1642655Y858520D01*
X1614865Y866080D02*
Y884620D01*
X1600117Y842010D02*
X1589693Y831585D01*
X1604645Y842010D02*
X1600117D01*
X1607740Y845105D02*
X1604645Y842010D01*
X1556385Y1113790D02*
X1539875Y1097280D01*
X1707515Y1113790D02*
X1556385D01*
X1730375Y1090930D02*
X1707515Y1113790D01*
X1539875Y1093470D02*
Y1097280D01*
X1582865Y1004760D02*
X1546225Y1041400D01*
X1582865Y979620D02*
Y1004760D01*
X1546225Y1041400D02*
Y1042670D01*
X1591945Y1089660D02*
X1589405Y1092200D01*
X1591945Y1016894D02*
Y1089660D01*
X1598865Y1009974D02*
X1591945Y1016894D01*
X1565275Y1085850D02*
Y1093470D01*
X1577115Y1074010D02*
X1565275Y1085850D01*
X1577115Y1068070D02*
Y1074010D01*
X1539875Y1090930D02*
Y1093470D01*
X1555115Y1075690D02*
X1539875Y1090930D01*
X1555115Y1068070D02*
Y1075690D01*
X1584325Y1060860D02*
X1577115Y1068070D01*
X1584325Y1013460D02*
Y1060860D01*
X1590865Y1006920D02*
X1584325Y1013460D01*
X1590865Y979620D02*
Y1006920D01*
X1636645Y878840D02*
X1630865Y884620D01*
X1729105Y878840D02*
X1636645D01*
X1763395Y913130D02*
X1729105Y878840D01*
X1523365Y919070D02*
X1498375D01*
X1486535Y999900D02*
Y1033780D01*
X1495425Y1042670D02*
X1486535Y1033780D01*
X1554985Y952500D02*
X1459865D01*
Y977900D01*
X1486535Y999900D02*
X1459865D01*
X1518285Y977900D02*
X1486535D01*
X1555365Y960120D02*
X1537585Y977900D01*
X1518285D01*
X1486535D02*
X1485900Y977265D01*
X1872615Y793750D02*
X1843405Y764540D01*
X1810385D01*
X1781175Y793750D01*
Y821890D01*
X1754985Y643890D02*
X1734595D01*
X1773555Y562610D02*
X1737995Y527050D01*
X1773555Y562610D02*
Y591410D01*
X1774345Y614200D02*
Y643890D01*
X1821815D02*
X1774345D01*
X1712595D02*
Y788580D01*
X1821815Y643890D02*
X1821205Y644500D01*
X1823695Y843890D02*
X1750515D01*
X1882775Y1007110D02*
X1866265Y990600D01*
X1882775Y1007110D02*
Y1036320D01*
X1854835Y1064260D01*
X1785395D01*
X1823695Y1039470D02*
X1763215D01*
Y1064080D01*
X1726565Y801370D02*
X1708785D01*
X1763395Y913130D02*
Y979170D01*
X1609315Y1021940D02*
X1607185D01*
X1623695Y1036320D02*
X1609315Y1021940D01*
X1623695Y1036320D02*
Y1064260D01*
X1539875Y1087120D02*
Y1093470D01*
Y1087120D02*
X1495425Y1042670D01*
X1626235Y1066800D02*
X1623695Y1064260D01*
X1524415Y920120D02*
X1523365Y919070D01*
X1555365Y920120D02*
X1524415D01*
X1763395Y1001170D02*
Y1020290D01*
X1748565Y801370D02*
Y825570D01*
X1572630Y838652D02*
Y858259D01*
X1621260Y838652D02*
X1614193Y831585D01*
X1621260Y838652D02*
Y848648D01*
X1614193Y831585D02*
X1598673D01*
X1586238Y819150D01*
X1609195Y843650D02*
X1607740Y845105D01*
X1582865Y868494D02*
Y884620D01*
Y868494D02*
X1572630Y858259D01*
X1579698Y831585D02*
X1572630Y838652D01*
X1589693Y831585D02*
X1579698D01*
X1590865Y865060D02*
Y884620D01*
Y865060D02*
X1584695Y858890D01*
Y843650D02*
Y858890D01*
X1598865Y979620D02*
Y1009974D01*
X1720215Y960120D02*
X1650365D01*
X1720215Y985520D02*
X1694815D01*
X1677445D01*
X1655445D02*
X1636765D01*
X1630865Y979620D01*
X1638180Y1032649D02*
Y1068585D01*
X1654175Y1084580D02*
X1638180Y1068585D01*
X1654175Y1084580D02*
Y1090930D01*
X1679575D02*
X1644530Y1055885D01*
Y1030019D02*
Y1055885D01*
Y1030019D02*
X1622865Y1008354D01*
Y979620D02*
Y1008354D01*
X1638180Y1032649D02*
X1614865Y1009334D01*
Y979620D02*
Y1009334D01*
X1607185Y1021940D02*
X1606865Y1021620D01*
Y979620D02*
Y1021620D01*
X1650365Y920120D02*
X1610745D01*
X1607185Y1043940D02*
Y1113790D01*
X1574865Y979620D02*
Y988630D01*
X1520825Y1042670D01*
X1609195Y816080D02*
Y819150D01*
X1574865Y884620D02*
X1572325D01*
X1560195Y872490D02*
Y875030D01*
X1621260Y848648D02*
X1598865Y871042D01*
Y884620D01*
X1609195Y816080D02*
X1598295Y805180D01*
X1528445D01*
X1610745Y928120D02*
X1555365D01*
X1650365Y936120D02*
X1620015D01*
X1610745Y926850D01*
X1601695Y911450D02*
X1555365D01*
X1610745Y920500D02*
X1601695Y911450D01*
X1610745Y920500D02*
Y926850D01*
X1699895Y887730D02*
Y909320D01*
X1720215D02*
X1699895D01*
X1689325D01*
X1683385Y915260D01*
X1682935D01*
X1678075Y920120D02*
X1650365D01*
X1682935Y915260D02*
X1678075Y920120D01*
X1572325Y884620D02*
X1560195Y872490D01*
X1450975Y864870D02*
Y878840D01*
Y864870D02*
X1438275Y852170D01*
Y845820D02*
Y852170D01*
D18*
X1504315Y613410D02*
X1500505D01*
X1619085Y498640D02*
X1504315Y613410D01*
X1635125Y498640D02*
X1619085D01*
D19*
X1885705Y1103630D02*
D03*
Y500380D02*
D03*
X1438275D02*
D03*
Y1103630D02*
D03*
D20*
X1730375Y1090930D02*
D03*
X1514475Y1093470D02*
D03*
X1495425Y1042670D02*
D03*
D21*
X1704975Y1090930D02*
D03*
X1679575D02*
D03*
X1654175D02*
D03*
X1463675Y871220D02*
D03*
X1438275Y845820D02*
D03*
X1463675D02*
D03*
X1438275Y871220D02*
D03*
X1463675Y820420D02*
D03*
X1623695Y1092200D02*
D03*
X1720215Y985520D02*
D03*
Y960120D02*
D03*
Y934720D02*
D03*
X1539875Y1093470D02*
D03*
X1565275D02*
D03*
X1590675D02*
D03*
X1518285Y1003300D02*
D03*
X1459865Y918500D02*
D03*
X1866265Y990600D02*
D03*
X1872615Y793750D02*
D03*
X1520825Y1042670D02*
D03*
X1546225D02*
D03*
X1571625D02*
D03*
X1868805Y593090D02*
D03*
X1737995Y552450D02*
D03*
D22*
X1522095Y897890D02*
D03*
X1560195Y843650D02*
D03*
X1584695D02*
D03*
X1609195D02*
D03*
X1633695D02*
D03*
X1560195Y819150D02*
D03*
X1584695D02*
D03*
X1609195D02*
D03*
X1633695D02*
D03*
X1674495Y692150D02*
D03*
X1508125Y778510D02*
D03*
X1749425Y920750D02*
D03*
X1762125Y1107440D02*
D03*
D23*
X1500505Y613410D02*
D03*
D24*
X1450505D02*
D03*
D25*
X1635125Y506260D02*
D03*
D26*
Y556260D02*
D03*
D27*
X1438275Y820420D02*
D03*
X1623695Y1066800D02*
D03*
X1720215Y909320D02*
D03*
X1518285Y977900D02*
D03*
X1459865Y952500D02*
D03*
X1866265Y1016000D02*
D03*
X1872615Y819150D02*
D03*
X1868805Y618490D02*
D03*
X1737995Y527050D02*
D03*
D28*
X1485265Y698500D02*
D03*
X1763395D02*
D03*
D29*
X1824355Y844550D02*
D03*
Y1040130D02*
D03*
X1821815Y643890D02*
D03*
D30*
X1824355Y819150D02*
D03*
Y793750D02*
D03*
Y1014730D02*
D03*
Y989330D02*
D03*
X1821815Y618490D02*
D03*
Y593090D02*
D03*
D31*
X1560195Y875030D02*
D03*
D32*
X1699895Y887730D02*
D03*
M02*
