G04 Layer_Color=2752767*
%FSLAX24Y24*%
%MOIN*%
G70*
G01*
G75*
%ADD85C,0.0020*%
%ADD86C,0.0027*%
D85*
X28920Y27420D02*
Y27580D01*
X29080D01*
Y27420D01*
X28920D01*
X30858Y27382D02*
Y27542D01*
X31018D01*
Y27382D01*
X30858D01*
X28650Y20670D02*
X28570Y20830D01*
X28730D01*
X28650Y20670D01*
Y21670D02*
X28570Y21830D01*
X28730D01*
X28650Y21670D01*
X23250Y24270D02*
X23170Y24430D01*
X23330D01*
X23250Y24270D01*
X22250D02*
X22170Y24430D01*
X22330D01*
X22250Y24270D01*
X25270Y23270D02*
Y23430D01*
X25430D01*
Y23270D01*
X25270D01*
Y24270D02*
Y24430D01*
X25430D01*
Y24270D01*
X25270D01*
Y25270D02*
Y25430D01*
X25430D01*
Y25270D01*
X25270D01*
X35200Y40970D02*
X35120Y41130D01*
X35280D01*
X35200Y40970D01*
X36200D02*
X36120Y41130D01*
X36280D01*
X36200Y40970D01*
X37200D02*
X37120Y41130D01*
X37280D01*
X37200Y40970D01*
X38200D02*
X38120Y41130D01*
X38280D01*
X38200Y40970D01*
X23250Y32170D02*
X23170Y32330D01*
X23330D01*
X23250Y32170D01*
X22250D02*
X22170Y32330D01*
X22330D01*
X22250Y32170D01*
X23250Y39870D02*
X23170Y40030D01*
X23330D01*
X23250Y39870D01*
X22250D02*
X22170Y40030D01*
X22330D01*
X22250Y39870D01*
X25170Y38870D02*
Y39030D01*
X25330D01*
Y38870D01*
X25170D01*
Y39870D02*
Y40030D01*
X25330D01*
Y39870D01*
X25170D01*
Y40870D02*
Y41030D01*
X25330D01*
Y40870D01*
X25170D01*
Y31170D02*
Y31330D01*
X25330D01*
Y31170D01*
X25170D01*
Y32170D02*
Y32330D01*
X25330D01*
Y32170D01*
X25170D01*
Y33170D02*
Y33330D01*
X25330D01*
Y33170D01*
X25170D01*
X39600Y37420D02*
X39520Y37580D01*
X39680D01*
X39600Y37420D01*
Y36081D02*
X39520Y36241D01*
X39680D01*
X39600Y36081D01*
X37450Y39420D02*
X37370Y39580D01*
X37530D01*
X37450Y39420D01*
Y38420D02*
X37370Y38580D01*
X37530D01*
X37450Y38420D01*
X34450Y42970D02*
X34370Y43130D01*
X34530D01*
X34450Y42970D01*
X35450D02*
X35370Y43130D01*
X35530D01*
X35450Y42970D01*
X36450D02*
X36370Y43130D01*
X36530D01*
X36450Y42970D01*
X37450D02*
X37370Y43130D01*
X37530D01*
X37450Y42970D01*
X32756Y32170D02*
X32796Y32210D01*
X32836D01*
X32796Y32250D01*
X32836Y32290D01*
X32796D01*
X32756Y32330D01*
X32716Y32290D01*
X32676D01*
X32716Y32250D01*
X32676Y32210D01*
X32716D01*
X32756Y32170D01*
X33721D02*
X33761Y32210D01*
X33801D01*
X33761Y32250D01*
X33801Y32290D01*
X33761D01*
X33721Y32330D01*
X33681Y32290D01*
X33641D01*
X33681Y32250D01*
X33641Y32210D01*
X33681D01*
X33721Y32170D01*
X34685D02*
X34725Y32210D01*
X34765D01*
X34725Y32250D01*
X34765Y32290D01*
X34725D01*
X34685Y32330D01*
X34645Y32290D01*
X34605D01*
X34645Y32250D01*
X34605Y32210D01*
X34645D01*
X34685Y32170D01*
X35650D02*
X35690Y32210D01*
X35730D01*
X35690Y32250D01*
X35730Y32290D01*
X35690D01*
X35650Y32330D01*
X35610Y32290D01*
X35570D01*
X35610Y32250D01*
X35570Y32210D01*
X35610D01*
X35650Y32170D01*
X32756Y33135D02*
X32796Y33175D01*
X32836D01*
X32796Y33215D01*
X32836Y33255D01*
X32796D01*
X32756Y33295D01*
X32716Y33255D01*
X32676D01*
X32716Y33215D01*
X32676Y33175D01*
X32716D01*
X32756Y33135D01*
X33721D02*
X33761Y33175D01*
X33801D01*
X33761Y33215D01*
X33801Y33255D01*
X33761D01*
X33721Y33295D01*
X33681Y33255D01*
X33641D01*
X33681Y33215D01*
X33641Y33175D01*
X33681D01*
X33721Y33135D01*
X34685D02*
X34725Y33175D01*
X34765D01*
X34725Y33215D01*
X34765Y33255D01*
X34725D01*
X34685Y33295D01*
X34645Y33255D01*
X34605D01*
X34645Y33215D01*
X34605Y33175D01*
X34645D01*
X34685Y33135D01*
X35650D02*
X35690Y33175D01*
X35730D01*
X35690Y33215D01*
X35730Y33255D01*
X35690D01*
X35650Y33295D01*
X35610Y33255D01*
X35570D01*
X35610Y33215D01*
X35570Y33175D01*
X35610D01*
X35650Y33135D01*
X29350Y35720D02*
X29390Y35760D01*
X29430D01*
X29390Y35800D01*
X29430Y35840D01*
X29390D01*
X29350Y35880D01*
X29310Y35840D01*
X29270D01*
X29310Y35800D01*
X29270Y35760D01*
X29310D01*
X29350Y35720D01*
Y36720D02*
X29390Y36760D01*
X29430D01*
X29390Y36800D01*
X29430Y36840D01*
X29390D01*
X29350Y36880D01*
X29310Y36840D01*
X29270D01*
X29310Y36800D01*
X29270Y36760D01*
X29310D01*
X29350Y36720D01*
Y37720D02*
X29390Y37760D01*
X29430D01*
X29390Y37800D01*
X29430Y37840D01*
X29390D01*
X29350Y37880D01*
X29310Y37840D01*
X29270D01*
X29310Y37800D01*
X29270Y37760D01*
X29310D01*
X29350Y37720D01*
Y38720D02*
X29390Y38760D01*
X29430D01*
X29390Y38800D01*
X29430Y38840D01*
X29390D01*
X29350Y38880D01*
X29310Y38840D01*
X29270D01*
X29310Y38800D01*
X29270Y38760D01*
X29310D01*
X29350Y38720D01*
X33150Y41920D02*
X33190Y41960D01*
X33230D01*
X33190Y42000D01*
X33230Y42040D01*
X33190D01*
X33150Y42080D01*
X33110Y42040D01*
X33070D01*
X33110Y42000D01*
X33070Y41960D01*
X33110D01*
X33150Y41920D01*
Y42920D02*
X33190Y42960D01*
X33230D01*
X33190Y43000D01*
X33230Y43040D01*
X33190D01*
X33150Y43080D01*
X33110Y43040D01*
X33070D01*
X33110Y43000D01*
X33070Y42960D01*
X33110D01*
X33150Y42920D01*
X27770Y27420D02*
Y27580D01*
X27930D01*
Y27420D01*
X27770D01*
X38520D02*
Y27580D01*
X38680D01*
Y27420D01*
X38520D01*
X39450Y32220D02*
X39370Y32380D01*
X39530D01*
X39450Y32220D01*
X40450Y34220D02*
X40370Y34380D01*
X40530D01*
X40450Y34220D01*
X39450Y33220D02*
X39370Y33380D01*
X39530D01*
X39450Y33220D01*
X40450D02*
X40370Y33380D01*
X40530D01*
X40450Y33220D01*
Y32220D02*
X40370Y32380D01*
X40530D01*
X40450Y32220D01*
X39450Y34220D02*
X39370Y34380D01*
X39530D01*
X39450Y34220D01*
X32700Y21820D02*
X32620Y21980D01*
X32780D01*
X32700Y21820D01*
Y19851D02*
X32620Y20011D01*
X32780D01*
X32700Y19851D01*
X39889Y24070D02*
X39929Y24150D01*
X39889Y24230D01*
X39969Y24190D01*
X40048Y24230D01*
X40009Y24150D01*
X40048Y24070D01*
X39969Y24110D01*
X39889Y24070D01*
X37920D02*
X37960Y24150D01*
X37920Y24230D01*
X38000Y24190D01*
X38080Y24230D01*
X38040Y24150D01*
X38080Y24070D01*
X38000Y24110D01*
X37920Y24070D01*
X37150Y35270D02*
X37190Y35310D01*
X37230D01*
X37190Y35350D01*
X37230Y35390D01*
X37190D01*
X37150Y35430D01*
X37110Y35390D01*
X37070D01*
X37110Y35350D01*
X37070Y35310D01*
X37110D01*
X37150Y35270D01*
X31950Y42870D02*
X31990Y42910D01*
X32030D01*
X31990Y42950D01*
X32030Y42990D01*
X31990D01*
X31950Y43030D01*
X31910Y42990D01*
X31870D01*
X31910Y42950D01*
X31870Y42910D01*
X31910D01*
X31950Y42870D01*
X30950D02*
X30990Y42910D01*
X31030D01*
X30990Y42950D01*
X31030Y42990D01*
X30990D01*
X30950Y43030D01*
X30910Y42990D01*
X30870D01*
X30910Y42950D01*
X30870Y42910D01*
X30910D01*
X30950Y42870D01*
X29950D02*
X29990Y42910D01*
X30030D01*
X29990Y42950D01*
X30030Y42990D01*
X29990D01*
X29950Y43030D01*
X29910Y42990D01*
X29870D01*
X29910Y42950D01*
X29870Y42910D01*
X29910D01*
X29950Y42870D01*
X28950D02*
X28990Y42910D01*
X29030D01*
X28990Y42950D01*
X29030Y42990D01*
X28990D01*
X28950Y43030D01*
X28910Y42990D01*
X28870D01*
X28910Y42950D01*
X28870Y42910D01*
X28910D01*
X28950Y42870D01*
X40410Y43410D02*
Y43370D01*
X40490D01*
Y43410D01*
X40530D01*
Y43490D01*
X40490D01*
Y43530D01*
X40410D01*
Y43490D01*
X40370D01*
Y43410D01*
X40410D01*
Y19660D02*
Y19620D01*
X40490D01*
Y19660D01*
X40530D01*
Y19740D01*
X40490D01*
Y19780D01*
X40410D01*
Y19740D01*
X40370D01*
Y19660D01*
X40410D01*
X22795D02*
Y19620D01*
X22875D01*
Y19660D01*
X22915D01*
Y19740D01*
X22875D01*
Y19780D01*
X22795D01*
Y19740D01*
X22755D01*
Y19660D01*
X22795D01*
Y43410D02*
Y43370D01*
X22875D01*
Y43410D01*
X22915D01*
Y43490D01*
X22875D01*
Y43530D01*
X22795D01*
Y43490D01*
X22755D01*
Y43410D01*
X22795D01*
D86*
X27780Y43600D02*
G03*
X27780Y43600I-80J0D01*
G01*
X28280Y36250D02*
G03*
X28280Y36250I-80J0D01*
G01*
X29430Y34750D02*
G03*
X29430Y34750I-80J0D01*
G01*
X35730Y34450D02*
G03*
X35730Y34450I-80J0D01*
G01*
X34330Y37250D02*
G03*
X34330Y37250I-80J0D01*
G01*
X31330Y25000D02*
G03*
X31330Y25000I-80J0D01*
G01*
X38230Y20600D02*
G03*
X38230Y20600I-80J0D01*
G01*
X40980Y29300D02*
G03*
X40980Y29300I-80J0D01*
G01*
X24130Y28750D02*
G03*
X24130Y28750I-80J0D01*
G01*
X23730Y26950D02*
G03*
X23730Y26950I-80J0D01*
G01*
X24080Y18650D02*
G03*
X24080Y18650I-80J0D01*
G01*
X38330Y18750D02*
G03*
X38330Y18750I-80J0D01*
G01*
X24930Y43700D02*
G03*
X24930Y43700I-80J0D01*
G01*
X24330Y36450D02*
G03*
X24330Y36450I-80J0D01*
G01*
X36630Y24700D02*
G03*
X36630Y24700I-80J0D01*
G01*
X40730Y41600D02*
G03*
X40730Y41600I-80J0D01*
G01*
M02*
