G04 Layer_Color=8388736*
%FSLAX44Y44*%
%MOMM*%
G71*
G01*
G75*
%ADD39R,1.4040X0.8540*%
%ADD40R,1.7540X1.5540*%
%ADD41R,1.5540X1.7540*%
%ADD42R,0.8540X1.4040*%
%ADD43R,2.7540X0.7040*%
%ADD44O,2.7540X0.7040*%
%ADD45O,0.7040X2.7540*%
%ADD46C,4.2540*%
%ADD47R,1.7540X1.7540*%
%ADD48C,1.7540*%
%ADD49C,1.7780*%
%ADD50R,3.2540X3.2540*%
%ADD51C,3.2540*%
%ADD52C,2.2540*%
%ADD53R,2.2540X2.2540*%
%ADD54R,1.7540X1.7540*%
%ADD55O,2.2540X3.2540*%
%ADD56R,2.7940X2.2540*%
%ADD57O,2.7940X2.2540*%
%ADD58C,1.2540*%
%ADD59C,0.7540*%
D39*
X1728015Y834390D02*
D03*
X1750515Y824890D02*
D03*
Y843890D02*
D03*
X1740715Y1029970D02*
D03*
X1763215Y1020470D02*
D03*
Y1039470D02*
D03*
D40*
X1773555Y591410D02*
D03*
Y613410D02*
D03*
X1781175Y821890D02*
D03*
Y843890D02*
D03*
X1763395Y979170D02*
D03*
Y1001170D02*
D03*
X1486535Y977900D02*
D03*
Y999900D02*
D03*
X1683385Y915260D02*
D03*
Y937260D02*
D03*
X1459865Y977900D02*
D03*
Y999900D02*
D03*
X1607185Y1043940D02*
D03*
Y1021940D02*
D03*
X1694815Y985520D02*
D03*
Y1007520D02*
D03*
X1523365Y941070D02*
D03*
Y919070D02*
D03*
X1497965Y919480D02*
D03*
Y897480D02*
D03*
D41*
X1785395Y1064260D02*
D03*
X1763395D02*
D03*
X1577115Y1068070D02*
D03*
X1555115D02*
D03*
X1712595Y643890D02*
D03*
X1734595D02*
D03*
X1726565Y798830D02*
D03*
X1748565D02*
D03*
X1655445Y985520D02*
D03*
X1677445D02*
D03*
D42*
X1764665Y666570D02*
D03*
X1755165Y644070D02*
D03*
X1774165D02*
D03*
D43*
X1650365Y960120D02*
D03*
D44*
Y952120D02*
D03*
Y944120D02*
D03*
Y936120D02*
D03*
Y928120D02*
D03*
Y920120D02*
D03*
Y912120D02*
D03*
Y904120D02*
D03*
X1555365D02*
D03*
Y912120D02*
D03*
Y920120D02*
D03*
Y928120D02*
D03*
Y936120D02*
D03*
Y944120D02*
D03*
Y952120D02*
D03*
Y960120D02*
D03*
D45*
X1630865Y884620D02*
D03*
X1622865D02*
D03*
X1614865D02*
D03*
X1606865D02*
D03*
X1598865D02*
D03*
X1590865D02*
D03*
X1582865D02*
D03*
X1574865D02*
D03*
Y979620D02*
D03*
X1582865D02*
D03*
X1590865D02*
D03*
X1598865D02*
D03*
X1606865D02*
D03*
X1614865D02*
D03*
X1622865D02*
D03*
X1630865D02*
D03*
D46*
X1885705Y1103630D02*
D03*
Y500380D02*
D03*
X1438275D02*
D03*
Y1103630D02*
D03*
D47*
X1730375Y1090930D02*
D03*
X1514475Y1093470D02*
D03*
X1495425Y1042670D02*
D03*
D48*
X1704975Y1090930D02*
D03*
X1679575D02*
D03*
X1654175D02*
D03*
X1463675Y871220D02*
D03*
X1438275Y845820D02*
D03*
X1463675D02*
D03*
X1438275Y871220D02*
D03*
X1463675Y820420D02*
D03*
X1623695Y1092200D02*
D03*
X1720215Y985520D02*
D03*
Y960120D02*
D03*
Y934720D02*
D03*
X1539875Y1093470D02*
D03*
X1565275D02*
D03*
X1590675D02*
D03*
X1518285Y1003300D02*
D03*
X1459865Y918500D02*
D03*
X1866265Y990600D02*
D03*
X1872615Y793750D02*
D03*
X1520825Y1042670D02*
D03*
X1546225D02*
D03*
X1571625D02*
D03*
X1868805Y593090D02*
D03*
X1737995Y552450D02*
D03*
D49*
X1522095Y897890D02*
D03*
X1560195Y843650D02*
D03*
X1584695D02*
D03*
X1609195D02*
D03*
X1633695D02*
D03*
X1560195Y819150D02*
D03*
X1584695D02*
D03*
X1609195D02*
D03*
X1633695D02*
D03*
X1674495Y692150D02*
D03*
X1508125Y778510D02*
D03*
X1749425Y920750D02*
D03*
X1762125Y1107440D02*
D03*
D50*
X1500505Y613410D02*
D03*
D51*
X1450505D02*
D03*
D52*
X1635125Y506260D02*
D03*
D53*
Y556260D02*
D03*
D54*
X1438275Y820420D02*
D03*
X1623695Y1066800D02*
D03*
X1720215Y909320D02*
D03*
X1518285Y977900D02*
D03*
X1459865Y952500D02*
D03*
X1866265Y1016000D02*
D03*
X1872615Y819150D02*
D03*
X1868805Y618490D02*
D03*
X1737995Y527050D02*
D03*
D55*
X1485265Y698500D02*
D03*
X1763395D02*
D03*
D56*
X1824355Y844550D02*
D03*
Y1040130D02*
D03*
X1821815Y643890D02*
D03*
D57*
X1824355Y819150D02*
D03*
Y793750D02*
D03*
Y1014730D02*
D03*
Y989330D02*
D03*
X1821815Y618490D02*
D03*
Y593090D02*
D03*
D58*
X1560195Y875030D02*
D03*
D59*
X1699895Y887730D02*
D03*
M02*
