G04 Layer_Color=128*
%FSLAX44Y44*%
%MOMM*%
G71*
G01*
G75*
%ADD83C,0.0508*%
D83*
X702580Y1107440D02*
X704580D01*
X703580Y1106440D02*
Y1108440D01*
X715280Y920750D02*
X717280D01*
X716280Y919750D02*
Y921750D01*
X790210Y692150D02*
X792210D01*
X791210Y691150D02*
Y693150D01*
X723210Y527050D02*
X732210D01*
X727710Y522550D02*
Y531550D01*
X723210Y552450D02*
X732210D01*
X727710Y547950D02*
Y556950D01*
X764810Y889000D02*
X766810D01*
X765810Y888000D02*
Y890000D01*
X904510Y875030D02*
X906510D01*
X905510Y874030D02*
Y876030D01*
X592400Y618490D02*
X601400D01*
X596900Y613990D02*
Y622990D01*
X592400Y593090D02*
X601400D01*
X596900Y588590D02*
Y597590D01*
X638890Y593090D02*
X648890D01*
X643890Y588090D02*
Y598090D01*
X638890Y618490D02*
X648890D01*
X643890Y613490D02*
Y623490D01*
X638890Y643890D02*
X648890D01*
X643890Y638890D02*
Y648890D01*
X889580Y1042670D02*
X898580D01*
X894080Y1038170D02*
Y1047170D01*
X914980Y1042670D02*
X923980D01*
X919480Y1038170D02*
Y1047170D01*
X940380Y1042670D02*
X949380D01*
X944880Y1038170D02*
Y1047170D01*
X965780Y1042670D02*
X974780D01*
X970280Y1038170D02*
Y1047170D01*
X588590Y819150D02*
X597590D01*
X593090Y814650D02*
Y823650D01*
X588590Y793750D02*
X597590D01*
X593090Y789250D02*
Y798250D01*
X594940Y1016000D02*
X603940D01*
X599440Y1011500D02*
Y1020500D01*
X594940Y990600D02*
X603940D01*
X599440Y986100D02*
Y995100D01*
X636350Y989330D02*
X646350D01*
X641350Y984330D02*
Y994330D01*
X636350Y1014730D02*
X646350D01*
X641350Y1009730D02*
Y1019730D01*
X636350Y1040130D02*
X646350D01*
X641350Y1035130D02*
Y1045130D01*
X636350Y793750D02*
X646350D01*
X641350Y788750D02*
Y798750D01*
X636350Y819150D02*
X646350D01*
X641350Y814150D02*
Y824150D01*
X636350Y844550D02*
X646350D01*
X641350Y839550D02*
Y849550D01*
X1001340Y952500D02*
X1010340D01*
X1005840Y948000D02*
Y957000D01*
X1001340Y918500D02*
X1010340D01*
X1005840Y914000D02*
Y923000D01*
X946730Y1003300D02*
X955730D01*
X951230Y998800D02*
Y1007800D01*
X946730Y977900D02*
X955730D01*
X951230Y973400D02*
Y982400D01*
X870530Y1093470D02*
X879530D01*
X875030Y1088970D02*
Y1097970D01*
X895930Y1093470D02*
X904930D01*
X900430Y1088970D02*
Y1097970D01*
X921330Y1093470D02*
X930330D01*
X925830Y1088970D02*
Y1097970D01*
X946730Y1093470D02*
X955730D01*
X951230Y1088970D02*
Y1097970D01*
X828200Y819150D02*
X835820D01*
X832010Y815340D02*
Y822960D01*
X852700Y819150D02*
X860320D01*
X856510Y815340D02*
Y822960D01*
X877200Y819150D02*
X884820D01*
X881010Y815340D02*
Y822960D01*
X901700Y819150D02*
X909320D01*
X905510Y815340D02*
Y822960D01*
X828200Y843650D02*
X835820D01*
X832010Y839840D02*
Y847460D01*
X852700Y843650D02*
X860320D01*
X856510Y839840D02*
Y847460D01*
X877200Y843650D02*
X884820D01*
X881010Y839840D02*
Y847460D01*
X901700Y843650D02*
X909320D01*
X905510Y839840D02*
Y847460D01*
X740990Y909320D02*
X749990D01*
X745490Y904820D02*
Y913820D01*
X740990Y934720D02*
X749990D01*
X745490Y930220D02*
Y939220D01*
X740990Y960120D02*
X749990D01*
X745490Y955620D02*
Y964620D01*
X740990Y985520D02*
X749990D01*
X745490Y981020D02*
Y990020D01*
X837510Y1066800D02*
X846510D01*
X842010Y1062300D02*
Y1071300D01*
X837510Y1092200D02*
X846510D01*
X842010Y1087700D02*
Y1096700D01*
X697810Y698500D02*
X706810D01*
X702310Y694000D02*
Y703000D01*
X975940Y698500D02*
X984940D01*
X980440Y694000D02*
Y703000D01*
X997530Y820420D02*
X1006530D01*
X1002030Y815920D02*
Y824920D01*
X1022930Y871220D02*
X1031930D01*
X1027430Y866720D02*
Y875720D01*
X997530Y845820D02*
X1006530D01*
X1002030Y841320D02*
Y850320D01*
X1022930Y845820D02*
X1031930D01*
X1027430Y841320D02*
Y850320D01*
X1022930Y820420D02*
X1031930D01*
X1027430Y815920D02*
Y824920D01*
X997530Y871220D02*
X1006530D01*
X1002030Y866720D02*
Y875720D01*
X826080Y556260D02*
X835080D01*
X830580Y551760D02*
Y560760D01*
X826080Y506260D02*
X835080D01*
X830580Y501760D02*
Y510760D01*
X1009200Y613410D02*
X1021200D01*
X1015200Y607410D02*
Y619410D01*
X959200Y613410D02*
X971200D01*
X965200Y607410D02*
Y619410D01*
X939800Y897890D02*
X947420D01*
X943610Y894080D02*
Y901700D01*
X807030Y1090930D02*
X816030D01*
X811530Y1086430D02*
Y1095430D01*
X781630Y1090930D02*
X790630D01*
X786130Y1086430D02*
Y1095430D01*
X756230Y1090930D02*
X765230D01*
X760730Y1086430D02*
Y1095430D01*
X730830Y1090930D02*
X739830D01*
X735330Y1086430D02*
Y1095430D01*
X1017430Y1103630D02*
X1037430D01*
X1027430Y1093630D02*
Y1113630D01*
X1017430Y500380D02*
X1037430D01*
X1027430Y490380D02*
Y510380D01*
X570000Y500380D02*
X590000D01*
X580000Y490380D02*
Y510380D01*
X570000Y1103630D02*
X590000D01*
X580000Y1093630D02*
Y1113630D01*
X868950Y946150D02*
X870950D01*
X869950Y945150D02*
Y947150D01*
X792750Y635000D02*
X794750D01*
X793750Y634000D02*
Y636000D01*
X968010Y523240D02*
X970010D01*
X969010Y522240D02*
Y524240D01*
X1037860Y744220D02*
X1039860D01*
X1038860Y743220D02*
Y745220D01*
X609870Y730250D02*
X611870D01*
X610870Y729250D02*
Y731250D01*
X599710Y684530D02*
X601710D01*
X600710Y683530D02*
Y685530D01*
X608600Y473710D02*
X610600D01*
X609600Y472710D02*
Y474710D01*
X970550Y476250D02*
X972550D01*
X971550Y475250D02*
Y477250D01*
X630190Y1109980D02*
X632190D01*
X631190Y1108980D02*
Y1110980D01*
X614950Y925830D02*
X616950D01*
X615950Y924830D02*
Y926830D01*
X927370Y627380D02*
X929370D01*
X928370Y626380D02*
Y628380D01*
X1031510Y1056640D02*
X1033510D01*
X1032510Y1055640D02*
Y1057640D01*
M02*
