G04 Layer_Color=2752767*
%FSLAX44Y44*%
%MOMM*%
G71*
G01*
G75*
%ADD81C,0.0508*%
%ADD82C,0.0677*%
D81*
X701548Y1105408D02*
Y1109472D01*
X705612D01*
Y1105408D01*
X701548D01*
X714248Y918718D02*
Y922782D01*
X718312D01*
Y918718D01*
X714248D01*
X789178Y690118D02*
Y694182D01*
X793242D01*
Y690118D01*
X789178D01*
X765810Y886968D02*
X763778Y891032D01*
X767842D01*
X765810Y886968D01*
X905510Y872998D02*
X903478Y877062D01*
X907542D01*
X905510Y872998D01*
X643890Y591058D02*
X644906Y592074D01*
X645922D01*
X644906Y593090D01*
X645922Y594106D01*
X644906D01*
X643890Y595122D01*
X642874Y594106D01*
X641858D01*
X642874Y593090D01*
X641858Y592074D01*
X642874D01*
X643890Y591058D01*
Y616458D02*
X644906Y617474D01*
X645922D01*
X644906Y618490D01*
X645922Y619506D01*
X644906D01*
X643890Y620522D01*
X642874Y619506D01*
X641858D01*
X642874Y618490D01*
X641858Y617474D01*
X642874D01*
X643890Y616458D01*
Y641858D02*
X644906Y642874D01*
X645922D01*
X644906Y643890D01*
X645922Y644906D01*
X644906D01*
X643890Y645922D01*
X642874Y644906D01*
X641858D01*
X642874Y643890D01*
X641858Y642874D01*
X642874D01*
X643890Y641858D01*
X641350Y987298D02*
X642366Y988314D01*
X643382D01*
X642366Y989330D01*
X643382Y990346D01*
X642366D01*
X641350Y991362D01*
X640334Y990346D01*
X639318D01*
X640334Y989330D01*
X639318Y988314D01*
X640334D01*
X641350Y987298D01*
Y1012698D02*
X642366Y1013714D01*
X643382D01*
X642366Y1014730D01*
X643382Y1015746D01*
X642366D01*
X641350Y1016762D01*
X640334Y1015746D01*
X639318D01*
X640334Y1014730D01*
X639318Y1013714D01*
X640334D01*
X641350Y1012698D01*
Y1038098D02*
X642366Y1039114D01*
X643382D01*
X642366Y1040130D01*
X643382Y1041146D01*
X642366D01*
X641350Y1042162D01*
X640334Y1041146D01*
X639318D01*
X640334Y1040130D01*
X639318Y1039114D01*
X640334D01*
X641350Y1038098D01*
Y791718D02*
X642366Y792734D01*
X643382D01*
X642366Y793750D01*
X643382Y794766D01*
X642366D01*
X641350Y795782D01*
X640334Y794766D01*
X639318D01*
X640334Y793750D01*
X639318Y792734D01*
X640334D01*
X641350Y791718D01*
Y817118D02*
X642366Y818134D01*
X643382D01*
X642366Y819150D01*
X643382Y820166D01*
X642366D01*
X641350Y821182D01*
X640334Y820166D01*
X639318D01*
X640334Y819150D01*
X639318Y818134D01*
X640334D01*
X641350Y817118D01*
Y842518D02*
X642366Y843534D01*
X643382D01*
X642366Y844550D01*
X643382Y845566D01*
X642366D01*
X641350Y846582D01*
X640334Y845566D01*
X639318D01*
X640334Y844550D01*
X639318Y843534D01*
X640334D01*
X641350Y842518D01*
X829978Y817118D02*
Y821182D01*
X834042D01*
Y817118D01*
X829978D01*
X854478D02*
Y821182D01*
X858542D01*
Y817118D01*
X854478D01*
X878978D02*
Y821182D01*
X883042D01*
Y817118D01*
X878978D01*
X903478D02*
Y821182D01*
X907542D01*
Y817118D01*
X903478D01*
X829978Y841618D02*
Y845682D01*
X834042D01*
Y841618D01*
X829978D01*
X854478D02*
Y845682D01*
X858542D01*
Y841618D01*
X854478D01*
X878978D02*
Y845682D01*
X883042D01*
Y841618D01*
X878978D01*
X903478D02*
Y845682D01*
X907542D01*
Y841618D01*
X903478D01*
X700278Y696468D02*
Y700532D01*
X704342D01*
Y696468D01*
X700278D01*
X978408D02*
Y700532D01*
X982472D01*
Y696468D01*
X978408D01*
X1013168Y611378D02*
X1014184Y613410D01*
X1013168Y615442D01*
X1015200Y614426D01*
X1017232Y615442D01*
X1016216Y613410D01*
X1017232Y611378D01*
X1015200Y612394D01*
X1013168Y611378D01*
X963168D02*
X964184Y613410D01*
X963168Y615442D01*
X965200Y614426D01*
X967232Y615442D01*
X966216Y613410D01*
X967232Y611378D01*
X965200Y612394D01*
X963168Y611378D01*
X941578Y895858D02*
Y899922D01*
X945642D01*
Y895858D01*
X941578D01*
X1026414Y1102614D02*
Y1101598D01*
X1028446D01*
Y1102614D01*
X1029462D01*
Y1104646D01*
X1028446D01*
Y1105662D01*
X1026414D01*
Y1104646D01*
X1025398D01*
Y1102614D01*
X1026414D01*
Y499364D02*
Y498348D01*
X1028446D01*
Y499364D01*
X1029462D01*
Y501396D01*
X1028446D01*
Y502412D01*
X1026414D01*
Y501396D01*
X1025398D01*
Y499364D01*
X1026414D01*
X578984D02*
Y498348D01*
X581016D01*
Y499364D01*
X582032D01*
Y501396D01*
X581016D01*
Y502412D01*
X578984D01*
Y501396D01*
X577968D01*
Y499364D01*
X578984D01*
Y1102614D02*
Y1101598D01*
X581016D01*
Y1102614D01*
X582032D01*
Y1104646D01*
X581016D01*
Y1105662D01*
X578984D01*
Y1104646D01*
X577968D01*
Y1102614D01*
X578984D01*
D82*
X729742Y527050D02*
G03*
X729742Y527050I-2032J0D01*
G01*
Y552450D02*
G03*
X729742Y552450I-2032J0D01*
G01*
X598932Y618490D02*
G03*
X598932Y618490I-2032J0D01*
G01*
Y593090D02*
G03*
X598932Y593090I-2032J0D01*
G01*
X896112Y1042670D02*
G03*
X896112Y1042670I-2032J0D01*
G01*
X921512D02*
G03*
X921512Y1042670I-2032J0D01*
G01*
X946912D02*
G03*
X946912Y1042670I-2032J0D01*
G01*
X972312D02*
G03*
X972312Y1042670I-2032J0D01*
G01*
X595122Y819150D02*
G03*
X595122Y819150I-2032J0D01*
G01*
Y793750D02*
G03*
X595122Y793750I-2032J0D01*
G01*
X601472Y1016000D02*
G03*
X601472Y1016000I-2032J0D01*
G01*
Y990600D02*
G03*
X601472Y990600I-2032J0D01*
G01*
X1007872Y952500D02*
G03*
X1007872Y952500I-2032J0D01*
G01*
Y918500D02*
G03*
X1007872Y918500I-2032J0D01*
G01*
X949452Y1003300D02*
G03*
X949452Y1003300I-2032J0D01*
G01*
Y977900D02*
G03*
X949452Y977900I-2032J0D01*
G01*
X877062Y1093470D02*
G03*
X877062Y1093470I-2032J0D01*
G01*
X902462D02*
G03*
X902462Y1093470I-2032J0D01*
G01*
X927862D02*
G03*
X927862Y1093470I-2032J0D01*
G01*
X953262D02*
G03*
X953262Y1093470I-2032J0D01*
G01*
X747522Y909320D02*
G03*
X747522Y909320I-2032J0D01*
G01*
Y934720D02*
G03*
X747522Y934720I-2032J0D01*
G01*
Y960120D02*
G03*
X747522Y960120I-2032J0D01*
G01*
Y985520D02*
G03*
X747522Y985520I-2032J0D01*
G01*
X844042Y1066800D02*
G03*
X844042Y1066800I-2032J0D01*
G01*
Y1092200D02*
G03*
X844042Y1092200I-2032J0D01*
G01*
X1004062Y820420D02*
G03*
X1004062Y820420I-2032J0D01*
G01*
X1029462Y871220D02*
G03*
X1029462Y871220I-2032J0D01*
G01*
X1004062Y845820D02*
G03*
X1004062Y845820I-2032J0D01*
G01*
X1029462D02*
G03*
X1029462Y845820I-2032J0D01*
G01*
Y820420D02*
G03*
X1029462Y820420I-2032J0D01*
G01*
X1004062Y871220D02*
G03*
X1004062Y871220I-2032J0D01*
G01*
X832612Y556260D02*
G03*
X832612Y556260I-2032J0D01*
G01*
Y506260D02*
G03*
X832612Y506260I-2032J0D01*
G01*
X813562Y1090930D02*
G03*
X813562Y1090930I-2032J0D01*
G01*
X788162D02*
G03*
X788162Y1090930I-2032J0D01*
G01*
X762762D02*
G03*
X762762Y1090930I-2032J0D01*
G01*
X737362D02*
G03*
X737362Y1090930I-2032J0D01*
G01*
M02*
