G04 Layer_Color=16711935*
%FSLAX25Y25*%
%MOIN*%
G70*
G01*
G75*
%ADD37R,0.06906X0.06118*%
%ADD41R,0.06118X0.06906*%
%ADD42C,0.07000*%
%ADD43C,0.06800*%
%ADD44R,0.06906X0.06906*%
%ADD45C,0.06906*%
%ADD46C,0.02969*%
%ADD47C,0.04937*%
%ADD48O,0.11000X0.08000*%
%ADD49R,0.11000X0.08000*%
%ADD50R,0.06906X0.06906*%
%ADD51O,0.08874X0.12811*%
%ADD52C,0.12811*%
%ADD53R,0.08874X0.08874*%
%ADD54C,0.08874*%
%ADD55R,0.12811X0.12811*%
%ADD56R,0.13200X0.09000*%
G04:AMPARAMS|DCode=57|XSize=43mil|YSize=90mil|CornerRadius=0mil|HoleSize=0mil|Usage=FLASHONLY|Rotation=0.000|XOffset=0mil|YOffset=0mil|HoleType=Round|Shape=Octagon|*
%AMOCTAGOND57*
4,1,8,-0.01075,0.04500,0.01075,0.04500,0.02150,0.03425,0.02150,-0.03425,0.01075,-0.04500,-0.01075,-0.04500,-0.02150,-0.03425,-0.02150,0.03425,-0.01075,0.04500,0.0*
%
%ADD57OCTAGOND57*%

%ADD58R,0.04300X0.09000*%
%ADD59R,0.07890X0.11433*%
G04:AMPARAMS|DCode=60|XSize=114.33mil|YSize=78.9mil|CornerRadius=0mil|HoleSize=0mil|Usage=FLASHONLY|Rotation=90.000|XOffset=0mil|YOffset=0mil|HoleType=Round|Shape=Octagon|*
%AMOCTAGOND60*
4,1,8,0.01972,0.05717,-0.01972,0.05717,-0.03945,0.03744,-0.03945,-0.03744,-0.01972,-0.05717,0.01972,-0.05717,0.03945,-0.03744,0.03945,0.03744,0.01972,0.05717,0.0*
%
%ADD60OCTAGOND60*%

D37*
X365500Y331500D02*
D03*
Y322839D02*
D03*
D41*
X320000Y308000D02*
D03*
X328661D02*
D03*
X337661Y294500D02*
D03*
X329000D02*
D03*
X319161D02*
D03*
X310500D02*
D03*
X364000Y283000D02*
D03*
X355339D02*
D03*
D42*
X263000Y449000D02*
D03*
X278500Y369500D02*
D03*
X377000Y306500D02*
D03*
X327563Y322500D02*
D03*
X337209D02*
D03*
X346854D02*
D03*
X356500D02*
D03*
X327563Y332146D02*
D03*
X337209D02*
D03*
X346854D02*
D03*
X356500D02*
D03*
X373000Y352000D02*
D03*
D43*
X407500Y414000D02*
D03*
D44*
X283399Y207500D02*
D03*
X250500Y244000D02*
D03*
X251000Y322500D02*
D03*
X250500Y399500D02*
D03*
X396000Y375000D02*
D03*
X372500Y382000D02*
D03*
X293500Y358000D02*
D03*
X331500Y420000D02*
D03*
X404500Y323000D02*
D03*
D45*
X283399Y217500D02*
D03*
X250500Y234000D02*
D03*
X352000Y410500D02*
D03*
X362000D02*
D03*
X372000D02*
D03*
X251000Y312500D02*
D03*
X250500Y389500D02*
D03*
X396000Y361614D02*
D03*
X372500Y392000D02*
D03*
X344500Y430500D02*
D03*
X354500D02*
D03*
X364500D02*
D03*
X293500Y368000D02*
D03*
Y378000D02*
D03*
Y388000D02*
D03*
X319500Y429500D02*
D03*
X309500D02*
D03*
X299500D02*
D03*
X331500Y430000D02*
D03*
X394500Y323000D02*
D03*
X404500Y343000D02*
D03*
X394500Y333000D02*
D03*
X404500D02*
D03*
X394500Y343000D02*
D03*
D46*
X301500Y348000D02*
D03*
D47*
X356500Y344500D02*
D03*
D48*
X225500Y234000D02*
D03*
Y244000D02*
D03*
X225000Y389500D02*
D03*
Y399500D02*
D03*
X225500Y312500D02*
D03*
Y322500D02*
D03*
D49*
Y254000D02*
D03*
X225000Y409500D02*
D03*
X225500Y332500D02*
D03*
D50*
X382000Y410500D02*
D03*
X374500Y430500D02*
D03*
X289500Y429500D02*
D03*
D51*
X286500Y275500D02*
D03*
X396000D02*
D03*
D52*
X408000Y194500D02*
D03*
X410500Y451500D02*
D03*
X214500D02*
D03*
X215500Y192000D02*
D03*
X412685Y245500D02*
D03*
D53*
X327000Y216000D02*
D03*
D54*
Y196315D02*
D03*
D55*
X393000Y245500D02*
D03*
D56*
X337600Y256531D02*
D03*
D57*
X328500Y283000D02*
D03*
D58*
X337600D02*
D03*
X346700D02*
D03*
D59*
X356500Y221000D02*
D03*
D60*
Y237929D02*
D03*
M02*
