G04 Layer_Color=16711935*
%FSLAX24Y24*%
%MOIN*%
G70*
G01*
G75*
%ADD52R,0.0691X0.0612*%
%ADD56R,0.0612X0.0691*%
%ADD59O,0.0887X0.1281*%
%ADD60C,0.0494*%
%ADD61R,0.0691X0.0691*%
%ADD62C,0.0691*%
%ADD63C,0.0415*%
%ADD64R,0.0691X0.0691*%
%ADD65O,0.1100X0.0887*%
%ADD66R,0.1100X0.0887*%
%ADD67C,0.0700*%
%ADD68R,0.0887X0.0887*%
%ADD69C,0.0887*%
%ADD70C,0.1281*%
%ADD71R,0.1281X0.1281*%
%ADD72C,0.1675*%
%ADD73C,0.0376*%
%ADD74R,0.1320X0.0900*%
G04:AMPARAMS|DCode=75|XSize=43mil|YSize=90mil|CornerRadius=0mil|HoleSize=0mil|Usage=FLASHONLY|Rotation=0.000|XOffset=0mil|YOffset=0mil|HoleType=Round|Shape=Octagon|*
%AMOCTAGOND75*
4,1,8,-0.0108,0.0450,0.0108,0.0450,0.0215,0.0343,0.0215,-0.0343,0.0108,-0.0450,-0.0108,-0.0450,-0.0215,-0.0343,-0.0215,0.0343,-0.0108,0.0450,0.0*
%
%ADD75OCTAGOND75*%

%ADD76R,0.0430X0.0900*%
%ADD77R,0.0789X0.1143*%
G04:AMPARAMS|DCode=78|XSize=114.3mil|YSize=78.9mil|CornerRadius=0mil|HoleSize=0mil|Usage=FLASHONLY|Rotation=90.000|XOffset=0mil|YOffset=0mil|HoleType=Round|Shape=Octagon|*
%AMOCTAGOND78*
4,1,8,0.0197,0.0572,-0.0197,0.0572,-0.0394,0.0374,-0.0394,-0.0374,-0.0197,-0.0572,0.0197,-0.0572,0.0394,-0.0374,0.0394,0.0374,0.0197,0.0572,0.0*
%
%ADD78OCTAGOND78*%

D52*
X36950Y33200D02*
D03*
Y32334D02*
D03*
D56*
X33766Y29450D02*
D03*
X32900D02*
D03*
X31916D02*
D03*
X31050D02*
D03*
X36400Y28300D02*
D03*
X35534D02*
D03*
X33700Y30550D02*
D03*
X32834D02*
D03*
D59*
X29000Y27500D02*
D03*
X30938Y27462D02*
D03*
X27850Y27500D02*
D03*
X38600D02*
D03*
D60*
X27700Y43600D02*
D03*
X28200Y36250D02*
D03*
X35650Y34450D02*
D03*
X31250Y25000D02*
D03*
X38150Y20600D02*
D03*
X40900Y29300D02*
D03*
X24050Y28750D02*
D03*
X23650Y26950D02*
D03*
X24000Y18650D02*
D03*
X38250Y18750D02*
D03*
X24850Y43700D02*
D03*
X24250Y36450D02*
D03*
X36550Y24700D02*
D03*
X40650Y41600D02*
D03*
D61*
X28650Y20750D02*
D03*
X39600Y37500D02*
D03*
X37450Y38500D02*
D03*
X29350Y35800D02*
D03*
X33150Y42000D02*
D03*
X40450Y32300D02*
D03*
D62*
X28650Y21750D02*
D03*
X22250Y24350D02*
D03*
X35200Y41050D02*
D03*
X36200D02*
D03*
X37200D02*
D03*
X22250Y32250D02*
D03*
Y39950D02*
D03*
X39600Y36161D02*
D03*
X37450Y39500D02*
D03*
X34450Y43050D02*
D03*
X35450D02*
D03*
X36450D02*
D03*
X29350Y36800D02*
D03*
Y37800D02*
D03*
Y38800D02*
D03*
X33150Y43000D02*
D03*
X39450Y32300D02*
D03*
X40450Y34300D02*
D03*
X39450Y33300D02*
D03*
X40450D02*
D03*
X39450Y34300D02*
D03*
X31950Y42950D02*
D03*
X30950D02*
D03*
X29950D02*
D03*
D63*
X29350Y34750D02*
D03*
D64*
X23250Y24350D02*
D03*
X38200Y41050D02*
D03*
X23250Y32250D02*
D03*
Y39950D02*
D03*
X37450Y43050D02*
D03*
X28950Y42950D02*
D03*
D65*
X25350Y23350D02*
D03*
Y24350D02*
D03*
X25250Y38950D02*
D03*
Y39950D02*
D03*
Y31250D02*
D03*
Y32250D02*
D03*
D66*
X25350Y25350D02*
D03*
X25250Y40950D02*
D03*
Y33250D02*
D03*
D67*
X32756Y32250D02*
D03*
X33721D02*
D03*
X34685D02*
D03*
X35650D02*
D03*
X32756Y33215D02*
D03*
X33721D02*
D03*
X34685D02*
D03*
X35650D02*
D03*
X37150Y35350D02*
D03*
D68*
X32700Y21900D02*
D03*
D69*
Y19931D02*
D03*
D70*
X39969Y24150D02*
D03*
D71*
X38000D02*
D03*
D72*
X40450Y43450D02*
D03*
Y19700D02*
D03*
X22835D02*
D03*
Y43450D02*
D03*
D73*
X34250Y37250D02*
D03*
D74*
X33760Y25653D02*
D03*
D75*
X32850Y28300D02*
D03*
D76*
X33760D02*
D03*
X34670D02*
D03*
D77*
X35300Y21950D02*
D03*
D78*
Y23643D02*
D03*
M02*
