G04 Layer_Physical_Order=1*
G04 Layer_Color=255*
%FSLAX44Y44*%
%MOMM*%
G71*
G01*
G75*
%ADD10R,1.1500X0.6000*%
%ADD11R,1.3000X1.5000*%
%ADD12R,1.5000X1.3000*%
%ADD13R,2.5000X0.4500*%
%ADD14O,2.5000X0.4500*%
%ADD15O,0.4500X2.5000*%
%ADD16C,0.3810*%
%ADD17C,1.0160*%
%ADD18C,1.5240*%
%ADD19R,3.0000X3.0000*%
%ADD20C,3.0000*%
%ADD21C,2.0000*%
%ADD22R,2.0000X2.0000*%
%ADD23C,1.5000*%
%ADD24R,1.5000X1.5000*%
%ADD25O,2.0000X3.0000*%
%ADD26R,1.5000X1.5000*%
%ADD27R,2.5400X2.0000*%
%ADD28O,2.5400X2.0000*%
%ADD29C,1.0000*%
%ADD30C,0.5000*%
G36*
X1310652Y459740D02*
X1902103D01*
Y1186864D01*
X1310652D01*
Y459740D01*
D02*
G37*
%LPC*%
G36*
X1727211Y1150373D02*
Y1143000D01*
X1719838D01*
X1719853Y1143112D01*
X1720877Y1145584D01*
X1722505Y1147706D01*
X1724628Y1149335D01*
X1727099Y1150359D01*
X1727211Y1150373D01*
D02*
G37*
G36*
X1732292D02*
X1732404Y1150359D01*
X1734875Y1149335D01*
X1736998Y1147706D01*
X1738626Y1145584D01*
X1739650Y1143112D01*
X1739665Y1143000D01*
X1732292D01*
Y1150373D01*
D02*
G37*
G36*
X1719838Y1137920D02*
X1727211D01*
Y1130547D01*
X1727099Y1130562D01*
X1724628Y1131585D01*
X1722505Y1133214D01*
X1720877Y1135336D01*
X1719853Y1137808D01*
X1719838Y1137920D01*
D02*
G37*
G36*
X1732292D02*
X1739665D01*
X1739650Y1137808D01*
X1738626Y1135336D01*
X1736998Y1133214D01*
X1734875Y1131585D01*
X1732404Y1130562D01*
X1732292Y1130547D01*
Y1137920D01*
D02*
G37*
G36*
X1355101Y1164435D02*
X1358540Y1164096D01*
X1361846Y1163093D01*
X1364893Y1161464D01*
X1367564Y1159273D01*
X1369756Y1156602D01*
X1371385Y1153555D01*
X1372388Y1150248D01*
X1372726Y1146810D01*
X1372388Y1143372D01*
X1371385Y1140065D01*
X1369756Y1137018D01*
X1367564Y1134347D01*
X1364893Y1132156D01*
X1361846Y1130527D01*
X1358540Y1129524D01*
X1355101Y1129185D01*
X1351663Y1129524D01*
X1348357Y1130527D01*
X1345310Y1132156D01*
X1342639Y1134347D01*
X1340447Y1137018D01*
X1338818Y1140065D01*
X1337815Y1143372D01*
X1337477Y1146810D01*
X1337815Y1150248D01*
X1338818Y1153555D01*
X1340447Y1156602D01*
X1342639Y1159273D01*
X1345310Y1161464D01*
X1348357Y1163093D01*
X1351663Y1164096D01*
X1355101Y1164435D01*
D02*
G37*
G36*
X1852941D02*
X1856380Y1164096D01*
X1859686Y1163093D01*
X1862733Y1161464D01*
X1865404Y1159273D01*
X1867596Y1156602D01*
X1869225Y1153555D01*
X1870228Y1150248D01*
X1870566Y1146810D01*
X1870228Y1143372D01*
X1869225Y1140065D01*
X1867596Y1137018D01*
X1865404Y1134347D01*
X1862733Y1132156D01*
X1859686Y1130527D01*
X1856380Y1129524D01*
X1852941Y1129185D01*
X1849503Y1129524D01*
X1846197Y1130527D01*
X1843150Y1132156D01*
X1840479Y1134347D01*
X1838287Y1137018D01*
X1836658Y1140065D01*
X1835655Y1143372D01*
X1835317Y1146810D01*
X1835655Y1150248D01*
X1836658Y1153555D01*
X1838287Y1156602D01*
X1840479Y1159273D01*
X1843150Y1161464D01*
X1846197Y1163093D01*
X1849503Y1164096D01*
X1852941Y1164435D01*
D02*
G37*
G36*
X1436501Y1103510D02*
X1444001D01*
Y1096010D01*
X1436501D01*
Y1103510D01*
D02*
G37*
G36*
X1449082D02*
X1456582D01*
Y1096010D01*
X1449082D01*
Y1103510D01*
D02*
G37*
G36*
X1553221Y1101992D02*
Y1094740D01*
X1545969D01*
X1545980Y1094821D01*
X1546992Y1097263D01*
X1548601Y1099361D01*
X1550698Y1100970D01*
X1553141Y1101982D01*
X1553221Y1101992D01*
D02*
G37*
G36*
X1558302D02*
X1558383Y1101982D01*
X1560825Y1100970D01*
X1562922Y1099361D01*
X1564531Y1097263D01*
X1565543Y1094821D01*
X1565554Y1094740D01*
X1558302D01*
Y1101992D01*
D02*
G37*
G36*
X1634501Y1100722D02*
Y1093470D01*
X1627249D01*
X1627260Y1093551D01*
X1628272Y1095993D01*
X1629881Y1098091D01*
X1631978Y1099700D01*
X1634420Y1100712D01*
X1634501Y1100722D01*
D02*
G37*
G36*
X1639581D02*
X1639662Y1100712D01*
X1642105Y1099700D01*
X1644202Y1098091D01*
X1645811Y1095993D01*
X1646823Y1093551D01*
X1646834Y1093470D01*
X1639581D01*
Y1100722D01*
D02*
G37*
G36*
X1436501Y1090930D02*
X1444001D01*
Y1083430D01*
X1436501D01*
Y1090930D01*
D02*
G37*
G36*
X1449082D02*
X1456582D01*
Y1083430D01*
X1449082D01*
Y1090930D01*
D02*
G37*
G36*
X1545969Y1089660D02*
X1553221D01*
Y1082408D01*
X1553141Y1082418D01*
X1550698Y1083430D01*
X1548601Y1085039D01*
X1546992Y1087137D01*
X1545980Y1089579D01*
X1545969Y1089660D01*
D02*
G37*
G36*
X1558302D02*
X1565554D01*
X1565543Y1089579D01*
X1564531Y1087137D01*
X1562922Y1085039D01*
X1560825Y1083430D01*
X1558383Y1082418D01*
X1558302Y1082408D01*
Y1089660D01*
D02*
G37*
G36*
X1627249Y1088390D02*
X1634501D01*
Y1081138D01*
X1634420Y1081148D01*
X1631978Y1082160D01*
X1629881Y1083769D01*
X1628272Y1085867D01*
X1627260Y1088309D01*
X1627249Y1088390D01*
D02*
G37*
G36*
X1639581D02*
X1646834D01*
X1646823Y1088309D01*
X1645811Y1085867D01*
X1644202Y1083769D01*
X1642105Y1082160D01*
X1639662Y1081148D01*
X1639581Y1081138D01*
Y1088390D01*
D02*
G37*
G36*
X1360181Y1061473D02*
Y1054100D01*
X1352808D01*
X1352823Y1054212D01*
X1353847Y1056684D01*
X1355475Y1058806D01*
X1357598Y1060435D01*
X1360069Y1061459D01*
X1360181Y1061473D01*
D02*
G37*
G36*
X1365262D02*
X1365374Y1061459D01*
X1367845Y1060435D01*
X1369968Y1058806D01*
X1371596Y1056684D01*
X1372620Y1054212D01*
X1372635Y1054100D01*
X1365262D01*
Y1061473D01*
D02*
G37*
G36*
X1718172Y1074300D02*
X1736252D01*
Y1054220D01*
X1731564D01*
Y1046280D01*
X1735322D01*
Y1045272D01*
X1811031D01*
Y1052670D01*
X1841512D01*
Y1027590D01*
X1834012D01*
X1833759Y1026320D01*
X1835296Y1025684D01*
X1837915Y1023674D01*
X1839925Y1021054D01*
X1841189Y1018004D01*
X1841620Y1014730D01*
X1841189Y1011456D01*
X1839925Y1008406D01*
X1837915Y1005786D01*
X1835296Y1003776D01*
X1832739Y1002717D01*
Y1001343D01*
X1835296Y1000284D01*
X1837915Y998274D01*
X1839925Y995654D01*
X1841189Y992604D01*
X1841285Y991870D01*
X1826272D01*
X1811258D01*
X1811354Y992604D01*
X1812618Y995654D01*
X1814628Y998274D01*
X1817247Y1000284D01*
X1819804Y1001343D01*
Y1002717D01*
X1817247Y1003776D01*
X1814628Y1005786D01*
X1813663Y1007044D01*
X1771541D01*
Y1004690D01*
X1751461D01*
Y1024770D01*
X1771541D01*
Y1022416D01*
X1813663D01*
X1814628Y1023674D01*
X1817247Y1025684D01*
X1818784Y1026320D01*
X1818531Y1027590D01*
X1811031D01*
Y1036208D01*
X1735322D01*
Y1035200D01*
X1718741D01*
Y1046280D01*
X1722499D01*
Y1054220D01*
X1718172D01*
Y1074300D01*
D02*
G37*
G36*
X1501151Y1052462D02*
Y1045210D01*
X1493899D01*
X1493910Y1045291D01*
X1494922Y1047733D01*
X1496531Y1049831D01*
X1498628Y1051440D01*
X1501071Y1052452D01*
X1501151Y1052462D01*
D02*
G37*
G36*
X1506232D02*
X1506313Y1052452D01*
X1508755Y1051440D01*
X1510852Y1049831D01*
X1512461Y1047733D01*
X1513473Y1045291D01*
X1513484Y1045210D01*
X1506232D01*
Y1052462D01*
D02*
G37*
G36*
X1352808Y1049020D02*
X1360181D01*
Y1041647D01*
X1360069Y1041662D01*
X1357598Y1042685D01*
X1355475Y1044314D01*
X1353847Y1046436D01*
X1352823Y1048908D01*
X1352808Y1049020D01*
D02*
G37*
G36*
X1365262D02*
X1372635D01*
X1372620Y1048908D01*
X1371596Y1046436D01*
X1369968Y1044314D01*
X1367845Y1042685D01*
X1365374Y1041662D01*
X1365262Y1041647D01*
Y1049020D01*
D02*
G37*
G36*
X1696241Y1036780D02*
X1701991D01*
Y1033780D01*
X1696241D01*
Y1036780D01*
D02*
G37*
G36*
X1707072D02*
X1712822D01*
Y1033780D01*
X1707072D01*
Y1036780D01*
D02*
G37*
G36*
X1493899Y1040130D02*
X1501151D01*
Y1032878D01*
X1501071Y1032888D01*
X1498628Y1033900D01*
X1496531Y1035509D01*
X1494922Y1037607D01*
X1493910Y1040049D01*
X1493899Y1040130D01*
D02*
G37*
G36*
X1506232D02*
X1513484D01*
X1513473Y1040049D01*
X1512461Y1037607D01*
X1510852Y1035509D01*
X1508755Y1033900D01*
X1506313Y1032888D01*
X1506232Y1032878D01*
Y1040130D01*
D02*
G37*
G36*
X1696241Y1028700D02*
X1701991D01*
Y1025700D01*
X1696241D01*
Y1028700D01*
D02*
G37*
G36*
X1707072D02*
X1712822D01*
Y1025700D01*
X1707072D01*
Y1028700D01*
D02*
G37*
G36*
X1616841Y1016560D02*
X1624341D01*
Y1010060D01*
X1616841D01*
Y1016560D01*
D02*
G37*
G36*
X1629422D02*
X1636922D01*
Y1010060D01*
X1629422D01*
Y1016560D01*
D02*
G37*
G36*
X1616841Y1004980D02*
X1624341D01*
Y998480D01*
X1616841D01*
Y1004980D01*
D02*
G37*
G36*
X1629422D02*
X1636922D01*
Y998480D01*
X1629422D01*
Y1004980D01*
D02*
G37*
G36*
X1449082Y1005472D02*
Y998220D01*
X1441829D01*
X1441840Y998301D01*
X1442852Y1000743D01*
X1444461Y1002841D01*
X1446558Y1004450D01*
X1449001Y1005462D01*
X1449082Y1005472D01*
D02*
G37*
G36*
X1454162D02*
X1454243Y1005462D01*
X1456685Y1004450D01*
X1458782Y1002841D01*
X1460391Y1000743D01*
X1461403Y998301D01*
X1461414Y998220D01*
X1454162D01*
Y1005472D01*
D02*
G37*
G36*
X1696172Y1074300D02*
X1714252D01*
Y1054220D01*
X1701581D01*
X1686024Y1038663D01*
Y1015337D01*
X1705444Y995917D01*
X1717171D01*
Y1011480D01*
X1722679D01*
Y1016200D01*
X1718741D01*
Y1027280D01*
X1735322D01*
Y1016200D01*
X1731744D01*
Y1011480D01*
X1737251D01*
Y995917D01*
X1753901D01*
X1754341Y996491D01*
X1756438Y998100D01*
X1758880Y999112D01*
X1761501Y999457D01*
X1764122Y999112D01*
X1766565Y998100D01*
X1768662Y996491D01*
X1770271Y994393D01*
X1771283Y991951D01*
X1771628Y989330D01*
X1771283Y986709D01*
X1770271Y984267D01*
X1768662Y982169D01*
X1766565Y980560D01*
X1764122Y979548D01*
X1761501Y979203D01*
X1758880Y979548D01*
X1758349Y979769D01*
X1755014Y976433D01*
Y878720D01*
X1759521D01*
Y858640D01*
X1741441D01*
Y878720D01*
X1745949D01*
Y978310D01*
X1745949Y978310D01*
X1746294Y980044D01*
X1747277Y981515D01*
X1751345Y985583D01*
X1750819Y986853D01*
X1737251D01*
Y971400D01*
X1731744D01*
Y904240D01*
X1731399Y902506D01*
X1730416Y901035D01*
X1701206Y871825D01*
X1701206Y871825D01*
X1699736Y870843D01*
X1698002Y870498D01*
X1698001Y870498D01*
X1653452D01*
X1652966Y869325D01*
X1710096Y812195D01*
X1710621Y811410D01*
X1715932D01*
Y791330D01*
X1697852D01*
X1697454Y790225D01*
Y622727D01*
X1709431Y610750D01*
X1722101D01*
Y590670D01*
X1704021D01*
Y603341D01*
X1689717Y617645D01*
X1689717Y617645D01*
X1688734Y619116D01*
X1688389Y620850D01*
X1688389Y620850D01*
Y802033D01*
X1633629Y856793D01*
X1553746D01*
X1553297Y856882D01*
X1552672Y855712D01*
X1556531Y851852D01*
X1557051Y851074D01*
X1558435Y850906D01*
X1558595Y850958D01*
X1560638Y852525D01*
X1563109Y853549D01*
X1565762Y853898D01*
X1568414Y853549D01*
X1570885Y852525D01*
X1573008Y850896D01*
X1574636Y848774D01*
X1575660Y846302D01*
X1576009Y843650D01*
X1575660Y840998D01*
X1574636Y838526D01*
X1573008Y836404D01*
X1570885Y834775D01*
X1568414Y833752D01*
X1565762Y833402D01*
X1563109Y833752D01*
X1560638Y834775D01*
X1558595Y836342D01*
X1558435Y836394D01*
X1557051Y836226D01*
X1556531Y835448D01*
X1549464Y828380D01*
X1549464Y828380D01*
X1548686Y827860D01*
X1548517Y826477D01*
X1548569Y826316D01*
X1550136Y824274D01*
X1551160Y821802D01*
X1551509Y819150D01*
X1551160Y816498D01*
X1550136Y814026D01*
X1548508Y811904D01*
X1546385Y810275D01*
X1543914Y809251D01*
X1541261Y808902D01*
X1540582Y808992D01*
X1533566Y801975D01*
X1532096Y800993D01*
X1530361Y800648D01*
X1460511D01*
X1458777Y800993D01*
X1457307Y801975D01*
X1449687Y809595D01*
X1448704Y811066D01*
X1448359Y812800D01*
Y865493D01*
X1419420D01*
X1417686Y865838D01*
X1416216Y866820D01*
X1405289Y877747D01*
X1405022Y877703D01*
X1404478Y876326D01*
X1404511Y876283D01*
X1405523Y873841D01*
X1405534Y873760D01*
X1395741D01*
Y871220D01*
X1393201D01*
Y861428D01*
X1393121Y861438D01*
X1390678Y862450D01*
X1388690Y863975D01*
X1388174Y863914D01*
X1387323Y863612D01*
X1387229Y863136D01*
X1386246Y861665D01*
X1377528Y852947D01*
X1379111Y850883D01*
X1380123Y848441D01*
X1380468Y845820D01*
X1380123Y843199D01*
X1379111Y840757D01*
X1377502Y838659D01*
X1375405Y837050D01*
X1372962Y836038D01*
X1370341Y835693D01*
X1367720Y836038D01*
X1365278Y837050D01*
X1363181Y838659D01*
X1361572Y840757D01*
X1360560Y843199D01*
X1360215Y845820D01*
X1360560Y848441D01*
X1361572Y850883D01*
X1363181Y852981D01*
X1365278Y854590D01*
X1367123Y855354D01*
X1367137Y855375D01*
X1367137Y855375D01*
X1371761Y859999D01*
X1371168Y861202D01*
X1370341Y861093D01*
X1367720Y861438D01*
X1365278Y862450D01*
X1363181Y864059D01*
X1361572Y866157D01*
X1360560Y868599D01*
X1360215Y871220D01*
X1360560Y873841D01*
X1361572Y876283D01*
X1363181Y878381D01*
X1365278Y879990D01*
X1367720Y881002D01*
X1370341Y881347D01*
X1372962Y881002D01*
X1375405Y879990D01*
X1377239Y878582D01*
X1378047Y878746D01*
X1378559Y879090D01*
X1378854Y880574D01*
X1379837Y882045D01*
X1379837Y882045D01*
X1384162Y886370D01*
X1385632Y887352D01*
X1387366Y887697D01*
X1406280D01*
X1406280Y887697D01*
X1408015Y887352D01*
X1409485Y886370D01*
X1409485Y886370D01*
X1417548Y878306D01*
X1418721Y878792D01*
Y890010D01*
X1438801D01*
Y890010D01*
X1439559Y889696D01*
X1440698Y890836D01*
X1440453Y891428D01*
X1440104Y894080D01*
X1440453Y896732D01*
X1441477Y899204D01*
X1443105Y901326D01*
X1445228Y902955D01*
X1447699Y903979D01*
X1450352Y904328D01*
X1453004Y903979D01*
X1455475Y902955D01*
X1457598Y901326D01*
X1459226Y899204D01*
X1460250Y896732D01*
X1460599Y894080D01*
X1460250Y891428D01*
X1459226Y888956D01*
X1457598Y886834D01*
X1455475Y885205D01*
X1453004Y884182D01*
X1450352Y883832D01*
X1447699Y884182D01*
X1447107Y884427D01*
X1440446Y877765D01*
X1438976Y876783D01*
X1438802Y876748D01*
Y874557D01*
X1451459D01*
X1475314Y898411D01*
X1474954Y899848D01*
X1473728Y900667D01*
X1472669Y902251D01*
X1472298Y904120D01*
X1472669Y905989D01*
X1473527Y907273D01*
X1473649Y908120D01*
X1473527Y908967D01*
X1472669Y910251D01*
X1472298Y912120D01*
X1472669Y913989D01*
X1472889Y914318D01*
X1472210Y915588D01*
X1465471D01*
Y910030D01*
X1445392D01*
Y914538D01*
X1440389D01*
X1438526Y912675D01*
X1438802Y912010D01*
X1438802D01*
Y893930D01*
X1418721D01*
Y912010D01*
X1425213D01*
X1425557Y912525D01*
X1435307Y922275D01*
X1436777Y923257D01*
X1438512Y923602D01*
X1445392D01*
Y928110D01*
X1465471D01*
Y924652D01*
X1472210D01*
X1472889Y925922D01*
X1472669Y926251D01*
X1472298Y928120D01*
X1472669Y929989D01*
X1473527Y931273D01*
X1473649Y932120D01*
X1473527Y932967D01*
X1473118Y933580D01*
X1487431D01*
X1502157D01*
X1502652Y932652D01*
X1542204D01*
X1548877Y939325D01*
X1550347Y940307D01*
X1552081Y940652D01*
X1567210D01*
X1567706Y941580D01*
X1582431D01*
X1596745D01*
X1596335Y940967D01*
X1596214Y940120D01*
X1596335Y939273D01*
X1597194Y937989D01*
X1597565Y936120D01*
X1597194Y934251D01*
X1596335Y932967D01*
X1596214Y932120D01*
X1596335Y931273D01*
X1596745Y930660D01*
X1582431D01*
Y925580D01*
X1597157D01*
X1597653Y924652D01*
X1610141D01*
X1611876Y924307D01*
X1611886Y924300D01*
X1625491D01*
Y913852D01*
X1642242D01*
Y919360D01*
X1662321D01*
Y899280D01*
X1642242D01*
Y904788D01*
X1636494D01*
Y886209D01*
X1636709Y885887D01*
X1637100Y883920D01*
X1636709Y881954D01*
X1635960Y880832D01*
X1636623Y879562D01*
X1696124D01*
X1722679Y906117D01*
Y971400D01*
X1717171D01*
Y986853D01*
X1703566D01*
X1701832Y987198D01*
X1700362Y988180D01*
X1678287Y1010255D01*
X1678287Y1010255D01*
X1677304Y1011726D01*
X1676959Y1013460D01*
X1676959Y1013460D01*
Y1040540D01*
X1676959Y1040540D01*
X1677304Y1042274D01*
X1678287Y1043745D01*
X1678287Y1043745D01*
X1696172Y1061629D01*
Y1074300D01*
D02*
G37*
G36*
X1441829Y993140D02*
X1449082D01*
Y985888D01*
X1449001Y985898D01*
X1446558Y986910D01*
X1444461Y988519D01*
X1442852Y990617D01*
X1441840Y993059D01*
X1441829Y993140D01*
D02*
G37*
G36*
X1454162D02*
X1461414D01*
X1461403Y993059D01*
X1460391Y990617D01*
X1458782Y988519D01*
X1456685Y986910D01*
X1454243Y985898D01*
X1454162Y985888D01*
Y993140D01*
D02*
G37*
G36*
X1811258Y986790D02*
X1823732D01*
Y976682D01*
X1823571D01*
X1820298Y977113D01*
X1817247Y978376D01*
X1814628Y980386D01*
X1812618Y983006D01*
X1811354Y986056D01*
X1811258Y986790D01*
D02*
G37*
G36*
X1828811D02*
X1841285D01*
X1841189Y986056D01*
X1839925Y983006D01*
X1837915Y980386D01*
X1835296Y978376D01*
X1832245Y977113D01*
X1828972Y976682D01*
X1828811D01*
Y986790D01*
D02*
G37*
G36*
X1652281Y995647D02*
X1654902Y995302D01*
X1657345Y994290D01*
X1659442Y992681D01*
X1661051Y990583D01*
X1662063Y988141D01*
X1662408Y985520D01*
X1662063Y982899D01*
X1661051Y980457D01*
X1659442Y978359D01*
X1657345Y976750D01*
X1654902Y975738D01*
X1652281Y975393D01*
X1649660Y975738D01*
X1647218Y976750D01*
X1645121Y978359D01*
X1643512Y980457D01*
X1643291Y980988D01*
X1636922D01*
Y976480D01*
X1618551D01*
Y975480D01*
X1600471D01*
Y995560D01*
X1618551D01*
Y994560D01*
X1636922D01*
Y990052D01*
X1643291D01*
X1643512Y990583D01*
X1645121Y992681D01*
X1647218Y994290D01*
X1649660Y995302D01*
X1652281Y995647D01*
D02*
G37*
G36*
X1488571Y1145690D02*
X1508651D01*
Y1142452D01*
X1615452D01*
X1617186Y1142107D01*
X1618656Y1141125D01*
X1658811Y1100970D01*
X1672482D01*
Y1080890D01*
X1652401D01*
Y1094561D01*
X1613574Y1133388D01*
X1543784D01*
Y1052980D01*
X1549292D01*
Y1038244D01*
X1550481Y1037723D01*
X1551229Y1038327D01*
Y1056760D01*
X1545721D01*
Y1076840D01*
X1565802D01*
Y1072219D01*
X1566944Y1071824D01*
X1567072Y1071819D01*
X1579055Y1083803D01*
X1577472Y1085867D01*
X1576460Y1088309D01*
X1576115Y1090930D01*
X1576460Y1093551D01*
X1577472Y1095993D01*
X1579081Y1098091D01*
X1581178Y1099700D01*
X1583620Y1100712D01*
X1586241Y1101057D01*
X1588862Y1100712D01*
X1591305Y1099700D01*
X1593402Y1098091D01*
X1595011Y1095993D01*
X1596023Y1093551D01*
X1596368Y1090930D01*
X1596023Y1088309D01*
X1595011Y1085867D01*
X1593402Y1083769D01*
X1591305Y1082160D01*
X1589460Y1081396D01*
X1589446Y1081375D01*
X1574779Y1066708D01*
Y1062136D01*
X1575952Y1061650D01*
X1602080Y1087778D01*
X1601860Y1088309D01*
X1601515Y1090930D01*
X1601860Y1093551D01*
X1602872Y1095993D01*
X1604481Y1098091D01*
X1606578Y1099700D01*
X1609021Y1100712D01*
X1611642Y1101057D01*
X1614263Y1100712D01*
X1616705Y1099700D01*
X1618802Y1098091D01*
X1620411Y1095993D01*
X1621423Y1093551D01*
X1621768Y1090930D01*
X1621423Y1088309D01*
X1620411Y1085867D01*
X1618802Y1083769D01*
X1616705Y1082160D01*
X1614263Y1081148D01*
X1611642Y1080803D01*
X1609021Y1081148D01*
X1608489Y1081368D01*
X1581129Y1054008D01*
Y1030019D01*
X1580784Y1028284D01*
X1579801Y1026814D01*
X1559464Y1006476D01*
Y994841D01*
X1560733Y994162D01*
X1561062Y994382D01*
X1562932Y994754D01*
X1564800Y994382D01*
X1566385Y993323D01*
X1567444Y991739D01*
X1567571Y991096D01*
X1568831Y990052D01*
X1578472D01*
Y995560D01*
X1596552D01*
Y975480D01*
X1578472D01*
Y980988D01*
X1570709D01*
X1567815Y978094D01*
Y969370D01*
X1567444Y967501D01*
X1566385Y965917D01*
X1564800Y964858D01*
X1562932Y964486D01*
X1561062Y964858D01*
X1559778Y965716D01*
X1558931Y965838D01*
X1558085Y965716D01*
X1556800Y964858D01*
X1554931Y964486D01*
X1553062Y964858D01*
X1551778Y965716D01*
X1550931Y965838D01*
X1550085Y965716D01*
X1548800Y964858D01*
X1546931Y964486D01*
X1545063Y964858D01*
X1543778Y965716D01*
X1542931Y965838D01*
X1542085Y965716D01*
X1540800Y964858D01*
X1538931Y964486D01*
X1537063Y964858D01*
X1535778Y965716D01*
X1534931Y965838D01*
X1534085Y965716D01*
X1532800Y964858D01*
X1530931Y964486D01*
X1529062Y964858D01*
X1527778Y965716D01*
X1526931Y965838D01*
X1526085Y965716D01*
X1524800Y964858D01*
X1522931Y964486D01*
X1521062Y964858D01*
X1519778Y965716D01*
X1518931Y965838D01*
X1518085Y965716D01*
X1516800Y964858D01*
X1514931Y964486D01*
X1513062Y964858D01*
X1511778Y965716D01*
X1510931Y965838D01*
X1510085Y965716D01*
X1508800Y964858D01*
X1506931Y964486D01*
X1505062Y964858D01*
X1503478Y965917D01*
X1502419Y967501D01*
X1502048Y969370D01*
Y987105D01*
X1456044Y1033109D01*
X1455513Y1032888D01*
X1452892Y1032543D01*
X1450271Y1032888D01*
X1447828Y1033900D01*
X1445731Y1035509D01*
X1444122Y1037607D01*
X1443110Y1040049D01*
X1442765Y1042670D01*
X1443110Y1045291D01*
X1444122Y1047733D01*
X1445731Y1049831D01*
X1447828Y1051440D01*
X1450271Y1052452D01*
X1452892Y1052797D01*
X1455513Y1052452D01*
X1457955Y1051440D01*
X1460052Y1049831D01*
X1461661Y1047733D01*
X1462673Y1045291D01*
X1463018Y1042670D01*
X1462673Y1040049D01*
X1462453Y1039518D01*
X1507288Y994683D01*
X1508800Y994382D01*
X1509129Y994162D01*
X1510399Y994841D01*
Y1002883D01*
X1480454Y1032828D01*
X1478291Y1032543D01*
X1475670Y1032888D01*
X1473228Y1033900D01*
X1471131Y1035509D01*
X1469522Y1037607D01*
X1468510Y1040049D01*
X1468165Y1042670D01*
X1468510Y1045291D01*
X1469522Y1047733D01*
X1471131Y1049831D01*
X1473228Y1051440D01*
X1475670Y1052452D01*
X1478291Y1052797D01*
X1480912Y1052452D01*
X1483355Y1051440D01*
X1485452Y1049831D01*
X1487061Y1047733D01*
X1488073Y1045291D01*
X1488418Y1042670D01*
X1488073Y1040049D01*
X1487481Y1038620D01*
X1515170Y1010931D01*
X1516424Y1011472D01*
Y1069248D01*
X1501392Y1084280D01*
X1499962Y1083688D01*
X1497341Y1083343D01*
X1494720Y1083688D01*
X1492278Y1084700D01*
X1490181Y1086309D01*
X1488572Y1088407D01*
X1487560Y1090849D01*
X1487215Y1093470D01*
X1487560Y1096091D01*
X1488572Y1098533D01*
X1490181Y1100631D01*
X1492278Y1102240D01*
X1494079Y1102986D01*
Y1105610D01*
X1488571D01*
Y1123690D01*
X1508651D01*
Y1105610D01*
X1503144D01*
Y1101673D01*
X1504502Y1100631D01*
X1506111Y1098533D01*
X1507123Y1096091D01*
X1507468Y1093470D01*
X1507183Y1091307D01*
X1521601Y1076890D01*
X1522774Y1077376D01*
Y1083315D01*
X1522742Y1083343D01*
X1520121Y1083688D01*
X1517678Y1084700D01*
X1515581Y1086309D01*
X1513972Y1088407D01*
X1512960Y1090849D01*
X1512615Y1093470D01*
X1512960Y1096091D01*
X1513972Y1098533D01*
X1515581Y1100631D01*
X1517678Y1102240D01*
X1520121Y1103252D01*
X1522742Y1103597D01*
X1525363Y1103252D01*
X1527805Y1102240D01*
X1529902Y1100631D01*
X1531511Y1098533D01*
X1532523Y1096091D01*
X1532868Y1093470D01*
X1532523Y1090849D01*
X1531511Y1088407D01*
X1531392Y1088251D01*
X1531494Y1088099D01*
X1531839Y1086365D01*
Y1052980D01*
X1534719D01*
Y1133388D01*
X1508651D01*
Y1127610D01*
X1488571D01*
Y1129153D01*
X1487398Y1129639D01*
X1476474Y1118714D01*
Y1102460D01*
X1477005Y1102240D01*
X1479102Y1100631D01*
X1480711Y1098533D01*
X1481723Y1096091D01*
X1482068Y1093470D01*
X1481723Y1090849D01*
X1480711Y1088407D01*
X1479102Y1086309D01*
X1477005Y1084700D01*
X1475160Y1083936D01*
X1475146Y1083915D01*
X1437531Y1046301D01*
Y1032630D01*
X1423861D01*
X1407484Y1016253D01*
Y980320D01*
X1411991D01*
Y961540D01*
X1415912D01*
Y980320D01*
X1433992D01*
Y974812D01*
X1441582D01*
Y980320D01*
X1461662D01*
Y966649D01*
X1463659Y964652D01*
X1475413D01*
X1477181Y965004D01*
X1497681D01*
X1499550Y964632D01*
X1501135Y963573D01*
X1502193Y961989D01*
X1502565Y960120D01*
X1502193Y958251D01*
X1501335Y956967D01*
X1501214Y956120D01*
X1501335Y955273D01*
X1502193Y953989D01*
X1502565Y952120D01*
X1502193Y950251D01*
X1501335Y948967D01*
X1501214Y948120D01*
X1501335Y947273D01*
X1502193Y945989D01*
X1502565Y944120D01*
X1502193Y942251D01*
X1501335Y940967D01*
X1501214Y940120D01*
X1501335Y939273D01*
X1501745Y938660D01*
X1487431D01*
X1473118D01*
X1473527Y939273D01*
X1473649Y940120D01*
X1473527Y940967D01*
X1472669Y942251D01*
X1472298Y944120D01*
X1472669Y945989D01*
X1473143Y946698D01*
X1472464Y947968D01*
X1465471D01*
Y943610D01*
X1445392D01*
Y947968D01*
X1431181D01*
Y943460D01*
X1416387D01*
X1415861Y942190D01*
X1418511Y939540D01*
X1431181D01*
Y921460D01*
X1411102D01*
Y934131D01*
X1409964Y935268D01*
X1377961D01*
X1376227Y935613D01*
X1374757Y936595D01*
X1370947Y940405D01*
X1369964Y941876D01*
X1369619Y943610D01*
Y962660D01*
X1369964Y964394D01*
X1370947Y965865D01*
X1378567Y973485D01*
X1380037Y974467D01*
X1381772Y974812D01*
X1393911D01*
Y980320D01*
X1398419D01*
Y1018130D01*
X1398764Y1019864D01*
X1399747Y1021335D01*
X1417451Y1039039D01*
Y1052710D01*
X1431122D01*
X1464755Y1086343D01*
X1463172Y1088407D01*
X1462160Y1090849D01*
X1461815Y1093470D01*
X1462160Y1096091D01*
X1463172Y1098533D01*
X1464781Y1100631D01*
X1466878Y1102240D01*
X1467409Y1102460D01*
Y1120591D01*
X1467409Y1120591D01*
X1467754Y1122326D01*
X1468737Y1123796D01*
X1486066Y1141125D01*
X1487536Y1142107D01*
X1488571Y1142313D01*
Y1145690D01*
D02*
G37*
G36*
X1652281Y970247D02*
X1654902Y969902D01*
X1657345Y968890D01*
X1659442Y967281D01*
X1661051Y965183D01*
X1662063Y962741D01*
X1662408Y960120D01*
X1662063Y957499D01*
X1661051Y955057D01*
X1659442Y952959D01*
X1657345Y951350D01*
X1654902Y950338D01*
X1652281Y949993D01*
X1649660Y950338D01*
X1647218Y951350D01*
X1645121Y952959D01*
X1643512Y955057D01*
X1643291Y955588D01*
X1598635D01*
X1597569Y955351D01*
X1597043Y954214D01*
X1597194Y953989D01*
X1597565Y952120D01*
X1597194Y950251D01*
X1596335Y948967D01*
X1596214Y948120D01*
X1596335Y947273D01*
X1596745Y946660D01*
X1582431D01*
X1568118D01*
X1568528Y947273D01*
X1568649Y948120D01*
X1568528Y948967D01*
X1567669Y950251D01*
X1567298Y952120D01*
X1567669Y953989D01*
X1567913Y954354D01*
X1567392Y955330D01*
X1567392D01*
Y964910D01*
X1597471D01*
Y964652D01*
X1643291D01*
X1643512Y965183D01*
X1645121Y967281D01*
X1647218Y968890D01*
X1649660Y969902D01*
X1652281Y970247D01*
D02*
G37*
G36*
X1687841Y948443D02*
Y941070D01*
X1680468D01*
X1680483Y941182D01*
X1681507Y943654D01*
X1683135Y945776D01*
X1685258Y947405D01*
X1687729Y948428D01*
X1687841Y948443D01*
D02*
G37*
G36*
X1692921D02*
X1693034Y948428D01*
X1695505Y947405D01*
X1697628Y945776D01*
X1699256Y943654D01*
X1700280Y941182D01*
X1700295Y941070D01*
X1692921D01*
Y948443D01*
D02*
G37*
G36*
X1605412Y946300D02*
X1612912D01*
Y939800D01*
X1605412D01*
Y946300D01*
D02*
G37*
G36*
X1617991D02*
X1625491D01*
Y939800D01*
X1617991D01*
Y946300D01*
D02*
G37*
G36*
X1649742Y944512D02*
Y937260D01*
X1642489D01*
X1642500Y937341D01*
X1643512Y939783D01*
X1645121Y941881D01*
X1647218Y943490D01*
X1649660Y944502D01*
X1649742Y944512D01*
D02*
G37*
G36*
X1654821D02*
X1654902Y944502D01*
X1657345Y943490D01*
X1659442Y941881D01*
X1661051Y939783D01*
X1662063Y937341D01*
X1662074Y937260D01*
X1654821D01*
Y944512D01*
D02*
G37*
G36*
X1445392Y938530D02*
X1452892D01*
Y932030D01*
X1445392D01*
Y938530D01*
D02*
G37*
G36*
X1457971D02*
X1465471D01*
Y932030D01*
X1457971D01*
Y938530D01*
D02*
G37*
G36*
X1680468Y935990D02*
X1687841D01*
Y928617D01*
X1687729Y928632D01*
X1685258Y929655D01*
X1683135Y931284D01*
X1681507Y933406D01*
X1680483Y935878D01*
X1680468Y935990D01*
D02*
G37*
G36*
X1692921D02*
X1700295D01*
X1700280Y935878D01*
X1699256Y933406D01*
X1697628Y931284D01*
X1695505Y929655D01*
X1693034Y928632D01*
X1692921Y928617D01*
Y935990D01*
D02*
G37*
G36*
X1605412Y934720D02*
X1612912D01*
Y928220D01*
X1605412D01*
Y934720D01*
D02*
G37*
G36*
X1617991D02*
X1625491D01*
Y928220D01*
X1617991D01*
Y934720D01*
D02*
G37*
G36*
X1642489Y932180D02*
X1649742D01*
Y924928D01*
X1649660Y924938D01*
X1647218Y925950D01*
X1645121Y927559D01*
X1643512Y929657D01*
X1642500Y932099D01*
X1642489Y932180D01*
D02*
G37*
G36*
X1654821D02*
X1662074D01*
X1662063Y932099D01*
X1661051Y929657D01*
X1659442Y927559D01*
X1657345Y925950D01*
X1654902Y924938D01*
X1654821Y924928D01*
Y932180D01*
D02*
G37*
G36*
X1389391Y928292D02*
Y921040D01*
X1382139D01*
X1382150Y921121D01*
X1383162Y923563D01*
X1384771Y925661D01*
X1386868Y927270D01*
X1389310Y928282D01*
X1389391Y928292D01*
D02*
G37*
G36*
X1394471D02*
X1394552Y928282D01*
X1396995Y927270D01*
X1399092Y925661D01*
X1400701Y923563D01*
X1401713Y921121D01*
X1401724Y921040D01*
X1394471D01*
Y928292D01*
D02*
G37*
G36*
X1382139Y915960D02*
X1389391D01*
Y908708D01*
X1389310Y908718D01*
X1386868Y909730D01*
X1384771Y911339D01*
X1383162Y913437D01*
X1382150Y915879D01*
X1382139Y915960D01*
D02*
G37*
G36*
X1394471D02*
X1401724D01*
X1401713Y915879D01*
X1400701Y913437D01*
X1399092Y911339D01*
X1396995Y909730D01*
X1394552Y908718D01*
X1394471Y908708D01*
Y915960D01*
D02*
G37*
G36*
X1398282Y868680D02*
X1405534D01*
X1405523Y868599D01*
X1404511Y866157D01*
X1402902Y864059D01*
X1400805Y862450D01*
X1398362Y861438D01*
X1398282Y861428D01*
Y868680D01*
D02*
G37*
G36*
X1719442Y878720D02*
X1737522D01*
Y858640D01*
X1733014D01*
Y849430D01*
X1739131D01*
Y849082D01*
X1809762D01*
Y857090D01*
X1840242D01*
Y832010D01*
X1832742D01*
X1832489Y830740D01*
X1834026Y830104D01*
X1836645Y828094D01*
X1838655Y825474D01*
X1839919Y822424D01*
X1840350Y819150D01*
X1839919Y815876D01*
X1838655Y812826D01*
X1836645Y810206D01*
X1834026Y808196D01*
X1831469Y807137D01*
Y805763D01*
X1834026Y804704D01*
X1836645Y802694D01*
X1838655Y800074D01*
X1839919Y797024D01*
X1840015Y796290D01*
X1825002D01*
X1809988D01*
X1810084Y797024D01*
X1811348Y800074D01*
X1813358Y802694D01*
X1815977Y804704D01*
X1818534Y805763D01*
Y807137D01*
X1815977Y808196D01*
X1813358Y810206D01*
X1812393Y811464D01*
X1770271D01*
Y809110D01*
X1750191D01*
Y829190D01*
X1770271D01*
Y826836D01*
X1812393D01*
X1813358Y828094D01*
X1815977Y830104D01*
X1817514Y830740D01*
X1817261Y832010D01*
X1809762D01*
Y840018D01*
X1739131D01*
Y838350D01*
X1722552D01*
Y849430D01*
X1723949D01*
Y858640D01*
X1719442D01*
Y878720D01*
D02*
G37*
G36*
X1700052Y839930D02*
X1705802D01*
Y836930D01*
X1700052D01*
Y839930D01*
D02*
G37*
G36*
X1710882D02*
X1716631D01*
Y836930D01*
X1710882D01*
Y839930D01*
D02*
G37*
G36*
X1395741Y855947D02*
X1398362Y855602D01*
X1400805Y854590D01*
X1402902Y852981D01*
X1404511Y850883D01*
X1405523Y848441D01*
X1405868Y845820D01*
X1405523Y843199D01*
X1404511Y840757D01*
X1402902Y838659D01*
X1400805Y837050D01*
X1398362Y836038D01*
X1395741Y835693D01*
X1393121Y836038D01*
X1390678Y837050D01*
X1388581Y838659D01*
X1386972Y840757D01*
X1385960Y843199D01*
X1385615Y845820D01*
X1385960Y848441D01*
X1386972Y850883D01*
X1388581Y852981D01*
X1390678Y854590D01*
X1393121Y855602D01*
X1395741Y855947D01*
D02*
G37*
G36*
X1700052Y831850D02*
X1705802D01*
Y828850D01*
X1700052D01*
Y831850D01*
D02*
G37*
G36*
X1710882D02*
X1716631D01*
Y828850D01*
X1710882D01*
Y831850D01*
D02*
G37*
G36*
X1360302Y830460D02*
X1380381D01*
Y810380D01*
X1360302D01*
Y830460D01*
D02*
G37*
G36*
X1395741Y830547D02*
X1398362Y830202D01*
X1400805Y829190D01*
X1402902Y827581D01*
X1404511Y825483D01*
X1405523Y823041D01*
X1405868Y820420D01*
X1405523Y817799D01*
X1404511Y815357D01*
X1402902Y813259D01*
X1400805Y811650D01*
X1398362Y810638D01*
X1395741Y810293D01*
X1393121Y810638D01*
X1390678Y811650D01*
X1388581Y813259D01*
X1386972Y815357D01*
X1385960Y817799D01*
X1385615Y820420D01*
X1385960Y823041D01*
X1386972Y825483D01*
X1388581Y827581D01*
X1390678Y829190D01*
X1393121Y830202D01*
X1395741Y830547D01*
D02*
G37*
G36*
X1565762Y829398D02*
X1568414Y829048D01*
X1570885Y828025D01*
X1573008Y826396D01*
X1574636Y824274D01*
X1575660Y821802D01*
X1576009Y819150D01*
X1575660Y816498D01*
X1574636Y814026D01*
X1573008Y811904D01*
X1570885Y810275D01*
X1568414Y809251D01*
X1565762Y808902D01*
X1563109Y809251D01*
X1560638Y810275D01*
X1558515Y811904D01*
X1556887Y814026D01*
X1555863Y816498D01*
X1555514Y819150D01*
X1555863Y821802D01*
X1556887Y824274D01*
X1558515Y826396D01*
X1560638Y828025D01*
X1563109Y829048D01*
X1565762Y829398D01*
D02*
G37*
G36*
X1722552Y830430D02*
X1739131D01*
Y819350D01*
X1733424D01*
Y811410D01*
X1737932D01*
Y791330D01*
X1719852D01*
Y811410D01*
X1724359D01*
Y819350D01*
X1722552D01*
Y830430D01*
D02*
G37*
G36*
X1809988Y791210D02*
X1822462D01*
Y781102D01*
X1822301D01*
X1819028Y781533D01*
X1815977Y782796D01*
X1813358Y784806D01*
X1811348Y787426D01*
X1810084Y790476D01*
X1809988Y791210D01*
D02*
G37*
G36*
X1827542D02*
X1840015D01*
X1839919Y790476D01*
X1838655Y787426D01*
X1836645Y784806D01*
X1834026Y782796D01*
X1830975Y781533D01*
X1827702Y781102D01*
X1827542D01*
Y791210D01*
D02*
G37*
G36*
X1437652Y788423D02*
Y781050D01*
X1430278D01*
X1430293Y781162D01*
X1431317Y783634D01*
X1432945Y785756D01*
X1435068Y787385D01*
X1437539Y788409D01*
X1437652Y788423D01*
D02*
G37*
G36*
X1442731D02*
X1442844Y788409D01*
X1445315Y787385D01*
X1447438Y785756D01*
X1449066Y783634D01*
X1450090Y781162D01*
X1450105Y781050D01*
X1442731D01*
Y788423D01*
D02*
G37*
G36*
X1430278Y775970D02*
X1437652D01*
Y768597D01*
X1437539Y768612D01*
X1435068Y769635D01*
X1432945Y771264D01*
X1431317Y773386D01*
X1430293Y775858D01*
X1430278Y775970D01*
D02*
G37*
G36*
X1442731D02*
X1450105D01*
X1450090Y775858D01*
X1449066Y773386D01*
X1447438Y771264D01*
X1445315Y769635D01*
X1442844Y768612D01*
X1442731Y768597D01*
Y775970D01*
D02*
G37*
G36*
X1667522Y717084D02*
Y702310D01*
X1657413D01*
Y704770D01*
X1657844Y708044D01*
X1659108Y711094D01*
X1661118Y713714D01*
X1663737Y715724D01*
X1666788Y716987D01*
X1667522Y717084D01*
D02*
G37*
G36*
X1672601D02*
X1673335Y716987D01*
X1676386Y715724D01*
X1679005Y713714D01*
X1681015Y711094D01*
X1682279Y708044D01*
X1682710Y704770D01*
Y702310D01*
X1672601D01*
Y717084D01*
D02*
G37*
G36*
X1657413Y697230D02*
X1667522D01*
Y682456D01*
X1666788Y682553D01*
X1663737Y683816D01*
X1661118Y685826D01*
X1659108Y688446D01*
X1657844Y691496D01*
X1657413Y694770D01*
Y697230D01*
D02*
G37*
G36*
X1672601D02*
X1682710D01*
Y694770D01*
X1682279Y691496D01*
X1681015Y688446D01*
X1679005Y685826D01*
X1676386Y683816D01*
X1673335Y682553D01*
X1672601Y682456D01*
Y697230D01*
D02*
G37*
G36*
X1391931Y717418D02*
X1395205Y716987D01*
X1398256Y715724D01*
X1400875Y713714D01*
X1402885Y711094D01*
X1404149Y708044D01*
X1404580Y704770D01*
Y694770D01*
X1404149Y691496D01*
X1402885Y688446D01*
X1400875Y685826D01*
X1398256Y683816D01*
X1395205Y682553D01*
X1391931Y682122D01*
X1388658Y682553D01*
X1385607Y683816D01*
X1382988Y685826D01*
X1380978Y688446D01*
X1379714Y691496D01*
X1379283Y694770D01*
Y704770D01*
X1379714Y708044D01*
X1380978Y711094D01*
X1382988Y713714D01*
X1385607Y715724D01*
X1388658Y716987D01*
X1391931Y717418D01*
D02*
G37*
G36*
X1760231Y803877D02*
X1762852Y803532D01*
X1765295Y802520D01*
X1767392Y800911D01*
X1769001Y798813D01*
X1770013Y796371D01*
X1770358Y793750D01*
X1770013Y791129D01*
X1769001Y788687D01*
X1767392Y786589D01*
X1765295Y784980D01*
X1764764Y784760D01*
Y680600D01*
X1765692D01*
Y660520D01*
X1747612D01*
Y680600D01*
X1755699D01*
Y784760D01*
X1755168Y784980D01*
X1753071Y786589D01*
X1751462Y788687D01*
X1750450Y791129D01*
X1750105Y793750D01*
X1750450Y796371D01*
X1751462Y798813D01*
X1753071Y800911D01*
X1755168Y802520D01*
X1757610Y803532D01*
X1760231Y803877D01*
D02*
G37*
G36*
X1725612Y680600D02*
X1743692D01*
Y660520D01*
X1739184D01*
Y651310D01*
X1742762D01*
Y649692D01*
X1809762D01*
Y657700D01*
X1840242D01*
Y632620D01*
X1832742D01*
X1832489Y631350D01*
X1834026Y630714D01*
X1836645Y628704D01*
X1838655Y626084D01*
X1839919Y623034D01*
X1840350Y619760D01*
X1839919Y616486D01*
X1838655Y613436D01*
X1836645Y610816D01*
X1834026Y608806D01*
X1831469Y607747D01*
Y606373D01*
X1834026Y605314D01*
X1836645Y603304D01*
X1838655Y600684D01*
X1839919Y597634D01*
X1840015Y596900D01*
X1825002D01*
X1809988D01*
X1810084Y597634D01*
X1811348Y600684D01*
X1813358Y603304D01*
X1815977Y605314D01*
X1818534Y606373D01*
Y607747D01*
X1815977Y608806D01*
X1813358Y610816D01*
X1812393Y612074D01*
X1771541D01*
Y609720D01*
X1751461D01*
Y629800D01*
X1771541D01*
Y627446D01*
X1812393D01*
X1813358Y628704D01*
X1815977Y630714D01*
X1817514Y631350D01*
X1817261Y632620D01*
X1809762D01*
Y640628D01*
X1742762D01*
Y640230D01*
X1726181D01*
Y651310D01*
X1730119D01*
Y660520D01*
X1725612D01*
Y680600D01*
D02*
G37*
G36*
X1703681Y641810D02*
X1709431D01*
Y638810D01*
X1703681D01*
Y641810D01*
D02*
G37*
G36*
X1714512D02*
X1720262D01*
Y638810D01*
X1714512D01*
Y641810D01*
D02*
G37*
G36*
X1703681Y633730D02*
X1709431D01*
Y630730D01*
X1703681D01*
Y633730D01*
D02*
G37*
G36*
X1714512D02*
X1720262D01*
Y630730D01*
X1714512D01*
Y633730D01*
D02*
G37*
G36*
X1347012Y640945D02*
Y626110D01*
X1332177D01*
X1332265Y627008D01*
X1333268Y630315D01*
X1334897Y633362D01*
X1337089Y636033D01*
X1339760Y638224D01*
X1342807Y639853D01*
X1346113Y640856D01*
X1347012Y640945D01*
D02*
G37*
G36*
X1352092D02*
X1352990Y640856D01*
X1356296Y639853D01*
X1359343Y638224D01*
X1362014Y636033D01*
X1364206Y633362D01*
X1365835Y630315D01*
X1366838Y627008D01*
X1366926Y626110D01*
X1352092D01*
Y640945D01*
D02*
G37*
G36*
X1332177Y621030D02*
X1347012D01*
Y606195D01*
X1346113Y606284D01*
X1342807Y607287D01*
X1339760Y608915D01*
X1337089Y611107D01*
X1334897Y613778D01*
X1333268Y616825D01*
X1332265Y620132D01*
X1332177Y621030D01*
D02*
G37*
G36*
X1352092D02*
X1366926D01*
X1366838Y620132D01*
X1365835Y616825D01*
X1364206Y613778D01*
X1362014Y611107D01*
X1359343Y608915D01*
X1356296Y607287D01*
X1352990Y606284D01*
X1352092Y606195D01*
Y621030D01*
D02*
G37*
G36*
X1726181Y632310D02*
X1742762D01*
Y621230D01*
X1739004D01*
Y610750D01*
X1744102D01*
Y590670D01*
X1726022D01*
Y610750D01*
X1729939D01*
Y621230D01*
X1726181D01*
Y632310D01*
D02*
G37*
G36*
X1761501Y604487D02*
X1764122Y604142D01*
X1766565Y603130D01*
X1768662Y601521D01*
X1770271Y599423D01*
X1771283Y596981D01*
X1771628Y594360D01*
X1771283Y591739D01*
X1770271Y589297D01*
X1768662Y587199D01*
X1766565Y585590D01*
X1764122Y584578D01*
X1761501Y584233D01*
X1758880Y584578D01*
X1756438Y585590D01*
X1754341Y587199D01*
X1752732Y589297D01*
X1751720Y591739D01*
X1751375Y594360D01*
X1751720Y596981D01*
X1752732Y599423D01*
X1754341Y601521D01*
X1756438Y603130D01*
X1758880Y604142D01*
X1761501Y604487D01*
D02*
G37*
G36*
X1809988Y591820D02*
X1822462D01*
Y581712D01*
X1822301D01*
X1819028Y582143D01*
X1815977Y583406D01*
X1813358Y585416D01*
X1811348Y588036D01*
X1810084Y591086D01*
X1809988Y591820D01*
D02*
G37*
G36*
X1827542D02*
X1840015D01*
X1839919Y591086D01*
X1838655Y588036D01*
X1836645Y585416D01*
X1834026Y583406D01*
X1830975Y582143D01*
X1827702Y581712D01*
X1827542D01*
Y591820D01*
D02*
G37*
G36*
X1675399Y562242D02*
Y554990D01*
X1668147D01*
X1668157Y555071D01*
X1669169Y557513D01*
X1670778Y559611D01*
X1672875Y561220D01*
X1675318Y562232D01*
X1675399Y562242D01*
D02*
G37*
G36*
X1680479D02*
X1680560Y562232D01*
X1683002Y561220D01*
X1685099Y559611D01*
X1686709Y557513D01*
X1687720Y555071D01*
X1687731Y554990D01*
X1680479D01*
Y562242D01*
D02*
G37*
G36*
X1668147Y549910D02*
X1675399D01*
Y542658D01*
X1675318Y542668D01*
X1672875Y543680D01*
X1670778Y545289D01*
X1669169Y547387D01*
X1668157Y549829D01*
X1668147Y549910D01*
D02*
G37*
G36*
X1680479D02*
X1687731D01*
X1687720Y549829D01*
X1686709Y547387D01*
X1685099Y545289D01*
X1683002Y543680D01*
X1680560Y542668D01*
X1680479Y542658D01*
Y549910D01*
D02*
G37*
G36*
X1554651Y561180D02*
X1579731D01*
Y536100D01*
X1554651D01*
Y561180D01*
D02*
G37*
G36*
X1667899Y537090D02*
X1687979D01*
Y517010D01*
X1667899D01*
Y537090D01*
D02*
G37*
G36*
X1382012Y641110D02*
X1417092D01*
Y616899D01*
X1527665Y506326D01*
X1557283D01*
X1558248Y507584D01*
X1560867Y509594D01*
X1563918Y510857D01*
X1567191Y511288D01*
X1570465Y510857D01*
X1573516Y509594D01*
X1576135Y507584D01*
X1578145Y504964D01*
X1579409Y501914D01*
X1579840Y498640D01*
X1579409Y495366D01*
X1578145Y492316D01*
X1576135Y489696D01*
X1573516Y487686D01*
X1570465Y486423D01*
X1567191Y485992D01*
X1563918Y486423D01*
X1560867Y487686D01*
X1558248Y489696D01*
X1557283Y490954D01*
X1524482D01*
X1522492Y491216D01*
X1520639Y491984D01*
X1519047Y493205D01*
X1406222Y606030D01*
X1382012D01*
Y641110D01*
D02*
G37*
G36*
X1361452Y511655D02*
X1364890Y511316D01*
X1368196Y510313D01*
X1371243Y508685D01*
X1373914Y506493D01*
X1376106Y503822D01*
X1377735Y500775D01*
X1378738Y497468D01*
X1379076Y494030D01*
X1378738Y490592D01*
X1377735Y487285D01*
X1376106Y484238D01*
X1373914Y481567D01*
X1371243Y479375D01*
X1368196Y477747D01*
X1364890Y476744D01*
X1361452Y476405D01*
X1358013Y476744D01*
X1354707Y477747D01*
X1351660Y479375D01*
X1348989Y481567D01*
X1346797Y484238D01*
X1345168Y487285D01*
X1344165Y490592D01*
X1343827Y494030D01*
X1344165Y497468D01*
X1345168Y500775D01*
X1346797Y503822D01*
X1348989Y506493D01*
X1351660Y508685D01*
X1354707Y510313D01*
X1358013Y511316D01*
X1361452Y511655D01*
D02*
G37*
G36*
X1850401Y505305D02*
X1853840Y504966D01*
X1857146Y503963D01*
X1860193Y502335D01*
X1862864Y500143D01*
X1865056Y497472D01*
X1866685Y494425D01*
X1867688Y491118D01*
X1868026Y487680D01*
X1867688Y484242D01*
X1866685Y480935D01*
X1865056Y477888D01*
X1862864Y475217D01*
X1860193Y473026D01*
X1857146Y471397D01*
X1853840Y470394D01*
X1850401Y470055D01*
X1846963Y470394D01*
X1843657Y471397D01*
X1840610Y473026D01*
X1837939Y475217D01*
X1835747Y477888D01*
X1834118Y480935D01*
X1833115Y484242D01*
X1832777Y487680D01*
X1833115Y491118D01*
X1834118Y494425D01*
X1835747Y497472D01*
X1837939Y500143D01*
X1840610Y502335D01*
X1843657Y503963D01*
X1846963Y504966D01*
X1850401Y505305D01*
D02*
G37*
%LPD*%
G36*
X1501974Y922318D02*
X1502193Y921989D01*
X1502565Y920120D01*
X1502193Y918251D01*
X1501526Y917252D01*
X1502205Y915982D01*
X1531884D01*
X1538220Y922318D01*
X1538136Y923588D01*
X1502652D01*
X1501974Y922318D01*
D02*
G37*
G36*
X1536966Y908245D02*
X1536966Y908245D01*
X1535496Y907263D01*
X1533761Y906918D01*
X1502984D01*
X1502261Y905648D01*
X1502565Y904120D01*
X1502193Y902251D01*
X1501135Y900667D01*
X1499550Y899608D01*
X1497681Y899236D01*
X1488957D01*
X1457424Y867703D01*
Y814677D01*
X1462389Y809712D01*
X1485785D01*
X1486216Y810982D01*
X1485015Y811904D01*
X1483387Y814026D01*
X1482363Y816498D01*
X1482348Y816610D01*
X1492262D01*
X1502175D01*
X1502160Y816498D01*
X1501136Y814026D01*
X1499508Y811904D01*
X1498306Y810982D01*
X1498738Y809712D01*
X1510285D01*
X1510717Y810982D01*
X1509515Y811904D01*
X1507887Y814026D01*
X1506863Y816498D01*
X1506514Y819150D01*
X1506863Y821802D01*
X1507887Y824274D01*
X1509454Y826316D01*
X1509505Y826477D01*
X1509337Y827860D01*
X1508559Y828380D01*
X1501492Y835448D01*
X1501492Y835448D01*
X1500972Y836226D01*
X1499588Y836394D01*
X1499428Y836342D01*
X1497385Y834775D01*
X1494914Y833752D01*
X1492262Y833402D01*
X1489609Y833752D01*
X1487138Y834775D01*
X1485015Y836404D01*
X1483387Y838526D01*
X1482363Y840998D01*
X1482014Y843650D01*
X1482363Y846302D01*
X1483387Y848774D01*
X1485015Y850896D01*
X1487138Y852525D01*
X1489609Y853549D01*
X1492262Y853898D01*
X1494914Y853549D01*
X1497385Y852525D01*
X1498894Y851367D01*
X1500164Y851993D01*
Y858259D01*
X1500509Y859993D01*
X1501492Y861464D01*
X1501492Y861464D01*
X1508539Y868511D01*
X1507914Y869681D01*
X1506931Y869486D01*
X1505062Y869858D01*
X1503478Y870917D01*
X1502419Y872501D01*
X1502097Y874120D01*
X1500926Y874745D01*
X1499663Y873482D01*
X1499607Y873062D01*
X1498848Y871227D01*
X1497639Y869652D01*
X1496064Y868444D01*
X1494230Y867684D01*
X1492262Y867425D01*
X1490293Y867684D01*
X1488459Y868444D01*
X1486884Y869652D01*
X1485675Y871227D01*
X1484915Y873062D01*
X1484656Y875030D01*
X1484915Y876998D01*
X1485675Y878832D01*
X1486884Y880408D01*
X1488459Y881616D01*
X1490293Y882376D01*
X1492262Y882635D01*
X1494230Y882376D01*
X1495296Y881934D01*
X1501187Y887825D01*
X1502048Y888400D01*
Y894870D01*
X1502419Y896739D01*
X1503478Y898323D01*
X1505062Y899382D01*
X1506931Y899754D01*
X1508800Y899382D01*
X1510085Y898524D01*
X1510931Y898402D01*
X1511778Y898524D01*
X1513062Y899382D01*
X1514931Y899754D01*
X1516800Y899382D01*
X1518085Y898524D01*
X1518931Y898402D01*
X1519778Y898524D01*
X1521062Y899382D01*
X1522931Y899754D01*
X1524800Y899382D01*
X1526085Y898524D01*
X1526931Y898402D01*
X1527778Y898524D01*
X1529062Y899382D01*
X1530931Y899754D01*
X1532800Y899382D01*
X1534085Y898524D01*
X1534931Y898402D01*
X1535778Y898524D01*
X1537063Y899382D01*
X1538931Y899754D01*
X1540800Y899382D01*
X1542085Y898524D01*
X1542932Y898402D01*
X1543778Y898524D01*
X1545063Y899382D01*
X1546931Y899754D01*
X1548800Y899382D01*
X1550085Y898524D01*
X1550932Y898402D01*
X1551778Y898524D01*
X1553062Y899382D01*
X1554931Y899754D01*
X1556800Y899382D01*
X1558085Y898524D01*
X1558931Y898402D01*
X1559778Y898524D01*
X1561062Y899382D01*
X1562932Y899754D01*
X1564800Y899382D01*
X1566385Y898323D01*
X1567444Y896739D01*
X1567815Y894870D01*
Y886145D01*
X1574399Y879562D01*
X1627300D01*
X1627963Y880832D01*
X1627214Y881954D01*
X1626823Y883920D01*
X1627214Y885887D01*
X1627429Y886209D01*
Y904788D01*
X1621391D01*
X1619657Y905133D01*
X1618187Y906115D01*
X1618082Y906220D01*
X1605412D01*
Y915588D01*
X1597653D01*
X1596974Y914318D01*
X1597194Y913989D01*
X1597565Y912120D01*
X1597194Y910251D01*
X1596335Y908967D01*
X1596214Y908120D01*
X1596335Y907273D01*
X1597194Y905989D01*
X1597565Y904120D01*
X1597194Y902251D01*
X1596135Y900667D01*
X1594550Y899608D01*
X1592681Y899236D01*
X1572182D01*
X1570312Y899608D01*
X1568728Y900667D01*
X1567669Y902251D01*
X1567298Y904120D01*
X1567669Y905989D01*
X1568528Y907273D01*
X1568649Y908120D01*
X1568528Y908967D01*
X1567669Y910251D01*
X1567298Y912120D01*
X1567669Y913989D01*
X1567889Y914318D01*
X1567210Y915588D01*
X1544309D01*
X1536966Y908245D01*
D02*
G37*
G36*
X1527464Y866305D02*
Y865060D01*
X1527119Y863326D01*
X1526136Y861855D01*
X1521294Y857013D01*
Y852770D01*
X1521885Y852525D01*
X1524008Y850896D01*
X1525636Y848774D01*
X1526660Y846302D01*
X1526949Y844106D01*
X1527837Y843246D01*
X1528213Y843063D01*
X1528826Y843185D01*
X1530606D01*
X1531014Y843650D01*
X1531363Y846302D01*
X1532387Y848774D01*
X1534015Y850896D01*
X1536138Y852525D01*
X1538609Y853549D01*
X1540033Y853736D01*
X1540488Y855077D01*
X1528734Y866831D01*
X1527464Y866305D01*
D02*
G37*
G36*
X1641271Y861970D02*
X1696126Y807115D01*
X1696582Y806433D01*
X1697852Y806818D01*
Y811410D01*
X1697852Y811410D01*
X1697851D01*
X1697129Y812343D01*
X1646329Y863143D01*
X1641757D01*
X1641271Y861970D01*
D02*
G37*
%LPC*%
G36*
X1489722Y829063D02*
Y821690D01*
X1482348D01*
X1482363Y821802D01*
X1483387Y824274D01*
X1485015Y826396D01*
X1487138Y828025D01*
X1489609Y829048D01*
X1489722Y829063D01*
D02*
G37*
G36*
X1494801D02*
X1494914Y829048D01*
X1497385Y828025D01*
X1499508Y826396D01*
X1501136Y824274D01*
X1502160Y821802D01*
X1502175Y821690D01*
X1494801D01*
Y829063D01*
D02*
G37*
%LPD*%
G36*
X1560294Y1036320D02*
X1559949Y1034586D01*
X1558966Y1033115D01*
X1549292Y1023441D01*
Y1019762D01*
X1550465Y1019276D01*
X1565714Y1034526D01*
Y1056760D01*
X1560294D01*
Y1036320D01*
D02*
G37*
D10*
X1704532Y1031240D02*
D03*
X1727032Y1021740D02*
D03*
Y1040740D02*
D03*
X1711971Y636270D02*
D03*
X1734471Y626770D02*
D03*
Y645770D02*
D03*
X1708342Y834390D02*
D03*
X1730842Y824890D02*
D03*
Y843890D02*
D03*
D11*
X1750482Y868680D02*
D03*
X1728481D02*
D03*
X1705211Y1064260D02*
D03*
X1727211D02*
D03*
X1756651Y670560D02*
D03*
X1734651D02*
D03*
X1713062Y600710D02*
D03*
X1735061D02*
D03*
X1706891Y801370D02*
D03*
X1728891D02*
D03*
X1424951Y970280D02*
D03*
X1402952D02*
D03*
X1587511Y985520D02*
D03*
X1609512D02*
D03*
D12*
X1498611Y1114650D02*
D03*
Y1136650D02*
D03*
X1727211Y980440D02*
D03*
Y1002440D02*
D03*
X1615452Y915260D02*
D03*
Y937260D02*
D03*
X1421142Y952500D02*
D03*
Y930500D02*
D03*
X1539252Y1043940D02*
D03*
Y1021940D02*
D03*
X1626882Y985520D02*
D03*
Y1007520D02*
D03*
X1455432Y941070D02*
D03*
Y919070D02*
D03*
X1428761Y902970D02*
D03*
Y880970D02*
D03*
D13*
X1582431Y960120D02*
D03*
D14*
Y952120D02*
D03*
Y944120D02*
D03*
Y936120D02*
D03*
Y928120D02*
D03*
Y920120D02*
D03*
Y912120D02*
D03*
Y904120D02*
D03*
X1487431D02*
D03*
Y912120D02*
D03*
Y920120D02*
D03*
Y928120D02*
D03*
Y936120D02*
D03*
Y944120D02*
D03*
Y952120D02*
D03*
Y960120D02*
D03*
D15*
X1562932Y884620D02*
D03*
X1554931D02*
D03*
X1546931D02*
D03*
X1538931D02*
D03*
X1530931D02*
D03*
X1522931D02*
D03*
X1514931D02*
D03*
X1506931D02*
D03*
Y979620D02*
D03*
X1514931D02*
D03*
X1522931D02*
D03*
X1530931D02*
D03*
X1538931D02*
D03*
X1546931D02*
D03*
X1554931D02*
D03*
X1562932D02*
D03*
D16*
X1541382Y1021940D02*
X1539252D01*
X1555762Y1036320D02*
X1541382Y1021940D01*
X1555762Y1036320D02*
Y1064260D01*
X1450352Y894080D02*
X1437242Y880970D01*
X1428761D01*
X1554931Y872050D02*
Y884620D01*
X1559306Y867675D02*
X1554931Y872050D01*
X1727211Y904240D02*
Y980440D01*
X1713062Y600710D02*
X1692921Y620850D01*
Y803910D01*
X1546931Y868140D02*
Y884620D01*
X1706891Y801370D02*
Y808990D01*
X1471942Y1087120D02*
Y1093470D01*
Y1087120D02*
X1427491Y1042670D01*
X1558302Y1066800D02*
X1555762Y1064260D01*
X1760231Y674140D02*
X1756651Y670560D01*
X1760231Y674140D02*
Y793750D01*
X1727032Y1040740D02*
Y1064080D01*
X1681492Y1013460D02*
Y1040540D01*
X1703566Y991385D02*
X1681492Y1013460D01*
X1761501Y991385D02*
X1703566D01*
X1705211Y1064260D02*
X1681492Y1040540D01*
X1761501Y989330D02*
Y991385D01*
Y989330D02*
X1750482Y978310D01*
Y868680D02*
Y978310D01*
X1825002Y844550D02*
X1730181D01*
X1728481Y846250D01*
X1730842Y843890D02*
X1730181Y844550D01*
X1728481Y846250D02*
Y868680D01*
X1825002Y645160D02*
X1734471D01*
X1734651Y645950D02*
Y670560D01*
X1501151Y1090930D02*
X1497341D01*
X1498611Y1094740D02*
Y1114650D01*
X1471942Y1093470D02*
Y1120591D01*
X1489270Y1137920D02*
X1471942Y1120591D01*
X1615452Y1137920D02*
X1489270D01*
X1662442Y1090930D02*
X1615452Y1137920D01*
X1428761Y902970D02*
Y909320D01*
X1438512Y919070D02*
X1428761Y909320D01*
X1455432Y919070D02*
X1438512D01*
X1456481Y920120D02*
X1455432Y919070D01*
X1487431Y920120D02*
X1456481D01*
X1825661Y1040740D02*
X1727032D01*
X1727211Y1002440D02*
Y1021560D01*
X1728891Y801370D02*
Y825570D01*
X1734471Y601300D02*
Y626770D01*
X1504697Y838652D02*
Y858259D01*
X1553327Y838652D02*
X1546259Y831585D01*
X1553327Y838652D02*
Y848648D01*
X1546259Y831585D02*
X1530739D01*
X1518304Y819150D01*
X1516761D01*
X1533354Y838652D02*
X1528826D01*
X1541261Y843650D02*
X1539807Y845105D01*
X1514931Y868494D02*
Y884620D01*
Y868494D02*
X1504697Y858259D01*
X1511764Y831585D02*
X1504697Y838652D01*
X1521759Y831585D02*
X1511764D01*
X1528826Y838652D02*
X1521759Y831585D01*
X1522931Y865060D02*
Y884620D01*
Y865060D02*
X1516761Y858890D01*
Y843650D02*
Y858890D01*
X1527307Y1086365D02*
X1521472Y1092200D01*
X1527307Y1013599D02*
Y1086365D01*
X1520957Y1071125D02*
X1501151Y1090930D01*
X1451622Y970280D02*
X1424951D01*
X1487431Y960120D02*
X1461781D01*
X1451622Y970280D01*
X1520957Y1010969D02*
Y1071125D01*
X1522931Y1008994D02*
X1520957Y1010969D01*
X1522931Y979620D02*
Y1008994D01*
X1530931Y1009974D02*
X1527307Y1013599D01*
X1530931Y979620D02*
Y1009974D01*
X1652281Y960120D02*
X1582431D01*
X1652281Y985520D02*
X1626882D01*
X1609512D01*
X1587511D02*
X1568831D01*
X1562932Y979620D01*
X1570246Y1032649D02*
Y1068585D01*
X1586241Y1084580D02*
X1570246Y1068585D01*
X1586241Y1084580D02*
Y1090930D01*
X1611642D02*
X1576597Y1055885D01*
Y1030019D02*
Y1055885D01*
Y1030019D02*
X1554931Y1008354D01*
Y979620D02*
Y1008354D01*
X1570246Y1032649D02*
X1546931Y1009334D01*
Y979620D02*
Y1009334D01*
X1539252Y1021940D02*
X1538931Y1021620D01*
Y979620D02*
Y1021620D01*
X1487051Y952500D02*
X1389391D01*
X1582431Y920120D02*
X1542811D01*
X1539252Y1043940D02*
Y1137920D01*
X1514931Y979620D02*
Y1004760D01*
X1478291Y1041400D01*
Y1042670D01*
X1506931Y979620D02*
Y988630D01*
X1452892Y1042670D01*
X1402952Y970280D02*
X1381772D01*
X1374151Y943610D02*
Y962660D01*
X1381772Y970280D02*
X1374151Y962660D01*
X1427491Y1042670D02*
X1402952Y1018130D01*
Y970280D02*
Y1018130D01*
X1541261Y816080D02*
Y819150D01*
X1421142Y930500D02*
X1411841Y939800D01*
X1377961D01*
X1374151Y943610D01*
X1506931Y884620D02*
X1504391D01*
X1492262Y872490D02*
Y875030D01*
X1553327Y848648D02*
X1530931Y871042D01*
Y884620D01*
X1541261Y816080D02*
X1530361Y805180D01*
X1460511D01*
X1452892Y812800D01*
X1487431Y904120D02*
X1452892Y869580D01*
X1542811Y928120D02*
X1487431D01*
X1582431Y936120D02*
X1552081D01*
X1542811Y926850D01*
X1533761Y911450D02*
X1487431D01*
X1542811Y920500D02*
X1533761Y911450D01*
X1542811Y920500D02*
Y926850D01*
X1553746Y861325D02*
X1546931Y868140D01*
X1692921Y803910D02*
X1635506Y861325D01*
X1553746D01*
X1706891Y808990D02*
X1648206Y867675D01*
X1559306D01*
X1727211Y904240D02*
X1698002Y875030D01*
X1572521D01*
X1562932Y884620D01*
X1631962Y883920D02*
Y909320D01*
X1652281D02*
X1631962D01*
X1621391D01*
X1615452Y915260D01*
X1615002D01*
X1610141Y920120D02*
X1582431D01*
X1615002Y915260D02*
X1610141Y920120D01*
X1504391Y884620D02*
X1492262Y872490D01*
X1452892Y812800D02*
Y869580D01*
X1387366Y883165D02*
X1383042Y878840D01*
X1406280Y883165D02*
X1387366D01*
X1419420Y870025D02*
X1406280Y883165D01*
X1452892Y869580D02*
X1452446Y870025D01*
X1419420D01*
X1383042Y864870D02*
Y878840D01*
Y864870D02*
X1370341Y852170D01*
Y845820D02*
Y852170D01*
X1539807Y845105D02*
X1533354Y838652D01*
D17*
X1524482Y498640D02*
X1399552Y623570D01*
X1567191Y498640D02*
X1524482D01*
X1826272Y1014730D02*
X1761501D01*
X1825002Y819150D02*
X1760231D01*
X1825002Y619760D02*
X1761501D01*
D18*
X1450352Y894080D02*
D03*
X1492262Y843650D02*
D03*
X1516761D02*
D03*
X1541261D02*
D03*
X1565762D02*
D03*
X1492262Y819150D02*
D03*
X1516761D02*
D03*
X1541261D02*
D03*
X1565762D02*
D03*
X1362722Y1051560D02*
D03*
X1440191Y778510D02*
D03*
X1690381Y938530D02*
D03*
X1729751Y1140460D02*
D03*
D19*
X1399552Y623570D02*
D03*
D20*
X1349552D02*
D03*
X1850401Y487680D02*
D03*
X1852941Y1146810D02*
D03*
X1355101D02*
D03*
X1361452Y494030D02*
D03*
D21*
X1567191Y498640D02*
D03*
D22*
Y548640D02*
D03*
D23*
X1395741Y871220D02*
D03*
X1370341Y845820D02*
D03*
X1395741D02*
D03*
X1370341Y871220D02*
D03*
X1395741Y820420D02*
D03*
X1555762Y1092200D02*
D03*
X1637041Y1090930D02*
D03*
X1611642D02*
D03*
X1586241D02*
D03*
X1652281Y985520D02*
D03*
Y960120D02*
D03*
Y934720D02*
D03*
X1471942Y1093470D02*
D03*
X1497341D02*
D03*
X1522742D02*
D03*
X1451622Y995680D02*
D03*
X1391931Y918500D02*
D03*
X1761501Y989330D02*
D03*
X1760231Y793750D02*
D03*
X1452892Y1042670D02*
D03*
X1478291D02*
D03*
X1503692D02*
D03*
X1761501Y594360D02*
D03*
X1677939Y552450D02*
D03*
D24*
X1370341Y820420D02*
D03*
X1555762Y1066800D02*
D03*
X1652281Y909320D02*
D03*
X1451622Y970280D02*
D03*
X1391931Y952500D02*
D03*
X1761501Y1014730D02*
D03*
X1760231Y819150D02*
D03*
X1761501Y619760D02*
D03*
X1677939Y527050D02*
D03*
D25*
X1391931Y699770D02*
D03*
X1670061D02*
D03*
D26*
X1662442Y1090930D02*
D03*
X1446541Y1093470D02*
D03*
X1427491Y1042670D02*
D03*
D27*
X1825002Y844550D02*
D03*
X1826272Y1040130D02*
D03*
X1825002Y645160D02*
D03*
D28*
Y819150D02*
D03*
Y793750D02*
D03*
X1826272Y1014730D02*
D03*
Y989330D02*
D03*
X1825002Y619760D02*
D03*
Y594360D02*
D03*
D29*
X1492262Y875030D02*
D03*
D30*
X1631962Y883920D02*
D03*
M02*
