G04 Layer_Color=8421504*
%FSLAX24Y24*%
%MOIN*%
G70*
G01*
G75*
%ADD45R,0.0631X0.0552*%
%ADD46O,0.0217X0.1024*%
%ADD47O,0.1024X0.0217*%
%ADD48R,0.1024X0.0217*%
%ADD49R,0.0552X0.0631*%
%ADD50R,0.0276X0.0493*%
%ADD51R,0.0493X0.0276*%
D45*
X26550Y39416D02*
D03*
Y38550D02*
D03*
X28200Y29866D02*
D03*
Y29000D02*
D03*
X28800Y24366D02*
D03*
Y23500D02*
D03*
X38100Y35334D02*
D03*
Y36200D02*
D03*
X37100Y36184D02*
D03*
Y37050D02*
D03*
X30350Y39666D02*
D03*
Y38800D02*
D03*
X33800Y40234D02*
D03*
Y41100D02*
D03*
X39600Y39366D02*
D03*
Y38500D02*
D03*
X30800Y36900D02*
D03*
Y36034D02*
D03*
X38550Y39366D02*
D03*
Y38500D02*
D03*
X27650Y39416D02*
D03*
Y38550D02*
D03*
X26950Y33224D02*
D03*
Y32358D02*
D03*
X27250Y24150D02*
D03*
Y23284D02*
D03*
D46*
X32868Y38568D02*
D03*
X33183D02*
D03*
X33498D02*
D03*
X33813D02*
D03*
X34128D02*
D03*
X34443D02*
D03*
X34757D02*
D03*
X35072D02*
D03*
Y34828D02*
D03*
X34757D02*
D03*
X34443D02*
D03*
X34128D02*
D03*
X33813D02*
D03*
X33498D02*
D03*
X33183D02*
D03*
X32868D02*
D03*
D47*
X35840Y37800D02*
D03*
Y37485D02*
D03*
Y37170D02*
D03*
Y36855D02*
D03*
Y36540D02*
D03*
Y36225D02*
D03*
Y35910D02*
D03*
Y35595D02*
D03*
X32100D02*
D03*
Y35910D02*
D03*
Y36225D02*
D03*
Y36540D02*
D03*
Y36855D02*
D03*
Y37170D02*
D03*
Y37485D02*
D03*
D48*
Y37800D02*
D03*
D49*
X31034Y38800D02*
D03*
X31900D02*
D03*
X28234Y31450D02*
D03*
X29100D02*
D03*
X28784Y25350D02*
D03*
X29650D02*
D03*
X35850Y42050D02*
D03*
X34984D02*
D03*
X27650Y41900D02*
D03*
X26784D02*
D03*
D50*
X27226Y25357D02*
D03*
X27974D02*
D03*
X27600Y26243D02*
D03*
D51*
X27657Y40924D02*
D03*
Y40176D02*
D03*
X28543Y40550D02*
D03*
X28157Y33224D02*
D03*
Y32476D02*
D03*
X29043Y32850D02*
D03*
M02*
