G04 Layer_Color=8388736*
%FSLAX25Y25*%
%MOIN*%
G70*
G01*
G75*
%ADD36R,0.05528X0.03362*%
%ADD37R,0.06906X0.06118*%
%ADD38O,0.02772X0.10842*%
%ADD39O,0.10842X0.02772*%
%ADD40R,0.10842X0.02772*%
%ADD41R,0.06118X0.06906*%
%ADD42C,0.07000*%
%ADD43C,0.06800*%
%ADD44R,0.06906X0.06906*%
%ADD45C,0.06906*%
%ADD46C,0.02969*%
%ADD47C,0.04937*%
%ADD48O,0.11000X0.08000*%
%ADD49R,0.11000X0.08000*%
%ADD50R,0.06906X0.06906*%
%ADD51O,0.08874X0.12811*%
%ADD52C,0.12811*%
%ADD53R,0.08874X0.08874*%
%ADD54C,0.08874*%
%ADD55R,0.12811X0.12811*%
D36*
X681434Y332240D02*
D03*
Y324760D02*
D03*
X672575Y328500D02*
D03*
X682863Y254240D02*
D03*
Y246760D02*
D03*
X674005Y250500D02*
D03*
X679934Y409740D02*
D03*
Y402260D02*
D03*
X671075Y406000D02*
D03*
D37*
X562504Y346839D02*
D03*
Y355500D02*
D03*
X573004Y361839D02*
D03*
Y370500D02*
D03*
X640505Y396661D02*
D03*
Y388000D02*
D03*
X606004Y402339D02*
D03*
Y411000D02*
D03*
X559505Y366339D02*
D03*
Y375000D02*
D03*
X636004Y369000D02*
D03*
Y360339D02*
D03*
X680005Y394661D02*
D03*
Y386000D02*
D03*
X590004Y447500D02*
D03*
Y438839D02*
D03*
D38*
X615327Y385677D02*
D03*
X612178D02*
D03*
X609028D02*
D03*
X605878D02*
D03*
X602729D02*
D03*
X599579D02*
D03*
X596430D02*
D03*
X593280D02*
D03*
Y348276D02*
D03*
X596430D02*
D03*
X599579D02*
D03*
X602729D02*
D03*
X605878D02*
D03*
X609028D02*
D03*
X612178D02*
D03*
X615327D02*
D03*
D39*
X585603Y378000D02*
D03*
Y374850D02*
D03*
Y371701D02*
D03*
Y368551D02*
D03*
Y365402D02*
D03*
Y362252D02*
D03*
Y359102D02*
D03*
Y355953D02*
D03*
X623004D02*
D03*
Y359102D02*
D03*
Y362252D02*
D03*
Y365402D02*
D03*
Y368551D02*
D03*
Y371701D02*
D03*
Y374850D02*
D03*
D40*
Y378000D02*
D03*
D41*
X633666Y388000D02*
D03*
X625004D02*
D03*
X552343Y382000D02*
D03*
X561004D02*
D03*
X680666Y315500D02*
D03*
X672005D02*
D03*
X683095Y236500D02*
D03*
X674434D02*
D03*
X682934Y264000D02*
D03*
X691595D02*
D03*
X680005Y419000D02*
D03*
X671343D02*
D03*
X680505Y342000D02*
D03*
X689166D02*
D03*
D42*
X681004Y449000D02*
D03*
X665505Y369500D02*
D03*
X567004Y306500D02*
D03*
X616441Y322500D02*
D03*
X606796D02*
D03*
X597150D02*
D03*
X587504D02*
D03*
X616441Y332146D02*
D03*
X606796D02*
D03*
X597150D02*
D03*
X587504D02*
D03*
X571004Y352000D02*
D03*
D43*
X536505Y414000D02*
D03*
D44*
X660606Y207500D02*
D03*
X693504Y244000D02*
D03*
X693005Y322500D02*
D03*
X693504Y399500D02*
D03*
X548004Y375000D02*
D03*
X571504Y382000D02*
D03*
X650504Y358000D02*
D03*
X612504Y420000D02*
D03*
X539504Y323000D02*
D03*
D45*
X660606Y217500D02*
D03*
X693504Y234000D02*
D03*
X592004Y410500D02*
D03*
X582004D02*
D03*
X572005D02*
D03*
X693005Y312500D02*
D03*
X693504Y389500D02*
D03*
X548004Y361614D02*
D03*
X571504Y392000D02*
D03*
X599505Y430500D02*
D03*
X589504D02*
D03*
X579504D02*
D03*
X650504Y368000D02*
D03*
Y378000D02*
D03*
Y388000D02*
D03*
X624505Y429500D02*
D03*
X634505D02*
D03*
X644504D02*
D03*
X612504Y430000D02*
D03*
X549505Y323000D02*
D03*
X539504Y343000D02*
D03*
X549505Y333000D02*
D03*
X539504D02*
D03*
X549505Y343000D02*
D03*
D46*
X642505Y348000D02*
D03*
D47*
X587504Y344500D02*
D03*
D48*
X718504Y234000D02*
D03*
Y244000D02*
D03*
X719004Y389500D02*
D03*
Y399500D02*
D03*
X718504Y312500D02*
D03*
Y322500D02*
D03*
D49*
Y254000D02*
D03*
X719004Y409500D02*
D03*
X718504Y332500D02*
D03*
D50*
X562005Y410500D02*
D03*
X569504Y430500D02*
D03*
X654504Y429500D02*
D03*
D51*
X657505Y275500D02*
D03*
X548004D02*
D03*
D52*
X536004Y194500D02*
D03*
X533504Y451500D02*
D03*
X729504D02*
D03*
X728505Y192000D02*
D03*
X531320Y245500D02*
D03*
D53*
X617004Y216000D02*
D03*
D54*
Y196315D02*
D03*
D55*
X551005Y245500D02*
D03*
M02*
