G04 Layer_Color=128*
%FSLAX24Y24*%
%MOIN*%
G70*
G01*
G75*
%ADD85C,0.0020*%
D85*
X28803Y27500D02*
X29197D01*
X29000Y27303D02*
Y27697D01*
X27661Y43600D02*
X27739D01*
X27700Y43561D02*
Y43639D01*
X28161Y36250D02*
X28239D01*
X28200Y36211D02*
Y36289D01*
X30741Y27462D02*
X31135D01*
X30938Y27265D02*
Y27659D01*
X28473Y20750D02*
X28827D01*
X28650Y20573D02*
Y20927D01*
X28473Y21750D02*
X28827D01*
X28650Y21573D02*
Y21927D01*
X29311Y34750D02*
X29389D01*
X29350Y34711D02*
Y34789D01*
X35611Y34450D02*
X35689D01*
X35650Y34411D02*
Y34489D01*
X23073Y24350D02*
X23427D01*
X23250Y24173D02*
Y24527D01*
X22073Y24350D02*
X22427D01*
X22250Y24173D02*
Y24527D01*
X25153Y23350D02*
X25547D01*
X25350Y23153D02*
Y23547D01*
X25153Y24350D02*
X25547D01*
X25350Y24153D02*
Y24547D01*
X25153Y25350D02*
X25547D01*
X25350Y25153D02*
Y25547D01*
X35023Y41050D02*
X35377D01*
X35200Y40873D02*
Y41227D01*
X36023Y41050D02*
X36377D01*
X36200Y40873D02*
Y41227D01*
X37023Y41050D02*
X37377D01*
X37200Y40873D02*
Y41227D01*
X38023Y41050D02*
X38377D01*
X38200Y40873D02*
Y41227D01*
X23073Y32250D02*
X23427D01*
X23250Y32073D02*
Y32427D01*
X22073Y32250D02*
X22427D01*
X22250Y32073D02*
Y32427D01*
X23073Y39950D02*
X23427D01*
X23250Y39773D02*
Y40127D01*
X22073Y39950D02*
X22427D01*
X22250Y39773D02*
Y40127D01*
X25053Y38950D02*
X25447D01*
X25250Y38753D02*
Y39147D01*
X25053Y39950D02*
X25447D01*
X25250Y39753D02*
Y40147D01*
X25053Y40950D02*
X25447D01*
X25250Y40753D02*
Y41147D01*
X25053Y31250D02*
X25447D01*
X25250Y31053D02*
Y31447D01*
X25053Y32250D02*
X25447D01*
X25250Y32053D02*
Y32447D01*
X25053Y33250D02*
X25447D01*
X25250Y33053D02*
Y33447D01*
X39423Y37500D02*
X39777D01*
X39600Y37323D02*
Y37677D01*
X39423Y36161D02*
X39777D01*
X39600Y35984D02*
Y36339D01*
X37273Y39500D02*
X37627D01*
X37450Y39323D02*
Y39677D01*
X37273Y38500D02*
X37627D01*
X37450Y38323D02*
Y38677D01*
X34273Y43050D02*
X34627D01*
X34450Y42873D02*
Y43227D01*
X35273Y43050D02*
X35627D01*
X35450Y42873D02*
Y43227D01*
X36273Y43050D02*
X36627D01*
X36450Y42873D02*
Y43227D01*
X37273Y43050D02*
X37627D01*
X37450Y42873D02*
Y43227D01*
X32606Y32250D02*
X32906D01*
X32756Y32100D02*
Y32400D01*
X33571Y32250D02*
X33871D01*
X33721Y32100D02*
Y32400D01*
X34535Y32250D02*
X34835D01*
X34685Y32100D02*
Y32400D01*
X35500Y32250D02*
X35800D01*
X35650Y32100D02*
Y32400D01*
X32606Y33215D02*
X32906D01*
X32756Y33065D02*
Y33365D01*
X33571Y33215D02*
X33871D01*
X33721Y33065D02*
Y33365D01*
X34535Y33215D02*
X34835D01*
X34685Y33065D02*
Y33365D01*
X35500Y33215D02*
X35800D01*
X35650Y33065D02*
Y33365D01*
X29200Y35800D02*
X29500D01*
X29350Y35650D02*
Y35950D01*
X29200Y36800D02*
X29500D01*
X29350Y36650D02*
Y36950D01*
X29200Y37800D02*
X29500D01*
X29350Y37650D02*
Y37950D01*
X29200Y38800D02*
X29500D01*
X29350Y38650D02*
Y38950D01*
X33000Y42000D02*
X33300D01*
X33150Y41850D02*
Y42150D01*
X33000Y43000D02*
X33300D01*
X33150Y42850D02*
Y43150D01*
X27653Y27500D02*
X28047D01*
X27850Y27303D02*
Y27697D01*
X38403Y27500D02*
X38797D01*
X38600Y27303D02*
Y27697D01*
X39273Y32300D02*
X39627D01*
X39450Y32123D02*
Y32477D01*
X40273Y34300D02*
X40627D01*
X40450Y34123D02*
Y34477D01*
X39273Y33300D02*
X39627D01*
X39450Y33123D02*
Y33477D01*
X40273Y33300D02*
X40627D01*
X40450Y33123D02*
Y33477D01*
X40273Y32300D02*
X40627D01*
X40450Y32123D02*
Y32477D01*
X39273Y34300D02*
X39627D01*
X39450Y34123D02*
Y34477D01*
X32523Y21900D02*
X32877D01*
X32700Y21723D02*
Y22077D01*
X32523Y19931D02*
X32877D01*
X32700Y19754D02*
Y20109D01*
X39732Y24150D02*
X40205D01*
X39969Y23914D02*
Y24386D01*
X37764Y24150D02*
X38236D01*
X38000Y23914D02*
Y24386D01*
X37000Y35350D02*
X37300D01*
X37150Y35200D02*
Y35500D01*
X31800Y42950D02*
X32100D01*
X31950Y42800D02*
Y43100D01*
X30800Y42950D02*
X31100D01*
X30950Y42800D02*
Y43100D01*
X29800Y42950D02*
X30100D01*
X29950Y42800D02*
Y43100D01*
X28800Y42950D02*
X29100D01*
X28950Y42800D02*
Y43100D01*
X40056Y43450D02*
X40844D01*
X40450Y43056D02*
Y43844D01*
X40056Y19700D02*
X40844D01*
X40450Y19306D02*
Y20094D01*
X22441Y19700D02*
X23228D01*
X22835Y19306D02*
Y20094D01*
X22441Y43450D02*
X23228D01*
X22835Y43056D02*
Y43844D01*
X34211Y37250D02*
X34289D01*
X34250Y37211D02*
Y37289D01*
X31211Y25000D02*
X31289D01*
X31250Y24961D02*
Y25039D01*
X38111Y20600D02*
X38189D01*
X38150Y20561D02*
Y20639D01*
X40861Y29300D02*
X40939D01*
X40900Y29261D02*
Y29339D01*
X24011Y28750D02*
X24089D01*
X24050Y28711D02*
Y28789D01*
X23611Y26950D02*
X23689D01*
X23650Y26911D02*
Y26989D01*
X23961Y18650D02*
X24039D01*
X24000Y18611D02*
Y18689D01*
X38211Y18750D02*
X38289D01*
X38250Y18711D02*
Y18789D01*
X24811Y43700D02*
X24889D01*
X24850Y43661D02*
Y43739D01*
X24211Y36450D02*
X24289D01*
X24250Y36411D02*
Y36489D01*
X36511Y24700D02*
X36589D01*
X36550Y24661D02*
Y24739D01*
X40611Y41600D02*
X40689D01*
X40650Y41561D02*
Y41639D01*
M02*
