M48
;Layer_Color=9474304
;FILE_FORMAT=4:4
METRIC,LZ
;TYPE=PLATED
T1F00S00C0.2000
T2F00S00C0.7620
T3F00S00C0.9000
T4F00S00C1.0000
T5F00S00C1.2000
T6F00S00C2.0000
%
T01
X0076581Y00889
X0090551Y0087503
T02
X0098044Y006985
X0079121Y0069215
X0070231Y006985
X0071628Y0092075
X0070358Y0110744
X0083201Y0084365
X0085651
X0088101
X0090551
Y0081915
X0088101
X0085651
X0083201
X0094361Y0089789
T03
X0083058Y0050626
Y0055626
X0072771Y0055245
Y0052705
X005969Y0059309
Y0061849
X0059309Y0079375
Y0081915
X0059944Y009906
Y01016
X0074549Y0098552
Y0096012
Y0093472
Y0090932
X0073533Y0109093
X0076073
X0078613
X0081153
X0084201Y010922
Y010668
X0087503Y0109347
X0090043
X0092583
X0095123
X0094488Y0104267
X0097028
X0091948
X0089408
X0094742Y010033
Y009779
X0100584Y009525
Y009185
X0100203Y0087122
Y0084582
X0102743
Y0082042
X0100203
X0102743Y0087122
T04
X0064389Y0059309
Y0061849
Y0064389
X0064135Y0079375
Y0081915
Y0084455
Y0098933
Y0101473
Y0104013
T05
X009652Y0061341
X010152
T06
X0102743Y0050038
X0058
Y0110363
X0102743
M30
